<?xml version="1.0" encoding="UTF-8" standalone="no"?>
<svg width="12px" height="12px" viewBox="0 0 12 12" version="1.1" xmlns="http://www.w3.org/2000/svg" xmlns:xlink="http://www.w3.org/1999/xlink">
    <defs>
        <polygon id="path-1" points="11.7637895 11.8509332 11.7637895 0.233278107 0.000157894737 0.233278107 0.000157894737 11.8509332 11.7637895 11.8509332"></polygon>
    </defs>
    <g id="Guide-cards" stroke="none" stroke-width="1" fill="none" fill-rule="evenodd" opacity="0.400244869">
        <g id="Home-TMJ" transform="translate(-551.000000, -354.000000)">
            <g id="facebook" transform="translate(551.000000, 354.000000)">
                <g>
                    <g id="Group-3" transform="translate(0.000000, 0.078747)">
                        <mask id="mask-2" fill="white">
                            <use xlink:href="#path-1"></use>
                        </mask>
                        <g id="Clip-2"></g>
                        <path d="M11.7639474,6.04205889 C11.7639474,9.2502566 9.13057895,11.8509332 5.88205263,11.8509332 C2.63352632,11.8509332 0.000157894737,9.2502566 0.000157894737,6.04205889 C0.000157894737,2.83386119 2.63352632,0.233184546 5.88205263,0.233184546 C9.13057895,0.233184546 11.7639474,2.83386119 11.7639474,6.04205889" id="Fill-1" fill="#000000" mask="url(#mask-2)"></path>
                    </g>
                    <path d="M6.71425263,3.64041712 L7.68688421,3.64041712 L7.68688421,2.22172447 L6.54341053,2.22172447 L6.54341053,2.22671438 C5.15835789,2.27505409 4.87446316,3.04412336 4.84951579,3.85186439 L4.84667368,3.85186439 L4.84667368,4.56043105 L3.90341053,4.56043105 L3.90341053,5.94980801 L4.84667368,5.94980801 L4.84667368,9.67414911 L6.26804211,9.67414911 L6.26804211,5.94980801 L7.43267368,5.94980801 L7.65751579,4.56043105 L6.26867368,4.56043105 L6.26867368,4.13223474 C6.26867368,3.85934925 6.45246316,3.64041712 6.71425263,3.64041712" id="Fill-4" fill="#FFFFFF"></path>
                </g>
            </g>
        </g>
    </g>
</svg>
