<?xml version="1.0" encoding="UTF-8" standalone="no"?>
<svg width="22px" height="22px" viewBox="0 0 22 22" version="1.1" xmlns="http://www.w3.org/2000/svg" xmlns:xlink="http://www.w3.org/1999/xlink">
    <g id="Admin" stroke="none" stroke-width="1" fill="none" fill-rule="evenodd" stroke-linecap="round" opacity="0.5" stroke-linejoin="round">
        <g id="Amin-1" transform="translate(-50.000000, -139.000000)" stroke="#FFFFFF">
            <g id="Page-1" transform="translate(51.000000, 140.000000)">
                <path d="M19.695102,10.1034694 C19.6383673,15.4573469 15.2522449,19.7516327 9.89836735,19.6953061 C4.5444898,19.6385714 0.250204082,15.252449 0.306530612,9.89816327 C0.363265306,4.54428571 4.74938776,0.25 10.1032653,0.306734694 C15.457551,0.363469388 19.7518367,4.74959184 19.695102,10.1034694 L19.695102,10.1034694 Z" id="Stroke-1"></path>
                <polyline id="Stroke-3" points="10.1034694 0.306693878 10.0010204 10.0009796 16.7344898 16.8785306"></polyline>
                <path d="M10.0649388,3.94636735 L13.162898,0.913306122" id="Stroke-5"></path>
                <path d="M10.0269796,8.07640816 L15.8273878,2.38620408" id="Stroke-7"></path>
                <path d="M15.3237143,15.1209796 L19.6686122,10.8924082" id="Stroke-9"></path>
                <path d="M11.0968163,11.1055102 L17.8727347,4.47163265" id="Stroke-11"></path>
                <path d="M13.1359592,13.183551 L19.2800408,7.17620408" id="Stroke-13"></path>
            </g>
        </g>
    </g>
</svg>
