<?xml version="1.0" encoding="UTF-8" standalone="no"?>
<svg width="33px" height="33px" viewBox="0 0 33 33" version="1.1" xmlns="http://www.w3.org/2000/svg" xmlns:xlink="http://www.w3.org/1999/xlink">
    <!-- Generator: sketchtool 40 (33762) - http://www.bohemiancoding.com/sketch -->
    <title>D327815B-D8F8-4190-AEA9-F5DAD874DC7A</title>
    <desc>Created with sketchtool.</desc>
    <defs></defs>
    <g id="Admin" stroke="none" stroke-width="1" fill="none" fill-rule="evenodd">
        <g id="Admin-3" transform="translate(-1279.000000, -76.000000)" stroke="#383838" fill="#68A6EF">
            <g id="deselect-all" transform="translate(1280.000000, 77.000000)">
                <g id="Page-1">
                    <polygon id="Stroke-2" points="0.369047619 8.84127381 8.84164286 8.84127381 8.84164286 0.368678571 0.369047619 0.368678571"></polygon>
                    <polygon id="Stroke-5" points="11.6655952 8.84127381 20.1381905 8.84127381 20.1381905 0.368678571 11.6655952 0.368678571"></polygon>
                    <polygon id="Stroke-8" points="0.369047619 19.7540119 8.84164286 19.7540119 8.84164286 11.2814167 0.369047619 11.2814167"></polygon>
                    <polygon id="Stroke-11" points="11.6655952 19.7540119 20.1381905 19.7540119 20.1381905 11.2814167 11.6655952 11.2814167"></polygon>
                    <polygon id="Stroke-13" points="22.962881 8.84127381 31.4354762 8.84127381 31.4354762 0.368678571 22.962881 0.368678571"></polygon>
                    <polygon id="Stroke-16" points="22.962881 19.7540119 31.4354762 19.7540119 31.4354762 11.2814167 22.962881 11.2814167"></polygon>
                    <polygon id="Stroke-19" points="0.369047619 30.6674881 8.84164286 30.6674881 8.84164286 22.1948929 0.369047619 22.1948929"></polygon>
                    <polygon id="Stroke-22" points="11.6655952 30.6674881 20.1381905 30.6674881 20.1381905 22.1948929 11.6655952 22.1948929"></polygon>
                    <polygon id="Stroke-25" points="22.962881 30.6674881 31.4354762 30.6674881 31.4354762 22.1948929 22.962881 22.1948929"></polygon>
                </g>
            </g>
        </g>
    </g>
</svg>