<?xml version="1.0" encoding="UTF-8" standalone="no"?>
<svg width="22px" height="22px" viewBox="0 0 22 22" version="1.1" xmlns="http://www.w3.org/2000/svg" xmlns:xlink="http://www.w3.org/1999/xlink">
    <defs></defs>
    <g id="Admin" stroke="none" stroke-width="1" fill="none" fill-rule="evenodd">
        <g id="Admin-Destaques-2" transform="translate(-855.000000, -407.000000)" fill="#000000">
            <path d="M856.375,421.4375 L875.625,421.4375 L875.625,408.375 L856.375,408.375 L856.375,421.4375 Z M875.796875,407 L856.203125,407 C855.539,407 855,407.5775 855,408.289062 L855,421.523438 C855,422.235 855.539,422.8125 856.203125,422.8125 L875.796875,422.8125 C876.461,422.8125 877,422.235 877,421.523438 L877,408.289062 C877,407.5775 876.461,407 875.796875,407 L875.796875,407 Z M870.8125,427.625 L869.4375,427.625 C868.6785,427.625 868.0625,427.009 868.0625,426.25 L868.0625,424.1875 L863.9375,424.1875 L863.9375,426.25 C863.9375,427.009 863.3215,427.625 862.5625,427.625 L861.1875,427.625 C860.807312,427.625 860.5,427.933 860.5,428.3125 C860.5,428.692687 860.807312,429 861.1875,429 L870.8125,429 C871.192688,429 871.5,428.692687 871.5,428.3125 C871.5,427.933 871.192688,427.625 870.8125,427.625 L870.8125,427.625 Z" id="desktop"></path>
        </g>
    </g>
</svg>
