<?xml version="1.0" encoding="UTF-8" standalone="no"?>
<svg width="14px" height="22px" viewBox="0 0 14 22" version="1.1" xmlns="http://www.w3.org/2000/svg" xmlns:xlink="http://www.w3.org/1999/xlink">
    <!-- Generator: sketchtool 40 (33762) - http://www.bohemiancoding.com/sketch -->
    <title>F51736ED-4DC7-4BDD-A6D5-868E179AA771</title>
    <desc>Created with sketchtool.</desc>
    <defs></defs>
    <g id="Admin" stroke="none" stroke-width="1" fill="none" fill-rule="evenodd">
        <g id="Admin-Destaques-2" transform="translate(-859.000000, -451.000000)" fill="#000000">
            <path d="M867.4,453.0625 L864.6,453.0625 C864.2129,453.0625 863.9,453.369813 863.9,453.75 C863.9,454.130187 864.2129,454.4375 864.6,454.4375 L867.4,454.4375 C867.7871,454.4375 868.1,454.130187 868.1,453.75 C868.1,453.369813 867.7871,453.0625 867.4,453.0625 L867.4,453.0625 Z M866,470.9375 C866.5803,470.9375 867.05,470.4755 867.05,469.90625 C867.05,469.337 866.5803,468.875 866,468.875 C865.4197,468.875 864.95,469.337 864.95,469.90625 C864.95,470.4755 865.4197,470.9375 866,470.9375 L866,470.9375 Z M871.6,455.125 L860.4,455.125 L860.4,452.976562 C860.4,452.645188 860.6359,452.375 860.925,452.375 L871.075,452.375 C871.3641,452.375 871.6,452.645188 871.6,452.976562 L871.6,455.125 Z M860.4,466.8125 L871.6,466.8125 L871.6,456.5 L860.4,456.5 L860.4,466.8125 Z M871.6,471.023438 C871.6,471.354812 871.3641,471.625 871.075,471.625 L860.925,471.625 C860.6359,471.625 860.4,471.354812 860.4,471.023438 L860.4,468.1875 L871.6,468.1875 L871.6,471.023438 Z M871.075,451 L860.925,451 C859.8631,451 859,451.886875 859,452.976562 L859,471.023438 C859,472.113125 859.8631,473 860.925,473 L871.075,473 C872.1369,473 873,472.113125 873,471.023438 L873,452.976562 C873,451.886875 872.1369,451 871.075,451 L871.075,451 Z" id="mobile"></path>
        </g>
    </g>
</svg>