<?xml version="1.0" encoding="UTF-8"?>
<svg width="205px" height="169px" viewBox="0 0 205 169" version="1.1" xmlns="http://www.w3.org/2000/svg" xmlns:xlink="http://www.w3.org/1999/xlink">
    <!-- Generator: sketchtool 40 (33762) - http://www.bohemiancoding.com/sketch -->
    <title>EB90776B-45F1-4C70-8505-0B78E3EACE4C</title>
    <desc>Created with sketchtool.</desc>
    <defs></defs>
    <g id="Feito-por-você" stroke="none" stroke-width="1" fill="none" fill-rule="evenodd">
        <g id="feito-por-você-mobile-2" transform="translate(-68.000000, -304.000000)">
            <g id="balao" transform="translate(51.000000, 305.000000)">
                <g id="Group-40" transform="translate(18.000000, 0.000000)" stroke="#000000" stroke-width="1.5" stroke-linecap="round" stroke-linejoin="round">
                    <path d="M17.9443111,103.378939 C17.9443111,103.378939 9.53010766,95.3335507 22.5125949,80.9245835 C35.4950821,66.5146618 18.6657197,63.872636 18.6657197,63.872636 C18.6657197,63.872636 1.2353427,60.029863 3.63940083,49.3434032 C6.04345896,38.6559889 13.7372094,36.37476 29.0033607,35.0537471 C29.0033607,35.0537471 23.835018,18.4828622 32.6094479,14.2802467 C41.3848334,10.0776313 51.482642,13.8001387 59.1754369,21.1248879 C59.1754369,21.1248879 61.639692,22.9260088 65.0651882,15.8417909 C69.5216775,6.62524427 83.4568062,2.15250843 95.4780524,3.71405257 C107.499299,5.27464222 109.061554,19.2035014 111.22578,21.0046223 C113.38905,22.8057432 118.31756,15.6012596 132.140894,17.2821149 C145.965184,18.9639247 155.701811,22.2053696 158.226263,30.3710237 C160.750715,38.5366778 148.970257,43.6995093 145.604002,47.1824399 C142.238703,50.6644161 137.069405,52.465537 144.763155,60.029863 C152.45595,67.5951435 160.509927,83.0855468 146.926425,87.6489591 C133.342923,92.2114169 126.130749,87.5286935 126.130749,87.5286935 C126.130749,87.5286935 124.361148,115.643169 130.097063,114.066353 C134.300343,112.910467 139.158145,98.4346857 147.319139,98.5931309 C155.481088,98.7525306 158.466095,103.139362 160.750715,119.469716 C163.034379,135.80007 178.420924,156.934367 201.140038,168.702263 C201.140038,168.702263 171.329144,161.618045 156.90384,136.76124 C142.478535,111.904436 142.839718,119.229185 142.839718,119.229185 C142.839718,119.229185 139.593857,131.117346 130.818471,129.796334 C122.044041,128.475321 114.591079,119.829559 110.263583,93.0523218 C110.263583,93.0523218 98.6035191,111.424328 85.6210319,111.304062 C72.6385446,111.183796 71.9171361,97.3752029 71.4365156,95.0939739 C70.9558951,92.8117905 67.7100344,88.3686439 58.2141959,94.8534427 C48.7174018,101.337287 25.3972735,112.984917 17.9443111,103.378939 L17.9443111,103.378939 Z" id="Page-1" fill="#000000" transform="translate(102.275901, 86.055195) rotate(-1.000000) translate(-102.275901, -86.055195) "></path>
                    <path d="M14.5325464,99.9708127 C14.5325464,99.9708127 6.11834296,91.9254242 19.1008302,77.516457 C32.0833174,63.1065353 15.253955,60.4645095 15.253955,60.4645095 C15.253955,60.4645095 -2.17642201,56.6217365 0.227636127,45.9352767 C2.63169426,35.2478624 10.3254447,32.9666335 25.591596,31.6456206 C25.591596,31.6456206 20.4232532,15.0747356 29.1976832,10.8721202 C37.9730687,6.66950476 48.0708773,10.3920122 55.7636722,17.7167614 C55.7636722,17.7167614 58.2279273,19.5178823 61.6534235,12.4336643 C66.1099128,3.21711775 80.0450415,-1.2556181 92.0662877,0.305926041 C104.087534,1.86651569 105.649789,15.7953749 107.814015,17.5964958 C109.977285,19.3976167 114.905795,12.1931331 128.72913,13.8739884 C142.553419,15.5557981 152.290046,18.7972431 154.814498,26.9628972 C157.33895,35.1285513 145.558492,40.2913827 142.192237,43.7743134 C138.826938,47.2562896 133.65764,49.0574105 141.35139,56.6217365 C149.044185,64.1870169 157.098162,79.6774203 143.514661,84.2408326 C129.931159,88.8032904 122.718984,84.1205669 122.718984,84.1205669 C122.718984,84.1205669 120.949384,112.235043 126.685298,110.658227 C130.888578,109.502341 135.74638,95.0265592 143.907374,95.1850044 C152.069324,95.3444041 155.054331,99.7312359 157.33895,116.06159 C159.622614,132.391943 175.00916,153.526241 197.728274,165.294137 C197.728274,165.294137 167.917379,158.209919 153.492075,133.353114 C139.066771,108.496309 139.427953,115.821058 139.427953,115.821058 C139.427953,115.821058 136.182092,127.70922 127.406707,126.388207 C118.632277,125.067194 111.179314,116.421432 106.851819,89.6441953 C106.851819,89.6441953 95.1917544,108.016201 82.2092672,107.895936 C69.2267799,107.77567 68.5053714,93.9670763 68.0247509,91.6858474 C67.5441303,89.403664 64.2982697,84.9605173 54.8024311,91.4453162 C45.3056371,97.9291605 21.9855088,109.576791 14.5325464,99.9708127 L14.5325464,99.9708127 Z" id="Page-1" fill="#FFFFFF"></path>
                </g>
                <text id="vem-aqui-ver-quanta" font-family="KomikaTitle, Komika Title" font-size="16" font-weight="normal" line-spacing="18" fill="#000000">
                    <tspan x="70.144" y="39.9680176">vem aqui </tspan>
                    <tspan x="61.736" y="57.9680176">ver quanta </tspan>
                    <tspan x="60.72" y="75.9680176">coisa linda!</tspan>
                </text>
            </g>
        </g>
    </g>
</svg>