<?xml version="1.0" encoding="UTF-8" standalone="no"?>
<svg width="48px" height="43px" viewBox="0 0 48 43" version="1.1" xmlns="http://www.w3.org/2000/svg" xmlns:xlink="http://www.w3.org/1999/xlink">
    <defs></defs>
    <g id="Styleguide" stroke="none" stroke-width="1" fill="none" fill-rule="evenodd" stroke-linecap="round" stroke-linejoin="round">
        <g id="Styleguide-Motions" transform="translate(-975.000000, -394.000000)" stroke="#000000" fill="#FFFFFF">
            <path d="M1021.10245,409.281756 C1019.76641,406.505692 1017.19972,404.724539 1014.37238,404.268034 C1014.56966,402.742552 1014.34817,401.14514 1013.63101,399.656692 C1011.66398,395.566662 1006.75281,393.846756 1002.66278,395.8145 C1001.43356,396.406318 1000.42298,397.266627 999.658107,398.287888 C996.993855,395.997529 993.126737,395.358707 989.758142,396.97962 C986.249961,398.667479 984.324236,402.3067 984.634745,405.967999 C983.555085,406.077674 982.476138,406.361121 981.442058,406.859644 C976.662642,409.15855 974.652168,414.897267 976.951786,419.676684 C978.277858,422.433519 980.749822,424.260963 983.520901,424.879845 C983.322916,426.624677 983.588558,428.442151 984.406136,430.141404 C986.717861,434.945746 992.48649,436.966191 997.290832,434.655178 C998.444558,434.100393 999.433059,433.341213 1000.24423,432.448856 C1003.33151,434.61316 1007.46356,435.096016 1011.10278,433.344774 C1015.69276,431.136315 1017.99451,426.100515 1016.94548,421.333206 C1021.39587,419.137566 1023.25892,413.764195 1021.10245,409.281756 L1021.10245,409.281756 Z" id="Page-1-Copy-5"></path>
        </g>
    </g>
</svg>
