<?xml version="1.0" encoding="UTF-8" standalone="no"?>
<svg width="32px" height="32px" viewBox="0 0 32 32" version="1.1" xmlns="http://www.w3.org/2000/svg" xmlns:xlink="http://www.w3.org/1999/xlink">
    <!-- Generator: sketchtool 40 (33762) - http://www.bohemiancoding.com/sketch -->
    <title>A96D066B-5092-42A3-98C7-501FE992F68C</title>
    <desc>Created with sketchtool.</desc>
    <defs></defs>
    <g id="Styleguide" stroke="none" stroke-width="1" fill="none" fill-rule="evenodd">
        <g transform="translate(-970.000000, -427.000000)" id="copy_link">
            <g transform="translate(970.000000, 427.000000)">
                <path d="M31.4359454,16.0045177 C31.4359454,24.8436927 24.398891,32.0090354 15.7179727,32.0090354 C7.03705434,32.0090354 0,24.8436927 0,16.0045177 C0,7.1653427 7.03705434,0 15.7179727,0 C24.398891,0 31.4359454,7.1653427 31.4359454,16.0045177" id="Fill-1" fill="#000000"></path>
                <g id="Page-1" transform="translate(6.000000, 6.000000)" fill="#FFFFFF">
                    <path d="M18.6129263,1.51127843 C16.6807522,-0.406520757 13.979521,-0.510270036 12.1898459,1.26471764 L10.9289172,2.51720894 C10.442983,2.99908059 10.4395456,3.78282515 10.9229797,4.26875928 C11.4051639,4.7546934 12.1885959,4.75688089 12.67453,4.27500923 L13.9354588,3.02376792 C14.8632648,2.10314931 16.0766939,2.48533416 16.8676259,3.27032871 C17.290123,3.6890758 17.5219964,4.24438445 17.5219964,4.83500534 C17.5219964,5.42593874 17.290123,5.98124738 16.8676259,6.39999448 L12.894216,10.3418421 C11.0767286,12.1446421 10.2245471,11.2987105 9.86111207,10.937463 C9.37486545,10.4552788 8.5898709,10.4590288 8.10768675,10.9434004 C7.6255026,11.4293345 7.62831508,12.2143291 8.11393671,12.6965132 C8.94924341,13.5240075 9.90142429,13.9343172 10.8982924,13.9343172 C12.1217214,13.9343172 13.4117124,13.3190089 14.6398289,12.1005799 L18.6144888,8.15779477 C19.5079201,7.27030093 19.9997917,6.08999663 19.9997917,4.83406785 C19.9997917,3.57907657 19.5079201,2.39877226 18.6129263,1.51127843 M7.32425469,15.8677412 L6.31238672,16.8724217 C5.43583031,17.7417907 4.00896521,17.7427282 3.1320963,16.8724217 C2.70991174,16.4549246 2.47960084,15.899616 2.47960084,15.3086826 C2.47960084,14.7177492 2.70991174,14.1624406 3.13115881,13.744006 L6.85644544,10.0487191 C7.62831508,9.28216196 9.08111749,8.15529479 10.1389226,9.20528749 C10.6248568,9.68747165 11.4098513,9.68497166 11.8920355,9.19903754 C12.3742196,8.71341591 12.3717196,7.92842136 11.886098,7.44623721 C10.086423,5.6615621 7.42706648,5.99124731 5.11083256,8.28966885 L1.38585843,11.9846432 C0.492114638,12.872137 -6.94444443e-05,14.0527538 -6.94444443e-05,15.3086826 C-6.94444443e-05,16.5649239 0.492114638,17.7439782 1.38585843,18.631472 C2.30585204,19.5433407 3.51334366,19.9999 4.72146027,19.9999 C5.93051437,19.9999 7.13863098,19.5433407 8.05924959,18.631472 L9.07080506,17.6255415 C9.55705169,17.1433574 9.55923917,16.3596128 9.07705502,15.8739912 C8.59487087,15.3880571 7.81018882,15.3855571 7.32425469,15.8677412" id="Fill-1"></path>
                </g>
            </g>
        </g>
    </g>
</svg>