<?xml version="1.0" encoding="UTF-8" standalone="no"?>
<svg width="69px" height="37px" viewBox="0 0 69 37" version="1.1" xmlns="http://www.w3.org/2000/svg" xmlns:xlink="http://www.w3.org/1999/xlink">
    <!-- Generator: sketchtool 40 (33762) - http://www.bohemiancoding.com/sketch -->
    <title>2B44C84A-5385-4ADB-812F-FFA055FFAA30</title>
    <desc>Created with sketchtool.</desc>
    <defs></defs>
    <g id="Guide-cards" stroke="none" stroke-width="1" fill="none" fill-rule="evenodd">
        <g id="Home-TMJ-mobile-Copy-13" transform="translate(-136.000000, -293.000000)">
            <g id="Page-1" transform="translate(136.000000, 293.000000)">
                <polygon id="Stroke-1" stroke="#231F1F" stroke-width="1.102" stroke-linecap="round" stroke-linejoin="round" fill="#000000" points="64.6830696 35.6959833 4.79954783 35.6959833 2.79085217 2.78115 67.696113 2.78115"></polygon>
                <polygon id="Stroke-1" stroke="#231F1F" stroke-width="1.102" stroke-linecap="round" stroke-linejoin="round" fill="#FFFFFF" points="62.6830696 33.6959833 2.79954783 33.6959833 0.790852174 0.78115 65.696113 0.78115"></polygon>
                <path d="M24.7894565,11.2479083 C24.1323261,11.347075 23.4479348,11.4646583 22.740587,11.597825 C22.6057174,12.1489083 22.4823261,12.7679917 22.3732826,13.459325 C22.2642391,14.1506583 22.1250652,14.878825 21.9557609,15.6452417 C22.2599348,15.592825 22.5626739,15.5531583 22.8668478,15.5191583 C23.1710217,15.4851583 23.4823696,15.4624917 23.8023261,15.4454917 C24.3088043,15.3944917 24.6789783,15.6197417 24.9157174,16.1184083 C25.050587,16.4187417 25.1553261,16.7134083 25.2328043,17.0052417 C25.3088478,17.297075 25.3791522,17.5832417 25.446587,17.866575 C25.5312391,18.1994917 25.5355435,18.4332417 25.4595,18.567825 C25.3834565,18.699575 25.2026739,18.7902417 24.9157174,18.8412417 C24.324587,18.9729917 23.7133696,19.124575 23.0820652,19.2917417 C22.4493261,19.4574917 21.8366739,19.6317417 21.2469783,19.8159083 C21.0274565,21.015825 20.8308913,22.1746583 20.654413,23.2994917 C20.4765,24.4229083 20.3201087,25.435825 20.1852391,26.3339917 C20.1680217,26.634325 20.0661522,26.817075 19.8825,26.8822417 C19.6959783,26.9502417 19.4764565,26.9502417 19.2239348,26.8822417 C18.9699783,26.817075 18.7045435,26.7079917 18.4276304,26.5606583 C18.1492826,26.409075 17.8996304,26.2674083 17.6815435,26.1356583 C17.4118043,25.9359083 17.2511087,25.7177417 17.1994565,25.4839917 C17.1492391,25.253075 17.1334565,24.9187417 17.1492391,24.4866583 C17.1836739,24.0361583 17.2511087,23.421325 17.3515435,22.6364917 C17.453413,21.8559083 17.5725,20.9804083 17.7059348,20.0142417 C17.8422391,19.0494917 17.9842826,18.032325 18.1363696,16.9669917 C18.2884565,15.9016583 18.4233261,14.853325 18.542413,13.820575 C18.6586304,12.7892417 18.7518913,11.818825 18.8193261,10.9107417 C18.8867609,10.004075 18.912587,9.22490833 18.8953696,8.57465833 C19.3171957,8.427325 19.7892391,8.28849167 20.3115,8.163825 C20.8337609,8.03774167 21.3861522,7.930075 21.9686739,7.83940833 C22.5497609,7.747325 23.1408913,7.66940833 23.7391957,7.60140833 C24.3375,7.534825 24.9329348,7.48524167 25.5226304,7.449825 C25.809587,7.43565833 26.0291087,7.48099167 26.1797609,7.58865833 C26.3318478,7.696325 26.5011522,7.925825 26.6862391,8.27574167 C26.9559783,8.85940833 27.1324565,9.43315833 27.2171087,9.999825 C27.2687609,10.3497417 27.2601522,10.582075 27.1927174,10.6982417 C27.1252826,10.8144083 26.9473696,10.8979917 26.660413,10.9489917 C26.0707174,11.0481583 25.446587,11.1487417 24.7894565,11.2479083" id="Fill-3" fill="#000000"></path>
                <path d="M32.7200739,9.562925 C32.7789,9.754175 32.7745957,10.0233417 32.7085957,10.3732583 C32.5722913,10.9895083 32.428813,11.7162583 32.2781609,12.546425 C32.1246391,13.379425 31.9696826,14.2662583 31.808987,15.206925 C31.6482913,16.1475917 31.4890304,17.1265083 31.3283348,18.143675 C31.1676391,19.1565917 31.0126826,20.158175 30.8620304,21.1385083 C30.7099435,22.121675 30.5693348,23.0665917 30.4430739,23.974675 C30.316813,24.8813417 30.2034652,25.7030083 30.1015957,26.4340083 C30.0513783,26.715925 29.9753348,26.9000917 29.8749,26.9850917 C29.7730304,27.0672583 29.5793348,27.0587583 29.2923783,26.958175 C29.0054217,26.8420083 28.7270739,26.7258417 28.4573348,26.6082583 C28.1875957,26.4920917 27.9350739,26.341925 27.6997696,26.159175 C27.445813,25.976425 27.280813,25.7653417 27.2047696,25.5230917 C27.1301609,25.2808417 27.1086391,24.943675 27.1430739,24.5115917 C27.1760739,23.944925 27.2349,23.2422583 27.3195522,22.402175 C27.4042043,21.5592583 27.5046391,20.6483417 27.6237261,19.665175 C27.7413783,18.6820083 27.8676391,17.659175 28.0025087,16.5938417 C28.1373783,15.5285083 28.2765522,14.4957583 28.4200304,13.4955917 C28.5635087,12.4968417 28.7055522,11.556175 28.8504652,10.6750083 C28.9925087,9.78959167 29.1245087,9.04300833 29.2421609,8.42675833 C29.326813,8.05984167 29.4444652,7.83459167 29.5965522,7.752425 C29.7472043,7.66884167 29.9753348,7.684425 30.2780739,7.80059167 C30.5822478,7.90259167 30.9122478,8.05559167 31.2652043,8.26384167 C31.6195957,8.470675 31.9323783,8.69309167 32.2021174,8.925425 C32.4890739,9.159175 32.659813,9.371675 32.7200739,9.562925" id="Fill-5" fill="#000000"></path>
                <path d="M36.8941435,18.2179083 C36.7334478,19.2506583 36.5813609,20.2564917 36.4378826,21.2382417 C36.2958391,22.2214083 36.1681435,23.1592417 36.0591,24.0489083 C35.9486217,24.9399917 35.8611,25.7347417 35.7936652,26.434575 C35.742013,26.7349083 35.6674043,26.9289917 35.5655348,27.021075 C35.4636652,27.1117417 35.280013,27.1159917 35.0102739,27.033825 C34.7563174,26.9502417 34.4994913,26.846825 34.2369261,26.7221583 C33.9757957,26.596075 33.736187,26.451575 33.5166652,26.2844083 C33.2469261,26.0846583 33.0704478,25.8679083 32.9857957,25.6341583 C32.9011435,25.4004083 32.8753174,25.070325 32.9097522,24.636825 C32.944187,24.0219917 33.003013,23.2782417 33.0862304,22.4126583 C33.1708826,21.547075 33.2727522,20.6219917 33.3904043,19.6402417 C33.5094913,18.6599083 33.6429261,17.6469917 33.795013,16.6057417 C33.9471,15.5659083 34.0948826,14.5529917 34.2369261,13.5712417 C34.3804043,12.5894917 34.5253174,11.6644083 34.6673609,10.798825 C34.8108391,9.931825 34.9414043,9.19374167 35.0604913,8.57465833 C35.1609261,8.142575 35.2957957,7.86774167 35.4636652,7.751575 C35.6329696,7.63540833 35.8854913,7.60990833 36.2226652,7.67649167 C36.7463609,7.77565833 37.1882739,7.89465833 37.5512739,8.02640833 C37.9142739,8.159575 38.2801435,8.316825 38.653187,8.50099167 C38.8884913,8.618575 39.0735783,8.741825 39.2084478,8.87499167 C39.3433174,9.00815833 39.4494913,9.158325 39.5241,9.32549167 C39.6001435,9.49265833 39.6546652,9.67540833 39.6891,9.87374167 C39.7235348,10.0749083 39.7565348,10.2987417 39.7909696,10.5494917 C39.7909696,10.667075 39.7938391,10.807325 39.8024478,10.9744917 C39.8110565,11.1402417 39.841187,11.4476583 39.8914043,11.8981583 C39.9430565,12.3472417 40.0133609,12.9932417 40.1066217,13.833325 C40.1998826,14.674825 40.3218391,15.8194917 40.4739261,17.2687417 C40.6417957,16.753075 40.8354913,16.1849917 41.055013,15.5687417 C41.2745348,14.9524917 41.4983609,14.3291583 41.7264913,13.6959083 C41.953187,13.0626583 42.1884913,12.435075 42.4338391,11.8117417 C42.6777522,11.1841583 42.910187,10.607575 43.1297087,10.0749083 C43.3477957,9.47565833 43.5386217,8.98265833 43.6993174,8.601575 C43.8585783,8.21624167 44.0235783,7.925825 44.1914478,7.72749167 C44.3593174,7.526325 44.5544478,7.41440833 44.7739696,7.38890833 C44.9934913,7.36340833 45.2704043,7.41865833 45.609013,7.55324167 C46.012187,7.683575 46.4469261,7.84790833 46.9117957,8.03774167 C47.3752304,8.22899167 47.8257522,8.45849167 48.2647957,8.72624167 C48.5689696,8.90899167 48.7612304,9.12149167 48.8473174,9.36090833 C48.9305348,9.60315833 48.9305348,9.940325 48.8473174,10.373825 C48.7282304,11.024075 48.5976652,11.784825 48.454187,12.6589083 C48.3121435,13.5344083 48.1586217,14.462325 47.9993609,15.4454917 C47.8386652,16.4272417 47.6822739,17.4387417 47.5316217,18.4799917 C47.3795348,19.5212417 47.2317522,20.518575 47.0882739,21.4762417 C46.9447957,22.4339083 46.8185348,23.3292417 46.7080565,24.160825 C46.599013,24.993825 46.5100565,25.7021583 46.4426217,26.2844083 C46.375187,26.583325 46.2919696,26.800075 46.1901,26.9332417 C46.0896652,27.067825 45.8959696,27.084825 45.609013,26.9842417 C45.3392739,26.9006583 45.0695348,26.800075 44.7997957,26.6839083 C44.5286217,26.5677417 44.2933174,26.426075 44.091013,26.2589083 C43.8212739,26.0761583 43.6433609,25.860825 43.5587087,25.610075 C43.4740565,25.3607417 43.4582739,25.027825 43.5084913,24.611325 C43.5429261,24.1282417 43.5974478,23.5119917 43.6734913,22.762575 C43.7495348,22.0131583 43.8413609,21.198575 43.9504043,20.314575 C44.0608826,19.4319917 44.1828391,18.516825 44.3191435,17.5676583 C44.454013,16.6184917 44.5960565,15.7104083 44.7495783,14.844825 C44.461187,15.592825 44.1498391,16.430075 43.8126652,17.356575 C43.4740565,18.278825 43.141187,19.1954083 42.8126217,20.102075 C42.4840565,21.011575 42.1813174,21.8771583 41.9029696,22.7002417 C41.623187,23.5247417 41.4007957,24.220325 41.2314913,24.785575 C41.1138391,25.1354917 41.0177087,25.3607417 40.9416652,25.4599083 C40.8656217,25.5604917 40.6762304,25.567575 40.3720565,25.4839917 C39.9674478,25.3692417 39.5800565,25.2176583 39.2084478,25.0349083 C39.0907957,24.9711583 38.9889261,24.8989083 38.9042739,24.823825 C38.8196217,24.7487417 38.745013,24.6524083 38.6775783,24.534825 C38.6101435,24.420075 38.5498826,24.2684917 38.4996652,24.0871583 C38.4494478,23.9029917 38.3992304,23.672075 38.349013,23.3859083 C38.1624913,22.2384083 37.986013,20.947825 37.8181435,19.5141583 C37.6488391,18.083325 37.5039261,16.634075 37.3877087,15.1692417 C37.2184043,16.1694083 37.0534043,17.1851583 36.8941435,18.2179083" id="Fill-7" fill="#000000"></path>
            </g>
        </g>
    </g>
</svg>