<?xml version="1.0" encoding="UTF-8" standalone="no"?>
<svg width="12px" height="12px" viewBox="0 0 12 12" version="1.1" xmlns="http://www.w3.org/2000/svg" xmlns:xlink="http://www.w3.org/1999/xlink">
    <defs></defs>
    <g id="Styleguide" stroke="none" stroke-width="1" fill="none" fill-rule="evenodd" opacity="0.544076493">
        <g transform="translate(-1038.000000, -759.000000)" id="facebook_icon_editor" fill="#FFFFFF">
            <g transform="translate(1038.000000, 759.000000)">
                <g id="facebook">
                    <path d="M11.7639474,6.12080585 C11.7639474,9.32900355 9.13057895,11.9296802 5.88205263,11.9296802 C2.63352632,11.9296802 0.000157894737,9.32900355 0.000157894737,6.12080585 C0.000157894737,2.91260814 2.63352632,0.3119315 5.88205263,0.3119315 C9.13057895,0.3119315 11.7639474,2.91260814 11.7639474,6.12080585 Z M6.71425263,3.64041712 L7.68688421,3.64041712 L7.68688421,2.22172447 L6.54341053,2.22172447 L6.54341053,2.22671438 C5.15835789,2.27505409 4.87446316,3.04412336 4.84951579,3.85186439 L4.84667368,3.85186439 L4.84667368,4.56043105 L3.90341053,4.56043105 L3.90341053,5.94980801 L4.84667368,5.94980801 L4.84667368,9.67414911 L6.26804211,9.67414911 L6.26804211,5.94980801 L7.43267368,5.94980801 L7.65751579,4.56043105 L6.26867368,4.56043105 L6.26867368,4.13223474 C6.26867368,3.85934925 6.45246316,3.64041712 6.71425263,3.64041712 Z" id="Combined-Shape"></path>
                </g>
            </g>
        </g>
    </g>
</svg>
