<?xml version="1.0" encoding="UTF-8" standalone="no"?>
<svg width="32px" height="33px" viewBox="0 0 32 33" version="1.1" xmlns="http://www.w3.org/2000/svg" xmlns:xlink="http://www.w3.org/1999/xlink">
    <!-- Generator: sketchtool 40 (33762) - http://www.bohemiancoding.com/sketch -->
    <title>9417CDE1-86ED-43FB-86CC-469D37FCF613</title>
    <desc>Created with sketchtool.</desc>
    <defs></defs>
    <g id="Styleguide" stroke="none" stroke-width="1" fill="none" fill-rule="evenodd">
        <g transform="translate(-1260.000000, -469.000000)" id="google_perfil">
            <g transform="translate(1260.000000, 469.000000)">
                <path d="M31.5713761,16.4996215 C31.5713761,25.3387965 24.5343217,32.5041392 15.8534034,32.5041392 C7.17248504,32.5041392 0.134586828,25.3387965 0.134586828,16.4996215 C0.134586828,7.66044649 7.17248504,0.495103785 15.8534034,0.495103785 C24.5343217,0.495103785 31.5713761,7.66044649 31.5713761,16.4996215" id="Fill-29" fill=""></path>
                <path d="M12.3449183,18.0804822 L16.0199838,18.0804822 C15.3752651,19.9373362 13.6276048,21.268325 11.5820574,21.2537177 C9.10107168,21.234814 7.04877331,19.2129827 6.95257182,16.6884861 C6.84877548,13.9818271 8.98124176,11.7460409 11.6175,11.7460409 C12.8225502,11.7460409 13.9221163,12.2134766 14.7516432,12.9790744 C14.9482655,13.1612369 15.2469965,13.1620961 15.4402433,12.9773559 L16.7895957,11.6833151 C17.0005639,11.4813898 17.0014078,11.1394055 16.7912835,10.9366209 C15.4765298,9.66835784 13.711992,8.8769823 11.7668655,8.839175 C7.61838737,8.75582709 4.12137895,12.2194914 4.09268728,16.4444572 C4.06315174,20.7020748 7.44370572,24.162302 11.6175,24.162302 C15.6318024,24.162302 18.9102478,20.9615704 19.1296547,16.9307966 C19.1355618,16.8801004 19.1397812,15.1718978 19.1397812,15.1718978 L12.3449183,15.1718978 C12.0664403,15.1718978 11.8402824,15.4021787 11.8402824,15.6857334 L11.8402824,17.5666466 C11.8402824,17.8502014 12.0664403,18.0804822 12.3449183,18.0804822" id="Fill-31" fill="#FFFFFF"></path>
                <path d="M25.366549,15.3428899 L25.366549,13.5040803 C25.366549,13.2557551 25.1690828,13.054689 24.9243597,13.054689 L23.4053888,13.054689 C23.1606658,13.054689 22.9631995,13.2557551 22.9631995,13.5040803 L22.9631995,15.3428899 L21.1581559,15.3428899 C20.9134328,15.3428899 20.7159666,15.543956 20.7159666,15.7931405 L20.7159666,17.3398028 C20.7159666,17.588128 20.9134328,17.7900534 21.1581559,17.7900534 L22.9631995,17.7900534 L22.9631995,19.6280038 C22.9631995,19.8771882 23.1606658,20.0782543 23.4053888,20.0782543 L24.9243597,20.0782543 C25.1690828,20.0782543 25.366549,19.8771882 25.366549,19.6280038 L25.366549,17.7900534 L27.1724365,17.7900534 C27.4163157,17.7900534 27.6137819,17.588128 27.6137819,17.3398028 L27.6137819,15.7931405 C27.6137819,15.543956 27.4163157,15.3428899 27.1724365,15.3428899 L25.366549,15.3428899 Z" id="Fill-33" fill="#FFFFFF"></path>
            </g>
        </g>
    </g>
</svg>