<?xml version="1.0" encoding="UTF-8" standalone="no"?>
<svg width="12px" height="12px" viewBox="0 0 12 12" version="1.1" xmlns="http://www.w3.org/2000/svg" xmlns:xlink="http://www.w3.org/1999/xlink">
    <!-- Generator: sketchtool 40 (33762) - http://www.bohemiancoding.com/sketch -->
    <title>CB39A081-F6A4-413D-99CD-530898F114F6</title>
    <desc>Created with sketchtool.</desc>
    <defs></defs>
    <g id="Styleguide" stroke="none" stroke-width="1" fill="none" fill-rule="evenodd" opacity="0.54">
        <g transform="translate(-1177.000000, -759.000000)" id="google_icon_editor" fill="#FFFFFF">
            <g transform="translate(1177.000000, 759.000000)">
                <g id="Page-1">
                    <path d="M11.7638842,6.10599111 C11.7638842,9.30639111 9.13051579,11.9007467 5.88198947,11.9007467 C2.63346316,11.9007467 9.47368421e-05,9.30639111 9.47368421e-05,6.10599111 C9.47368421e-05,2.90559111 2.63346316,0.311235556 5.88198947,0.311235556 C9.13051579,0.311235556 11.7638842,2.90559111 11.7638842,6.10599111 Z M4.56903158,6.67824889 L5.94429474,6.67824889 C5.70303158,7.35056 5.04934737,7.83278222 4.28387368,7.82718222 C3.35513684,7.82033778 2.58713684,7.08860444 2.55113684,6.17424889 C2.51229474,5.19424889 3.31061053,4.38473778 4.29682105,4.38473778 C4.74776842,4.38473778 5.15955789,4.55398222 5.46966316,4.83118222 C5.54324211,4.89713778 5.65503158,4.89744889 5.72734737,4.83056 L6.23261053,4.36233778 C6.31155789,4.28891556 6.31187368,4.16509333 6.23292632,4.09167111 C5.74092632,3.63247111 5.08092632,3.34624889 4.35271579,3.33224889 C2.80029474,3.30207111 1.49166316,4.55647111 1.48092632,6.08620444 C1.47018947,7.62744889 2.73492632,8.88029333 4.29682105,8.88029333 C5.79903158,8.88029333 7.02618947,7.72171556 7.10829474,6.26198222 C7.11018947,6.24362667 7.11176842,5.62513778 7.11176842,5.62513778 L4.56903158,5.62513778 C4.46482105,5.62513778 4.38050526,5.70851556 4.38050526,5.81118222 L4.38050526,6.49251556 C4.38050526,6.59518222 4.46482105,6.67824889 4.56903158,6.67824889 Z M9.44204211,5.68717333 L9.44204211,5.02139556 C9.44204211,4.93148444 9.36814737,4.85837333 9.27688421,4.85837333 L8.70814737,4.85837333 C8.61656842,4.85837333 8.54267368,4.93148444 8.54267368,5.02139556 L8.54267368,5.68717333 L7.8672,5.68717333 C7.77593684,5.68717333 7.70172632,5.75997333 7.70172632,5.84988444 L7.70172632,6.41019556 C7.70172632,6.50010667 7.77593684,6.57321778 7.8672,6.57321778 L8.54267368,6.57321778 L8.54267368,7.23868444 C8.54267368,7.32859556 8.61656842,7.40170667 8.70814737,7.40170667 L9.27688421,7.40170667 C9.36814737,7.40170667 9.44204211,7.32859556 9.44204211,7.23868444 L9.44204211,6.57321778 L10.1178316,6.57321778 C10.2090947,6.57321778 10.2829895,6.50010667 10.2829895,6.41019556 L10.2829895,5.84988444 C10.2829895,5.75997333 10.2090947,5.68717333 10.1178316,5.68717333 L9.44204211,5.68717333 Z" id="Combined-Shape"></path>
                </g>
            </g>
        </g>
    </g>
</svg>