<?xml version="1.0" encoding="UTF-8" standalone="no"?>
<svg width="30px" height="34px" viewBox="0 0 30 34" version="1.1" xmlns="http://www.w3.org/2000/svg" xmlns:xlink="http://www.w3.org/1999/xlink">
    <!-- Generator: sketchtool 40 (33762) - http://www.bohemiancoding.com/sketch -->
    <title>FD1A81B8-C8A4-4A60-A4CB-E3437149F255</title>
    <desc>Created with sketchtool.</desc>
    <defs></defs>
    <g id="Menu,-cadastro-e-perfil" stroke="none" stroke-width="1" fill="none" fill-rule="evenodd">
        <g id="Editor-Ramona-mobile" transform="translate(-76.000000, -296.000000)">
            <g id="Page-1" transform="translate(77.000000, 297.000000)">
                <path d="M14.070173,15.2674957 C8.79609189,15.2674957 4.01344324,18.1490609 0.484064865,22.8282783 C0.196416216,23.2117565 0.196416216,23.7478435 0.484064865,24.1313217 C4.01344324,28.8160174 8.79609189,31.6975826 14.070173,31.6975826 C19.3442541,31.6975826 24.1269027,28.8160174 27.6562811,24.1368 C27.9447135,23.7533217 27.9447135,23.2180174 27.6562811,22.8345391 C24.1269027,18.1490609 19.3442541,15.2674957 14.070173,15.2674957 L14.070173,15.2674957 Z" id="Stroke-5" stroke="#FFFFFF" stroke-width="1.2"></path>
                <path d="M2.99084054,24.2270348 C2.78862432,23.7872087 2.78862432,23.1720783 2.99084054,22.7322522 C3.93765135,20.6833826 5.0130027,18.9373826 6.18632703,17.5584261 C4.06384054,18.8497304 2.13573243,20.6387739 0.4843,22.828513 C0.196651351,23.2119913 0.196651351,23.7480783 0.4843,24.1315565 C2.13573243,26.3244261 4.06462432,28.1150348 6.18789459,29.4071217 C5.01378649,28.0266 3.93765135,26.2790348 2.99084054,24.2270348" id="Fill-7" fill="#FFFFFF" opacity="0.3"></path>
                <path d="M25.1258351,22.7382 C25.3280514,23.1780261 25.3280514,23.7939391 25.1258351,24.2329826 C24.1790243,26.2818522 23.103673,28.0278522 21.9303486,29.4068087 C24.0528351,28.1155043 25.9809432,26.3264609 27.6323757,24.1367217 C27.9200243,23.7532435 27.9200243,23.2171565 27.6323757,22.8344609 C25.9809432,20.6408087 24.0520514,18.8502 21.9287811,17.558113 C23.1028892,18.9394174 24.1790243,20.6862 25.1258351,22.7382" id="Fill-9" fill="#FFFFFF" opacity="0.3"></path>
                <path d="M6.33493243,17.4732 C6.11939189,18.2002435 5.99868919,18.9687652 5.99868919,19.7670261 C5.99868919,24.2177217 9.61271622,27.8263304 14.0700946,27.8263304 C18.5282568,27.8263304 22.1422838,24.2177217 22.1422838,19.7670261 C22.1422838,18.9852 22.0255,18.2315478 21.8170135,17.5162435" id="Stroke-11" stroke="#FFFFFF" stroke-width="1.2"></path>
                <path d="M14.3659899,18.2660304 C14.3517985,19.7864876 13.114306,21.0150397 11.5873084,21.0150397 C11.4127539,21.0150397 11.2424568,20.9980355 11.0778362,20.9668612 C11.0778362,20.9753633 11.0764171,20.9838654 11.0764171,20.9923675 C11.0764171,22.5255778 12.3210052,23.7683 13.8565177,23.7683 C15.390611,23.7683 16.6351992,22.5255778 16.6351992,20.9923675 C16.6351992,19.63345 15.6574098,18.505506 14.3659899,18.2660304" id="Fill-15" fill="#FFFFFF"></path>
                <g transform="translate(3.000000, 0.000000)" stroke="#FFFFFF" stroke-width="1.2" stroke-linecap="round" stroke-linejoin="round">
                    <path d="M11,2.06994118 L11,0.299352941" id="Stroke-2"></path>
                    <path d="M11,11.7436 L11,4.71807059" id="Stroke-5"></path>
                    <path d="M15.3884731,12.5679529 L17.7146269,5.71701176" id="Stroke-7"></path>
                    <path d="M6.90310385,12.5679529 L4.51475769,5.53089412" id="Stroke-10"></path>
                    <path d="M19.3630462,14.2157529 L21.9670462,10.2825765" id="Stroke-13"></path>
                    <path d="M2.89775769,14.2157529 L0.29295,10.2825765" id="Stroke-16"></path>
                </g>
            </g>
        </g>
    </g>
</svg>