<?xml version="1.0" encoding="UTF-8" standalone="no"?>
<svg width="33px" height="31px" viewBox="0 0 33 31" version="1.1" xmlns="http://www.w3.org/2000/svg" xmlns:xlink="http://www.w3.org/1999/xlink">
    <!-- Generator: sketchtool 40 (33762) - http://www.bohemiancoding.com/sketch -->
    <title>4C760C69-C186-4FFB-9916-1A4C49D72446</title>
    <desc>Created with sketchtool.</desc>
    <defs></defs>
    <g id="Menu,-cadastro-e-perfil" stroke="none" stroke-width="1" fill="none" fill-rule="evenodd" stroke-linecap="round" stroke-linejoin="round">
        <g id="Editor-Ramona" transform="translate(-640.000000, -207.000000)" stroke="#FFFFFF" stroke-width="1.5">
            <g id="Page-1" transform="translate(641.000000, 208.000000)">
                <path d="M19.0311696,8.18509091 C19.0311696,12.3291818 16.1913,15.6878182 12.6869522,15.6878182 C9.18260435,15.6878182 6.34273478,12.3291818 6.34273478,8.18509091 C6.34273478,4.041 9.18260435,0.682363636 12.6869522,0.682363636 C16.1913,0.682363636 19.0311696,4.041 19.0311696,8.18509091 L19.0311696,8.18509091 Z" id="Stroke-1"></path>
                <path d="M21.102913,16.5999545 C20.0192609,15.6126818 18.6593043,14.8026818 16.9596957,14.4126818" id="Stroke-3"></path>
                <path d="M8.34722174,14.412 C5.90765652,14.9724545 3.88996087,16.542 2.47878696,18.5983636 C1.82239565,19.5556364 -0.654908696,23.127 1.60674348,23.5456364 C2.42756957,23.6983636 6.51417826,23.7038182 7.67196087,23.7038182 L18.117613,23.7038182" id="Stroke-5"></path>
                <path d="M17.9479217,22.2196364 C17.9479217,18.6114545 20.8390087,15.6878182 24.4040087,15.6878182 C27.9703565,15.6878182 30.8600957,18.6114545 30.8600957,22.2196364 C30.8600957,25.8278182 27.9703565,28.7514545 24.4040087,28.7514545 C20.8390087,28.7514545 17.9479217,25.8278182 17.9479217,22.2196364 L17.9479217,22.2196364 Z" id="Stroke-7"></path>
                <polyline id="Stroke-9" points="20.9581565 22.3821818 23.1483739 24.5980909 27.8509391 19.8417273"></polyline>
            </g>
        </g>
    </g>
</svg>