<?xml version="1.0" encoding="UTF-8" standalone="no"?>
<svg width="45px" height="29px" viewBox="0 0 45 29" version="1.1" xmlns="http://www.w3.org/2000/svg" xmlns:xlink="http://www.w3.org/1999/xlink">
    <!-- Generator: sketchtool 40 (33762) - http://www.bohemiancoding.com/sketch -->
    <title>1401AEF2-D3BE-4465-998F-27F34ACC2204</title>
    <desc>Created with sketchtool.</desc>
    <defs></defs>
    <g id="Menu,-cadastro-e-perfil" stroke="none" stroke-width="1" fill="none" fill-rule="evenodd">
        <g id="Perfil-usuário" transform="translate(-1198.000000, -225.000000)">
            <g id="saturno-copy" transform="translate(1199.000000, 225.000000)">
                <g id="Group-3" transform="translate(10.002062, 1.245249)" fill="#000000">
                    <path d="M24.8401288,8.83511766 C27.3408234,15.6682675 24.0521527,23.320428 17.4930051,25.9264896 C10.9344849,28.5325513 3.5904981,25.1055181 1.0891761,18.2723682 C-1.4121459,11.4385647 1.87652476,3.78705793 8.43629974,1.18099628 C14.99482,-1.42441172 22.3388068,2.0019678 24.8401288,8.83511766" id="Fill-1"></path>
                </g>
                <path d="M32.3673074,9.42672699 C34.8686294,16.2598768 31.5793314,23.9113837 25.0208112,26.5174453 C18.4622909,29.1235069 11.1176768,25.6971274 8.61698215,18.8639776 C6.11503277,12.0301741 9.40433081,4.37801362 15.9634784,1.77195197 C22.5219987,-0.833456034 29.8666128,2.59357713 32.3673074,9.42672699" id="Fill-4" stroke="#000000" fill="#EE36B4"></path>
                <g id="Group-10" transform="translate(2.473628, 5.167088)" fill="#000000">
                    <path d="M31.9427665,9.08912206 C29.3178528,10.5114421 25.7324363,12.0664511 21.8440005,13.4678547 C17.9568194,14.8699119 14.1850742,15.9667194 11.2257725,16.558917 C6.57884701,17.4877391 5.28207435,16.8863905 5.01167812,16.2183707 C4.74253663,15.5510045 5.2852112,14.2868653 9.40451902,12.0546856 C12.0294328,10.6330191 15.6154766,9.07801018 19.5032851,7.67660658 C23.3904662,6.27454933 27.161584,5.17708821 30.1221404,4.5848906 C34.7684385,3.65606853 36.0652112,4.25741709 36.3349801,4.92543691 C36.6053763,5.59280308 36.0620744,6.85759598 31.9427665,9.08912206 M32.0506741,0.779400028 C28.0725244,1.16504747 23.1156784,2.37493464 18.0923312,4.18551672 C13.0683566,5.99740608 8.51867335,8.21455208 5.28144699,10.4316981 C0.198499694,13.9103688 -0.158473523,16.3961607 0.436272716,17.8688111 C1.03164633,19.3414614 3.05177596,20.969678 9.29661147,20.3644076 C13.2747612,19.9787601 18.2322346,18.7701803 23.2555818,16.9582909 C28.2789289,15.1477088 32.8279848,12.9292555 36.0664659,10.7127632 C41.1487859,7.23343883 41.5057591,4.7476469 40.9103855,3.27499656 C40.3156392,1.80299986 38.2948822,0.174783267 32.0506741,0.779400028" id="Fill-8"></path>
                </g>
                <path d="M31.9421392,13.6025698 C29.3172254,15.0242363 25.7311816,16.5792452 21.8433731,17.9806488 C17.9555646,19.3827061 14.1844469,20.4801672 11.2251452,21.0723648 C6.57821964,22.0011869 5.28144699,21.3998383 5.01105075,20.7318185 C4.74128189,20.0644523 5.28458383,18.7996594 9.40389165,16.5674797 C12.0281781,15.1458133 15.6148492,13.5908043 19.5026577,12.1894007 C23.3898388,10.7873435 27.1609566,9.68988234 30.121513,9.09833838 C34.7678112,8.16951631 36.0639565,8.77021123 36.3343527,9.43823104 C36.6047489,10.1055972 36.061447,11.3703901 31.9421392,13.6025698 L31.9421392,13.6025698 Z M32.0500467,5.29284781 C28.0712697,5.67784161 23.1144236,6.88772877 18.0910764,8.6989645 C13.0677292,10.5102002 8.51804598,12.7279999 5.28081962,14.9444922 C0.197872325,18.4231629 -0.159728262,20.9089549 0.435645347,22.3816052 C1.03101896,23.8542555 3.05114859,25.4824721 9.29535673,24.8778554 C13.2735064,24.4922079 18.2316072,23.2829744 23.254327,21.471085 C28.2776742,19.660503 32.8273575,17.4420497 36.0652112,15.2255573 C41.1481585,11.746233 41.5051317,9.26109467 40.9097581,7.78844434 C40.3143845,6.31644764 38.2942549,4.6875774 32.0500467,5.29284781 L32.0500467,5.29284781 Z" id="Stroke-13" stroke="#000000" fill="#EE36B4"></path>
                <g id="Group-18" transform="translate(7.528433, 0.591609)" stroke="#000000" fill="#EE36B4">
                    <path d="M25.1078273,9.64066327 C23.0381355,2.6526008 15.9231386,-1.26466217 9.21593176,0.891695335 C2.50872496,3.04805284 -1.25110016,10.4616348 0.81859166,17.4490436 C0.81859166,17.4490436 1.44282426,19.2426311 1.8117175,19.9041145" id="Fill-15"></path>
                </g>
                <path d="M13.8844388,18.908948 C11.3831168,12.0757981 14.6724148,4.42363768 21.2309351,1.81822967 C21.8683424,1.56527109 22.5132782,1.38552016 23.1594688,1.24433398 C20.8482397,0.731880418 18.3751493,0.875027522 16.0030654,1.81822967 C9.44454519,4.42363768 6.15524716,12.0757981 8.65656916,18.908948 C10.9150992,25.0786535 17.1204104,28.4547028 23.1318645,27.1376187 C19.0527083,26.2342886 15.481094,23.270686 13.8844388,18.908948" id="Fill-19" fill="#000000" opacity="0.169892724" style="mix-blend-mode: multiply;"></path>
                <path d="M10.2509744,21.8948058 C9.96151587,21.9352616 9.56048779,21.9895112 9.31843188,22.0094764 L8.75060736,23.1539712 L9.63163523,24.2188368 C11.3941048,24.048082 14.3798695,23.5401102 16.5548427,22.883361 L14.8944186,20.8300842 C13.6316936,21.194186 14.2920415,20.9977268 13.2664307,21.2605199 C12.8078021,21.3780347 11.1980704,21.7552713 10.8102767,21.8099128" id="Fill-21" fill="#EE36B4"></path>
            </g>
        </g>
    </g>
</svg>