<?xml version="1.0" encoding="UTF-8" standalone="no"?>
<svg width="12px" height="12px" viewBox="0 0 12 12" version="1.1" xmlns="http://www.w3.org/2000/svg" xmlns:xlink="http://www.w3.org/1999/xlink">
    <defs></defs>
    <g id="Styleguide" stroke="none" stroke-width="1" fill="none" fill-rule="evenodd" opacity="0.54">
        <g transform="translate(-1098.000000, -759.000000)" id="insta_icon_editor" fill="#FFFFFF">
            <g transform="translate(1098.000000, 759.000000)">
                <path d="M9.6006,7.81392632 C9.6006,8.79918947 8.79912632,9.60034737 7.81417895,9.60034737 L3.94986316,9.60034737 C2.96491579,9.60034737 2.16344211,8.79918947 2.16344211,7.81392632 L2.16344211,3.94992632 C2.16344211,2.96497895 2.96491579,2.16350526 3.94986316,2.16350526 L7.81417895,2.16350526 C8.79912632,2.16350526 9.6006,2.96497895 9.6006,3.94992632 L9.6006,7.81392632 Z M5.88217895,3.15789474e-05 C2.63365263,3.15789474e-05 -3.15789474e-05,2.6334 -3.15789474e-05,5.88192632 C-3.15789474e-05,9.13045263 2.63365263,11.7638211 5.88217895,11.7638211 C9.13038947,11.7638211 11.7640737,9.13045263 11.7640737,5.88192632 C11.7640737,2.6334 9.13038947,3.15789474e-05 5.88217895,3.15789474e-05 L5.88217895,3.15789474e-05 Z" id="Fill-1"></path>
                <path d="M5.88205263,4.80590526 C5.28868421,4.80590526 4.80584211,5.28843158 4.80584211,5.8818 C4.80584211,6.47516842 5.28868421,6.95801053 5.88205263,6.95801053 C6.47542105,6.95801053 6.95794737,6.47516842 6.95794737,5.8818 C6.95794737,5.28843158 6.47542105,4.80590526 5.88205263,4.80590526" id="Fill-4"></path>
                <path d="M7.92309474,4.24572632 C7.71972632,4.24572632 7.55456842,4.08088421 7.55456842,3.8772 C7.55456842,3.67383158 7.71972632,3.50898947 7.92309474,3.50898947 C8.12646316,3.50898947 8.29162105,3.67383158 8.29162105,3.8772 C8.29162105,4.08088421 8.12646316,4.24572632 7.92309474,4.24572632 M5.88214737,7.90541053 C4.76614737,7.90541053 3.85825263,6.99751579 3.85825263,5.88183158 C3.85825263,4.76614737 4.76614737,3.85856842 5.88214737,3.85856842 C6.99783158,3.85856842 7.90541053,4.76614737 7.90541053,5.88183158 C7.90541053,6.99751579 6.99783158,7.90541053 5.88214737,7.90541053 M7.81414737,3.11077895 L3.94983158,3.11077895 C3.48751579,3.11077895 3.11077895,3.4872 3.11077895,3.94983158 L3.11077895,7.81383158 C3.11077895,8.27677895 3.48751579,8.6532 3.94983158,8.6532 L7.81414737,8.6532 C8.27677895,8.6532 8.6532,8.27677895 8.6532,7.81383158 L8.6532,3.94983158 C8.6532,3.4872 8.27677895,3.11077895 7.81414737,3.11077895" id="Fill-6"></path>
            </g>
        </g>
    </g>
</svg>
