<?xml version="1.0" encoding="UTF-8" standalone="no"?>
<svg width="12px" height="12px" viewBox="0 0 12 12" version="1.1" xmlns="http://www.w3.org/2000/svg" xmlns:xlink="http://www.w3.org/1999/xlink">
    <!-- Generator: Sketch 40 (33762) - http://www.bohemiancoding.com/sketch -->
    <title>instagram_perfil</title>
    <desc>Created with Sketch.</desc>
    <defs></defs>
    <g id="Remix" stroke="none" stroke-width="1" fill="none" fill-rule="evenodd">
        <g id="instagram_perfil" fill="#FFFFFF">
            <path d="M3.07580636,1.53700014 C2.36936437,1.53700014 1.79456652,2.12227679 1.79456652,2.84159751 L1.79456652,8.84952126 C1.79456652,9.56884198 2.36936437,10.1541186 3.07580636,10.1541186 L8.97616419,10.1541186 C9.68260619,10.1541186 10.2578863,9.56884198 10.2578863,8.84952126 L10.2578863,2.84159751 C10.2578863,2.12227679 9.68260619,1.53700014 8.97616419,1.53700014 L3.07580636,1.53700014 Z M8.97616419,11.6271303 L3.07580636,11.6271303 C1.57178413,11.6271303 0.347927623,10.3814534 0.347927623,8.84952126 L0.347927623,2.84159751 C0.347927623,1.31015634 1.57178413,0.0639884304 3.07580636,0.0639884304 L8.97616419,0.0639884304 C10.4801864,0.0639884304 11.7045251,1.31015634 11.7045251,2.84159751 L11.7045251,8.84952126 C11.7045251,10.3814534 10.4801864,11.6271303 8.97616419,11.6271303 L8.97616419,11.6271303 Z" id="Fill-11"></path>
            <path d="M6.0260335,4.17251269 C5.11995534,4.17251269 4.38265172,4.92276665 4.38265172,5.84536298 C4.38265172,6.76795931 5.11995534,7.51870428 6.0260335,7.51870428 C6.93211166,7.51870428 7.66893307,6.76795931 7.66893307,5.84536298 C7.66893307,4.92276665 6.93211166,4.17251269 6.0260335,4.17251269 M6.0260335,8.99171599 C4.3223751,8.99171599 2.93601282,7.58007977 2.93601282,5.84536298 C2.93601282,4.1111372 4.3223751,2.69950098 6.0260335,2.69950098 C7.7296919,2.69950098 9.11557196,4.1111372 9.11557196,5.84536298 C9.11557196,7.58007977 7.7296919,8.99171599 6.0260335,8.99171599" id="Fill-13"></path>
            <path d="M8.58031557,2.72886301 C8.58031557,2.4126565 8.83203074,2.15635246 9.14257589,2.15635246 C9.45360325,2.15635246 9.70531842,2.4126565 9.70531842,2.72886301 C9.70531842,3.04506952 9.45360325,3.30137356 9.14257589,3.30137356 C8.83203074,3.30137356 8.58031557,3.04506952 8.58031557,2.72886301" id="Fill-15"></path>
        </g>
    </g>
</svg>