<?xml version="1.0" encoding="UTF-8" standalone="no"?>
<svg width="33px" height="33px" viewBox="0 0 33 33" version="1.1" xmlns="http://www.w3.org/2000/svg" xmlns:xlink="http://www.w3.org/1999/xlink">
    <!-- Generator: sketchtool 40 (33762) - http://www.bohemiancoding.com/sketch -->
    <title>9BBC905B-96A6-4499-9E30-F5BFCAA1C041</title>
    <desc>Created with sketchtool.</desc>
    <defs></defs>
    <g id="Styleguide" stroke="none" stroke-width="1" fill="none" fill-rule="evenodd">
        <g transform="translate(-1067.000000, -469.000000)" id="instagram_perfil">
            <g transform="translate(1067.000000, 469.000000)">
                <path d="M32.2636157,16.2298148 C32.2636157,25.0689898 25.2265613,32.2343325 16.545643,32.2343325 C7.86472467,32.2343325 0.827670332,25.0689898 0.827670332,16.2298148 C0.827670332,7.39063984 7.86472467,0.225297141 16.545643,0.225297141 C25.2265613,0.225297141 32.2636157,7.39063984 32.2636157,16.2298148" id="Fill-9" fill=""></path>
                <path d="M11.3826611,8.68975024 C10.1463876,8.68975024 9.1404914,9.71398438 9.1404914,10.9727956 L9.1404914,21.4866622 C9.1404914,22.7454735 10.1463876,23.7697076 11.3826611,23.7697076 L21.7082873,23.7697076 C22.9445608,23.7697076 23.9513009,22.7454735 23.9513009,21.4866622 L23.9513009,10.9727956 C23.9513009,9.71398438 22.9445608,8.68975024 21.7082873,8.68975024 L11.3826611,8.68975024 Z M21.7082873,26.3474781 L11.3826611,26.3474781 C8.75062222,26.3474781 6.60887334,24.1675435 6.60887334,21.4866622 L6.60887334,10.9727956 C6.60887334,8.29277359 8.75062222,6.11197975 11.3826611,6.11197975 L21.7082873,6.11197975 C24.3403262,6.11197975 26.482919,8.29277359 26.482919,10.9727956 L26.482919,21.4866622 C26.482919,24.1675435 24.3403262,26.3474781 21.7082873,26.3474781 L21.7082873,26.3474781 Z" id="Fill-11" fill="#FFFFFF"></path>
                <path d="M16.5455586,13.3018972 C14.9599218,13.3018972 13.6696405,14.6148416 13.6696405,16.2293852 C13.6696405,17.8439288 14.9599218,19.1577325 16.5455586,19.1577325 C18.1311954,19.1577325 19.4206329,17.8439288 19.4206329,16.2293852 C19.4206329,14.6148416 18.1311954,13.3018972 16.5455586,13.3018972 M16.5455586,21.735503 C13.5641564,21.735503 11.1380224,19.2651396 11.1380224,16.2293852 C11.1380224,13.1944901 13.5641564,10.7241267 16.5455586,10.7241267 C19.5269608,10.7241267 21.9522509,13.1944901 21.9522509,16.2293852 C21.9522509,19.2651396 19.5269608,21.735503 16.5455586,21.735503" id="Fill-13" fill="#FFFFFF"></path>
                <path d="M21.0155522,10.7755103 C21.0155522,10.2221489 21.4560538,9.77361681 21.9995078,9.77361681 C22.5438057,9.77361681 22.9843072,10.2221489 22.9843072,10.7755103 C22.9843072,11.3288717 22.5438057,11.7774037 21.9995078,11.7774037 C21.4560538,11.7774037 21.0155522,11.3288717 21.0155522,10.7755103" id="Fill-15" fill="#FFFFFF"></path>
            </g>
        </g>
    </g>
</svg>