<?xml version="1.0" encoding="UTF-8" standalone="no"?>
<svg width="20px" height="20px" viewBox="0 0 20 20" version="1.1" xmlns="http://www.w3.org/2000/svg" xmlns:xlink="http://www.w3.org/1999/xlink">
    <!-- Generator: sketchtool 40 (33762) - http://www.bohemiancoding.com/sketch -->
    <title>7E96B389-2A5F-4556-BC16-F47206FC3C62</title>
    <desc>Created with sketchtool.</desc>
    <defs></defs>
    <g id="Styleguide" stroke="none" stroke-width="1" fill="none" fill-rule="evenodd" opacity="0.58">
        <g transform="translate(-1108.000000, -231.000000)" id="like_ramona_ativo">
            <g transform="translate(1108.000000, 231.000000)">
                <g id="Page-1" transform="translate(0.952381, 0.952381)">
                    <g id="Group-3" transform="translate(1.904762, 1.904762)" fill="#000000">
                        <path d="M11.4496327,0.0219210884 C10.8845442,0.0115809524 10.3101497,0.0974040816 9.74609524,0.294383673 C9.36454422,0.427254422 8.99488435,0.606138776 8.6567619,0.826383673 C8.57559184,0.878601361 8.49804082,0.933404082 8.4204898,0.989757823 C8.39670748,1.00681905 8.37189116,1.02181224 8.34810884,1.03939048 C7.45420408,0.366764626 6.3684898,0.000206802721 5.24606803,0.000206802721 C2.39529252,0.000206802721 0.076,2.31898231 0.076,5.17027483 C0.076,9.84918639 3.08497959,14.0824381 8.1247619,16.4932408 C8.19559184,16.5268463 8.27159184,16.5444245 8.34810884,16.5444245 C8.42410884,16.5444245 8.50062585,16.5268463 8.57093878,16.4932408 C13.6112381,14.0824381 16.6202177,9.84918639 16.6202177,5.17027483 C16.6202177,2.3179483 14.1478912,0.0715537415 11.4496327,0.0219210884" id="Fill-1"></path>
                    </g>
                    <path d="M11.3736844,0.0219210884 C10.8085959,0.0115809524 10.2342014,0.0974040816 9.67014694,0.294383673 C9.28859592,0.427254422 8.91893605,0.606138776 8.58081361,0.826383673 C8.49964354,0.878601361 8.42209252,0.933404082 8.3445415,0.989757823 C8.32075918,1.00681905 8.29594286,1.02181224 8.27216054,1.03939048 C7.37825578,0.366764626 6.2925415,0.000206802721 5.17011973,0.000206802721 C2.31934422,0.000206802721 5.17006802e-05,2.31898231 5.17006802e-05,5.17027483 C5.17006802e-05,9.84918639 3.00903129,14.0824381 8.04881361,16.4932408 C8.11964354,16.5268463 8.19564354,16.5444245 8.27216054,16.5444245 C8.34816054,16.5444245 8.42467755,16.5268463 8.49499048,16.4932408 C13.5352898,14.0824381 16.5442694,9.84918639 16.5442694,5.17027483 C16.5442694,2.3179483 14.0719429,0.0715537415 11.3736844,0.0219210884" id="Fill-4" fill="#EF9BB2"></path>
                    <path d="M11.3736844,0.0219210884 C10.8085959,0.0115809524 10.2342014,0.0974040816 9.67014694,0.294383673 C9.28859592,0.427254422 8.91893605,0.606138776 8.58081361,0.826383673 C8.49964354,0.878601361 8.42209252,0.933404082 8.3445415,0.989757823 C8.32075918,1.00681905 8.29594286,1.02181224 8.27216054,1.03939048 C7.37825578,0.366764626 6.2925415,0.000206802721 5.17011973,0.000206802721 C2.31934422,0.000206802721 5.17006802e-05,2.31898231 5.17006802e-05,5.17027483 C5.17006802e-05,9.84918639 3.00903129,14.0824381 8.04881361,16.4932408 C8.11964354,16.5268463 8.19564354,16.5444245 8.27216054,16.5444245 C8.34816054,16.5444245 8.42467755,16.5268463 8.49499048,16.4932408 C13.5352898,14.0824381 16.5442694,9.84918639 16.5442694,5.17027483 C16.5442694,2.3179483 14.0719429,0.0715537415 11.3736844,0.0219210884 L11.3736844,0.0219210884 Z" id="Stroke-6" stroke="#000000"></path>
                    <path d="M6.40617959,4.78138231 C6.40617959,4.78138231 6.51009796,2.12551837 8.34754014,0.989654422" id="Stroke-8" stroke="#000000" stroke-linecap="round" stroke-linejoin="round"></path>
                </g>
            </g>
        </g>
    </g>
</svg>