<?xml version="1.0" encoding="UTF-8" standalone="no"?>
<svg width="20px" height="20px" viewBox="0 0 20 20" version="1.1" xmlns="http://www.w3.org/2000/svg" xmlns:xlink="http://www.w3.org/1999/xlink">
    <!-- Generator: sketchtool 40 (33762) - http://www.bohemiancoding.com/sketch -->
    <title>A1A84B18-313B-4C57-9C55-42EBC5E079A2</title>
    <desc>Created with sketchtool.</desc>
    <defs>
        <polygon id="path-1" points="0.0798 17.3714286 17.4512286 17.3714286 17.4512286 8.68582286 17.4512286 0.000217142857 0.0798 0.000217142857 0.0798 17.3714286"></polygon>
    </defs>
    <g id="Styleguide" stroke="none" stroke-width="1" fill="none" fill-rule="evenodd" opacity="0.54">
        <g id="Desktop-HD" transform="translate(-1111.000000, -264.000000)">
            <g id="like-active" transform="translate(1111.000000, 264.000000)">
                <g id="Page-1" transform="translate(1.000000, 1.000000)">
                    <g id="Group-3" transform="translate(2.000000, 2.000000)">
                        <mask id="mask-2" fill="white">
                            <use xlink:href="#path-1"></use>
                        </mask>
                        <g id="Clip-2"></g>
                        <path d="M12.0221143,0.0230171429 C11.4287714,0.01216 10.8256571,0.102274286 10.2334,0.309102857 C9.83277143,0.448617143 9.44462857,0.636445714 9.0896,0.867702857 C9.00437143,0.922531429 8.92294286,0.980074286 8.84151429,1.03924571 C8.81654286,1.05716 8.79048571,1.07290286 8.76551429,1.09136 C7.82691429,0.385102857 6.68691429,0.000217142857 5.50837143,0.000217142857 C2.51505714,0.000217142857 0.0798,2.43493143 0.0798,5.42878857 C0.0798,10.3416457 3.23922857,14.78656 8.531,17.3179029 C8.60537143,17.3531886 8.68517143,17.3716457 8.76551429,17.3716457 C8.84531429,17.3716457 8.92565714,17.3531886 8.99948571,17.3179029 C14.2918,14.78656 17.4512286,10.3416457 17.4512286,5.42878857 C17.4512286,2.43384571 14.8552857,0.0751314286 12.0221143,0.0230171429" id="Fill-1" fill="#000000" mask="url(#mask-2)"></path>
                    </g>
                    <path d="M11.9423686,0.0230171429 C11.3490257,0.01216 10.7459114,0.102274286 10.1536543,0.309102857 C9.75302571,0.448617143 9.36488286,0.636445714 9.00985429,0.867702857 C8.92462571,0.922531429 8.84319714,0.980074286 8.76176857,1.03924571 C8.73679714,1.05716 8.71074,1.07290286 8.68576857,1.09136 C7.74716857,0.385102857 6.60716857,0.000217142857 5.42862571,0.000217142857 C2.43531143,0.000217142857 5.42857142e-05,2.43493143 5.42857142e-05,5.42878857 C5.42857142e-05,10.3416457 3.15948286,14.78656 8.45125429,17.3179029 C8.52562571,17.3531886 8.60542571,17.3716457 8.68576857,17.3716457 C8.76556857,17.3716457 8.84591143,17.3531886 8.91974,17.3179029 C14.2120543,14.78656 17.3714829,10.3416457 17.3714829,5.42878857 C17.3714829,2.43384571 14.77554,0.0751314286 11.9423686,0.0230171429" id="Fill-4" fill="#E0456F"></path>
                    <path d="M11.9423686,0.0230171429 C11.3490257,0.01216 10.7459114,0.102274286 10.1536543,0.309102857 C9.75302571,0.448617143 9.36488286,0.636445714 9.00985429,0.867702857 C8.92462571,0.922531429 8.84319714,0.980074286 8.76176857,1.03924571 C8.73679714,1.05716 8.71074,1.07290286 8.68576857,1.09136 C7.74716857,0.385102857 6.60716857,0.000217142857 5.42862571,0.000217142857 C2.43531143,0.000217142857 5.42857142e-05,2.43493143 5.42857142e-05,5.42878857 C5.42857142e-05,10.3416457 3.15948286,14.78656 8.45125429,17.3179029 C8.52562571,17.3531886 8.60542571,17.3716457 8.68576857,17.3716457 C8.76556857,17.3716457 8.84591143,17.3531886 8.91974,17.3179029 C14.2120543,14.78656 17.3714829,10.3416457 17.3714829,5.42878857 C17.3714829,2.43384571 14.77554,0.0751314286 11.9423686,0.0230171429 L11.9423686,0.0230171429 Z" id="Stroke-6" stroke="#000000"></path>
                    <path d="M6.72648857,5.02045143 C6.72648857,5.02045143 6.83560286,2.23179429 8.76491714,1.03913714" id="Stroke-8" stroke="#000000" stroke-linecap="round" stroke-linejoin="round"></path>
                </g>
            </g>
        </g>
    </g>
</svg>