<svg xmlns="http://www.w3.org/2000/svg" xmlns:xlink="http://www.w3.org/1999/xlink" viewBox="0 0 19.95 19.87" width="20" height="20"><defs><mask id="a" x="2.58" y="2.5" width="17.37" height="17.37" maskUnits="userSpaceOnUse"><g transform="translate(-0.77 -0.81)"><polygon points="3.35 20.68 20.73 20.68 20.73 12 20.73 3.31 3.35 3.31 3.35 20.68" style="fill:#fff"/></g></mask></defs><title>like-ativo</title><g style="opacity:0.5400000214576721"><g style="mask:url(#a)"><path d="M15.3,3.34a5.12,5.12,0,0,0-1.79.29,5.29,5.29,0,0,0-1.14.56l-.25.17L12,4.41A5.42,5.42,0,0,0,3.35,8.74c0,4.91,3.16,9.36,8.45,11.89a.54.54,0,0,0,.47,0c5.29-2.53,8.45-7,8.45-11.89A5.56,5.56,0,0,0,15.3,3.34" transform="translate(-0.77 -0.81)"/></g><path d="M13.22,1.34a5.12,5.12,0,0,0-1.79.29,5.29,5.29,0,0,0-1.14.56L10,2.35,10,2.41A5.42,5.42,0,0,0,1.27,6.74c0,4.91,3.16,9.36,8.45,11.89a.54.54,0,0,0,.47,0c5.29-2.53,8.45-7,8.45-11.89a5.56,5.56,0,0,0-5.43-5.41" transform="translate(-0.77 -0.81)" style="fill:#e0456f"/><path d="M13.22,1.34a5.12,5.12,0,0,0-1.79.29,5.29,5.29,0,0,0-1.14.56L10,2.35,10,2.41A5.42,5.42,0,0,0,1.27,6.74c0,4.91,3.16,9.36,8.45,11.89a.54.54,0,0,0,.47,0c5.29-2.53,8.45-7,8.45-11.89a5.56,5.56,0,0,0-5.43-5.41Z" transform="translate(-0.77 -0.81)" style="fill:none;stroke:#000"/><path d="M8,6.33s.11-2.79,2-4" transform="translate(-0.77 -0.81)" style="fill:none;stroke:#000;stroke-linecap:round;stroke-linejoin:round"/></g></svg>
