<?xml version="1.0" encoding="UTF-8" standalone="no"?>
<svg width="14px" height="10px" viewBox="0 0 14 10" version="1.1" xmlns="http://www.w3.org/2000/svg" xmlns:xlink="http://www.w3.org/1999/xlink">
    <defs>
        <polygon id="path-1" points="13.9999125 10 0 10 0 8.57142857e-05 13.9999125 8.57142857e-05"></polygon>
    </defs>
    <g id="Menu,-cadastro-e-perfil" stroke="none" stroke-width="1" fill="none" fill-rule="evenodd">
        <g id="TMJ-mobile-menu-Copy-8" transform="translate(-34.000000, -325.000000)">
            <g id="Page-1" transform="translate(34.000000, 325.000000)">
                <mask id="mask-2" fill="white">
                    <use xlink:href="#path-1"></use>
                </mask>
                <g id="Clip-2"></g>
                <path d="M4.29324583,5.00865714 L1.62449583,2.37722857 C1.40312083,2.16008571 1.40312083,1.80865714 1.62449583,1.59151429 C1.8461625,1.37437143 2.20520417,1.37437143 2.42657917,1.59151429 L6.6849125,5.76865714 C6.85699583,5.93437143 7.14020417,5.93437143 7.30937083,5.76865714 L11.5732458,1.59151429 C11.7949125,1.37437143 12.1536625,1.37437143 12.3753292,1.59151429 C12.5969958,1.80865714 12.5969958,2.16008571 12.3753292,2.37722857 L9.7036625,5.00865714 L12.3753292,7.62294286 C12.5969958,7.84008571 12.5969958,8.19151429 12.3753292,8.40865714 C12.1536625,8.6258 11.7949125,8.6258 11.5732458,8.40865714 L8.90449583,5.79722857 C8.90449583,5.79722857 8.07032917,6.62865714 7.91895417,6.77694286 C7.6824125,7.00265714 7.35574583,7.14294286 6.9999125,7.14294286 C6.63824583,7.14294286 6.31157917,7.00008571 6.07532917,6.76865714 C5.92074583,6.62008571 5.0924125,5.79722857 5.0924125,5.79722857 L2.42657917,8.40865714 C2.20520417,8.6258 1.8461625,8.6258 1.62449583,8.40865714 C1.40312083,8.19151429 1.40312083,7.84008571 1.62449583,7.62294286 L4.29324583,5.00865714 Z M-8.75000001e-05,8.85722857 C-8.75000001e-05,9.48865714 0.521995833,10.0000857 1.16657917,10.0000857 L12.8332458,10.0000857 C13.4778292,10.0000857 13.9999125,9.48865714 13.9999125,8.85722857 L13.9999125,1.14294286 C13.9999125,0.511514286 13.4778292,8.57142857e-05 12.8332458,8.57142857e-05 L1.16657917,8.57142857e-05 C0.521995833,8.57142857e-05 -8.75000001e-05,0.511514286 -8.75000001e-05,1.14294286 L-8.75000001e-05,8.85722857 Z" id="Fill-1" fill="#000000" mask="url(#mask-2)"></path>
            </g>
        </g>
    </g>
</svg>
