<?xml version="1.0" encoding="UTF-8" standalone="no"?>
<svg width="34px" height="38px" viewBox="0 0 34 38" version="1.1" xmlns="http://www.w3.org/2000/svg" xmlns:xlink="http://www.w3.org/1999/xlink">
    <g id="Menu,-cadastro-e-perfil" stroke="none" stroke-width="1" fill="none" fill-rule="evenodd" stroke-linecap="round" opacity="0.492012593" stroke-linejoin="round">
        <g id="TMJ-mobile-menu-Copy-8" transform="translate(-91.000000, -426.000000)" stroke="#FFFFFF" stroke-width="1.03">
            <path d="M123.849,463.4199 C123.469,463.1029 123.053,462.8149 122.598,462.5869 L114.659,458.6179 C113.634,458.1049 112.983,457.0569 112.983,455.9069 L112.983,452.7939 C113.208,452.5419 113.464,452.2129 113.735,451.8279 C114.82,450.2989 115.635,448.6179 116.202,446.8549 C117.223,446.5399 117.974,445.6009 117.974,444.4839 L117.974,441.1599 C117.974,440.4269 117.649,439.7719 117.141,439.3149 L117.141,434.5069 C117.141,434.5069 118.13,427.0299 107.997,427.0299 C97.87,427.0299 98.858,434.5069 98.858,434.5069 L98.858,439.3149 C98.351,439.7719 98.025,440.4269 98.025,441.1599 L98.025,444.4839 C98.025,445.3579 98.488,446.1269 99.175,446.5759 C100.008,450.1929 102.182,452.7939 102.182,452.7939 L102.182,455.8349 C102.182,456.9379 101.574,457.9589 100.603,458.4899 L93.19,462.5319 C92.755,462.7709 92.361,463.0639 92,463.3799 C92.017,463.3939 92.035,463.4059 92.052,463.4199" id="Page-1-Copy"></path>
        </g>
    </g>
</svg>
