<?xml version="1.0" encoding="UTF-8" standalone="no"?>
<svg width="733px" height="733px" viewBox="0 0 733 733" version="1.1" xmlns="http://www.w3.org/2000/svg" xmlns:xlink="http://www.w3.org/1999/xlink">
    <g id="Page-1" stroke="none" stroke-width="1" fill="none" fill-rule="evenodd">
        <g>
            <g id="Group-3" fill="#FFFFFF">
                <path d="M216.1577,599.1689 C217.6227,601.2099 218.5997,602.5389 219.5437,603.8899 C227.1387,614.7589 236.1387,624.2779 246.6037,632.4419 C266.0807,647.6359 287.9117,653.5489 312.2877,648.9649 C319.0677,647.6899 325.7407,645.6969 331.3407,639.9639 C286.8447,644.2719 252.9367,627.5539 227.9347,589.3849 C234.8927,588.6599 240.7897,588.0979 246.6727,587.4169 C251.8147,586.8219 254.5587,584.1639 254.5237,580.0159 C254.4887,575.8079 251.7747,572.7909 246.7767,572.4979 C242.4907,572.2479 238.0947,572.4839 233.8507,573.1559 C211.5617,576.6819 194.5397,595.4039 194.2007,616.8459 C194.1477,620.2239 195.3757,623.6209 196.0107,627.0099 L198.4907,627.5199 C204.2877,618.2179 210.0847,608.9149 216.1577,599.1689 L216.1577,599.1689 Z M372.8447,216.1899 C372.2327,214.5219 371.6137,212.8569 371.0077,211.1869 C362.7757,188.4869 354.9587,165.6259 346.1857,143.1379 C339.0777,124.9189 329.8197,107.7329 316.4797,93.1139 C294.5797,69.1129 265.8347,63.4179 236.5467,77.3519 C216.7687,86.7609 200.6667,100.9709 186.4397,117.2689 C144.6777,165.1079 117.0457,220.4129 100.9937,281.6229 C91.6257,317.3459 90.0507,353.3699 99.0137,389.4459 C109.7057,432.4779 131.0817,468.7829 168.0857,494.3299 C211.9177,524.5929 273.9927,531.7249 323.1697,475.9359 C340.2167,456.5969 352.9127,434.6129 363.0117,411.0469 C366.7267,402.3749 370.0077,393.5169 373.5007,384.7089 C373.8537,384.9629 374.2527,385.0969 374.3577,385.3509 C374.9247,386.7319 375.4337,388.1369 375.9367,389.5429 C385.8157,417.1769 398.2997,443.4209 417.5487,465.9189 C451.6667,505.7989 500.8397,518.7179 547.4917,499.7829 C580.2387,486.4929 602.2997,461.9499 617.0867,430.6239 C637.7487,386.8509 641.3557,340.7509 632.2057,293.8329 C620.2417,232.4769 589.0327,181.7739 542.5967,140.3919 C523.2377,123.1399 501.4847,109.7449 475.7917,103.7519 C449.0437,97.5119 426.3157,104.5189 409.0617,125.7579 C401.1727,135.4679 394.6847,146.6049 389.1527,157.8749 C380.2007,176.1099 376.0507,195.8999 372.8447,216.1899 L372.8447,216.1899 Z M-0.0003,732.9999 L732.9997,732.9999 L732.9997,-0.0001 L-0.0003,-0.0001 L-0.0003,732.9999 Z" id="Fill-1"></path>
            </g>
            <path d="M329.9717,383.8955 C329.9837,360.6855 325.2157,342.1955 316.6787,328.8245 C298.6717,300.6195 263.1257,299.2095 243.0207,325.9555 C235.3707,336.1325 230.9717,347.7655 228.5187,360.1495 C223.7007,384.4735 225.0147,408.2355 236.0557,430.8285 C241.7137,442.4055 250.0887,451.4845 262.5777,455.9365 C283.0337,463.2275 303.7957,454.9015 316.2567,434.3945 C326.3327,417.8105 329.6957,399.4725 329.9717,383.8955 M521.8517,384.0385 C521.3327,365.2545 517.9927,347.8995 508.7847,332.0935 C502.5777,321.4375 494.2427,313.0165 482.2337,309.0435 C461.3887,302.1465 439.8737,310.9425 429.1287,332.4435 C412.6177,365.4805 413.7507,398.9995 430.2107,431.8185 C433.2597,437.8975 438.0197,443.5795 443.1947,448.0495 C464.2477,466.2375 494.2537,460.2045 509.3397,435.0925 C518.9027,419.1755 521.7167,401.5525 521.8517,384.0385 M372.8447,216.1895 C376.0507,195.9005 380.2007,176.1105 389.1527,157.8745 C394.6847,146.6045 401.1727,135.4685 409.0617,125.7575 C426.3157,104.5185 449.0437,97.5115 475.7917,103.7515 C501.4847,109.7445 523.2377,123.1395 542.5967,140.3915 C589.0327,181.7745 620.2427,232.4765 632.2057,293.8325 C641.3557,340.7505 637.7487,386.8505 617.0867,430.6245 C602.2997,461.9505 580.2387,486.4935 547.4927,499.7835 C500.8397,518.7175 451.6667,505.7985 417.5487,465.9185 C398.2997,443.4205 385.8157,417.1765 375.9367,389.5425 C375.4337,388.1365 374.9247,386.7315 374.3577,385.3505 C374.2527,385.0965 373.8537,384.9625 373.5007,384.7085 C370.0077,393.5165 366.7267,402.3745 363.0117,411.0465 C352.9127,434.6135 340.2167,456.5965 323.1697,475.9355 C273.9927,531.7245 211.9177,524.5925 168.0857,494.3305 C131.0817,468.7835 109.7057,432.4775 99.0137,389.4465 C90.0507,353.3695 91.6257,317.3455 100.9937,281.6225 C117.0457,220.4125 144.6777,165.1075 186.4397,117.2685 C200.6667,100.9705 216.7687,86.7605 236.5467,77.3515 C265.8347,63.4175 294.5797,69.1135 316.4797,93.1135 C329.8197,107.7335 339.0777,124.9185 346.1857,143.1385 C354.9587,165.6255 362.7757,188.4875 371.0077,211.1865 C371.6137,212.8565 372.2327,214.5215 372.8447,216.1895" id="Fill-4" fill="#000000"></path>
            <path d="M216.1577,599.1689 C210.0847,608.9149 204.2877,618.2179 198.4907,627.5199 L196.0107,627.0099 C195.3757,623.6209 194.1477,620.2239 194.2007,616.8459 C194.5397,595.4039 211.5617,576.6819 233.8507,573.1559 C238.0947,572.4839 242.4907,572.2479 246.7767,572.4979 C251.7747,572.7909 254.4887,575.8079 254.5237,580.0159 C254.5587,584.1639 251.8147,586.8219 246.6727,587.4169 C240.7897,588.0979 234.8927,588.6599 227.9347,589.3849 C252.9367,627.5539 286.8447,644.2719 331.3407,639.9639 C325.7407,645.6969 319.0677,647.6899 312.2877,648.9649 C287.9117,653.5489 266.0807,647.6359 246.6037,632.4419 C236.1387,624.2779 227.1387,614.7589 219.5437,603.8899 C218.5997,602.5389 217.6227,601.2099 216.1577,599.1689" id="Fill-6" fill="#000000"></path>
            <path d="M521.8516,384.0381 C521.7166,401.5531 518.9026,419.1761 509.3396,435.0931 C494.2536,460.2041 464.2476,466.2371 443.1946,448.0501 C438.0196,443.5791 433.2596,437.8971 430.2106,431.8181 C413.7506,398.9991 412.6186,365.4811 429.1286,332.4431 C439.8736,310.9421 461.3886,302.1471 482.2336,309.0431 C494.2426,313.0171 502.5786,321.4371 508.7856,332.0931 C517.9926,347.8991 521.3326,365.2541 521.8516,384.0381" id="Fill-8" fill="#FFFFFF"></path>
            <path d="M329.9717,383.8955 C329.6957,399.4725 326.3327,417.8105 316.2567,434.3945 C303.7957,454.9015 283.0337,463.2275 262.5777,455.9365 C250.0887,451.4845 241.7137,442.4055 236.0557,430.8285 C225.0147,408.2355 223.7007,384.4735 228.5187,360.1495 C230.9717,347.7655 235.3707,336.1325 243.0207,325.9555 C263.1257,299.2095 298.6717,300.6195 316.6787,328.8245 C325.2157,342.1955 329.9837,360.6855 329.9717,383.8955" id="Fill-10" fill="#FFFFFF"></path>
        </g>
    </g>
</svg>
