<?xml version="1.0" encoding="utf-8"?>
<!-- Generator: Adobe Illustrator 21.0.0, SVG Export Plug-In . SVG Version: 6.00 Build 0)  -->
<svg version="1.1" id="Layer_1" xmlns="http://www.w3.org/2000/svg" xmlns:xlink="http://www.w3.org/1999/xlink" x="0px" y="0px"
	 viewBox="0 0 20 20" style="enable-background:new 0 0 20 20;" xml:space="preserve">
<style type="text/css">
	.st0{fill:#FFFFFF;}
</style>
<g id="Guide-cards">
	<g id="Home-TMJ" transform="translate(-1208.000000, -1262.000000)">
		<g id="Page-1" transform="translate(1208.000000, 1262.000000)">
			<path id="Fill-1" d="M19.9,10c0,5.4-4.4,9.8-9.9,9.8S0.1,15.4,0.1,10S4.5,0.2,10,0.2S19.9,4.6,19.9,10"/>
			<path id="Fill-3" class="st0" d="M11.4,13.2c-0.8-0.1-1.2-0.5-1.9-0.9c-0.4,1.9-0.8,3.7-2.1,4.7C7,14.2,8,12,8.5,9.7
				c-0.8-1.3,0.1-4,1.8-3.3c2.1,0.8-1.8,4.9,0.8,5.5c2.7,0.5,3.8-4.7,2.1-6.3C10.8,3,6.1,5.4,6.7,8.9c0.1,0.9,1,1.1,0.4,2.3
				c-1.6-0.3-2-1.6-2-3.2c0.1-2.6,2.4-4.5,4.7-4.8c2.9-0.3,5.7,1.1,6,3.8C16.3,10.1,14.5,13.5,11.4,13.2"/>
		</g>
	</g>
</g>
</svg>
