<?xml version="1.0" encoding="UTF-8" standalone="no"?>
<svg width="12px" height="12px" viewBox="0 0 12 12" version="1.1" xmlns="http://www.w3.org/2000/svg" xmlns:xlink="http://www.w3.org/1999/xlink">
    <!-- Generator: sketchtool 40 (33762) - http://www.bohemiancoding.com/sketch -->
    <title>F20926B3-B65C-4067-9D91-8CA7E68253C5</title>
    <desc>Created with sketchtool.</desc>
    <defs>
        <polygon id="path-1" points="11.4621538 11.6922462 11.4621538 0.230153846 9.23076923e-05 0.230153846 9.23076923e-05 11.6922462 11.4621538 11.6922462"></polygon>
    </defs>
    <g id="Styleguide" stroke="none" stroke-width="1" fill="none" fill-rule="evenodd" opacity="0.38">
        <g id="Desktop-HD" transform="translate(-1138.000000, -370.000000)">
            <g id="pinterest" transform="translate(1138.000000, 370.000000)">
                <g id="Page-1">
                    <g id="Group-3" transform="translate(0.000000, 0.077692)">
                        <mask id="mask-2" fill="white">
                            <use xlink:href="#path-1"></use>
                        </mask>
                        <g id="Clip-2"></g>
                        <path d="M11.4622462,5.96116923 C11.4622462,9.1264 8.8964,11.6922462 5.73116923,11.6922462 C2.56593846,11.6922462 9.23076923e-05,9.1264 9.23076923e-05,5.96116923 C9.23076923e-05,2.79593846 2.56593846,0.230092308 5.73116923,0.230092308 C8.8964,0.230092308 11.4622462,2.79593846 11.4622462,5.96116923" id="Fill-1" fill="#231F1F" mask="url(#mask-2)"></path>
                    </g>
                    <path d="M6.54938462,7.92092308 C6.05984615,7.88276923 5.85523077,7.64092308 5.47215385,7.40830769 C5.262,8.51261538 5.00446154,9.57230769 4.24169231,10.1252308 C4.006,8.45538462 4.58723077,7.20123077 4.85707692,5.86953846 C4.39707692,5.09507692 4.91215385,3.53692308 5.88261538,3.92092308 C7.07615385,4.39323077 4.84846154,6.79907692 6.34384615,7.10030769 C7.90538462,7.41353846 8.54292308,4.39076923 7.57492308,3.408 C6.17584615,1.98861538 3.50292308,3.37569231 3.83153846,5.408 C3.91153846,5.90492308 4.42507692,6.05538462 4.03646154,6.74123077 C3.14107692,6.54246154 2.87461538,5.83692308 2.90846154,4.89538462 C2.96384615,3.35476923 4.29307692,2.27569231 5.62569231,2.12615385 C7.31184615,1.93753846 8.89430769,2.74492308 9.11307692,4.33107692 C9.35892308,6.12123077 8.35184615,8.06061538 6.54938462,7.92092308" id="Fill-4" fill="#FFFFFF"></path>
                </g>
            </g>
        </g>
    </g>
</svg>