<?xml version="1.0" encoding="UTF-8" standalone="no"?>
<svg width="32px" height="33px" viewBox="0 0 32 33" version="1.1" xmlns="http://www.w3.org/2000/svg" xmlns:xlink="http://www.w3.org/1999/xlink">
    <defs></defs>
    <g id="Styleguide" stroke="none" stroke-width="1" fill="none" fill-rule="evenodd">
        <g transform="translate(-971.000000, -469.000000)" id="pinterest_perfil">
            <g transform="translate(971.000000, 469.000000)">
                <path d="M31.4363673,16.4548542 C31.4363673,25.2940292 24.399313,32.4593719 15.7183946,32.4593719 C7.03747628,32.4593719 0.000421936344,25.2940292 0.000421936344,16.4548542 C0.000421936344,7.6156792 7.03747628,0.450336504 15.7183946,0.450336504 C24.399313,0.450336504 31.4363673,7.6156792 31.4363673,16.4548542" id="Fill-1" fill=""></path>
                <path d="M17.9623365,21.7108423 C16.619735,21.6042945 16.0585597,20.9289186 15.0079382,20.2793204 C14.4315732,23.3631932 13.7252517,26.3224737 11.6332913,27.8665582 C10.9868848,23.2033714 12.5809603,19.7010406 13.3210367,15.9813178 C12.059447,13.8194276 13.471246,9.468151 16.1328205,10.5405035 C19.4070465,11.8594628 13.2974083,18.5779919 17.3986295,19.4192043 C21.6804395,20.2939278 23.4297876,11.8525887 20.7749641,9.10812239 C16.9370312,5.14437064 9.60630913,9.01704117 10.508409,14.6932918 C10.7278159,16.0809916 12.1353956,16.5011682 11.0704282,18.4155924 C8.61475872,17.8613717 7.88396497,15.8902365 7.97679097,13.2609106 C8.12784418,8.95947096 11.7742181,5.94605726 15.4290307,5.52759918 C20.053453,5.001734 24.3934902,7.25642392 24.9934837,11.6858929 C25.667738,16.6850491 22.9057427,22.1009449 17.9623365,21.7108423" id="Fill-3" fill="#FFFFFF"></path>
            </g>
        </g>
    </g>
</svg>
