<?xml version="1.0" encoding="UTF-8" standalone="no"?>
<svg width="54px" height="58px" viewBox="0 0 54 58" version="1.1" xmlns="http://www.w3.org/2000/svg" xmlns:xlink="http://www.w3.org/1999/xlink">
    <defs>
        <polygon id="path-1" points="8.8901391 13.8809455 8.8901391 0.212321799 0.0759711707 0.212321799 0.0759711707 13.8809455 8.8901391 13.8809455"></polygon>
    </defs>
    <g id="Styleguide" stroke="none" stroke-width="1" fill="none" fill-rule="evenodd">
        <g id="Styleguide-Motions" transform="translate(-1312.000000, -240.000000)">
            <g id="Group-5" transform="translate(1312.000000, 240.000000)">
                <polygon id="Page-1-Copy-4" stroke="#000000" stroke-linecap="round" stroke-linejoin="round" fill="#FFFFFF" points="52.5405753 36.0968979 42.6809683 37.2751254 46.754062 46.6244892 36.9628629 43.221794 39.67343 57.9496374 29.6206708 46.2832539 24.5013369 56.9420276 21.0246001 47.0936877 13.5922703 52.3264985 14.7230146 42.0234465 1.7431972 46.6309276 9.30027095 36.6151893 2.27373675e-13 33.2543437 10.0921943 28.0593585 0.653497751 21.2587969 10.9476969 20.0644734 3.43327759 8.03592986 16.232015 14.1355105 16.2183333 2.609967 23.1621494 10.9412585 28.0609681 1.7295156 31.5071225 11.5086427 41.9518193 0 38.4718633 15.3330531 48.5753248 13.0224718 40.1756253 22.519114 53.1940731 24.102156 44.4346279 29.6407909"></polygon>
                <g id="Page-1" transform="translate(28.153416, 27.417487) rotate(1.000000) translate(-28.153416, -27.417487) translate(4.153416, 18.417487)">
                    <path d="M24.9515004,8.08887273 C24.9515004,8.55087273 24.9135883,9.05596364 24.8393658,9.59269091 C24.7651434,10.1266909 24.6668921,10.6241455 24.545146,11.0736 C24.4063126,11.6136 24.2391787,12.1203273 24.0496178,12.5779636 C23.8621928,13.0317818 23.6614184,13.4157818 23.4542363,13.7196 C23.253462,14.0136 23.0542896,14.2323273 22.8620588,14.3686909 C22.6644883,14.5094182 22.5411402,14.4914182 22.4594421,14.4636 C22.3206088,14.4205091 22.212212,14.2912364 22.127844,14.0686909 C22.024253,13.7954182 21.962846,13.4577818 21.9452248,13.0650545 C21.9265357,12.6586909 21.9457588,12.2114182 22.0007581,11.7363273 C22.0557575,11.2606909 22.148669,10.7970545 22.2778908,10.3552364 C22.4076466,9.90196364 22.5790524,9.42414545 22.7883703,8.93432727 C22.9976883,8.44505455 23.2251613,7.99723636 23.4643819,7.60232727 C23.6993306,7.21505455 23.9348133,6.90632727 24.1649562,6.68487273 C24.2824306,6.57196364 24.4490306,6.44650909 24.5809222,6.49123636 C24.6732998,6.5196 24.7619396,6.67178182 24.8244146,6.9096 C24.9082485,7.23141818 24.9515004,7.62796364 24.9515004,8.08887273 M6.24264083,6.21250909 C6.25225237,6.50050909 6.18977737,6.84523636 6.05788571,7.23687273 C5.92172224,7.63887273 5.70439468,8.07741818 5.41124276,8.53887273 C5.19017737,8.88741818 4.91411263,9.23650909 4.58785429,9.57850909 C4.49974853,9.15414545 4.4169825,8.74723636 4.34062417,8.36432727 C4.24237288,7.87123636 4.15426712,7.38414545 4.07951071,6.91505455 C4.28295494,6.68596364 4.49547673,6.48196364 4.71173635,6.30741818 C4.95736455,6.10996364 5.1896434,5.95232727 5.40269917,5.83832727 C5.6018716,5.73250909 5.77541327,5.67032727 5.91798442,5.65450909 C5.94308122,5.65178182 5.96390622,5.65069091 5.98152737,5.65069091 C6.04827417,5.65069091 6.0600216,5.66269091 6.0600216,5.66269091 L6.07817673,5.68232727 C6.17909788,5.78323636 6.23463122,5.96214545 6.24264083,6.21250909 M14.8545793,7.22214545 C14.8545793,7.75669091 14.8107934,8.34032727 14.7253575,8.95778182 C14.6393876,9.57632727 14.5256511,10.1496 14.3857498,10.6666909 C14.2255575,11.2890545 14.0327928,11.8732364 13.8138633,12.4034182 C13.5970697,12.9276 13.3647908,13.3721455 13.1245024,13.7245091 C12.8906216,14.0670545 12.6578088,14.3217818 12.4330056,14.4810545 C12.2514543,14.6103273 12.091262,14.6485091 11.9358754,14.5961455 C11.7639357,14.5426909 11.6309761,14.3861455 11.528987,14.1172364 C11.4077748,13.7986909 11.3362222,13.4059636 11.3159312,12.9494182 C11.2945722,12.4814182 11.3164652,11.9643273 11.3800081,11.4139636 C11.4440851,10.8646909 11.5519479,10.3285091 11.7009267,9.81850909 C11.8504396,9.29432727 12.048544,8.74232727 12.2899004,8.17832727 C12.5312569,7.61432727 12.7934383,7.09723636 13.070571,6.64123636 C13.3418299,6.19232727 13.6152248,5.83450909 13.882746,5.5776 C14.0258511,5.44014545 14.2308972,5.28741818 14.4001671,5.34523636 C14.5213793,5.38178182 14.6303101,5.56287273 14.7066684,5.85414545 C14.8049197,6.22887273 14.8545793,6.68923636 14.8545793,7.22214545 M35.6929287,0.838690909 C35.5594351,0.708327273 35.4334171,0.603054545 35.3186126,0.5256 C35.1936626,0.442690909 35.0681787,0.384872727 34.9453646,0.352145455 C34.8198806,0.319963636 34.686387,0.310145455 34.5486216,0.323236364 C34.4263415,0.335236364 34.2875081,0.360327273 34.1150344,0.402872727 C33.5180511,0.571963636 32.9093203,0.7596 32.3053953,0.963054545 C31.6977325,1.16705455 31.1007492,1.38250909 30.5315325,1.60341818 C29.9575101,1.82650909 29.4059146,2.05505455 28.8922312,2.28469091 C28.3726742,2.51705455 27.9043787,2.75214545 27.4996261,2.98232727 L27.314337,3.0876 L27.376812,3.29541818 C27.5199171,3.77378182 27.6512748,4.35196364 27.7660793,5.01469091 C27.7831665,5.11287273 27.7991857,5.21432727 27.8157389,5.31469091 C27.6400613,5.05341818 27.4088504,4.80141818 27.1226402,4.56250909 C26.7782267,4.28323636 26.3425037,4.04323636 25.8272184,3.84905455 C25.3215447,3.65869091 24.7832985,3.51632727 24.2258293,3.42687273 C23.7698152,3.35269091 23.2865684,3.38978182 22.7889043,3.53596364 C22.2965799,3.6816 21.8651287,3.89814545 21.5073658,4.18069091 L21.4956184,4.19050909 C20.9856729,4.64105455 20.5312607,5.15596364 20.1441293,5.7216 C19.7591338,6.28341818 19.4302056,6.88723636 19.1669562,7.5156 C19.026521,7.84996364 18.9047748,8.19141818 18.8001158,8.53832727 C18.8006498,8.52905455 18.8017178,8.51923636 18.8022517,8.50996364 C18.8689985,7.53687273 18.8406979,6.6216 18.7162819,5.77887273 C18.6244383,5.26232727 18.4749254,4.79378182 18.2725492,4.38632727 C18.0653671,3.96796364 17.734837,3.56869091 17.2884344,3.19614545 C16.8954293,2.8776 16.3977652,2.60323636 15.8087915,2.38123636 C15.2294293,2.16305455 14.6121549,2.00050909 13.9735216,1.89741818 C13.4550325,1.81341818 12.9045049,1.85541818 12.3374242,2.02232727 C11.7756831,2.18869091 11.2838928,2.43578182 10.8759363,2.75705455 L10.8647229,2.76632727 C10.2805549,3.28232727 9.75939596,3.87305455 9.31566327,4.5216 C9.27187737,4.58487273 9.23236327,4.65087273 9.19017929,4.71523636 C9.12289853,4.59741818 9.04654019,4.4796 8.9568325,4.36341818 C8.56275942,3.88014545 8.1467934,3.50105455 7.72068186,3.23705455 C7.30898763,2.98287273 6.87860429,2.75923636 6.44074532,2.57214545 L6.42259019,2.56505455 C6.03652673,2.43414545 5.63337609,2.40196364 5.22488571,2.47014545 C4.83241455,2.53614545 4.43300173,2.67250909 4.03839468,2.87596364 C3.65179724,3.0756 3.26680173,3.33032727 2.89408763,3.63523636 C2.52884917,3.93305455 2.17162032,4.26087273 1.83308058,4.60887273 C1.49667673,4.95523636 1.17575814,5.31741818 0.879402372,5.68614545 C0.586250449,6.05105455 0.318729295,6.39796364 0.0880523718,6.71487273 C-0.0379655769,6.88014545 -0.0294219872,7.15069091 0.11848891,7.67923636 C0.233293397,8.08832727 0.3977575,8.58796364 0.607075449,9.16396364 C0.812121603,9.7296 1.04066263,10.3448727 1.30551391,11.0441455 C1.56128763,11.7194182 1.80638186,12.3717818 2.04026263,13.0012364 C2.27040558,13.6192364 2.46904404,14.1886909 2.63030429,14.6921455 C2.78462288,15.1765091 2.87219468,15.5316 2.89088378,15.7465091 L2.89622353,15.7819636 C2.96350429,16.0912364 3.09806583,16.3170545 3.29617032,16.4523273 C3.47505173,16.5745091 3.68864147,16.6437818 3.93159981,16.6585091 C3.97805558,16.6612364 4.02557929,16.6628727 4.07417096,16.6628727 C4.24931455,16.6628727 4.4356716,16.6443273 4.62950429,16.6066909 C4.85484147,16.5630545 5.08712032,16.5188727 5.32740878,16.4736 L5.34609788,16.4692364 C5.65046327,16.3874182 5.82881071,16.2908727 5.92332417,16.1550545 C6.01730365,16.0197818 6.04934212,15.8376 6.01783763,15.6145091 L6.00929404,15.5757818 C5.87633442,15.1208727 5.74871455,14.6479636 5.62910429,14.1712364 C5.5207075,13.7365091 5.40964083,13.2832364 5.29910814,12.8212364 C5.6894434,12.4743273 6.07871071,12.0990545 6.45836647,11.7019636 C6.74083891,11.4068727 7.00889404,11.1030545 7.26253186,10.7954182 C7.25932801,10.8805091 7.25345429,10.9656 7.25238635,11.0506909 C7.24117288,11.7843273 7.30418186,12.4939636 7.4387434,13.1594182 C7.57490686,13.8314182 7.78262288,14.4428727 8.05708571,14.9801455 C8.23650109,15.3232364 8.48426519,15.6319636 8.79343635,15.8981455 C9.09192801,16.1566909 9.40216712,16.3721455 9.71507609,16.5374182 C10.0963338,16.7381455 10.5224453,16.8908727 10.9821972,16.9901455 C11.4291338,17.0866909 11.8696626,17.1592364 12.2925703,17.2045091 C12.5269851,17.2301455 12.7533902,17.2421455 12.9712517,17.2421455 C13.3583831,17.2421455 13.7166799,17.2023273 14.0429383,17.1226909 C14.5603594,16.9966909 15.0590915,16.7457818 15.5252511,16.3765091 L15.5380665,16.3656 C16.2055344,15.7650545 16.7752851,15.0221455 17.2329011,14.1570545 C17.6841094,13.3039636 18.0456101,12.3832364 18.3077915,11.4205091 C18.3227428,11.3654182 18.3366261,11.3092364 18.3510434,11.2541455 C18.3494415,11.3076 18.3451697,11.3621455 18.3441017,11.4156 C18.3350242,12.0565091 18.3900235,12.6761455 18.5074979,13.2565091 C18.6265742,13.8434182 18.8081254,14.3774182 19.0478799,14.8476 C19.2064703,15.1492364 19.4243319,15.4214182 19.6961248,15.6559636 C19.9583062,15.8828727 20.2295652,16.0710545 20.503494,16.2156 C20.837228,16.3917818 21.2110101,16.5254182 21.6136267,16.6126909 C22.002894,16.6966909 22.3873556,16.7594182 22.7557979,16.7997818 C22.960844,16.8216 23.1589485,16.8319636 23.3495774,16.8319636 C23.6881171,16.8319636 24.002628,16.7976 24.2888383,16.7277818 C24.7432504,16.6170545 25.1811094,16.3961455 25.5901338,16.0726909 L25.6029492,16.0617818 C26.1860492,15.5365091 26.6842472,14.8879636 27.0831261,14.1325091 C27.4766652,13.3890545 27.7917101,12.5861455 28.0202511,11.7472364 C28.167628,11.2045091 28.2802966,10.6546909 28.3571889,10.1048727 C28.4009748,10.6246909 28.4420908,11.1237818 28.480537,11.5999636 C28.5366043,12.2850545 28.5889338,12.8997818 28.6380594,13.4452364 C28.687719,13.9972364 28.7427184,14.4276 28.8035915,14.7336 C28.8746101,15.0319636 28.9579101,15.2545091 29.0593652,15.4126909 C29.1837812,15.6063273 29.4155261,15.7383273 29.7807646,15.8179636 C29.9927524,15.8534182 30.2431863,15.8866909 30.5256588,15.9166909 C30.6954626,15.9346909 30.8593928,15.9428727 31.0179831,15.9428727 C31.1317197,15.9428727 31.2417184,15.9390545 31.3479793,15.9292364 C31.6213742,15.9052364 31.8429735,15.8501455 32.0261267,15.7596 C32.2781626,15.6341455 32.395103,15.3952364 32.3507831,15.1006909 C32.3411716,14.5312364 32.3251524,13.8848727 32.3021915,13.1261455 C32.2813665,12.4410545 32.2717549,11.7046909 32.2744248,10.9356 C32.7571376,10.7021455 33.2569376,10.4659636 33.7626113,10.2330545 C34.312071,9.97996364 34.8658024,9.73505455 35.3971069,9.50923636 C35.7313748,9.38596364 35.9284113,9.24905455 36.0165171,9.07832727 C36.165496,8.79032727 35.9663235,8.45869091 35.8899652,8.33650909 C35.790112,8.14341818 35.6827831,7.95141818 35.5701146,7.76650909 C35.4489024,7.56850909 35.2956517,7.37269091 35.1082267,7.17687273 C34.8503171,6.92705455 34.3927011,6.67669091 33.6793113,6.89978182 C33.3712081,6.98650909 33.0657748,7.08087273 32.771021,7.18123636 C32.6070908,7.23687273 32.4442287,7.29305455 32.2824344,7.35032727 C32.3043274,6.89541818 32.3096671,6.4596 32.2995216,6.04941818 C32.2883081,5.59832727 32.2973857,5.17014545 32.3272883,4.77523636 C32.956844,4.52269091 33.5655748,4.28814545 34.1395972,4.07814545 C34.7659492,3.84905455 35.3784178,3.6156 35.9588479,3.38650909 C36.3267562,3.24087273 36.5280646,3.09905455 36.6108306,2.92450909 C36.6962665,2.7456 36.6738396,2.50723636 36.5408799,2.17287273 C36.3844254,1.70978182 36.1008851,1.26250909 35.6929287,0.838690909" id="Fill-1" fill="#C0C1C3"></path>
                    <path d="M40.5911288,14.0276182 C40.4069077,13.8001636 40.1495321,13.6010727 39.8318173,13.4390727 C39.4575013,13.2383455 39.0986705,13.1243455 38.7638686,13.0992545 C38.4242609,13.0741636 38.1129538,13.1205273 37.8400929,13.2378 C37.5650962,13.3561636 37.3344192,13.5301636 37.1544699,13.7559818 C36.9777244,13.9774364 36.8522404,14.2310727 36.7801538,14.5114364 C36.6194276,15.1518 36.7256885,15.7059818 37.0946647,16.1587091 C37.4470878,16.5907091 37.9287327,16.8688909 38.5214442,16.9839818 C38.6773647,17.0178 38.8295474,17.0352545 38.9769244,17.0352545 C39.0986705,17.0352545 39.2166788,17.0232545 39.3309494,17.0003455 C39.5723058,16.9512545 39.7917692,16.8743455 39.9823981,16.7701636 C40.171425,16.6670727 40.3401609,16.5432545 40.4838,16.4025273 C40.629575,16.2601636 40.734234,16.1319818 40.8036506,16.0114364 C40.8938923,15.8543455 40.9590372,15.6639818 40.9974833,15.4463455 C41.0369974,15.2210727 41.025784,14.9827091 40.9638429,14.7394364 C40.9013679,14.4950727 40.775884,14.2561636 40.5911288,14.0276182" id="Fill-3" fill="#C0C1C3"></path>
                    <path d="M47.060869,2.72274545 L47.060869,2.7222 C47.0240247,2.43092727 46.8584927,2.12710909 46.5541273,1.79274545 C46.290344,1.50692727 45.9624837,1.22329091 45.5801581,0.951109091 C45.206376,0.685472727 44.8496812,0.462381818 44.519151,0.290563636 C44.1208062,0.0483818182 43.7998876,-0.0410727273 43.5371722,0.0172909091 C43.2584376,0.0789272727 43.0229549,0.314563636 42.8179087,0.735654545 C42.4681555,1.43983636 42.082626,2.25092727 41.6709318,3.14492727 C41.2624414,4.03292727 40.8480773,4.95310909 40.4401209,5.88038182 C40.0321645,6.80656364 39.646101,7.71910909 39.293144,8.59238182 C38.9364491,9.47438182 38.6390254,10.2532909 38.4110183,10.8991091 C38.2604376,11.2842 38.2193215,11.5923818 38.2860683,11.8405636 C38.3522812,12.0854727 38.5199491,12.3183818 38.8018876,12.5556545 C39.0347004,12.7454727 39.2851344,12.9189273 39.5473158,13.0716545 C39.8041574,13.2211091 40.0930376,13.3629273 40.4059465,13.4932909 C40.6392933,13.6116545 40.8304562,13.6689273 40.9954542,13.6689273 C41.0477837,13.6689273 41.0979773,13.6634727 41.145501,13.6514727 C41.3606927,13.5985636 41.5363703,13.4207455 41.6805433,13.1103818 C41.9961222,12.4503818 42.3517491,11.7336545 42.7383465,10.9803818 C43.1281478,10.2200182 43.5515895,9.42583636 43.9958562,8.61965455 C44.436385,7.81947273 44.9041465,6.98710909 45.3852574,6.14656364 C45.8588927,5.31801818 46.3405376,4.48892727 46.8189786,3.67947273 C47.0165491,3.33583636 47.0977132,3.01347273 47.060869,2.72274545" id="Fill-5" fill="#C0C1C3"></path>
                    <path d="M25.752462,8.71958182 C25.752462,9.18103636 25.7145498,9.68667273 25.6403274,10.2228545 C25.5661049,10.7574 25.4678537,11.2543091 25.3461075,11.7043091 C25.2072742,12.2437636 25.0401402,12.7504909 24.8505793,13.2086727 C24.6631543,13.6619455 24.4623799,14.0459455 24.2551979,14.3497636 C24.0544235,14.6443091 23.8552511,14.8624909 23.6630203,14.9988545 C23.4654498,15.1395818 23.3421017,15.1215818 23.2604037,15.0943091 C23.1215703,15.0506727 23.0131735,14.9219455 22.9288056,14.6988545 C22.8252146,14.4255818 22.7638075,14.0879455 22.7461863,13.6952182 C22.7274972,13.2888545 22.7467203,12.8415818 22.8017197,12.3664909 C22.856719,11.8914 22.9496306,11.4277636 23.0788524,10.9854 C23.2086081,10.5321273 23.3800139,10.0543091 23.5893319,9.56503636 C23.7986498,9.07576364 24.0261229,8.6274 24.2653434,8.23249091 C24.5002921,7.84521818 24.7357748,7.53703636 24.9659178,7.31558182 C25.0833921,7.20267273 25.2499921,7.07667273 25.3818838,7.1214 C25.4742613,7.14976364 25.5629011,7.30194545 25.6253761,7.53976364 C25.7092101,7.86212727 25.752462,8.25867273 25.752462,8.71958182 M7.04360237,6.84321818 C7.05321391,7.13121818 6.99073891,7.4754 6.85884724,7.86703636 C6.72268378,8.26958182 6.50535622,8.70758182 6.21220429,9.16903636 C5.99113891,9.51812727 5.71507417,9.86667273 5.38881583,10.2092182 C5.30071006,9.78430909 5.21794404,9.3774 5.14158571,8.99449091 C5.04333442,8.50194545 4.95522865,8.01485455 4.88047224,7.54521818 C5.08391647,7.31612727 5.29643827,7.11212727 5.51269788,6.93758182 C5.75832609,6.74012727 5.99060494,6.58249091 6.20366071,6.46903636 C6.40283314,6.36321818 6.57637481,6.30103636 6.71894596,6.28521818 C6.74404276,6.28194545 6.76486776,6.28085455 6.78248891,6.28085455 C6.84923571,6.28085455 6.86098314,6.29285455 6.86098314,6.29285455 L6.87913827,6.31249091 C6.98005942,6.4134 7.03559276,6.59230909 7.04360237,6.84321818 M15.6555408,7.85230909 C15.6555408,8.38685455 15.6117549,8.97103636 15.526319,9.58794545 C15.4403492,10.2064909 15.3266126,10.7797636 15.1867113,11.2974 C15.026519,11.9197636 14.8337543,12.5039455 14.6148248,13.0341273 C14.3980312,13.5577636 14.1657524,14.0023091 13.9254639,14.3546727 C13.6915831,14.6972182 13.4587703,14.9519455 13.2339671,15.1117636 C13.0524158,15.2404909 12.8922235,15.2786727 12.736837,15.2263091 C12.5648972,15.1728545 12.4319376,15.0163091 12.3299485,14.7479455 C12.2087363,14.4294 12.1371838,14.0361273 12.1168928,13.5801273 C12.0955338,13.1115818 12.1174267,12.5944909 12.1809697,12.0446727 C12.2450466,11.4954 12.3529094,10.9586727 12.5018883,10.4492182 C12.6514011,9.92503636 12.8495056,9.37303636 13.090862,8.80903636 C13.3322184,8.24503636 13.5943998,7.72794545 13.8715325,7.2714 C14.1427915,6.82249091 14.4161863,6.46521818 14.6837075,6.20776364 C14.8268126,6.07030909 15.0318588,5.91758182 15.2011287,5.9754 C15.3223408,6.01249091 15.4312716,6.19358182 15.5076299,6.48485455 C15.6058812,6.85903636 15.6555408,7.3194 15.6555408,7.85230909 M36.4938902,1.4694 C36.3603966,1.33903636 36.2343787,1.23321818 36.1195742,1.15630909 C35.9946242,1.07285455 35.8691402,1.01503636 35.7463261,0.982309091 C35.6208421,0.950127273 35.4873485,0.940309091 35.3495831,0.953945455 C35.227303,0.9654 35.0884697,0.991036364 34.915996,1.03358182 C34.3190126,1.20212727 33.7102819,1.39030909 33.1063569,1.59321818 C32.498694,1.79776364 31.9017107,2.01267273 31.332494,2.23358182 C30.7584716,2.45667273 30.2068761,2.68521818 29.6931928,2.91485455 C29.1736357,3.14721818 28.7053402,3.38230909 28.3005876,3.61249091 L28.1152985,3.71830909 L28.1777735,3.92612727 C28.3208787,4.40394545 28.4522363,4.98212727 28.5670408,5.64485455 C28.584128,5.74303636 28.6001472,5.84449091 28.6167004,5.94485455 C28.4410229,5.68358182 28.209812,5.43158182 27.9236017,5.19321818 C27.5791883,4.9134 27.1434652,4.6734 26.6281799,4.47976364 C26.1225062,4.28885455 25.5842601,4.14703636 25.0267908,4.05703636 C24.5707767,3.98285455 24.0875299,4.01994545 23.5898658,4.16612727 C23.0975415,4.31176364 22.6660902,4.52830909 22.3083274,4.81085455 L22.2965799,4.82067273 C21.7866344,5.27121818 21.3322222,5.78667273 20.9450908,6.35230909 C20.5600953,6.91412727 20.2311671,7.51794545 19.9679178,8.14630909 C19.8274825,8.48067273 19.7057363,8.82212727 19.6010774,9.16849091 C19.6016113,9.15921818 19.6026793,9.14994545 19.6032133,9.14012727 C19.6699601,8.16758182 19.6416594,7.25176364 19.5172434,6.40958182 C19.4253998,5.89249091 19.275887,5.42394545 19.0735107,5.01649091 C18.8663287,4.59867273 18.5357985,4.1994 18.089396,3.82630909 C17.6963908,3.50776364 17.1987267,3.2334 16.609753,3.0114 C16.0303908,2.79376364 15.4131165,2.63067273 14.7744831,2.52758182 C14.255994,2.44358182 13.7054665,2.48558182 13.1383857,2.65303636 C12.5766447,2.81885455 12.0848543,3.06594545 11.6768979,3.38776364 L11.6656844,3.39703636 C11.0815165,3.91249091 10.5603575,4.50376364 10.1166248,5.15230909 C10.0728389,5.21558182 10.0333248,5.28103636 9.99114083,5.3454 C9.92386006,5.22758182 9.84750173,5.11030909 9.75779404,4.99358182 C9.36372096,4.51030909 8.94775494,4.13176364 8.5216434,3.86721818 C8.10994917,3.61303636 7.67956583,3.3894 7.24170686,3.20285455 L7.22355173,3.19521818 C6.83748827,3.06430909 6.43433763,3.03212727 6.02584724,3.10030909 C5.63337609,3.16630909 5.23396327,3.30267273 4.83935622,3.50612727 C4.45275878,3.70630909 4.06776327,3.96103636 3.69504917,4.2654 C3.32981071,4.56376364 2.97258186,4.89103636 2.63404212,5.23958182 C2.29763827,5.5854 1.97671968,5.94758182 1.68036391,6.31630909 C1.38721199,6.68121818 1.11969083,7.02867273 0.88901391,7.34503636 C0.762995962,7.51085455 0.771539551,7.78085455 0.919450449,8.3094 C1.03425494,8.71849091 1.19871904,9.21812727 1.40803699,9.79467273 C1.61308314,10.3603091 1.84162417,10.9750364 2.10647545,11.6743091 C2.36224917,12.3495818 2.6073434,13.0019455 2.84122417,13.6314 C3.07136712,14.2499455 3.27000558,14.8188545 3.43126583,15.3223091 C3.58558442,15.8072182 3.67315622,16.1623091 3.69184532,16.3772182 L3.69718506,16.4121273 C3.76446583,16.7214 3.89902737,16.9472182 4.09713186,17.0824909 C4.27601327,17.2046727 4.48960301,17.2739455 4.73256135,17.2886727 C4.77901712,17.2914 4.82654083,17.2930364 4.8751325,17.2930364 C5.05027609,17.2930364 5.23663314,17.2744909 5.43046583,17.2368545 C5.65580301,17.1932182 5.88808186,17.1490364 6.12837032,17.1037636 L6.14705942,17.0994 C6.45142481,17.0181273 6.62977224,16.9210364 6.72428571,16.7852182 C6.81826519,16.6499455 6.85030365,16.4677636 6.81879917,16.2446727 L6.81025558,16.2059455 C6.67729596,15.7510364 6.54967609,15.2781273 6.43006583,14.8019455 C6.32166904,14.3672182 6.21060237,13.9134 6.10006968,13.4514 C6.49040494,13.1050364 6.87967224,12.7292182 7.25932801,12.3326727 C7.54180045,12.0375818 7.80985558,11.7332182 8.0634934,11.4261273 C8.06028955,11.5106727 8.05441583,11.5963091 8.05334788,11.6808545 C8.04213442,12.4144909 8.1051434,13.1241273 8.23970494,13.7895818 C8.3758684,14.4615818 8.58358442,15.0735818 8.85804724,15.6103091 C9.03746263,15.9534 9.28522673,16.2621273 9.59439788,16.5288545 C9.89288955,16.7874 10.2031287,17.0023091 10.5160376,17.1675818 C10.8972953,17.3683091 11.3234069,17.5210364 11.7831588,17.6203091 C12.2300953,17.7174 12.6706242,17.7894 13.0935319,17.8352182 C13.3279466,17.8603091 13.5543517,17.8728545 13.7722133,17.8723091 C14.1593447,17.8723091 14.5176415,17.8330364 14.8438998,17.7534 C15.361321,17.6274 15.860053,17.3759455 16.3262126,17.0066727 L16.339028,16.9963091 C17.006496,16.3952182 17.5762466,15.6523091 18.0338626,14.7877636 C18.485071,13.9346727 18.8465716,13.0134 19.108753,12.0506727 C19.1237043,11.9955818 19.1375876,11.9399455 19.1520049,11.8843091 C19.150403,11.9377636 19.1461312,11.9923091 19.1450633,12.0457636 C19.1359857,12.6872182 19.1909851,13.3063091 19.3084594,13.8866727 C19.4275357,14.4735818 19.609087,15.0081273 19.8488415,15.4783091 C20.0074319,15.7799455 20.2252934,16.0515818 20.4970863,16.2866727 C20.7592678,16.5130364 21.0305267,16.7017636 21.3044556,16.8457636 C21.6381896,17.0224909 22.0119716,17.1555818 22.4145883,17.2428545 C22.8038556,17.3268545 23.1883171,17.3901273 23.5567594,17.4299455 C23.7618056,17.4517636 23.9599101,17.4626727 24.1505389,17.4626727 C24.4890787,17.4626727 24.8035896,17.4277636 25.0897998,17.3579455 C25.544212,17.2472182 25.982071,17.0268545 26.3910953,16.7028545 L26.4039107,16.6919455 C26.9870107,16.1672182 27.4852088,15.5181273 27.8840876,14.7632182 C28.2776267,14.0197636 28.5926716,13.2168545 28.8212126,12.3774 C28.9685896,11.8346727 29.0812581,11.2854 29.1581504,10.7355818 C29.2019363,11.2548545 29.2430524,11.7539455 29.2814985,12.2306727 C29.3375658,12.9152182 29.3898953,13.5304909 29.439021,14.0754 C29.4886806,14.6274 29.5436799,15.0577636 29.604553,15.3643091 C29.6755716,15.6626727 29.7588716,15.8846727 29.8603267,16.0428545 C29.9847428,16.2364909 30.2164876,16.3684909 30.5817261,16.4486727 C30.7937139,16.4835818 31.0441479,16.5174 31.3266203,16.5468545 C31.4964242,16.5648545 31.6603543,16.5735818 31.8189447,16.5735818 C31.9326812,16.5735818 32.0426799,16.5692182 32.1489408,16.5599455 C32.4223357,16.5354 32.6439351,16.4803091 32.8270883,16.3897636 C33.0791242,16.2643091 33.1960646,16.0254 33.1517447,15.7308545 C33.1421331,15.1619455 33.1261139,14.5155818 33.103153,13.7563091 C33.082328,13.0712182 33.0727165,12.3348545 33.0753863,11.5663091 C33.5580992,11.3328545 34.0578992,11.0966727 34.5635729,10.8637636 C35.1130325,10.6106727 35.6667639,10.3657636 36.1980684,10.1399455 C36.5323363,10.0166727 36.7293729,9.87976364 36.8174787,9.70903636 C36.9664575,9.42103636 36.7672851,9.08885455 36.6909267,8.96721818 C36.5910735,8.77358182 36.4837447,8.58158182 36.3710761,8.39667273 C36.2498639,8.19867273 36.0966133,8.00285455 35.9091883,7.80758182 C35.6512787,7.55776364 35.1936626,7.3074 34.4802729,7.53049091 C34.1721697,7.61721818 33.8667363,7.71158182 33.5719825,7.8114 C33.4080524,7.86758182 33.2451902,7.92376364 33.083396,7.98103636 C33.1052889,7.52612727 33.1106287,7.08976364 33.1004831,6.68012727 C33.0892697,6.22903636 33.0983472,5.80085455 33.1282498,5.40594545 C33.7578056,5.1534 34.3665363,4.91885455 34.9405588,4.70830909 C35.5669107,4.47921818 36.1793793,4.24630909 36.7598094,4.01667273 C37.1277178,3.87158182 37.3290261,3.72921818 37.4117921,3.55467273 C37.497228,3.37630909 37.4748011,3.1374 37.3418415,2.80303636 C37.185387,2.33994545 36.9018466,1.89267273 36.4938902,1.4694" id="Fill-7" fill="#000000"></path>
                    <path d="M41.3920904,14.6577818 C41.2078692,14.4303273 40.9504936,14.2317818 40.6327788,14.0692364 C40.2584628,13.8690545 39.8996321,13.7545091 39.5648301,13.7294182 C39.2252224,13.7048727 38.9139154,13.7512364 38.6410545,13.8685091 C38.3660577,13.9868727 38.1353808,14.1608727 37.9554314,14.3861455 L37.9554314,14.3866909 C37.7786859,14.6081455 37.6532019,14.8617818 37.5811154,15.1416 C37.4203891,15.7819636 37.52665,16.3361455 37.8956263,16.7888727 C38.2480494,17.2214182 38.7296942,17.4990545 39.3224058,17.6146909 C39.4783263,17.6479636 39.630509,17.6654182 39.7778859,17.6654182 C39.8996321,17.6654182 40.0176404,17.6534182 40.1319109,17.6305091 C40.3732673,17.5814182 40.5927308,17.5045091 40.7833596,17.4003273 C40.9723865,17.2977818 41.1411224,17.1739636 41.2847615,17.0332364 C41.4305365,16.8908727 41.5351955,16.7626909 41.6046122,16.6416 C41.6948538,16.4845091 41.7599987,16.2941455 41.7984449,16.0770545 C41.837959,15.8512364 41.8267455,15.6134182 41.7648045,15.3701455 C41.7023295,15.1257818 41.5768455,14.8863273 41.3920904,14.6577818" id="Fill-9" fill="#000000"></path>
                    <g id="Group-13" transform="translate(38.980128, 0.418145)">
                        <mask id="mask-2" fill="white">
                            <use xlink:href="#path-1"></use>
                        </mask>
                        <g id="Clip-12"></g>
                        <path d="M8.88170231,2.93476364 L8.88170231,2.93476364 C8.84485808,2.64294545 8.67932603,2.33912727 8.37496064,2.00476364 C8.11117731,1.71894545 7.78331705,1.43530909 7.40099141,1.16312727 C7.02720936,0.897490909 6.67051449,0.674945455 6.33998436,0.502581818 C5.94163949,0.260945455 5.6207209,0.171490909 5.35800551,0.229309091 C5.0792709,0.290945455 4.84378821,0.527127273 4.63874205,0.947672727 C4.28898885,1.65185455 3.90345936,2.46349091 3.49176513,3.35749091 C3.08327474,4.24494545 2.66891064,5.16567273 2.26095423,6.09294545 C1.85299782,7.01912727 1.46693436,7.93112727 1.11397731,8.8044 C0.757282436,9.6864 0.459858718,10.4658545 0.231851667,11.1111273 C0.0812708974,11.4967636 0.0401548718,11.8049455 0.106901667,12.0531273 C0.173114487,12.2974909 0.340782436,12.5309455 0.622720897,12.7676727 C0.855533718,12.9580364 1.10596769,13.1309455 1.3681491,13.2842182 C1.62499077,13.4336727 1.9138709,13.5754909 2.22677987,13.7053091 C2.46012667,13.8236727 2.65128949,13.8809455 2.81628756,13.8809455 C2.86861705,13.8809455 2.91881064,13.8754909 2.96633436,13.8634909 C3.18152603,13.8105818 3.35720359,13.6327636 3.50137667,13.3229455 C3.81695551,12.6624 4.17258244,11.9456727 4.55917987,11.1929455 C4.94898115,10.4320364 5.37242282,9.63785455 5.81668949,8.83221818 C6.25721833,8.03203636 6.72497987,7.19967273 7.20609077,6.35858182 C7.67972603,5.53058182 8.1613709,4.70094545 8.63981192,3.89203636 C8.83738244,3.54785455 8.91854654,3.22603636 8.88170231,2.93476364" id="Fill-11" fill="#221F20" mask="url(#mask-2)"></path>
                    </g>
                </g>
            </g>
        </g>
    </g>
</svg>
