<?xml version="1.0" encoding="UTF-8" standalone="no"?>
<svg width="292px" height="292px" viewBox="0 0 292 292" version="1.1" xmlns="http://www.w3.org/2000/svg" xmlns:xlink="http://www.w3.org/1999/xlink">
    <defs>
        <polygon id="path-1" points="0.425273646 64.2445235 15.6874582 64.2445235 15.6874582 0.132672114 0.425273646 0.132672114 0.425273646 64.2445235"></polygon>
        <polygon id="path-3" points="18.9793207 61.4253466 18.9793207 0.426728653 0.930095508 0.426728653 0.930095508 61.4253466 18.9793207 61.4253466"></polygon>
    </defs>
    <g id="Menu,-cadastro-e-perfil" stroke="none" stroke-width="1" fill="none" fill-rule="evenodd">
        <g id="profile">
            <rect id="Rectangle-5" fill-opacity="0.57" fill="#FFFFFF" x="0" y="0" width="292" height="292"></rect>
            <g id="Page-1" transform="translate(54.000000, 32.000000)">
                <path d="M26.1134555,158.647912 C26.1134555,158.647912 25.9173631,153.834769 26.421025,153.947588 C26.9246868,154.060407 27.5398258,158.365186 29.2751087,165.726943 C31.0103915,173.090059 33.8080651,183.68142 42.258839,195.970498 C50.7096129,208.260935 61.8076334,217.87091 72.9540054,225.847053 C84.7061147,234.2568 94.9472385,236.381325 105.188362,235.701694 C115.429486,235.022064 126.762549,230.094743 134.568636,222.448901 C142.376065,214.803058 148.503279,205.967862 154.799724,195.347957 C161.094825,184.728051 163.423757,177.218135 165.040848,169.096551 C167.39127,157.288651 167.727044,139.362718 167.223382,131.888143 C167.016545,128.836602 167.138767,128.91408 167.810316,130.952971 C168.481865,132.991862 172.507131,147.715377 170.328625,165.528491 C168.230706,182.68916 161.4306,192.459527 157.904967,197.980845 C154.379334,203.503522 148.25212,210.895183 142.123563,219.30493 C135.996349,227.716037 127.002963,235.401298 116.43681,238.760031 C106.280301,241.988276 95.9438174,241.978761 84.1191808,236.211417 C77.1511873,232.813265 70.6035836,228.055852 62.6282664,222.618808 C56.4728473,218.42141 47.2887418,211.388595 39.2932782,200.359552 C29.8069756,187.276665 26.7299376,174.195138 26.1134555,158.647912" id="Fill-1" fill="#000104"></path>
                <path d="M40.069186,253.902334 C40.069186,253.902334 39.7481855,252.941336 40.9918945,252.734729 C42.6506208,252.458799 44.9164274,252.267143 48.274173,248.019453 C51.6319185,243.771762 56.0816028,228.904167 56.5852647,215.737006 L61.5372677,219.135158 C61.5372677,219.135158 59.858395,230.603243 55.2421664,241.902779 C50.6245948,253.200955 44.3026316,254.730124 41.3907946,254.730124 C40.6561199,254.730124 40.1524581,254.348171 40.069186,253.902334" id="Fill-3" fill="#000104"></path>
                <g id="Group-7" transform="translate(150.426999, 195.555507)">
                    <mask id="mask-2" fill="white">
                        <use xlink:href="#path-1"></use>
                    </mask>
                    <g id="Clip-6"></g>
                    <path d="M0.713991006,9.76847269 C0.713991006,9.76847269 0.233161849,23.5799228 0.512526275,33.547383 C0.791890702,43.5148432 3.23632944,48.2314786 5.4376674,51.4447714 C7.33949446,54.2203821 10.5857628,55.8052804 11.7609737,58.2410759 C12.9361847,60.6768714 13.4949135,64.2449313 13.4949135,64.2449313 L15.6774481,63.7909382 C15.6774481,63.7909382 15.8292182,61.1947499 14.950832,58.6379801 C14.0549855,56.0322769 12.0806311,55.2629353 10.3614654,53.4265738 C8.29040799,51.2177748 7.03595426,48.6759569 5.93998613,44.5356482 C5.32484715,42.2126713 4.54047779,38.0791589 4.7647752,29.5837782 C4.9890726,21.0883975 5.99773935,6.64489112 8.06745368,0.132672114 L0.713991006,9.76847269 Z" id="Fill-5" fill="#000104" mask="url(#mask-2)"></path>
                </g>
                <g id="Group-10" transform="translate(165.201079, 81.736852)">
                    <mask id="mask-4" fill="white">
                        <use xlink:href="#path-3"></use>
                    </mask>
                    <g id="Clip-9"></g>
                    <path d="M1.05634674,9.20287597 C1.05634674,9.20287597 2.81849159,7.12184752 3.82715834,6.01676841 C4.83448199,4.91304855 6.47037561,4.57323332 7.85510986,5.63481609 C9.24118721,6.69639886 12.4726815,10.3922293 13.5646203,15.9135471 C14.6552161,21.4362241 14.6968521,28.3181621 13.9420309,34.9010627 C13.1858666,41.4853225 12.4726815,47.7719042 10.7938087,51.7219164 C9.11493597,55.6732879 6.55499079,58.0941315 3.95206647,57.4987753 L4.20456893,61.2367428 C4.20456893,61.2367428 7.68722258,62.1719143 10.373419,59.8774819 C13.0609585,57.5844087 14.4873288,51.9339611 15.0326267,49.1311651 C15.5792676,46.3270099 17.4287139,37.2593804 18.0129616,33.2441236 C18.8107619,27.7649429 19.3976958,19.9070556 18.6012386,15.5315948 C17.8034383,11.1561339 15.3267652,4.57323332 10.4996702,1.51489628 C5.67391837,-1.54344076 2.39944494,2.61861614 0.930095508,4.52973697 L1.05634674,9.20287597 Z" id="Fill-8" fill="#000104" mask="url(#mask-4)"></path>
                </g>
                <path d="M14.8165222,121.771979 C14.8165222,121.771979 12.4768451,120.392329 11.1659812,119.684154 C9.85646049,118.97598 8.19907731,119.198898 7.23607589,120.662822 C6.27307448,122.126746 4.42094205,126.692504 5.18247874,132.269551 C5.94535852,137.847958 8.13863789,144.361536 10.9900354,150.328692 C13.8414329,156.295847 16.5571774,161.995228 19.4260352,165.169102 C22.2935499,168.341617 25.4981822,169.776997 27.7626458,168.349773 L28.7377351,171.964047 C28.7377351,171.964047 25.7520278,174.004298 22.4694957,172.73203 C19.1883068,171.458402 16.0065072,166.597685 14.5801369,164.131986 C13.1551097,161.664928 8.46232456,153.714611 6.60750593,150.118006 C4.07576582,145.208356 0.967836567,137.981166 0.301659857,133.583957 C-0.365859951,129.186747 -0.16439522,122.144417 3.40153052,117.6507 C6.96611315,113.156984 11.4104251,116.000557 13.4183569,117.317681 L14.8165222,121.771979 Z" id="Fill-11" fill="#000104"></path>
                <path d="M11.4233189,142.172854 C11.4233189,142.172854 11.1842474,137.149026 11.3387037,133.256103 C11.452867,130.339129 11.7161143,130.283399 12.5891281,131.725575 C13.4621419,133.167751 15.0201359,136.246477 15.3532242,137.73079 C15.5869233,138.776061 15.4378394,140.203285 14.9744705,141.351861 C14.5097585,142.500436 13.7522511,143.912708 14.5366205,145.443236 C15.3236761,146.973764 19.2737279,152.852567 20.5013196,155.099426 C22.0136482,157.866881 17.4753194,155.276129 14.9449224,152.538578 C14.4520053,152.004388 15.9334426,154.775921 18.8721415,156.895009 C21.0278141,158.451363 22.0902048,157.585514 22.3051005,156.718305 C22.652963,155.306033 21.8094973,153.450642 20.7041275,151.44981 C19.5987576,149.447619 17.3289217,146.003252 16.7473601,144.914484 C16.1657986,143.824356 16.2732465,143.079481 16.4773974,141.842554 C16.6802052,140.605627 17.3692146,139.043836 16.6614019,136.612118 C15.8770325,133.912626 13.8986489,130.518551 12.8496892,129.194631 C11.8034157,127.869352 10.6671546,128.105863 10.2615389,129.989799 C9.53492278,133.374358 10.6671546,140.229111 11.4233189,142.172854" id="Fill-13" fill="#000104"></path>
                <path d="M168.91206,99.4662359 C168.91206,99.4662359 168.936235,100.3416 168.397653,101.854457 C167.860414,103.368674 167.437338,105.024254 167.836238,106.891878 C168.233795,108.760862 169.739408,109.372529 170.640627,112.188918 C171.410222,114.601606 171.506925,117.958981 170.968343,120.869158 C170.431104,123.777976 169.447956,127.631481 170.009371,128.010715 C170.570786,128.389949 174.262963,121.176351 175.315952,116.257186 C175.315952,116.257186 174.403988,124.439937 172.347705,128.2948 C171.631834,129.635032 170.85015,129.809017 170.85015,129.809017 C170.85015,129.809017 172.042822,130.139318 172.954785,128.767823 C172.954785,128.767823 172.768095,130.139318 171.177866,130.398936 C169.971764,130.597388 168.91206,129.856591 169.144416,128.767823 C169.144416,128.767823 168.631352,128.058289 168.490327,126.141731 C168.349302,124.226533 168.981901,120.869158 169.075918,118.149277 C169.168591,115.429396 169.030252,113.087389 167.930255,110.840531 C166.831601,108.593673 166.596558,107.578305 166.575069,105.614173 C166.550893,103.580719 167.837581,100.931519 168.024272,99.8672179 C168.210962,98.8029166 167.837581,98.2347455 168.655528,97.1949109 C169.472132,96.1550763 170.54661,95.4863199 171.739281,95.8954575 C173.398008,96.4622693 176.014363,98.8097129 175.642325,104.787742 C175.595316,105.543491 175.220592,102.020287 173.375175,99.3248727 C171.82524,97.0589848 170.710468,97.3838482 170.009371,97.9751267 C170.009371,97.9751267 171.120113,99.8441104 171.177866,101.49969 C171.247707,103.439356 170.874326,105.142509 170.921335,106.561578 C170.968343,107.980646 170.453936,105.591066 170.453936,103.723441 C170.453936,102.398162 170.244413,100.317133 168.91206,99.4662359" id="Fill-15" fill="#000104"></path>
                <g id="Group-19" transform="translate(7.715491, 0.181198)" fill="#000104">
                    <path d="M156.706994,66.9429201 C154.318966,55.3307541 150.648278,44.0516071 145.430342,33.4167498 C141.25062,24.8996209 134.304116,17.12193 126.660544,11.6441086 C120.267397,7.0633993 112.967658,3.89224361 105.350948,2.09122291 C97.566351,0.249424376 89.4903015,-0.190976157 81.5337877,0.4641876 C73.3019388,1.14109953 65.1721653,2.9815388 57.3889112,5.76394588 C49.5425315,8.56810113 42.0252109,12.3359724 35.0894517,16.9900817 C28.3323246,21.5232168 22.1057214,26.9140456 16.8139144,33.1394605 C14.4057394,35.9735195 12.1936566,38.9788454 10.2327332,42.1472826 C7.98572993,45.780587 5.85960547,49.5171952 4.26803409,53.4998297 C2.62408189,57.6115939 1.95656208,61.7546212 1.33067832,66.1110524 C0.954610819,68.7289889 0.675246392,71.3632365 0.471095465,74.0002027 C0.207848217,77.398355 0.0708521995,80.8087406 0.0708521995,84.2164077 C0.0708521995,95.6573067 1.58049458,104.790181 3.42725462,113.157791 C5.27401465,121.52676 8.02467977,127.836449 9.96142739,132.130355 C11.6376139,135.847933 12.9686243,137.983332 13.1875493,138.120617 C13.4051312,138.257903 12.8719212,136.955731 12.5334605,135.782689 C4.11895019,106.607513 4.24117213,88.0141826 4.37951124,82.9427802 C4.485616,78.998205 4.79184239,75.0563484 5.34654195,71.1498326 C5.55606527,69.6695974 5.80588154,68.1975179 6.08793216,66.7295161 C7.60966243,58.8158991 10.9472615,51.0450045 15.4090337,44.3955001 C19.6048725,38.1415407 24.8456417,32.6378933 30.6518552,27.8981505 C36.7266884,22.9382074 43.4435226,18.7911024 50.5176208,15.4622725 C57.6521585,12.104898 65.1788808,9.57123568 72.8936369,7.99857081 C80.3693215,6.47483933 88.0518433,5.84957931 95.665867,6.42182816 C102.90248,6.96553252 110.094771,8.61023822 116.721618,11.6468271 C122.608417,14.34496 128.068111,18.1264238 132.477503,22.9259741 C137.347577,28.2243731 140.338656,34.7229995 143.368686,41.1930814 C145.744627,46.2658431 147.837174,51.4772495 149.596632,56.8014744 C150.19834,58.6201655 150.761099,60.4538085 151.280878,62.2983255 C155.645947,77.8170073 157.449728,93.2799594 157.604184,100.244812 C157.660594,102.793426 157.659251,105.172133 157.939958,104.549592 C158.220666,103.925691 159.225303,97.6391091 159.283057,92.2020655 C159.339467,86.7650219 158.945939,77.8170073 156.706994,66.9429201" id="Fill-17"></path>
                </g>
            </g>
        </g>
    </g>
</svg>
