<svg width="38px" height="37px" viewBox="0 0 38 37" version="1.1" xmlns="http://www.w3.org/2000/svg" xmlns:xlink="http://www.w3.org/1999/xlink">
    <g id="Styleguide" stroke="none" stroke-width="1" fill="none" fill-rule="evenodd">
        <polygon id="Fill-2" fill="" points="0.411111111 33.1030667 32.4777778 33.1030667 32.4777778 1.22553699 0.411111111 1.22553699"></polygon>
        <g id="Group-6" transform="translate(0.000000, 0.617427)">
            <polygon id="Stroke-3" stroke="" fill="" points="0.411111111 32.4856393 32.4777778 32.4856393 32.4777778 0.608926941 0.411111111 0.608926941"></polygon>
            <path class="social-fb-icon" d="M18.8376867,10.49929 L21.3701311,10.49929 L21.3701311,6.78115753 L18.3928644,6.78115753 L18.3928644,6.79423516 C14.7865978,6.92092466 14.04742,8.9365137 13.9824644,11.0534543 L13.9750644,11.0534543 L13.9750644,12.9104772 L11.5190867,12.9104772 L11.5190867,16.5517785 L13.9750644,16.5517785 L13.9750644,26.3125913 L17.6758867,26.3125913 L17.6758867,16.5517785 L20.7082422,16.5517785 L21.2936644,12.9104772 L17.6775311,12.9104772 L17.6775311,11.7882534 C17.6775311,11.0730708 18.1560644,10.49929 18.8376867,10.49929" id="Fill-5" fill="#231F1F"></path>
        </g>
    </g>
</svg>
