<?xml version="1.0" encoding="UTF-8" standalone="no"?>
<svg width="22px" height="22px" viewBox="0 0 22 22" version="1.1" xmlns="http://www.w3.org/2000/svg" xmlns:xlink="http://www.w3.org/1999/xlink">
    <!-- Generator: sketchtool 40 (33762) - http://www.bohemiancoding.com/sketch -->
    <title>7A660473-2355-45E3-B5F4-F250DA3A9141</title>
    <desc>Created with sketchtool.</desc>
    <defs></defs>
    <g id="Styleguide" stroke="none" stroke-width="1" fill="none" fill-rule="evenodd" stroke-linecap="round" opacity="0.6" stroke-linejoin="round">
        <g transform="translate(-1230.000000, -753.000000)" stroke="#FFFFFF" id="share_editor" stroke-width="1.5">
            <g transform="translate(1231.000000, 754.000000)">
                <path d="M11.7167879,12.8809299 L11.7167879,12.8918286 C11.7167879,13.3255429 11.9361818,13.6301143 12.3737576,13.8055429 C12.5046667,13.8564 12.6367879,13.8832571 12.7670909,13.8832571 C13.0525455,13.8821143 13.2986061,13.7838286 13.5064848,13.5884 L19.2834545,8.14097143 C19.4919394,7.9444 19.5961818,7.7124 19.5961818,7.4444 C19.5961818,7.1764 19.4919394,6.94382857 19.2834545,6.74782857 L13.5064848,1.29982857 C13.3638805,1.16165877 13.2123995,1.06973486 13.0517461,1.02419634 L18.0706061,5.75725714 C18.2790909,5.95325714 18.3833333,6.18582857 18.3833333,6.45382857 C18.3833333,6.72182857 18.2790909,6.95382857 18.0706061,7.1504 L12.2936364,12.5978286 C12.1263041,12.7551391 11.934232,12.8495062 11.7167879,12.8809299 Z M10.5039394,10.4447102 C9.52378184,10.4933761 8.70251,10.6048686 8.0410303,10.7798286 C7.12163636,11.0221143 6.41072727,11.4112571 5.90709091,11.9472571 C4.74709091,13.1752571 4.40769697,15.6158286 4.88890909,19.2684 C4.9210303,19.5158286 4.818,19.6855429 4.57678788,19.7781143 C4.51133333,19.8101143 4.44042424,19.8249714 4.36345455,19.8249714 C4.19921212,19.8249714 4.06284848,19.7632571 3.95315152,19.6392571 C3.7296338,19.3578675 3.51980943,19.0797248 3.32367176,18.804829 C3.33731942,18.7997515 3.35074031,18.7939957 3.36393939,18.7875429 C3.60515152,18.6949714 3.70818182,18.5252571 3.67606061,18.2778286 C3.19484848,14.6252571 3.53424242,12.1846857 4.69424242,10.9566857 C5.19787879,10.4206857 5.90878788,10.0315429 6.82818182,9.78925714 C7.74636364,9.5464 8.97242424,9.42582857 10.5039394,9.42582857 L10.5039394,10.4447102 Z" id="Combined-Shape" fill="#FFFFFF"></path>
                <path d="M18.0706061,7.1504 L12.2936364,12.5978286 C12.0857576,12.7932571 11.839697,12.8915429 11.5542424,12.8926857 C11.4239394,12.8926857 11.2918182,12.8658286 11.1609091,12.8149714 C10.7233333,12.6395429 10.5039394,12.3349714 10.5039394,11.9012571 L10.5039394,9.42582857 C8.97242424,9.42582857 7.74636364,9.5464 6.82818182,9.78925714 C5.90878788,10.0315429 5.19787879,10.4206857 4.69424242,10.9566857 C3.53424242,12.1846857 3.19484848,14.6252571 3.67606061,18.2778286 C3.70818182,18.5252571 3.60515152,18.6949714 3.36393939,18.7875429 C3.29848485,18.8195429 3.22757576,18.8344 3.15060606,18.8344 C2.98636364,18.8344 2.85,18.7726857 2.74030303,18.6486857 C0.912424242,16.3475429 0.000303030303,14.2635429 0.000303030303,12.3966857 C0.000303030303,11.7766857 0.0275757576,11.2075429 0.0815151515,10.6864 C0.136666667,10.1658286 0.253636364,9.58982857 0.434848485,8.96068571 C0.614848485,8.33097143 0.858484848,7.76925714 1.16454545,7.27382857 C1.47121212,6.7784 1.88939394,6.2864 2.42090909,5.79611429 C2.95121212,5.30582857 3.57484848,4.8984 4.29181818,4.57325714 C5.00818182,4.24868571 5.89727273,3.98468571 6.95848485,3.78354286 C8.02030303,3.58354286 9.20151515,3.4824 10.5039394,3.4824 L10.5039394,1.00582857 C10.5039394,0.572685714 10.7233333,0.268685714 11.1609091,0.0932571429 C11.5881818,-0.0821714286 11.9645455,-0.0096 12.2936364,0.309257143 L18.0706061,5.75725714 C18.2790909,5.95325714 18.3833333,6.18582857 18.3833333,6.45382857 C18.3833333,6.72182857 18.2790909,6.95382857 18.0706061,7.1504 L18.0706061,7.1504 Z" id="Stroke-7"></path>
            </g>
        </g>
    </g>
</svg>