<?xml version="1.0" encoding="UTF-8" standalone="no"?>
<svg width="21px" height="21px" viewBox="0 0 21 21" version="1.1" xmlns="http://www.w3.org/2000/svg" xmlns:xlink="http://www.w3.org/1999/xlink">
    <g id="Styleguide" stroke="none" stroke-width="1" fill="none" fill-rule="evenodd" opacity="0.58">
        <g id="Desktop-HD" transform="translate(-1235.000000, -264.000000)">
            <g id="share_rollover" transform="translate(1236.000000, 265.000000)">
                <g id="share-copy-21">
                    <g id="Page-1">
                        <path d="M19.3651948,8.75330612 L13.8633189,13.9413333 C13.6653391,14.1274558 13.4309957,14.2210612 13.1591342,14.2221497 C13.0350361,14.2221497 12.9092063,14.1965714 12.784531,14.1481361 C12.3677922,13.9810612 12.1588456,13.6909932 12.1588456,13.277932 L12.1588456,10.920381 C10.7002597,10.920381 9.53258297,11.0352109 8.6581241,11.2665034 C7.78251082,11.4972517 7.10545455,11.8678639 6.62580087,12.3783401 C5.52103896,13.5478639 5.19780664,15.8722177 5.6561039,19.3508571 C5.68669553,19.5865034 5.58857143,19.7481361 5.3588456,19.8362993 C5.29650794,19.8667755 5.22897547,19.8809252 5.155671,19.8809252 C4.99924964,19.8809252 4.86937951,19.8221497 4.7649062,19.7040544 C3.02406926,17.5124898 2.1553824,15.5277279 2.1553824,13.7497687 C2.1553824,13.1592925 2.18135642,12.6172517 2.23272727,12.1209252 C2.28525253,11.6251429 2.39665224,11.0765714 2.56923521,10.4773878 C2.74066378,9.87765986 2.97269841,9.34269388 3.2641847,8.87085714 C3.5562482,8.39902041 3.95451659,7.93044898 4.4607215,7.4635102 C4.96577201,6.99657143 5.5597114,6.60854422 6.24253968,6.29888435 C6.92479076,5.98976871 7.77154401,5.73834014 8.78222222,5.54677551 C9.79347763,5.35629932 10.9184416,5.25997279 12.1588456,5.25997279 L12.1588456,2.90133333 C12.1588456,2.48881633 12.3677922,2.19929252 12.784531,2.03221769 C13.1914574,1.86514286 13.549899,1.9342585 13.8633189,2.23793197 L19.3651948,7.4265034 C19.5637518,7.61317007 19.6630303,7.83466667 19.6630303,8.08990476 C19.6630303,8.34514286 19.5637518,8.56609524 19.3651948,8.75330612" id="Fill-1" fill="#000000"></path>
                        <path d="M18.3651948,7.75330612 L12.8633189,12.9413333 C12.6653391,13.1274558 12.4309957,13.2210612 12.1591342,13.2221497 C12.0350361,13.2221497 11.9092063,13.1965714 11.784531,13.1481361 C11.3677922,12.9810612 11.1588456,12.6909932 11.1588456,12.277932 L11.1588456,9.92038095 C9.70025974,9.92038095 8.53258297,10.0352109 7.6581241,10.2665034 C6.78251082,10.4972517 6.10545455,10.8678639 5.62580087,11.3783401 C4.52103896,12.5478639 4.19780664,14.8722177 4.6561039,18.3508571 C4.68669553,18.5865034 4.58857143,18.7481361 4.3588456,18.8362993 C4.29650794,18.8667755 4.22897547,18.8809252 4.155671,18.8809252 C3.99924964,18.8809252 3.86937951,18.8221497 3.7649062,18.7040544 C2.02406926,16.5124898 1.1553824,14.5277279 1.1553824,12.7497687 C1.1553824,12.1592925 1.18135642,11.6172517 1.23272727,11.1209252 C1.28525253,10.6251429 1.39665224,10.0765714 1.56923521,9.47738776 C1.74066378,8.87765986 1.97269841,8.34269388 2.2641847,7.87085714 C2.5562482,7.39902041 2.95451659,6.93044898 3.4607215,6.4635102 C3.96577201,5.99657143 4.5597114,5.60854422 5.24253968,5.29888435 C5.92479076,4.98976871 6.77154401,4.73834014 7.78222222,4.54677551 C8.79347763,4.35629932 9.91844156,4.25997279 11.1588456,4.25997279 L11.1588456,1.90133333 C11.1588456,1.48881633 11.3677922,1.19929252 11.784531,1.03221769 C12.1914574,0.865142857 12.549899,0.934258503 12.8633189,1.23793197 L18.3651948,6.4265034 C18.5637518,6.61317007 18.6630303,6.83466667 18.6630303,7.08990476 C18.6630303,7.34514286 18.5637518,7.56609524 18.3651948,7.75330612 L18.3651948,7.75330612 Z" id="Stroke-3" stroke="#000000" stroke-linecap="round" stroke-linejoin="round"></path>
                        <path d="M17.210101,6.80990476 L11.7082251,11.997932 C11.5102453,12.1840544 11.2759019,12.2776599 11.0040404,12.2787483 C10.8799423,12.2787483 10.7541126,12.2531701 10.6294372,12.2047347 C10.2126984,12.0376599 10.0037518,11.7475918 10.0037518,11.3345306 L10.0037518,8.97697959 C8.54516595,8.97697959 7.37748918,9.09180952 6.5030303,9.32310204 C5.62741703,9.55385034 4.95036075,9.92446259 4.47070707,10.4349388 C3.36594517,11.6044626 3.04271284,13.9288163 3.5010101,17.4074558 C3.53160173,17.643102 3.43347763,17.8047347 3.2037518,17.892898 C3.14141414,17.9233741 3.07388167,17.9375238 3.0005772,17.9375238 C2.84415584,17.9375238 2.71428571,17.8787483 2.60981241,17.7606531 C0.868975469,15.5690884 0.000288600289,13.5843265 0.000288600289,11.8063673 C0.000288600289,11.2158912 0.0262626263,10.6738503 0.0776334776,10.1775238 C0.13015873,9.6817415 0.241558442,9.13317007 0.414141414,8.53398639 C0.585569986,7.9342585 0.817604618,7.39929252 1.10909091,6.92745578 C1.4011544,6.45561905 1.7994228,5.98704762 2.30562771,5.52010884 C2.81067821,5.05317007 3.4046176,4.66514286 4.08744589,4.35548299 C4.76969697,4.04636735 5.61645022,3.79493878 6.62712843,3.60337415 C7.63838384,3.41289796 8.76334776,3.31657143 10.0037518,3.31657143 L10.0037518,0.957931973 C10.0037518,0.545414966 10.2126984,0.255891156 10.6294372,0.0888163265 C11.0363636,-0.0782585034 11.3948052,-0.00914285714 11.7082251,0.294530612 L17.210101,5.48310204 C17.408658,5.66976871 17.5079365,5.89126531 17.5079365,6.1465034 C17.5079365,6.4017415 17.408658,6.62269388 17.210101,6.80990476" id="Fill-5" fill="#D0D0D0"></path>
                        <path d="M17.210101,6.80990476 L11.7082251,11.997932 C11.5102453,12.1840544 11.2759019,12.2776599 11.0040404,12.2787483 C10.8799423,12.2787483 10.7541126,12.2531701 10.6294372,12.2047347 C10.2126984,12.0376599 10.0037518,11.7475918 10.0037518,11.3345306 L10.0037518,8.97697959 C8.54516595,8.97697959 7.37748918,9.09180952 6.5030303,9.32310204 C5.62741703,9.55385034 4.95036075,9.92446259 4.47070707,10.4349388 C3.36594517,11.6044626 3.04271284,13.9288163 3.5010101,17.4074558 C3.53160173,17.643102 3.43347763,17.8047347 3.2037518,17.892898 C3.14141414,17.9233741 3.07388167,17.9375238 3.0005772,17.9375238 C2.84415584,17.9375238 2.71428571,17.8787483 2.60981241,17.7606531 C0.868975469,15.5690884 0.000288600289,13.5843265 0.000288600289,11.8063673 C0.000288600289,11.2158912 0.0262626263,10.6738503 0.0776334776,10.1775238 C0.13015873,9.6817415 0.241558442,9.13317007 0.414141414,8.53398639 C0.585569986,7.9342585 0.817604618,7.39929252 1.10909091,6.92745578 C1.4011544,6.45561905 1.7994228,5.98704762 2.30562771,5.52010884 C2.81067821,5.05317007 3.4046176,4.66514286 4.08744589,4.35548299 C4.76969697,4.04636735 5.61645022,3.79493878 6.62712843,3.60337415 C7.63838384,3.41289796 8.76334776,3.31657143 10.0037518,3.31657143 L10.0037518,0.957931973 C10.0037518,0.545414966 10.2126984,0.255891156 10.6294372,0.0888163265 C11.0363636,-0.0782585034 11.3948052,-0.00914285714 11.7082251,0.294530612 L17.210101,5.48310204 C17.408658,5.66976871 17.5079365,5.89126531 17.5079365,6.1465034 C17.5079365,6.4017415 17.408658,6.62269388 17.210101,6.80990476 L17.210101,6.80990476 Z" id="Stroke-7" stroke="#000000" stroke-linecap="round" stroke-linejoin="round"></path>
                    </g>
                </g>
            </g>
        </g>
    </g>
</svg>
