<?xml version="1.0" encoding="UTF-8" standalone="no"?>
<svg width="21px" height="21px" viewBox="0 0 21 21" version="1.1" xmlns="http://www.w3.org/2000/svg" xmlns:xlink="http://www.w3.org/1999/xlink">
    <g id="Styleguide" stroke="none" stroke-width="1" fill="none" fill-rule="evenodd" opacity="0.26">
        <g id="Desktop-HD" transform="translate(-1210.000000, -263.000000)">
            <g id="share" transform="translate(1211.000000, 264.000000)">
                <g id="Page-1">
                    <path d="M19.2834545,8.14097143 L13.5064848,13.5884 C13.2986061,13.7838286 13.0525455,13.8821143 12.7670909,13.8832571 C12.6367879,13.8832571 12.5046667,13.8564 12.3737576,13.8055429 C11.9361818,13.6301143 11.7167879,13.3255429 11.7167879,12.8918286 L11.7167879,10.4164 C10.1852727,10.4164 8.95921212,10.5369714 8.0410303,10.7798286 C7.12163636,11.0221143 6.41072727,11.4112571 5.90709091,11.9472571 C4.74709091,13.1752571 4.40769697,15.6158286 4.88890909,19.2684 C4.9210303,19.5158286 4.818,19.6855429 4.57678788,19.7781143 C4.51133333,19.8101143 4.44042424,19.8249714 4.36345455,19.8249714 C4.19921212,19.8249714 4.06284848,19.7632571 3.95315152,19.6392571 C2.12527273,17.3381143 1.21315152,15.2541143 1.21315152,13.3872571 C1.21315152,12.7672571 1.24042424,12.1981143 1.29436364,11.6769714 C1.34951515,11.1564 1.46648485,10.5804 1.64769697,9.95125714 C1.82769697,9.32154286 2.07133333,8.75982857 2.37739394,8.2644 C2.68406061,7.76897143 3.10224242,7.27697143 3.63375758,6.78668571 C4.16406061,6.2964 4.78769697,5.88897143 5.50466667,5.56382857 C6.2210303,5.23925714 7.11012121,4.97525714 8.17133333,4.77411429 C9.23315152,4.57411429 10.4143636,4.47297143 11.7167879,4.47297143 L11.7167879,1.9964 C11.7167879,1.56325714 11.9361818,1.25925714 12.3737576,1.08382857 C12.8010303,0.9084 13.1773939,0.980971429 13.5064848,1.29982857 L19.2834545,6.74782857 C19.4919394,6.94382857 19.5961818,7.1764 19.5961818,7.4444 C19.5961818,7.7124 19.4919394,7.9444 19.2834545,8.14097143" id="Fill-1" fill="#000000"></path>
                    <path d="M19.2834545,8.14097143 L13.5064848,13.5884 C13.2986061,13.7838286 13.0525455,13.8821143 12.7670909,13.8832571 C12.6367879,13.8832571 12.5046667,13.8564 12.3737576,13.8055429 C11.9361818,13.6301143 11.7167879,13.3255429 11.7167879,12.8918286 L11.7167879,10.4164 C10.1852727,10.4164 8.95921212,10.5369714 8.0410303,10.7798286 C7.12163636,11.0221143 6.41072727,11.4112571 5.90709091,11.9472571 C4.74709091,13.1752571 4.40769697,15.6158286 4.88890909,19.2684 C4.9210303,19.5158286 4.818,19.6855429 4.57678788,19.7781143 C4.51133333,19.8101143 4.44042424,19.8249714 4.36345455,19.8249714 C4.19921212,19.8249714 4.06284848,19.7632571 3.95315152,19.6392571 C2.12527273,17.3381143 1.21315152,15.2541143 1.21315152,13.3872571 C1.21315152,12.7672571 1.24042424,12.1981143 1.29436364,11.6769714 C1.34951515,11.1564 1.46648485,10.5804 1.64769697,9.95125714 C1.82769697,9.32154286 2.07133333,8.75982857 2.37739394,8.2644 C2.68406061,7.76897143 3.10224242,7.27697143 3.63375758,6.78668571 C4.16406061,6.2964 4.78769697,5.88897143 5.50466667,5.56382857 C6.2210303,5.23925714 7.11012121,4.97525714 8.17133333,4.77411429 C9.23315152,4.57411429 10.4143636,4.47297143 11.7167879,4.47297143 L11.7167879,1.9964 C11.7167879,1.56325714 11.9361818,1.25925714 12.3737576,1.08382857 C12.8010303,0.9084 13.1773939,0.980971429 13.5064848,1.29982857 L19.2834545,6.74782857 C19.4919394,6.94382857 19.5961818,7.1764 19.5961818,7.4444 C19.5961818,7.7124 19.4919394,7.9444 19.2834545,8.14097143 L19.2834545,8.14097143 Z" id="Stroke-3" stroke="#000000" stroke-linecap="round" stroke-linejoin="round"></path>
                    <path d="M18.0706061,7.1504 L12.2936364,12.5978286 C12.0857576,12.7932571 11.839697,12.8915429 11.5542424,12.8926857 C11.4239394,12.8926857 11.2918182,12.8658286 11.1609091,12.8149714 C10.7233333,12.6395429 10.5039394,12.3349714 10.5039394,11.9012571 L10.5039394,9.42582857 C8.97242424,9.42582857 7.74636364,9.5464 6.82818182,9.78925714 C5.90878788,10.0315429 5.19787879,10.4206857 4.69424242,10.9566857 C3.53424242,12.1846857 3.19484848,14.6252571 3.67606061,18.2778286 C3.70818182,18.5252571 3.60515152,18.6949714 3.36393939,18.7875429 C3.29848485,18.8195429 3.22757576,18.8344 3.15060606,18.8344 C2.98636364,18.8344 2.85,18.7726857 2.74030303,18.6486857 C0.912424242,16.3475429 0.000303030303,14.2635429 0.000303030303,12.3966857 C0.000303030303,11.7766857 0.0275757576,11.2075429 0.0815151515,10.6864 C0.136666667,10.1658286 0.253636364,9.58982857 0.434848485,8.96068571 C0.614848485,8.33097143 0.858484848,7.76925714 1.16454545,7.27382857 C1.47121212,6.7784 1.88939394,6.2864 2.42090909,5.79611429 C2.95121212,5.30582857 3.57484848,4.8984 4.29181818,4.57325714 C5.00818182,4.24868571 5.89727273,3.98468571 6.95848485,3.78354286 C8.02030303,3.58354286 9.20151515,3.4824 10.5039394,3.4824 L10.5039394,1.00582857 C10.5039394,0.572685714 10.7233333,0.268685714 11.1609091,0.0932571429 C11.5881818,-0.0821714286 11.9645455,-0.0096 12.2936364,0.309257143 L18.0706061,5.75725714 C18.2790909,5.95325714 18.3833333,6.18582857 18.3833333,6.45382857 C18.3833333,6.72182857 18.2790909,6.95382857 18.0706061,7.1504" id="Fill-5" fill="#939393"></path>
                    <path d="M18.0706061,7.1504 L12.2936364,12.5978286 C12.0857576,12.7932571 11.839697,12.8915429 11.5542424,12.8926857 C11.4239394,12.8926857 11.2918182,12.8658286 11.1609091,12.8149714 C10.7233333,12.6395429 10.5039394,12.3349714 10.5039394,11.9012571 L10.5039394,9.42582857 C8.97242424,9.42582857 7.74636364,9.5464 6.82818182,9.78925714 C5.90878788,10.0315429 5.19787879,10.4206857 4.69424242,10.9566857 C3.53424242,12.1846857 3.19484848,14.6252571 3.67606061,18.2778286 C3.70818182,18.5252571 3.60515152,18.6949714 3.36393939,18.7875429 C3.29848485,18.8195429 3.22757576,18.8344 3.15060606,18.8344 C2.98636364,18.8344 2.85,18.7726857 2.74030303,18.6486857 C0.912424242,16.3475429 0.000303030303,14.2635429 0.000303030303,12.3966857 C0.000303030303,11.7766857 0.0275757576,11.2075429 0.0815151515,10.6864 C0.136666667,10.1658286 0.253636364,9.58982857 0.434848485,8.96068571 C0.614848485,8.33097143 0.858484848,7.76925714 1.16454545,7.27382857 C1.47121212,6.7784 1.88939394,6.2864 2.42090909,5.79611429 C2.95121212,5.30582857 3.57484848,4.8984 4.29181818,4.57325714 C5.00818182,4.24868571 5.89727273,3.98468571 6.95848485,3.78354286 C8.02030303,3.58354286 9.20151515,3.4824 10.5039394,3.4824 L10.5039394,1.00582857 C10.5039394,0.572685714 10.7233333,0.268685714 11.1609091,0.0932571429 C11.5881818,-0.0821714286 11.9645455,-0.0096 12.2936364,0.309257143 L18.0706061,5.75725714 C18.2790909,5.95325714 18.3833333,6.18582857 18.3833333,6.45382857 C18.3833333,6.72182857 18.2790909,6.95382857 18.0706061,7.1504 L18.0706061,7.1504 Z" id="Stroke-7" stroke="#000000" stroke-linecap="round" stroke-linejoin="round"></path>
                </g>
            </g>
        </g>
    </g>
</svg>
