<?xml version="1.0" encoding="UTF-8" standalone="no"?>
<svg width="12px" height="13px" viewBox="0 0 12 13" version="1.1" xmlns="http://www.w3.org/2000/svg" xmlns:xlink="http://www.w3.org/1999/xlink">
    <defs>
        <polygon id="path-1" points="1.86920921e-20 0.11452231 1.86920921e-20 4.95333126 4.83825726 4.95333126 4.83825726 0.11452231 0 0.11452231"></polygon>
        <polygon id="path-3" points="4.97618423 0.0105741193 0.331810347 0.0105741193 0.331810347 4.8491532 4.97618423 4.8491532 4.97618423 0.0105741193"></polygon>
        <polygon id="path-5" points="0.331810347 4.8549 4.97618423 4.8549 4.97618423 0.209952357 0.331810347 0.209952357 0.331810347 4.8549"></polygon>
    </defs>
    <g id="Menu,-cadastro-e-perfil" stroke="none" stroke-width="1" fill="none" fill-rule="evenodd">
        <g id="Perfil-desktop-edição-Copy" transform="translate(-560.000000, -370.000000)">
            <g id="Page-1" transform="translate(560.000000, 370.000000)">
                <g id="Group-3" transform="translate(0.000000, 4.000000)">
                    <mask id="mask-2" fill="white">
                        <use xlink:href="#path-1"></use>
                    </mask>
                    <g id="Clip-2"></g>
                    <path d="M4.83825726,2.53415666 C4.83825726,3.8697139 3.75509964,4.95333126 2.41908265,4.95333126 C1.08306566,4.95333126 -9.19488639e-05,3.8697139 -9.19488639e-05,2.53415666 C-9.19488639e-05,1.19813967 1.08306566,0.11452231 2.41908265,0.11452231 C3.75509964,0.11452231 4.83825726,1.19813967 4.83825726,2.53415666" id="Fill-1" fill="#000000" mask="url(#mask-2)"></path>
                </g>
                <g id="Group-6" transform="translate(6.723705, 0.359226)">
                    <mask id="mask-4" fill="white">
                        <use xlink:href="#path-3"></use>
                    </mask>
                    <g id="Clip-5"></g>
                    <path d="M4.97618423,2.42997859 C4.97618423,3.76553584 3.93679427,4.8491532 2.65377661,4.8491532 C1.37164166,4.8491532 0.331810347,3.76553584 0.331810347,2.42997859 C0.331810347,1.09396161 1.37164166,0.0103442472 2.65377661,0.0103442472 C3.93679427,0.0103442472 4.97618423,1.09396161 4.97618423,2.42997859" id="Fill-4" fill="#000000" mask="url(#mask-4)"></path>
                </g>
                <g id="Group-9" transform="translate(6.723705, 7.715135)">
                    <mask id="mask-6" fill="white">
                        <use xlink:href="#path-5"></use>
                    </mask>
                    <g id="Clip-8"></g>
                    <path d="M4.97618423,2.53235998 C4.97618423,3.81493628 3.93679427,4.85520895 2.65377661,4.85520895 C1.37164166,4.85520895 0.331810347,3.81493628 0.331810347,2.53235998 C0.331810347,1.25022502 1.37164166,0.209952357 2.65377661,0.209952357 C3.93679427,0.209952357 4.97618423,1.25022502 4.97618423,2.53235998" id="Fill-7" fill="#000000" mask="url(#mask-6)"></path>
                </g>
                <path d="M2.5,6.5 L9.5,2.5" id="Stroke-10" stroke="#000000" stroke-linecap="round" stroke-linejoin="round"></path>
                <path d="M2.5,6.5 L9.5,10.5" id="Stroke-12" stroke="#000000" stroke-linecap="round" stroke-linejoin="round"></path>
            </g>
        </g>
    </g>
</svg>
