<?xml version="1.0" encoding="utf-8"?>
<!-- Generator: Adobe Illustrator 21.0.0, SVG Export Plug-In . SVG Version: 6.00 Build 0)  -->
<svg version="1.1" id="Layer_1" xmlns="http://www.w3.org/2000/svg" xmlns:xlink="http://www.w3.org/1999/xlink" x="0px" y="0px"
	 viewBox="0 0 20 20" style="enable-background:new 0 0 20 20;" xml:space="preserve">
<style type="text/css">
	.st0{filter:url(#Adobe_OpacityMaskFilter);}
	.st1{fill:#FFFFFF;}
	.st2{mask:url(#mask-2);}
</style>
<title>2E1EDFBF-ECF9-4738-8415-F3A3F3020D02</title>
<desc>Created with sketchtool.</desc>
<g id="Guide-cards">
	<g id="Home-TMJ" transform="translate(-1270.000000, -1262.000000)">
		<g id="tumblr_remix" transform="translate(1270.000000, 1261.000000)">
			<g id="Group-6" transform="translate(0.029057, 0.927803)">
				<g id="Group-17" transform="translate(0.067548, 0.229906)">
					<g id="Clip-16">
					</g>
					<defs>
						<filter id="Adobe_OpacityMaskFilter" filterUnits="userSpaceOnUse" x="-0.1" y="-0.2" width="20" height="20">
							<feColorMatrix  type="matrix" values="1 0 0 0 0  0 1 0 0 0  0 0 1 0 0  0 0 0 1 0"/>
						</filter>
					</defs>
					<mask maskUnits="userSpaceOnUse" x="-0.1" y="-0.2" width="20" height="20" id="mask-2">
						<g class="st0">
							<polygon id="path-1" class="st1" points="19.9,-0.2 -0.1,-0.2 -0.1,19.8 19.9,19.8 							"/>
						</g>
					</mask>
					<path id="Fill-15" class="st2" d="M19.9,9.8c0,5.5-4.5,10-10,10s-10-4.5-10-10s4.5-10,10-10S19.9,4.3,19.9,9.8"/>
				</g>
				<path id="Fill-18" class="st1" d="M13.5,15.2c-0.5,0.3-1,0.4-1.4,0.5c-0.4,0.1-0.9,0.1-1.4,0.1c-0.6,0-1-0.1-1.5-0.2
					c-0.4-0.1-0.8-0.3-1.1-0.6c-0.3-0.3-0.5-0.5-0.6-0.8c-0.1-0.3-0.2-0.7-0.2-1.3V8.6H6V6.9c0.5-0.2,0.9-0.4,1.2-0.7
					C7.6,5.9,7.8,5.6,8,5.2c0.2-0.4,0.3-0.9,0.4-1.6h1.7v3.1h2.9v1.9h-2.9v3.1c0,0.7,0,1.2,0.1,1.4c0.1,0.2,0.2,0.4,0.4,0.5
					c0.3,0.2,0.6,0.2,0.9,0.2c0.6,0,1.2-0.2,1.8-0.6V15.2z"/>
			</g>
		</g>
	</g>
</g>
</svg>
