<?xml version="1.0" encoding="UTF-8" standalone="no"?>
<svg width="8px" height="12px" viewBox="0 0 8 12" version="1.1" xmlns="http://www.w3.org/2000/svg" xmlns:xlink="http://www.w3.org/1999/xlink">
    <!-- Generator: Sketch 40 (33762) - http://www.bohemiancoding.com/sketch -->
    <title>Fill 1</title>
    <desc>Created with Sketch.</desc>
    <defs></defs>
    <g id="Remix" stroke="none" stroke-width="1" fill="none" fill-rule="evenodd">
        <g id="Remix-tela-10-Copy" transform="translate(-51.000000, -502.000000)" fill="#FFFFFF">
            <g id="Group-Copy-3" transform="translate(34.000000, 492.000000)">
                <path d="M24.4965333,21.2486957 C23.9541333,21.4970435 23.4832,21.6655652 23.0816,21.7553043 C22.6458667,21.8513043 22.1914667,21.8993043 21.72,21.8993043 C21.1706667,21.8993043 20.6778667,21.8309565 20.2416,21.6932174 C19.8122667,21.5549565 19.4464,21.3587826 19.1429333,21.1041739 C18.8474667,20.8563478 18.64,20.5876522 18.5205333,20.2986087 C18.4010667,20.0027826 18.3408,19.585913 18.3408,19.0485217 L18.3408,14.8756522 L17,14.8756522 L17,13.192 C17.4789333,13.033913 17.8869333,12.8168696 18.2250667,12.5413913 C18.5701333,12.2523478 18.8448,11.9111304 19.048,11.5187826 C19.2528,11.1264348 19.3930667,10.6203478 19.4709333,10 L21.2021333,10 L21.2021333,13.0062609 L24.0954667,13.0062609 L24.0954667,14.8756522 L21.2021333,14.8756522 L21.2021333,17.9226087 C21.2021333,18.6050435 21.2410667,19.0485217 21.3189333,19.2556522 C21.3888,19.4481739 21.5264,19.6031304 21.7301333,19.7205217 C21.9909333,19.8791304 22.3002667,19.957913 22.6597333,19.957913 C23.2645333,19.957913 23.8773333,19.7648696 24.4965333,19.3793043 L24.4965333,21.2486957 Z" id="Fill-1"></path>
            </g>
        </g>
    </g>
</svg>