<?xml version="1.0" encoding="UTF-8" standalone="no"?>
<svg width="12px" height="12px" viewBox="0 0 12 12" version="1.1" xmlns="http://www.w3.org/2000/svg" xmlns:xlink="http://www.w3.org/1999/xlink">
    <g id="Styleguide" stroke="none" stroke-width="1" fill="none" fill-rule="evenodd" opacity="0.54">
        <g transform="translate(-1157.000000, -759.000000)" id="tumblr_icon_editor" fill="#FFFFFF">
            <g transform="translate(1157.000000, 759.000000)">
                <g id="Page-1">
                    <path d="M11.8340026,6.07474524 C11.8340026,9.25881667 9.1849594,11.8399357 5.91709662,11.8399357 C2.64891617,11.8399357 0.000190601504,9.25881667 0.000190601504,6.07474524 C0.000190601504,2.89067381 2.64891617,0.309554762 5.91709662,0.309554762 C9.1849594,0.309554762 11.8340026,2.89067381 11.8340026,6.07474524 Z M8.02041598,9.01432381 C7.69734643,9.16165714 7.41684455,9.26163333 7.17763966,9.31487143 C6.91810395,9.37182381 6.64744981,9.4003 6.36663026,9.4003 C6.03943102,9.4003 5.7459047,9.35975238 5.48605132,9.2780381 C5.23032763,9.19601429 5.01240658,9.07963333 4.83165282,8.92858571 C4.6556641,8.7815619 4.53209079,8.62215714 4.46093289,8.45068095 C4.389775,8.27518095 4.35387838,8.02787143 4.35387838,7.7090619 L4.35387838,5.23349048 L3.55525808,5.23349048 L3.55525808,4.23465714 C3.840525,4.14087143 4.08354192,4.01210952 4.28494417,3.84868095 C4.49047613,3.67720476 4.65407575,3.47477619 4.77510771,3.24201429 C4.89709267,3.00925238 4.98063966,2.70901429 5.02701936,2.34099048 L6.0581735,2.34099048 L6.0581735,4.12446667 L7.78152876,4.12446667 L7.78152876,5.23349048 L6.0581735,5.23349048 L6.0581735,7.04110952 C6.0581735,7.44596667 6.08136335,7.7090619 6.12774305,7.83194286 C6.16935771,7.94615714 6.25131635,8.03808571 6.37266598,8.10772857 C6.5280062,8.20182381 6.71225432,8.2485619 6.92636335,8.2485619 C7.28660019,8.2485619 7.65160207,8.1340381 8.02041598,7.9053 L8.02041598,9.01432381 Z" id="Combined-Shape"></path>
                </g>
            </g>
        </g>
    </g>
</svg>
