<?xml version="1.0" encoding="utf-8"?>
<!-- Generator: Adobe Illustrator 21.0.0, SVG Export Plug-In . SVG Version: 6.00 Build 0)  -->
<svg version="1.1" id="Layer_1" xmlns="http://www.w3.org/2000/svg" xmlns:xlink="http://www.w3.org/1999/xlink" x="0px" y="0px"
	 viewBox="0 0 20 20" style="enable-background:new 0 0 20 20;" xml:space="preserve">
<style type="text/css">
	.st0{filter:url(#Adobe_OpacityMaskFilter);}
	.st1{fill:#FFFFFF;}
	.st2{mask:url(#mask-2);}
</style>
<title>84ED8099-668B-4890-B01B-44EC6EA8EFA2</title>
<desc>Created with sketchtool.</desc>
<g id="Guide-cards">
	<g id="Home-TMJ" transform="translate(-1239.000000, -1262.000000)">
		<g id="twitter_remix" transform="translate(1238.000000, 1261.000000)">
			<g id="Group-7" transform="translate(0.794650, 0.927803)">
				<g id="Group-22" transform="translate(0.109098, 0.229906)">
					<g id="Clip-21">
					</g>
					<defs>
						<filter id="Adobe_OpacityMaskFilter" filterUnits="userSpaceOnUse" x="0.1" y="-0.2" width="20" height="20">
							<feColorMatrix  type="matrix" values="1 0 0 0 0  0 1 0 0 0  0 0 1 0 0  0 0 0 1 0"/>
						</filter>
					</defs>
					<mask maskUnits="userSpaceOnUse" x="0.1" y="-0.2" width="20" height="20" id="mask-2">
						<g class="st0">
							<polygon id="path-1" class="st1" points="20.1,19.8 20.1,-0.2 0.1,-0.2 0.1,19.8 							"/>
						</g>
					</mask>
					<path id="Fill-20" class="st2" d="M20.1,9.8c0,5.5-4.5,10-10,10s-10-4.5-10-10s4.5-10,10-10S20.1,4.3,20.1,9.8"/>
				</g>
				<path id="Fill-23" class="st1" d="M15.5,7.7c0,0.1,0,0.2,0,0.3c0,3.2-2.5,7-7,7c-1.4,0-2.7-0.4-3.8-1.1c0.2,0,0.4,0,0.6,0
					c1.2,0,2.2-0.4,3-1.1c-1.1,0-2-0.7-2.3-1.7c0.1,0,0.3,0,0.5,0c0.2,0,0.4,0,0.6-0.1c-1.1-0.2-2-1.2-2-2.4c0,0,0,0,0,0
					C5.6,8.9,6,9,6.4,9C5.7,8.6,5.3,7.8,5.3,7c0-0.4,0.1-0.9,0.3-1.2c1.2,1.5,3,2.5,5.1,2.6c0-0.2-0.1-0.4-0.1-0.6
					c0-1.4,1.1-2.5,2.5-2.5c0.7,0,1.3,0.3,1.8,0.8c0.6-0.1,1.1-0.3,1.6-0.6c-0.2,0.6-0.6,1.1-1.1,1.4c0.5-0.1,1-0.2,1.4-0.4
					C16.4,6.9,16,7.3,15.5,7.7"/>
			</g>
		</g>
	</g>
</g>
</svg>
