<?xml version="1.0" encoding="UTF-8" standalone="no"?>
<svg width="32px" height="32px" viewBox="0 0 32 32" version="1.1" xmlns="http://www.w3.org/2000/svg" xmlns:xlink="http://www.w3.org/1999/xlink">
    <!-- Generator: Sketch 3.8.3 (29802) - http://www.bohemiancoding.com/sketch -->
    <title>twitch-profile</title>
    <desc>Created with Sketch.</desc>
    <defs></defs>
    <g id="Page-1" stroke="none" stroke-width="1" fill="none" fill-rule="evenodd">
        <g id="twitch-profile">
            <path d="M16.3,0 C7.6,0 0.6,7.2 0.6,16 C0.6,24.8 7.6,32 16.3,32 C25,32 32,24.8 32,16 C32,7.2 25,0 16.3,0 L16.3,0 Z" id="Shape" fill=""></path>
            <path d="M9,8.2 C8.9,8.2 8.8,8.3 8.8,8.4 C8.5,9.4 8.2,10.3 7.9,11.3 C7.8,11.4 7.8,11.5 7.8,11.6 L7.8,23.4 L7.8,23.6 L12,23.6 L12,25.7 L12.1,25.7 L14.5,25.7 C14.6,25.7 14.6,25.7 14.7,25.6 C15.3,25 15.9,24.4 16.5,23.8 C16.6,23.6 16.7,23.6 16.9,23.6 L19.6,23.6 C19.7,23.6 19.8,23.6 19.9,23.5 L24.4,19 C24.5,18.9 24.6,18.8 24.8,18.6 L24.8,8.4 L24.8,8.2 L24.6,8.2 L9,8.2 L9,8.2 Z M22.9,9.8 L22.9,10 L22.9,18.2 C22.9,18.3 22.9,18.4 22.8,18.5 L20.4,20.9 C20.3,20.9 20.2,21 20.1,21 L16.2,21 C16.1,21 16,21 15.9,21.1 C15.3,21.7 14.6,22.4 14,23 L13.9,23.1 L13.9,21 L10.2,21 L10.2,9.8 L22.9,9.8 L22.9,9.8 L22.9,9.8 L22.9,9.8 Z" id="Shape" fill="#FFFFFF"></path>
            <rect id="Rectangle-path" fill="#FFFFFF" x="18.8" y="13.1" width="1.5" height="4.7"></rect>
            <rect id="Rectangle-path" fill="#FFFFFF" x="14.5" y="13.1" width="1.6" height="4.7"></rect>
        </g>
    </g>
</svg>