<?xml version="1.0" encoding="UTF-8" standalone="no"?>
<svg width="12px" height="12px" viewBox="0 0 12 12" version="1.1" xmlns="http://www.w3.org/2000/svg" xmlns:xlink="http://www.w3.org/1999/xlink">
    <!-- Generator: sketchtool 40 (33762) - http://www.bohemiancoding.com/sketch -->
    <title>9783887E-A424-456B-B5DB-723CE986BF11</title>
    <desc>Created with sketchtool.</desc>
    <defs></defs>
    <g id="Styleguide" stroke="none" stroke-width="1" fill="none" fill-rule="evenodd" opacity="0.54">
        <g transform="translate(-1058.000000, -759.000000)" id="twitter_icon_editor" fill="#FFFFFF">
            <g transform="translate(1058.000000, 759.000000)">
                <g id="Page-1">
                    <path d="M11.7639474,6.01341481 C11.7639474,9.16532391 9.13057895,11.720371 5.88205263,11.720371 C2.63352632,11.720371 0.000157894737,9.16532391 0.000157894737,6.01341481 C0.000157894737,2.86150572 2.63352632,0.306458586 5.88205263,0.306458586 C9.13057895,0.306458586 11.7639474,2.86150572 11.7639474,6.01341481 Z M8.99696842,4.65668754 C8.99917895,4.71643502 9.00044211,4.77740808 9.00044211,4.83868754 C9.00044211,6.68902088 7.54875789,8.82277172 4.89296842,8.82277172 C4.0776,8.82277172 3.31875789,8.59205455 2.67991579,8.19343165 C2.79328421,8.20660673 2.90791579,8.21365387 3.02412632,8.21365387 C3.70117895,8.21365387 4.32296842,7.98998384 4.81749474,7.61403434 C4.18591579,7.60208485 3.65317895,7.1976404 3.46938947,6.6409165 C3.55686316,6.65776835 3.64686316,6.66604108 3.74065263,6.66604108 C3.87138947,6.66604108 3.9996,6.64949562 4.12054737,6.61701751 C3.46054737,6.48894343 2.96223158,5.92302761 2.96223158,5.24435758 C2.96223158,5.23822963 2.96223158,5.23240808 2.96349474,5.22628013 C3.15707368,5.33168081 3.38065263,5.39387946 3.61749474,5.4009266 C3.23002105,5.1509064 2.97454737,4.72133737 2.97454737,4.23539125 C2.97454737,3.9792431 3.04623158,3.73872121 3.16970526,3.53159663 C3.88117895,4.37909158 4.94602105,4.93673468 6.14475789,4.99525657 C6.12012632,4.89230707 6.10781053,4.78598721 6.10781053,4.67568418 C6.10781053,3.90264377 6.75423158,3.27544848 7.55128421,3.27544848 C7.96686316,3.27544848 8.34170526,3.44549899 8.60444211,3.716967 C8.93381053,3.65476835 9.2436,3.53864377 9.52244211,3.37717239 C9.41381053,3.70501751 9.18549474,3.9792431 8.88707368,4.15266397 C9.17949474,4.11926667 9.45833684,4.04389293 9.71602105,3.93267071 C9.52370526,4.21271785 9.27802105,4.45906128 8.99696842,4.65668754 Z" id="Combined-Shape"></path>
                </g>
            </g>
        </g>
    </g>
</svg>