<?xml version="1.0" encoding="UTF-8" standalone="no"?>
<svg width="14px" height="12px" viewBox="0 0 14 12" version="1.1" xmlns="http://www.w3.org/2000/svg" xmlns:xlink="http://www.w3.org/1999/xlink">
    <g id="Remix" stroke="none" stroke-width="1" fill="none" fill-rule="evenodd">
        <g id="Remix-tela-10-Copy" transform="translate(-48.000000, -457.000000)" fill="#FFFFFF">
            <g id="Group-Copy-2" transform="translate(34.000000, 447.000000)">
                <path d="M26.27653,13.1293957 C26.27653,16.8335159 23.4568843,21.105 18.2984722,21.105 C16.71476,21.105 15.2408404,20.643135 14,19.8451453 C14.2201986,19.87152 14.4428506,19.8856275 14.6685695,19.8856275 C15.9836272,19.8856275 17.1913458,19.4378699 18.1518777,18.6852693 C16.9251447,18.661348 15.8903955,17.8517042 15.5334162,16.7372173 C15.7033187,16.7709525 15.8781281,16.7875134 16.060298,16.7875134 C16.3142317,16.7875134 16.5632585,16.7543916 16.7981779,16.6893748 C15.5162419,16.4329876 14.5483496,15.3000997 14.5483496,13.941493 C14.5483496,13.9292256 14.5483496,13.9175717 14.5508031,13.9053043 C14.9267967,14.1163024 15.3610602,14.2408158 15.8210851,14.2549232 C15.0684844,13.7544162 14.5722709,12.8944764 14.5722709,11.9216772 C14.5722709,11.4089028 14.7115051,10.9274101 14.9513314,10.5127744 C16.3332461,12.209346 18.4015178,13.325673 20.7298569,13.442826 C20.6820144,13.2367349 20.6580931,13.0238967 20.6580931,12.8030848 C20.6580931,11.2555612 21.9136542,10 23.4617912,10 C24.2689815,10 24.9970475,10.3404184 25.5073684,10.8838611 C26.1471096,10.7593477 26.7488221,10.5268818 27.2904247,10.2036377 C27.0794267,10.8599398 26.6359627,11.4089028 26.0563314,11.7560682 C26.6243088,11.6892113 27.1659114,11.5383231 27.6664184,11.3156711 C27.2928782,11.876288 26.8156791,12.3694347 26.2697829,12.7650561 C26.2740765,12.8846625 26.27653,13.0067225 26.27653,13.1293957 Z" id="Fill-1"></path>
            </g>
        </g>
    </g>
</svg>
