<svg width="71px" height="72px" viewBox="0 0 71 72" version="1.1" xmlns="http://www.w3.org/2000/svg" xmlns:xlink="http://www.w3.org/1999/xlink">
    <defs>
        <ellipse id="path-1" cx="33.4299262" cy="33.8174964" rx="33.4299262" ry="33.8174964"></ellipse>
    </defs>
    <g id="Menu,-cadastro-e-perfil" stroke="none" stroke-width="1" fill="none" fill-rule="evenodd">
        <g id="Login-Menu-1" transform="translate(-64.000000, -159.000000)">
            <g id="foto_perfil" transform="translate(65.000000, 160.000000)">
                <ellipse id="Oval-4" fill="#000000" cx="35.4357218" cy="35.9935788" rx="34.0985248" ry="34.4938463"></ellipse>
                <g id="photo-1475264727892-e633d80fa80d-copy-3">
                    <g id="perfil_vazio" transform="translate(0.000000, 0.147033)">
                        <mask id="mask-2" fill="white">
                            <use xlink:href="#path-1"></use>
                        </mask>
                        <use id="Mask" stroke="#000000" fill="#FFFFFF" xlink:href="#path-1"></use>
                        <path d="M23.3468083,54.8213879 L13.2367497,60.3765698 C12.6449281,60.7049617 12.1076522,61.1075509 11.6153767,61.5403687 C17.5076836,66.5473148 25.1195459,69.5674211 33.4295941,69.5674211 C41.6837329,69.5674211 49.2451404,66.5926576 55.1210836,61.6530388 C54.5838077,61.1941145 53.9892588,60.779159 53.3401642,60.4521412 L42.5141923,54.998637 C41.1150932,54.2937624 40.2287245,52.8537845 40.2287245,51.273656 L40.2287245,46.9963171 C40.5355444,46.6500629 40.8832737,46.1966347 41.2528213,45.6690092 C42.733739,43.5667514 43.8437454,41.2570158 44.6182954,38.8359843 C46.0092125,38.4017925 47.034673,37.1115833 47.034673,35.5767976 L47.034673,31.0095395 C47.034673,30.0037534 46.5914886,29.1037672 45.8973937,28.4744639 L45.8973937,21.868153 C45.8973937,21.868153 47.2474015,11.5945702 33.4295941,11.5945702 C19.6199685,11.5945702 20.9672491,21.868153 20.9672491,21.868153 L20.9672491,28.4744639 C20.2745178,29.1037672 19.8299698,30.0037534 19.8299698,31.0095395 L19.8299698,35.5767976 C19.8299698,36.7790693 20.4613371,37.8356943 21.3981607,38.4526314 C22.53544,43.4224788 25.5000027,46.9963171 25.5000027,46.9963171 L25.5000027,51.1733522 C25.5000027,52.6889015 24.6709069,54.0917807 23.3468083,54.8213879" id="Fill-1" stroke="#000000" mask="url(#mask-2)"></path>
                    </g>
                </g>
            </g>
        </g>
    </g>
</svg>
