<svg xmlns="http://www.w3.org/2000/svg" xmlns:xlink="http://www.w3.org/1999/xlink" viewBox="0 0 71.11 58.97"><defs><mask id="a" x="1.27" y="-11.09" width="66.86" height="70.07" maskUnits="userSpaceOnUse"><g transform="translate(0.27 -12.24)"><ellipse cx="34.43" cy="34.96" rx="33.43" ry="33.82" style="fill:#fff"/></g></mask></defs><title>user-picture</title><g style="mask:url(#a)"><path d="M24.35,56s-11.24,6.29-11.73,6.72a33.67,33.67,0,0,0,43.51.11,9,9,0,0,0-1.78-1.2L43.51,56.15a4.17,4.17,0,0,1-2.29-3.72V48.14a15.24,15.24,0,0,0,1-1.33A25.11,25.11,0,0,0,45.62,40,3.43,3.43,0,0,0,48,36.72V32.16a3.42,3.42,0,0,0-1.14-2.54V23s1.35-10.27-12.47-10.27S22,23,22,23v6.61a3.42,3.42,0,0,0-1.14,2.54v4.57A3.45,3.45,0,0,0,22.4,39.6a22.77,22.77,0,0,0,4.1,8.54v4.18A4.17,4.17,0,0,1,24.35,56" transform="translate(0.27 -12.24)" style="fill:none;stroke:#000"/></g><line x1="0.27" y1="58.47" x2="14.46" y2="49.48" style="fill:none;stroke:#000"/><line x1="54.61" y1="49.36" x2="70.89" y2="57.41" style="fill:none;stroke:#000"/></svg>