<?xml version="1.0" encoding="UTF-8" standalone="no"?>
<svg width="12px" height="12px" viewBox="0 0 12 12" version="1.1" xmlns="http://www.w3.org/2000/svg" xmlns:xlink="http://www.w3.org/1999/xlink">
    <defs>
        <polygon id="path-1" points="5.88194211 11.6923077 11.7637895 11.6923077 11.7637895 0.230153846 5.88194211 0.230153846 9.47368421e-05 0.230153846 9.47368421e-05 11.6923077"></polygon>
    </defs>
    <g id="Styleguide" stroke="none" stroke-width="1" fill="none" fill-rule="evenodd" opacity="0.38">
        <g id="Desktop-HD" transform="translate(-1159.000000, -370.000000)">
            <g id="vimeo" transform="translate(1159.000000, 370.000000)">
                <g id="Page-1">
                    <g id="Group-3" transform="translate(0.000000, 0.077692)">
                        <mask id="mask-2" fill="white">
                            <use xlink:href="#path-1"></use>
                        </mask>
                        <g id="Clip-2"></g>
                        <path d="M11.7638842,5.96123077 C11.7638842,9.12646154 9.13051579,11.6923077 5.88198947,11.6923077 C2.63346316,11.6923077 9.47368421e-05,9.12646154 9.47368421e-05,5.96123077 C9.47368421e-05,2.796 2.63346316,0.230153846 5.88198947,0.230153846 C9.13051579,0.230153846 11.7638842,2.796 11.7638842,5.96123077" id="Fill-1" fill="#000000" mask="url(#mask-2)"></path>
                    </g>
                    <path d="M9.38112632,4.48963077 C9.32270526,4.78563077 9.15091579,5.24501538 8.86607368,5.86716923 C8.58091579,6.48963077 8.22217895,7.08255385 7.78923158,7.64624615 C7.29407368,8.29516923 6.77365263,8.77547692 6.22891579,9.08778462 C6.08712632,9.17270769 5.92923158,9.23670769 5.75428421,9.27916923 C5.57965263,9.32193846 5.40249474,9.31855385 5.22375789,9.27024615 C4.96986316,9.16470769 4.75607368,8.91116923 4.58081053,8.50963077 C4.49365263,8.30286154 4.37491579,7.90347692 4.22491579,7.31178462 C4.07523158,6.73978462 3.96502105,6.36070769 3.89428421,6.17455385 C3.87375789,6.12163077 3.84754737,6.03978462 3.8166,5.92809231 C3.78502105,5.8164 3.75407368,5.71916923 3.72249474,5.63609231 C3.69154737,5.55301538 3.65302105,5.47486154 3.60723158,5.40193846 C3.53681053,5.2844 3.45028421,5.22347692 3.34828421,5.21947692 C3.24628421,5.21547692 3.12533684,5.2364 2.98638947,5.28316923 C2.84681053,5.32993846 2.73344211,5.34716923 2.64596842,5.33516923 C2.59638947,5.32686154 2.55123158,5.28624615 2.51207368,5.21332308 C2.4726,5.1404 2.41923158,5.08778462 2.3526,5.05486154 L2.3526,5.01270769 C2.51933684,4.89916923 2.77386316,4.6924 3.11744211,4.39209231 C3.46070526,4.09209231 3.7446,3.87732308 3.96944211,3.74747692 C4.2606,3.58132308 4.52491579,3.53055385 4.76238947,3.59547692 C4.87449474,3.62809231 4.97965263,3.70901538 5.07723158,3.83886154 C5.17481053,3.9684 5.24902105,4.1084 5.2986,4.25824615 C5.34470526,4.4004 5.41544211,4.73301538 5.51112632,5.25578462 C5.52344211,5.33670769 5.54144211,5.48193846 5.56417895,5.69055385 C5.58691579,5.89916923 5.60775789,6.06993846 5.62638947,6.20132308 C5.64502105,6.33332308 5.68481053,6.48132308 5.74481053,6.64532308 C5.80544211,6.80993846 5.88344211,6.94070769 5.97912632,7.03763077 C6.15786316,7.22409231 6.33912632,7.25270769 6.52228421,7.12286154 C6.63849474,7.03793846 6.7866,6.83701538 6.96533684,6.52101538 C7.16081053,6.15209231 7.26912632,5.86193846 7.28996842,5.65147692 C7.31902105,5.34286154 7.26375789,5.14255385 7.12449474,5.04901538 C6.98523158,4.95578462 6.74902105,4.92347692 6.41586316,4.95178462 C6.48281053,4.75332308 6.57533684,4.56747692 6.69375789,4.39516923 C6.81249474,4.22316923 6.93596842,4.08101538 7.06512632,3.96963077 C7.1946,3.85793846 7.32849474,3.75978462 7.46807368,3.67486154 C7.60702105,3.58932308 7.72702105,3.52778462 7.82681053,3.48932308 C7.9266,3.45055385 8.01217895,3.42532308 8.0826,3.41301538 C8.64438947,3.33209231 9.03344211,3.42316923 9.25007368,3.68686154 C9.40386316,3.87732308 9.44775789,4.14470769 9.38112632,4.48963077" id="Fill-4" fill="#FFFFFF"></path>
                </g>
            </g>
        </g>
    </g>
</svg>
