<?xml version="1.0" encoding="UTF-8" standalone="no"?>
<svg width="32px" height="33px" viewBox="0 0 32 33" version="1.1" xmlns="http://www.w3.org/2000/svg" xmlns:xlink="http://www.w3.org/1999/xlink">
    <defs></defs>
    <g id="Page-1" stroke="none" stroke-width="1" fill="none" fill-rule="evenodd">
        <g id="youtube-profile">
            <path d="M16.1,0.9 C7.4,0.9 0.4,8.1 0.4,16.9 C0.4,25.7 7.4,32.9 16.1,32.9 C24.8,32.9 31.8,25.7 31.8,16.9 C31.8,8.1 24.8,0.9 16.1,0.9 L16.1,0.9 Z M26,18.6 C26,20.8 25.7,22.1 24.9,22.9 C24.1,23.7 22.9,24 20.7,24 L11.6,24 C7.1,24 6.3,22.2 6.3,18.7 L6.3,15.2 C6.3,13.4 6.3,12.1 7,11.2 C7.7,10.3 9,9.9 11.6,9.9 L20.7,9.9 C23.2,9.9 24.5,10.3 25.2,11.1 C25.9,12 26,13.3 26,15.2 L26,18.6 L26,18.6 Z" id="Shape" fill=""></path>
            <path d="M25.2,11.1 C24.5,10.3 23.2,9.9 20.7,9.9 L11.6,9.9 C9,9.9 7.7,10.3 7,11.2 C6.3,12.1 6.3,13.4 6.3,15.2 L6.3,18.7 C6.3,22.2 7.1,24 11.6,24 L20.7,24 C22.9,24 24.1,23.7 24.9,22.9 C25.7,22.1 26,20.8 26,18.6 L26,15.2 C26,13.3 25.9,12 25.2,11.1 L25.2,11.1 Z M18.5,17.5 L14.4,19.7 C14.3,19.7 14.2,19.8 14.1,19.8 C14,19.8 13.9,19.8 13.8,19.7 C13.6,19.6 13.5,19.4 13.5,19.1 L13.5,14.7 C13.5,14.5 13.6,14.3 13.8,14.1 C14,14 14.2,14 14.4,14.1 L18.5,16.3 C18.7,16.4 18.8,16.6 18.8,16.9 C18.8,17.1 18.7,17.3 18.5,17.5 L18.5,17.5 Z" id="Shape" fill="#FFFFFF"></path>
        </g>
    </g>
</svg>
