<?xml version="1.0" encoding="UTF-8" standalone="no"?>
<svg width="12px" height="12px" viewBox="0 0 12 12" version="1.1" xmlns="http://www.w3.org/2000/svg" xmlns:xlink="http://www.w3.org/1999/xlink">
    <g id="Styleguide" stroke="none" stroke-width="1" fill="none" fill-rule="evenodd" opacity="0.54">
        <g transform="translate(-1078.000000, -759.000000)" id="youtube_icon_editor" fill="#FFFFFF">
            <g transform="translate(1078.000000, 759.000000)">
                <g id="Page-1">
                    <path d="M11.7639474,6.07477619 C11.7639474,9.25884762 9.13057895,11.8399667 5.88205263,11.8399667 C2.63352632,11.8399667 0.000157894737,9.25884762 0.000157894737,6.07477619 C0.000157894737,2.89070476 2.63352632,0.309585714 5.88205263,0.309585714 C9.13057895,0.309585714 11.7639474,2.89070476 11.7639474,6.07477619 Z M9.28528421,3.96580476 C9.01875789,3.65535238 8.52675789,3.52875714 7.58728421,3.52875714 L4.17644211,3.52875714 C3.21549474,3.52875714 2.71528421,3.6634 2.44970526,3.99397143 C2.19075789,4.31649524 2.19075789,4.79130476 2.19075789,5.44842381 L2.19075789,6.70106667 C2.19075789,7.97444762 2.49802105,8.62073333 4.17644211,8.62073333 L7.58728421,8.62073333 C8.40202105,8.62073333 8.8536,8.50930476 9.14570526,8.23506667 C9.44538947,7.95401905 9.57296842,7.49530476 9.57296842,6.70106667 L9.57296842,5.44842381 C9.57296842,4.7554 9.55307368,4.27780476 9.28528421,3.96580476 Z" id="Combined-Shape"></path>
                    <path d="M6.76673684,6.27915476 L5.21778947,7.07246429 C5.18336842,7.09010714 5.14547368,7.09908333 5.10757895,7.09908333 C5.06494737,7.09908333 5.022,7.08763095 4.98410526,7.06534524 C4.91305263,7.02294048 4.86947368,6.94710714 4.86947368,6.86570238 L4.86947368,5.28403571 C4.86947368,5.20232143 4.91273684,5.12679762 4.98410526,5.08439286 C5.05515789,5.0419881 5.14357895,5.03920238 5.21747368,5.07696429 L6.76610526,5.8650119 C6.84473684,5.90525 6.89431579,5.98479762 6.89463158,6.07208333 C6.89463158,6.15905952 6.84536842,6.23891667 6.76673684,6.27915476" id="Fill-6"></path>
                </g>
            </g>
        </g>
    </g>
</svg>
