<?xml version="1.0" encoding="UTF-8" standalone="no"?>
<svg width="12px" height="12px" viewBox="0 0 12 12" version="1.1" xmlns="http://www.w3.org/2000/svg" xmlns:xlink="http://www.w3.org/1999/xlink">
    <!-- Generator: sketchtool 40 (33762) - http://www.bohemiancoding.com/sketch -->
    <title>1E9C1D9F-FD37-4D7B-8310-2D895E250C14</title>
    <desc>Created with sketchtool.</desc>
    <defs>
        <polygon id="path-1" points="11.7637895 11.7618119 11.7637895 0.23152381 0.000157894737 0.23152381 0.000157894737 11.7618119 11.7637895 11.7618119"></polygon>
    </defs>
    <g id="Styleguide" stroke="none" stroke-width="1" fill="none" fill-rule="evenodd" opacity="0.379999995">
        <g id="Desktop-HD" transform="translate(-1098.000000, -370.000000)">
            <g id="youtube" transform="translate(1098.000000, 370.000000)">
                <g id="Page-1">
                    <g id="Group-3" transform="translate(0.000000, 0.078155)">
                        <mask id="mask-2" fill="white">
                            <use xlink:href="#path-1"></use>
                        </mask>
                        <g id="Clip-2"></g>
                        <path d="M11.7639474,5.99662143 C11.7639474,9.18069286 9.13057895,11.7618119 5.88205263,11.7618119 C2.63352632,11.7618119 0.000157894737,9.18069286 0.000157894737,5.99662143 C0.000157894737,2.81255 2.63352632,0.231430952 5.88205263,0.231430952 C9.13057895,0.231430952 11.7639474,2.81255 11.7639474,5.99662143" id="Fill-1" fill="#000000" mask="url(#mask-2)"></path>
                    </g>
                    <path d="M9.28528421,3.96580476 C9.01875789,3.65535238 8.52675789,3.52875714 7.58728421,3.52875714 L4.17644211,3.52875714 C3.21549474,3.52875714 2.71528421,3.6634 2.44970526,3.99397143 C2.19075789,4.31649524 2.19075789,4.79130476 2.19075789,5.44842381 L2.19075789,6.70106667 C2.19075789,7.97444762 2.49802105,8.62073333 4.17644211,8.62073333 L7.58728421,8.62073333 C8.40202105,8.62073333 8.8536,8.50930476 9.14570526,8.23506667 C9.44538947,7.95401905 9.57296842,7.49530476 9.57296842,6.70106667 L9.57296842,5.44842381 C9.57296842,4.7554 9.55307368,4.27780476 9.28528421,3.96580476" id="Fill-4" fill="#FFFFFF"></path>
                    <path d="M6.76673684,6.27915476 L5.21778947,7.07246429 C5.18336842,7.09010714 5.14547368,7.09908333 5.10757895,7.09908333 C5.06494737,7.09908333 5.022,7.08763095 4.98410526,7.06534524 C4.91305263,7.02294048 4.86947368,6.94710714 4.86947368,6.86570238 L4.86947368,5.28403571 C4.86947368,5.20232143 4.91273684,5.12679762 4.98410526,5.08439286 C5.05515789,5.0419881 5.14357895,5.03920238 5.21747368,5.07696429 L6.76610526,5.8650119 C6.84473684,5.90525 6.89431579,5.98479762 6.89463158,6.07208333 C6.89463158,6.15905952 6.84536842,6.23891667 6.76673684,6.27915476" id="Fill-6" fill="#000000"></path>
                </g>
            </g>
        </g>
    </g>
</svg>