<?xml version="1.0" encoding="UTF-8" standalone="no"?>
<svg width="37px" height="33px" viewBox="0 0 37 33" version="1.1" xmlns="http://www.w3.org/2000/svg" xmlns:xlink="http://www.w3.org/1999/xlink">
    <!-- Generator: sketchtool 40 (33762) - http://www.bohemiancoding.com/sketch -->
    <title>BE278870-977B-4428-A8BD-981198FF8A3B</title>
    <desc>Created with sketchtool.</desc>
    <defs></defs>
    <g id="Styleguide" stroke="none" stroke-width="1" fill="none" fill-rule="evenodd">
        <g transform="translate(-818.000000, -586.000000)" id="color">
            <g transform="translate(819.000000, 585.000000)">
                <g id="Group-2">
                    <path d="M35.4987,7.0874 C35.2507,6.8344 34.9097,6.6944 34.5367,6.6944 C34.1457,6.6944 33.8027,6.8344 33.4887,6.9844 C32.5617,7.4324 31.7377,8.0614 30.9407,8.6684 L30.8367,8.7474 C29.6267,9.6704 28.4757,10.6694 27.3487,11.6904 C26.2567,9.1304 24.4757,6.8304 22.2647,5.1694 C19.5077,3.0974 16.2257,2.0014 12.7697,2.0004 C10.4287,2.0004 7.5877,2.8244 5.3547,4.1524 C2.5507,5.8204 1.0057,8.0784 1.0067,10.5104 C1.0077,13.4754 2.7017,14.7444 3.9407,15.6744 C4.9727,16.4504 5.5117,16.9014 5.5127,17.8914 C5.5127,18.8824 4.9737,19.3334 3.9377,20.1094 C2.7027,21.0364 1.0097,22.3074 1.0107,25.2704 C1.0117,27.7024 2.5567,29.9604 5.3617,31.6294 C7.5967,32.9594 10.4387,33.7854 12.7847,33.7854 C17.0147,33.7854 20.9907,32.1344 23.9817,29.1354 C26.8917,26.2164 28.5277,22.3464 28.6097,18.2244 C30.8167,15.8704 32.8857,13.3034 34.6607,10.6784 C35.6337,9.2374 36.3687,7.9734 35.4987,7.0874" id="Fill-1" fill="#000000"></path>
                    <g id="Group-6" transform="translate(0.000000, 0.785600)" stroke="#000000" stroke-linecap="round" fill="#FFFFFF" stroke-linejoin="round">
                        <path d="M27.1118,16.2787 L26.1208,10.6657 C25.0918,7.9517 23.2858,5.5327 20.9578,3.7827 C18.2878,1.7767 15.1098,0.7157 11.7658,0.7147 L11.7628,0.7147 C9.5068,0.7147 6.7638,1.5127 4.6038,2.7967 C1.9568,4.3707 0.4998,6.4757 0.4998,8.7237 C0.5008,11.4387 2.0148,12.5737 3.2308,13.4857 C4.2218,14.2307 5.0048,14.8177 5.0058,16.1047 C5.0058,17.3927 4.2228,17.9797 3.2318,18.7237 C2.0168,19.6347 0.5028,20.7697 0.5038,23.4837 C0.5048,25.7317 1.9628,27.8377 4.6108,29.4137 C6.7718,30.6997 9.5168,31.4987 11.7728,31.4997 L11.7778,31.4997 C15.8738,31.4997 19.7248,29.8997 22.6208,26.9957 C25.4798,24.1287 27.0698,20.3287 27.1118,16.2787" id="Stroke-5"></path>
                    </g>
                    <path d="M8.2851,22.6257 C7.9421,22.3517 7.5121,22.2007 7.0741,22.2007 C6.4801,22.2007 5.9261,22.4677 5.5551,22.9347 C5.2311,23.3427 5.0841,23.8527 5.1421,24.3717 C5.2001,24.8917 5.4561,25.3577 5.8641,25.6837 C6.2071,25.9577 6.6361,26.1087 7.0741,26.1087 C7.6691,26.1087 8.2231,25.8407 8.5941,25.3737 C8.9181,24.9667 9.0651,24.4567 9.0071,23.9387 C8.9491,23.4187 8.6931,22.9517 8.2851,22.6257" id="Stroke-7" stroke="#000000" stroke-linecap="round" stroke-linejoin="round"></path>
                    <path d="M8.2851,7.7841 C7.9421,7.5101 7.5121,7.3591 7.0741,7.3591 C6.4801,7.3591 5.9261,7.6261 5.5551,8.0931 C5.2311,8.5011 5.0841,9.0111 5.1421,9.5301 C5.2001,10.0501 5.4561,10.5161 5.8641,10.8421 C6.2071,11.1161 6.6361,11.2671 7.0741,11.2671 C7.6691,11.2671 8.2231,10.9991 8.5941,10.5331 C8.9181,10.1251 9.0651,9.6151 9.0071,9.0971 C8.9491,8.5771 8.6931,8.1111 8.2851,7.7841" id="Stroke-9" stroke="#000000" stroke-linecap="round" stroke-linejoin="round"></path>
                    <path d="M15.1464,6.1815 C14.8034,5.9075 14.3734,5.7565 13.9354,5.7565 C13.3414,5.7565 12.7874,6.0235 12.4164,6.4905 C12.0924,6.8985 11.9454,7.4085 12.0034,7.9275 C12.0614,8.4475 12.3174,8.9135 12.7254,9.2395 C13.0684,9.5135 13.4974,9.6645 13.9354,9.6645 C14.5304,9.6645 15.0844,9.3965 15.4554,8.9305 C15.7794,8.5225 15.9264,8.0125 15.8684,7.4945 C15.8104,6.9745 15.5544,6.5085 15.1464,6.1815" id="Stroke-11" stroke="#000000" stroke-linecap="round" stroke-linejoin="round"></path>
                    <path d="M21.6017,9.738 C21.2587,9.464 20.8287,9.313 20.3907,9.313 C19.7967,9.313 19.2427,9.58 18.8717,10.047 C18.5477,10.455 18.4007,10.965 18.4587,11.484 C18.5167,12.004 18.7727,12.47 19.1807,12.796 C19.5237,13.07 19.9527,13.221 20.3907,13.221 C20.9857,13.221 21.5397,12.953 21.9107,12.486 C22.2347,12.079 22.3817,11.569 22.3237,11.051 C22.2657,10.531 22.0097,10.064 21.6017,9.738" id="Stroke-13" stroke="#000000" stroke-linecap="round" stroke-linejoin="round"></path>
                    <g id="Group-18" transform="translate(17.000000, 5.785600)">
                        <path d="M3.6571,17.4495 C5.2511,15.9265 6.8961,14.4575 8.4721,12.9155 C11.3331,10.1175 13.9971,6.9295 16.2391,3.6115 C17.2441,2.1245 17.6851,1.2115 17.1341,0.6505 C17.0271,0.5405 16.8341,0.4095 16.5301,0.4095 C16.2341,0.4095 15.9621,0.5225 15.6991,0.6495 C14.7781,1.0925 13.9421,1.7425 13.1341,2.3585 C9.8731,4.8455 7.0061,7.7735 4.1081,10.6615 C2.9101,11.8565 1.7121,13.0505 0.5141,14.2445" id="Fill-15" fill="#FFFFFF"></path>
                        <path d="M3.6571,17.4495 C5.2511,15.9265 6.8961,14.4575 8.4721,12.9155 C11.3331,10.1175 13.9971,6.9295 16.2391,3.6115 C17.2441,2.1245 17.6851,1.2115 17.1341,0.6505 C17.0271,0.5405 16.8341,0.4095 16.5301,0.4095 C16.2341,0.4095 15.9621,0.5225 15.6991,0.6495 C14.7781,1.0925 13.9421,1.7425 13.1341,2.3585 C9.8731,4.8455 7.0061,7.7735 4.1081,10.6615 C2.9101,11.8565 1.7121,13.0505 0.5141,14.2445" id="Stroke-17" stroke="#000000" stroke-linecap="round" stroke-linejoin="round"></path>
                    </g>
                    <path d="M20.6571,23.2351 C19.8221,26.5831 17.7211,28.2791 14.4061,28.2791 L14.4061,28.2791 C13.5311,28.2791 12.6951,28.1581 11.9911,28.0081 C12.8311,27.1411 13.0931,25.8361 13.3211,24.7061 C13.7541,22.5521 14.1641,20.5141 17.5141,20.0301 L20.6571,23.2351 L20.6571,23.2351 Z" id="Stroke-19" stroke="#000000" stroke-linecap="round" stroke-linejoin="round"></path>
                </g>
            </g>
        </g>
    </g>
</svg>