<?xml version="1.0" encoding="UTF-8" standalone="no"?>
<svg width="34px" height="34px" viewBox="0 0 34 34" version="1.1" xmlns="http://www.w3.org/2000/svg" xmlns:xlink="http://www.w3.org/1999/xlink">
    <!-- Generator: sketchtool 40 (33762) - http://www.bohemiancoding.com/sketch -->
    <title>B5CD8EFB-F202-48AC-A9F8-09B05481A2F0</title>
    <desc>Created with sketchtool.</desc>
    <defs>
        <path d="M1.519,0.663 C1.131,0.663 0.818,0.984 0.818,1.379 C0.818,1.773 1.138,2.094 1.527,2.094 C1.916,2.094 2.233,1.773 2.233,1.379 C2.233,0.984 1.916,0.663 1.527,0.663 L1.519,0.663 L1.519,0.663 Z" id="path-1"></path>
        <path d="M1.488,0.654 C1.099,0.654 0.787,0.974 0.787,1.37 C0.787,1.765 1.106,2.085 1.496,2.085 C1.885,2.085 2.201,1.765 2.201,1.37 C2.201,0.974 1.885,0.654 1.496,0.654 L1.488,0.654 L1.488,0.654 Z" id="path-3"></path>
        <path d="M0.747,0.153 C0.357,0.153 0.046,0.473 0.046,0.869 C0.046,1.263 0.364,1.583 0.754,1.583 C1.144,1.583 1.46,1.263 1.46,0.869 C1.46,0.473 1.144,0.153 0.754,0.153 L0.747,0.153 L0.747,0.153 Z" id="path-5"></path>
    </defs>
    <g id="Welcome" stroke="none" stroke-width="1" fill="none" fill-rule="evenodd">
        <g id="Remix-tela-9" transform="translate(-89.000000, -440.000000)">
            <g id="efeitos" transform="translate(89.000000, 440.000000)">
                <g transform="translate(0.250000, 0.000000)">
                    <g id="Group-23" transform="translate(0.000000, 0.156600)">
                        <path d="M2.4729,32.0718 C1.2839,30.8658 1.2839,28.9098 2.4729,27.7038 L21.9119,7.9908 C23.1009,6.7848 25.0289,6.7848 26.2179,7.9908 C27.4079,9.1968 27.4079,11.1518 26.2179,12.3578 L6.7799,32.0718 C5.5909,33.2778 3.6619,33.2778 2.4729,32.0718" id="Fill-1" fill="#000000"></path>
                        <path d="M2.4729,32.0718 C1.2839,30.8658 1.2839,28.9098 2.4729,27.7038 L21.9119,7.9908 C23.1009,6.7848 25.0289,6.7848 26.2179,7.9908 C27.4079,9.1968 27.4079,11.1518 26.2179,12.3578 L6.7799,32.0718 C5.5909,33.2778 3.6619,33.2778 2.4729,32.0718 L2.4729,32.0718 Z" id="Stroke-3" stroke="#000000" stroke-width="1.235" stroke-linecap="round" stroke-linejoin="round"></path>
                        <path d="M1.271,31.3241 C0.082,30.1181 0.082,28.1621 1.271,26.9561 L20.71,7.2431 C21.899,6.0371 23.827,6.0371 25.016,7.2431 C26.206,8.4491 26.206,10.4041 25.016,11.6101 L5.578,31.3241 C4.389,32.5301 2.46,32.5301 1.271,31.3241" id="Fill-5" fill="#FFFFFF"></path>
                        <path d="M1.271,31.3241 C0.082,30.1181 0.082,28.1621 1.271,26.9561 L20.71,7.2431 C21.899,6.0371 23.827,6.0371 25.016,7.2431 C26.206,8.4491 26.206,10.4041 25.016,11.6101 L5.578,31.3241 C4.389,32.5301 2.46,32.5301 1.271,31.3241 L1.271,31.3241 Z" id="Stroke-7" stroke="#000000" stroke-width="1.235" stroke-linecap="round" stroke-linejoin="round"></path>
                        <path d="M17.8474,10.1457 L22.1544,14.5137" id="Stroke-9" stroke="#000000" stroke-width="1.235" stroke-linecap="round" stroke-linejoin="round"></path>
                        <path d="M19.4954,0.8593 L19.4954,3.8793" id="Stroke-11" stroke="#000000" stroke-width="1.074" stroke-linecap="round" stroke-linejoin="round"></path>
                        <path d="M20.9845,2.3695 L18.0065,2.3695" id="Stroke-13" stroke="#000000" stroke-width="1.074" stroke-linecap="round" stroke-linejoin="round"></path>
                        <path d="M29.0054,2.642 L29.0054,5.662" id="Stroke-15" stroke="#000000" stroke-width="1.074" stroke-linecap="round" stroke-linejoin="round"></path>
                        <path d="M30.4945,4.1521 L27.5165,4.1521" id="Stroke-17" stroke="#000000" stroke-width="1.074" stroke-linecap="round" stroke-linejoin="round"></path>
                        <path d="M31.0365,10.8109 L31.0365,13.8309" id="Stroke-19" stroke="#000000" stroke-width="1.074" stroke-linecap="round" stroke-linejoin="round"></path>
                        <path d="M32.5256,12.3211 L29.5476,12.3211" id="Stroke-21" stroke="#000000" stroke-width="1.074" stroke-linecap="round" stroke-linejoin="round"></path>
                    </g>
                    <g id="Group-26" transform="translate(31.000000, 6.156600)">
                        <mask id="mask-2" fill="white">
                            <use xlink:href="#path-1"></use>
                        </mask>
                        <g id="Clip-25"></g>
                        <polygon id="Fill-24" fill="#000000" mask="url(#mask-2)" points="-4.551 7.464 7.602 7.464 7.602 -4.706 -4.551 -4.706"></polygon>
                    </g>
                    <g id="Group-29" transform="translate(23.000000, 1.156600)">
                        <mask id="mask-4" fill="white">
                            <use xlink:href="#path-3"></use>
                        </mask>
                        <g id="Clip-28"></g>
                        <polygon id="Fill-27" fill="#000000" mask="url(#mask-4)" points="-4.583 7.455 7.57 7.455 7.57 -4.715 -4.583 -4.715"></polygon>
                    </g>
                    <g id="Group-32" transform="translate(16.000000, 5.156600)">
                        <mask id="mask-6" fill="white">
                            <use xlink:href="#path-5"></use>
                        </mask>
                        <g id="Clip-31"></g>
                        <polygon id="Fill-30" fill="#000000" mask="url(#mask-6)" points="-5.324 6.953 6.829 6.953 6.829 -5.217 -5.324 -5.217"></polygon>
                    </g>
                </g>
            </g>
        </g>
    </g>
</svg>