<?xml version="1.0" encoding="UTF-8" standalone="no"?>
<svg width="21px" height="33px" viewBox="0 0 21 33" version="1.1" xmlns="http://www.w3.org/2000/svg" xmlns:xlink="http://www.w3.org/1999/xlink">
    <!-- Generator: sketchtool 40 (33762) - http://www.bohemiancoding.com/sketch -->
    <title>8E144A67-9540-4E4E-981C-D7E49B6F1294</title>
    <desc>Created with sketchtool.</desc>
    <defs></defs>
    <g id="Styleguide" stroke="none" stroke-width="1" fill="none" fill-rule="evenodd">
        <g transform="translate(-1050.000000, -586.000000)" id="text">
            <g transform="translate(1050.000000, 586.000000)">
                <g id="Page-1">
                    <path d="M16.6091579,7.0691 C15.8575789,7.1611 15.0881053,7.2591 14.2965263,7.3601 C13.9681053,9.2031 13.6270526,11.1401 13.2723158,13.1751 C12.9175789,15.2141 12.5628421,17.2751 12.2070526,19.3611 C11.8523158,21.4501 11.5175789,23.5171 11.2049474,25.5651 C10.8912632,27.6131 10.6112632,29.5601 10.3649474,31.3991 C10.3386316,31.7631 10.2565263,32.0101 10.1196842,32.1401 C9.98284211,32.2691 9.79863158,32.3201 9.56705263,32.2951 C9.33547368,32.2691 9.06178947,32.1901 8.74915789,32.0611 C8.43336842,31.9311 8.086,31.7881 7.70389474,31.6331 C6.93968421,31.3231 6.33757895,30.9341 5.90284211,30.4681 C5.46494737,30.0001 5.33021053,29.2751 5.49336842,28.2871 C5.57442105,27.0971 5.71126316,25.6571 5.90284211,23.9701 C6.09336842,22.2861 6.31126316,20.5351 6.55757895,18.7211 C6.80284211,16.9041 7.06915789,15.0901 7.35547368,13.2731 C7.64284211,11.4601 7.92284211,9.8131 8.19547368,8.3351 C7.73126316,8.4361 7.27442105,8.5281 6.82494737,8.6071 C6.37336842,8.6831 5.99757895,8.7751 5.69863158,8.8801 C5.28810526,9.0091 4.95336842,9.0281 4.69547368,8.9371 C4.43547368,8.8451 4.15547368,8.5821 3.85547368,8.1391 C3.52705263,7.6991 3.23442105,7.1421 2.97442105,6.4681 C2.71442105,5.7931 2.50389474,5.2361 2.33968421,4.7931 C2.17652632,4.3281 2.14915789,4.0171 2.25757895,3.8621 C2.36810526,3.7041 2.57126316,3.5741 2.87231579,3.4731 C3.80073684,3.2391 4.85863158,3.0171 6.046,2.8111 C7.23231579,2.6021 8.44073684,2.4221 9.67021053,2.2671 C10.8975789,2.1121 12.106,1.9821 13.2933684,1.8781 C14.4796842,1.7731 15.5375789,1.6971 16.466,1.6431 C16.9302105,1.6431 17.2775789,1.7031 17.5102105,1.8171 C17.7417895,1.9351 17.9407368,2.1241 18.1038947,2.3841 C18.4323158,2.8491 18.7112632,3.3561 18.9428421,3.9001 C19.1744211,4.4451 19.3596842,4.9771 19.4965263,5.4961 C19.6049474,5.9861 19.6196842,6.3191 19.5365263,6.4871 C19.4544211,6.6541 19.1681053,6.7651 18.6765263,6.8161 C18.0481053,6.8951 17.3607368,6.9801 16.6091579,7.0691" id="Fill-1" fill="#000000"></path>
                    <path d="M16.6091579,7.0691 C15.8575789,7.1611 15.0881053,7.2591 14.2965263,7.3601 C13.9681053,9.2031 13.6270526,11.1401 13.2723158,13.1751 C12.9175789,15.2141 12.5628421,17.2751 12.2070526,19.3611 C11.8523158,21.4501 11.5175789,23.5171 11.2049474,25.5651 C10.8912632,27.6131 10.6112632,29.5601 10.3649474,31.3991 C10.3386316,31.7631 10.2565263,32.0101 10.1196842,32.1401 C9.98284211,32.2691 9.79863158,32.3201 9.56705263,32.2951 C9.33547368,32.2691 9.06178947,32.1901 8.74915789,32.0611 C8.43336842,31.9311 8.086,31.7881 7.70389474,31.6331 C6.93968421,31.3231 6.33757895,30.9341 5.90284211,30.4681 C5.46494737,30.0001 5.33021053,29.2751 5.49336842,28.2871 C5.57442105,27.0971 5.71126316,25.6571 5.90284211,23.9701 C6.09336842,22.2861 6.31126316,20.5351 6.55757895,18.7211 C6.80284211,16.9041 7.06915789,15.0901 7.35547368,13.2731 C7.64284211,11.4601 7.92284211,9.8131 8.19547368,8.3351 C7.73126316,8.4361 7.27442105,8.5281 6.82494737,8.6071 C6.37336842,8.6831 5.99757895,8.7751 5.69863158,8.8801 C5.28810526,9.0091 4.95336842,9.0281 4.69547368,8.9371 C4.43547368,8.8451 4.15547368,8.5821 3.85547368,8.1391 C3.52705263,7.6991 3.23442105,7.1421 2.97442105,6.4681 C2.71442105,5.7931 2.50389474,5.2361 2.33968421,4.7931 C2.17652632,4.3281 2.14915789,4.0171 2.25757895,3.8621 C2.36810526,3.7041 2.57126316,3.5741 2.87231579,3.4731 C3.80073684,3.2391 4.85863158,3.0171 6.046,2.8111 C7.23231579,2.6021 8.44073684,2.4221 9.67021053,2.2671 C10.8975789,2.1121 12.106,1.9821 13.2933684,1.8781 C14.4796842,1.7731 15.5375789,1.6971 16.466,1.6431 C16.9302105,1.6431 17.2775789,1.7031 17.5102105,1.8171 C17.7417895,1.9351 17.9407368,2.1241 18.1038947,2.3841 C18.4323158,2.8491 18.7112632,3.3561 18.9428421,3.9001 C19.1744211,4.4451 19.3596842,4.9771 19.4965263,5.4961 C19.6049474,5.9861 19.6196842,6.3191 19.5365263,6.4871 C19.4544211,6.6541 19.1681053,6.7651 18.6765263,6.8161 C18.0481053,6.8951 17.3607368,6.9801 16.6091579,7.0691 L16.6091579,7.0691 Z" id="Stroke-3" stroke="#000000" stroke-width="1.172" stroke-linecap="round" stroke-linejoin="round"></path>
                    <path d="M15.0332632,6.0117 C14.2816842,6.1037 13.5122105,6.2017 12.7206316,6.3027 C12.3922105,8.1457 12.0511579,10.0827 11.6964211,12.1177 C11.3416842,14.1567 10.9869474,16.2177 10.6311579,18.3037 C10.2764211,20.3927 9.94168421,22.4597 9.62905263,24.5077 C9.31536842,26.5557 9.03536842,28.5027 8.78905263,30.3417 C8.76273684,30.7057 8.68063158,30.9527 8.54378947,31.0827 C8.40694737,31.2117 8.22273684,31.2627 7.99115789,31.2377 C7.75957895,31.2117 7.48589474,31.1327 7.17326316,31.0037 C6.85747368,30.8737 6.51010526,30.7307 6.128,30.5757 C5.36378947,30.2657 4.76168421,29.8767 4.32694737,29.4107 C3.88905263,28.9427 3.75431579,28.2177 3.91747368,27.2297 C3.99852632,26.0397 4.13536842,24.5997 4.32694737,22.9127 C4.51747368,21.2287 4.73536842,19.4777 4.98168421,17.6637 C5.22694737,15.8467 5.49326316,14.0327 5.77957895,12.2157 C6.06694737,10.4027 6.34694737,8.7557 6.61957895,7.2777 C6.15536842,7.3787 5.69852632,7.4707 5.24905263,7.5497 C4.79747368,7.6257 4.42168421,7.7177 4.12273684,7.8227 C3.71221053,7.9517 3.37747368,7.9707 3.11957895,7.8797 C2.85957895,7.7877 2.57957895,7.5247 2.27957895,7.0817 C1.95115789,6.6417 1.65852632,6.0847 1.39852632,5.4107 C1.13852632,4.7357 0.928,4.1787 0.763789474,3.7357 C0.600631579,3.2707 0.573263158,2.9597 0.681684211,2.8047 C0.792210526,2.6467 0.995368421,2.5167 1.29642105,2.4157 C2.22484211,2.1817 3.28273684,1.9597 4.47010526,1.7537 C5.65642105,1.5447 6.86484211,1.3647 8.09431579,1.2097 C9.32168421,1.0547 10.5301053,0.9247 11.7174737,0.8207 C12.9037895,0.7157 13.9616842,0.6397 14.8901053,0.5857 C15.3543158,0.5857 15.7016842,0.6457 15.9343158,0.7597 C16.1658947,0.8777 16.3648421,1.0667 16.528,1.3267 C16.8564211,1.7917 17.1353684,2.2987 17.3669474,2.8427 C17.5985263,3.3877 17.7837895,3.9197 17.9206316,4.4387 C18.0290526,4.9287 18.0437895,5.2617 17.9606316,5.4297 C17.8785263,5.5967 17.5922105,5.7077 17.1006316,5.7587 C16.4722105,5.8377 15.7848421,5.9227 15.0332632,6.0117" id="Fill-5" fill="#FFFFFF"></path>
                    <path d="M15.0332632,6.0117 C14.2816842,6.1037 13.5122105,6.2017 12.7206316,6.3027 C12.3922105,8.1457 12.0511579,10.0827 11.6964211,12.1177 C11.3416842,14.1567 10.9869474,16.2177 10.6311579,18.3037 C10.2764211,20.3927 9.94168421,22.4597 9.62905263,24.5077 C9.31536842,26.5557 9.03536842,28.5027 8.78905263,30.3417 C8.76273684,30.7057 8.68063158,30.9527 8.54378947,31.0827 C8.40694737,31.2117 8.22273684,31.2627 7.99115789,31.2377 C7.75957895,31.2117 7.48589474,31.1327 7.17326316,31.0037 C6.85747368,30.8737 6.51010526,30.7307 6.128,30.5757 C5.36378947,30.2657 4.76168421,29.8767 4.32694737,29.4107 C3.88905263,28.9427 3.75431579,28.2177 3.91747368,27.2297 C3.99852632,26.0397 4.13536842,24.5997 4.32694737,22.9127 C4.51747368,21.2287 4.73536842,19.4777 4.98168421,17.6637 C5.22694737,15.8467 5.49326316,14.0327 5.77957895,12.2157 C6.06694737,10.4027 6.34694737,8.7557 6.61957895,7.2777 C6.15536842,7.3787 5.69852632,7.4707 5.24905263,7.5497 C4.79747368,7.6257 4.42168421,7.7177 4.12273684,7.8227 C3.71221053,7.9517 3.37747368,7.9707 3.11957895,7.8797 C2.85957895,7.7877 2.57957895,7.5247 2.27957895,7.0817 C1.95115789,6.6417 1.65852632,6.0847 1.39852632,5.4107 C1.13852632,4.7357 0.928,4.1787 0.763789474,3.7357 C0.600631579,3.2707 0.573263158,2.9597 0.681684211,2.8047 C0.792210526,2.6467 0.995368421,2.5167 1.29642105,2.4157 C2.22484211,2.1817 3.28273684,1.9597 4.47010526,1.7537 C5.65642105,1.5447 6.86484211,1.3647 8.09431579,1.2097 C9.32168421,1.0547 10.5301053,0.9247 11.7174737,0.8207 C12.9037895,0.7157 13.9616842,0.6397 14.8901053,0.5857 C15.3543158,0.5857 15.7016842,0.6457 15.9343158,0.7597 C16.1658947,0.8777 16.3648421,1.0667 16.528,1.3267 C16.8564211,1.7917 17.1353684,2.2987 17.3669474,2.8427 C17.5985263,3.3877 17.7837895,3.9197 17.9206316,4.4387 C18.0290526,4.9287 18.0437895,5.2617 17.9606316,5.4297 C17.8785263,5.5967 17.5922105,5.7077 17.1006316,5.7587 C16.4722105,5.8377 15.7848421,5.9227 15.0332632,6.0117 L15.0332632,6.0117 Z" id="Stroke-7" stroke="#000000" stroke-width="1.172" stroke-linecap="round" stroke-linejoin="round"></path>
                </g>
            </g>
        </g>
    </g>
</svg>