<?xml version="1.0" encoding="UTF-8" standalone="no"?>
<svg width="36px" height="31px" viewBox="0 0 36 31" version="1.1" xmlns="http://www.w3.org/2000/svg" xmlns:xlink="http://www.w3.org/1999/xlink">
    <!-- Generator: sketchtool 40 (33762) - http://www.bohemiancoding.com/sketch -->
    <title>DFD66747-4811-46E9-BF4C-12B27618D7C0</title>
    <desc>Created with sketchtool.</desc>
    <defs></defs>
    <g id="Remix" stroke="none" stroke-width="1" fill="none" fill-rule="evenodd">
        <g id="Remix-Desktop-1-" transform="translate(-732.000000, -156.000000)">
            <g id="Page-1" transform="translate(733.000000, 156.000000)">
                <polygon id="Fill-1" fill="#000000" points="1.81192308 30.2593735 34.3987179 30.2593735 34.3987179 2.30649118 1.81192308 2.30649118"></polygon>
                <polygon id="Stroke-2" stroke="#000000" stroke-width="1.172" stroke-linecap="round" stroke-linejoin="round" points="1.81192308 30.2593735 34.3978205 30.2593735 34.3978205 2.30649118 1.81192308 2.30649118"></polygon>
                <polygon id="Fill-4" fill="#FFFFFF" points="0.47474359 29.3466971 33.0615385 29.3466971 33.0615385 1.39381471 0.47474359 1.39381471"></polygon>
                <g id="Group-10" transform="translate(0.000000, 0.705432)" stroke="#000000" stroke-linecap="round" stroke-linejoin="round">
                    <polygon id="Stroke-5" stroke-width="1.058" points="0.47474359 28.6412647 33.060641 28.6412647 33.060641 0.688382353 0.47474359 0.688382353"></polygon>
                    <path d="M5.35464103,8.86435882 C5.35464103,7.15115294 6.7214359,5.76253529 8.40771795,5.76253529 C10.094,5.76253529 11.4607949,7.15115294 11.4607949,8.86435882 C11.4607949,10.5775647 10.094,11.9661824 8.40771795,11.9661824 C6.7214359,11.9661824 5.35464103,10.5775647 5.35464103,8.86435882 L5.35464103,8.86435882 Z" id="Stroke-7" stroke-width="1.109"></path>
                    <polyline id="Stroke-8" stroke-width="1.056" points="4.45657692 25.1455588 15.172859 15.8683529 22.5237564 22.7494412"></polyline>
                    <polyline id="Stroke-9" stroke-width="1.056" points="18.1049615 18.3359529 22.9663718 14.1527765 28.682141 19.5021"></polyline>
                </g>
            </g>
        </g>
    </g>
</svg>