<?xml version="1.0" encoding="UTF-8" standalone="no"?>
<svg width="33px" height="33px" viewBox="0 0 33 33" version="1.1" xmlns="http://www.w3.org/2000/svg" xmlns:xlink="http://www.w3.org/1999/xlink">
    <!-- Generator: sketchtool 40 (33762) - http://www.bohemiancoding.com/sketch -->
    <title>8E2833ED-03C0-4880-802C-C154540D9E38</title>
    <desc>Created with sketchtool.</desc>
    <defs></defs>
    <g id="Styleguide" stroke="none" stroke-width="1" fill="none" fill-rule="evenodd">
        <g transform="translate(-993.000000, -586.000000)" id="sticker">
            <g transform="translate(993.000000, 586.000000)">
                <g id="Page-1">
                    <path d="M1.6226,16.7922 C1.6226,8.3282 8.4836,1.4672 16.9476,1.4672 C25.4116,1.4672 32.2726,8.3282 32.2726,16.7922 C32.2726,25.2552 25.4116,32.1172 16.9476,32.1172 C8.4836,32.1172 1.6226,25.2552 1.6226,16.7922" id="Fill-1" fill="#000000"></path>
                    <path d="M1.6226,16.7922 C1.6226,8.3282 8.4836,1.4672 16.9476,1.4672 C25.4116,1.4672 32.2726,8.3282 32.2726,16.7922 C32.2726,25.2552 25.4116,32.1172 16.9476,32.1172 C8.4836,32.1172 1.6226,25.2552 1.6226,16.7922 L1.6226,16.7922 Z" id="Stroke-3" stroke="#000000" stroke-width="1.109" stroke-linecap="round" stroke-linejoin="round"></path>
                    <path d="M0.5546,15.8794 C0.5546,7.4154 7.4156,0.5544 15.8796,0.5544 C24.3436,0.5544 31.2046,7.4154 31.2046,15.8794 C31.2046,24.3424 24.3436,31.2044 15.8796,31.2044 C7.4156,31.2044 0.5546,24.3424 0.5546,15.8794" id="Fill-5" fill="#FFFFFF"></path>
                    <path d="M0.5546,15.8794 C0.5546,7.4154 7.4156,0.5544 15.8796,0.5544 C24.3436,0.5544 31.2046,7.4154 31.2046,15.8794 C31.2046,24.3424 24.3436,31.2044 15.8796,31.2044 C7.4156,31.2044 0.5546,24.3424 0.5546,15.8794 L0.5546,15.8794 Z" id="Stroke-7" stroke="#000000" stroke-width="1.109" stroke-linecap="round" stroke-linejoin="round"></path>
                    <path d="M19.4264,11.5314 C19.4264,11.5314 22.0824,7.8754 25.4774,11.6794" id="Stroke-9" stroke="#000000" stroke-width="1.109" stroke-linecap="round" stroke-linejoin="round"></path>
                    <path d="M6.8795,11.5314 C6.8795,11.5314 9.5365,7.8754 12.9305,11.6794" id="Stroke-11" stroke="#000000" stroke-width="1.109" stroke-linecap="round" stroke-linejoin="round"></path>
                    <path d="M10.1939,19.1232 C10.1939,22.4262 12.8719,25.1042 16.1749,25.1042 C19.4779,25.1042 22.1559,22.4262 22.1559,19.1232 L10.1939,19.1232 L10.1939,19.1232 Z" id="Stroke-13" stroke="#000000" stroke-width="1.109" stroke-linecap="round" stroke-linejoin="round"></path>
                </g>
            </g>
        </g>
    </g>
</svg>