<?xml version="1.0" encoding="UTF-8" standalone="no"?>
<svg width="20px" height="27px" viewBox="0 0 20 27" version="1.1" xmlns="http://www.w3.org/2000/svg" xmlns:xlink="http://www.w3.org/1999/xlink">
    <!-- Generator: sketchtool 40 (33762) - http://www.bohemiancoding.com/sketch -->
    <title>41467D2B-5A47-44E9-9F9C-789F275279B2</title>
    <desc>Created with sketchtool.</desc>
    <defs>
        <polygon id="path-1" points="0.930813953 25.826087 17.9526059 25.826087 17.9526059 0.662321739 0.930813953 0.662321739 0.930813953 25.826087"></polygon>
    </defs>
    <g id="Welcome" stroke="none" stroke-width="1" fill="none" fill-rule="evenodd">
        <g id="Remix-tela-11" transform="translate(-235.000000, -511.000000)">
            <g id="baixar" transform="translate(235.000000, 511.000000)">
                <g id="Group-6" transform="translate(1.162791, 0.925161)">
                    <mask id="mask-2" fill="white">
                        <use xlink:href="#path-1"></use>
                    </mask>
                    <g id="Clip-5"></g>
                    <path d="M12.6005814,15.9231913 L16.625,15.9231913 C17.197093,15.9231913 17.5982558,16.1990609 17.8296512,16.7496261 C18.0610465,17.2861043 17.9656977,17.7591913 17.5447674,18.1724087 L10.3517442,25.4330609 C10.0936047,25.6948435 9.78546512,25.8263217 9.43197674,25.8263217 C9.07848837,25.8263217 8.77151163,25.6948435 8.5122093,25.4330609 L1.32034884,18.1724087 C1.0622093,17.9118 0.931976744,17.601887 0.930813953,17.2438435 C0.930813953,17.0794957 0.966860465,16.9139739 1.03430233,16.7496261 C1.26569767,16.1990609 1.66686047,15.9231913 2.24011628,15.9231913 L6.26337209,15.9231913 L6.26337209,10.5678 L6.26337209,4.92714783 C6.26337209,2.58166957 7.32965116,0.662321739 9.55406977,0.662321739 L9.55523256,0.662321739 C11.7796512,0.662321739 12.5633721,2.58166957 12.5633721,4.92714783 L12.5633721,10.8859304 L12.6005814,15.9231913 Z" id="Fill-4" fill="#000000" mask="url(#mask-2)"></path>
                </g>
                <path d="M12.2597674,15.8566304 L16.284186,15.8566304 C16.8562791,15.8566304 17.2574419,16.1325 17.4888372,16.6830652 C17.7202326,17.2195435 17.6248837,17.6926304 17.2039535,18.1058478 L10.0109302,25.3665 C9.7527907,25.6282826 9.44465116,25.7597609 9.09116279,25.7597609 C8.73767442,25.7597609 8.43069767,25.6282826 8.17139535,25.3665 L0.979534884,18.1058478 C0.721395349,17.8452391 0.591162791,17.5353261 0.59,17.1772826 C0.59,17.0129348 0.626046512,16.847413 0.693488372,16.6830652 C0.924883721,16.1325 1.32604651,15.8566304 1.89930233,15.8566304 L5.92255814,15.8566304 L5.92255814,10.5012391 L5.92255814,4.86058696 C5.92255814,2.5151087 6.98883721,0.59576087 9.21325581,0.59576087 L9.2144186,0.59576087 C11.4388372,0.59576087 12.2225581,2.5151087 12.2225581,4.86058696 L12.2225581,10.8193696 L12.2597674,15.8566304 Z" id="Fill-11" fill="#FFFFFF"></path>
                <path d="M12.2597674,15.8566304 L16.284186,15.8566304 C16.8562791,15.8566304 17.2574419,16.1325 17.4888372,16.6830652 C17.7202326,17.2195435 17.6248837,17.6926304 17.2039535,18.1058478 L10.0109302,25.3665 C9.7527907,25.6282826 9.44465116,25.7597609 9.09116279,25.7597609 C8.73767442,25.7597609 8.43069767,25.6282826 8.17139535,25.3665 L0.979534884,18.1058478 C0.721395349,17.8452391 0.591162791,17.5353261 0.59,17.1772826 C0.59,17.0129348 0.626046512,16.847413 0.693488372,16.6830652 C0.924883721,16.1325 1.32604651,15.8566304 1.89930233,15.8566304 L5.92255814,15.8566304 L5.92255814,10.5012391 L5.92255814,4.86058696 C5.92255814,2.5151087 6.98883721,0.59576087 9.21325581,0.59576087 L9.2144186,0.59576087 C11.4388372,0.59576087 12.2225581,2.5151087 12.2225581,4.86058696 L12.2225581,10.8193696 L12.2597674,15.8566304 L12.2597674,15.8566304 Z" id="Stroke-13" stroke="#000000" stroke-width="1.015"></path>
            </g>
        </g>
    </g>
</svg>