<?xml version="1.0" encoding="UTF-8" standalone="no"?>
<svg width="34px" height="33px" viewBox="0 0 34 33" version="1.1" xmlns="http://www.w3.org/2000/svg" xmlns:xlink="http://www.w3.org/1999/xlink">
    <!-- Generator: sketchtool 40 (33762) - http://www.bohemiancoding.com/sketch -->
    <title>CBD6D717-326E-45C3-B5A4-BD40F18019CE</title>
    <desc>Created with sketchtool.</desc>
    <defs></defs>
    <g id="Welcome" stroke="none" stroke-width="1" fill="none" fill-rule="evenodd">
        <g id="Remix-tela-9" transform="translate(-146.000000, -441.000000)">
            <g id="baloes" transform="translate(146.000000, 441.000000)">
                <g transform="translate(0.500000, 0.000000)">
                    <path d="M17.3556,1.3887 C8.9306,1.3887 2.1006,8.2187 2.1016,16.6437 C2.1016,25.0687 8.9306,31.8977 17.3556,31.8977 C19.6316,31.8977 21.7906,31.3987 23.7306,30.5047 C25.3166,31.4917 27.1886,32.0627 29.1946,32.0627 C30.3666,32.0627 31.4926,31.8647 32.5436,31.5057 C30.8896,30.2777 29.6136,28.5697 28.9236,26.5867 C31.2206,23.9157 32.6096,20.4417 32.6096,16.6437 C32.6096,8.2187 25.7806,1.3887 17.3556,1.3887" id="Fill-1" fill="#000000"></path>
                    <path d="M17.3556,1.3887 C8.9306,1.3887 2.1006,8.2187 2.1016,16.6437 C2.1016,25.0687 8.9306,31.8977 17.3556,31.8977 C19.6316,31.8977 21.7906,31.3987 23.7306,30.5047 C25.3166,31.4917 27.1886,32.0627 29.1946,32.0627 C30.3666,32.0627 31.4926,31.8647 32.5436,31.5057 C30.8896,30.2777 29.6136,28.5697 28.9236,26.5867 C31.2206,23.9157 32.6096,20.4417 32.6096,16.6437 C32.6096,8.2187 25.7806,1.3887 17.3556,1.3887 L17.3556,1.3887 Z" id="Stroke-3" stroke="#000000" stroke-width="0.888" stroke-linecap="round" stroke-linejoin="round"></path>
                    <g id="Group-8" transform="translate(17.000000, 11.506500)">
                        <path id="Fill-5" fill="#000000"></path>
                        <path id="Stroke-7" stroke="#000000" stroke-width="0.888" stroke-linecap="round" stroke-linejoin="round"></path>
                    </g>
                    <path d="M15.7544,0.5 C7.3294,0.5 0.4994,7.33 0.5004,15.755 C0.5004,24.18 7.3294,31.009 15.7544,31.009 C18.0304,31.009 20.1894,30.51 22.1294,29.616 C23.7154,30.603 25.5874,31.174 27.5934,31.174 C28.7654,31.174 29.8914,30.976 30.9424,30.617 C29.2884,29.389 28.0124,27.681 27.3224,25.698 C29.6194,23.027 31.0084,19.553 31.0084,15.755 C31.0084,7.33 24.1794,0.5 15.7544,0.5" id="Fill-9" fill="#FFFFFF"></path>
                    <path d="M15.7544,0.5 C7.3294,0.5 0.4994,7.33 0.5004,15.755 C0.5004,24.18 7.3294,31.009 15.7544,31.009 C18.0304,31.009 20.1894,30.51 22.1294,29.616 C23.7154,30.603 25.5874,31.174 27.5934,31.174 C28.7654,31.174 29.8914,30.976 30.9424,30.617 C29.2884,29.389 28.0124,27.681 27.3224,25.698 C29.6194,23.027 31.0084,19.553 31.0084,15.755 C31.0084,7.33 24.1794,0.5 15.7544,0.5 L15.7544,0.5 Z" id="Stroke-11" stroke="#000000"></path>
                    <g id="Group-16" transform="translate(15.000000, 10.506500)">
                        <path id="Fill-13" fill="#FFFFFF"></path>
                        <path id="Stroke-15" stroke="#000000"></path>
                    </g>
                </g>
            </g>
        </g>
    </g>
</svg>