<?xml version="1.0" encoding="UTF-8" standalone="no"?>
<svg width="36px" height="33px" viewBox="0 0 36 33" version="1.1" xmlns="http://www.w3.org/2000/svg" xmlns:xlink="http://www.w3.org/1999/xlink">
    <!-- Generator: sketchtool 40 (33762) - http://www.bohemiancoding.com/sketch -->
    <title>AC30CCA1-E7D7-4AEA-AFEC-33E298C95B0A</title>
    <desc>Created with sketchtool.</desc>
    <defs></defs>
    <g id="Styleguide" stroke="none" stroke-width="1" fill="none" fill-rule="evenodd" stroke-linecap="round" stroke-linejoin="round">
        <g transform="translate(-759.000000, -586.000000)" id="picture" stroke="#000000">
            <g transform="translate(760.000000, 587.000000)">
                <g id="Page-1">
                    <polygon id="Stroke-2" stroke-width="1.172" fill="#000000" points="3 31.284819 34.3978205 31.284819 34.3978205 1.37856903 3 1.37856903"></polygon>
                    <polygon id="Stroke-5" stroke-width="1.058" fill="#FFFFFF" points="0.47474359 28.90625 33.060641 28.90625 33.060641 0 0.47474359 0"></polygon>
                    <g id="Group-10" transform="translate(4.000000, 4.883727)">
                        <path d="M1.35464103,3.98512004 C1.35464103,2.21837647 2.7214359,0.786364522 4.40771795,0.786364522 C6.094,0.786364522 7.46079487,2.21837647 7.46079487,3.98512004 C7.46079487,5.7518636 6.094,7.18387555 4.40771795,7.18387555 C2.7214359,7.18387555 1.35464103,5.7518636 1.35464103,3.98512004 L1.35464103,3.98512004 Z" id="Stroke-7" stroke-width="1.109"></path>
                        <polyline id="Stroke-8" stroke-width="1.056" points="0.456576923 20.7751075 11.172859 11.207989 18.5237564 18.3041112"></polyline>
                        <polyline id="Stroke-9" stroke-width="1.056" points="14.1049615 13.7527015 18.9663718 9.43880074 24.682141 14.9552906"></polyline>
                    </g>
                </g>
            </g>
        </g>
    </g>
</svg>