<?xml version="1.0" encoding="UTF-8" standalone="no"?>
<svg width="34px" height="35px" viewBox="0 0 34 35" version="1.1" xmlns="http://www.w3.org/2000/svg" xmlns:xlink="http://www.w3.org/1999/xlink">
    <!-- Generator: sketchtool 40 (33762) - http://www.bohemiancoding.com/sketch -->
    <title>E472E8CE-EDC4-45FB-898C-4CA35CD6221F</title>
    <desc>Created with sketchtool.</desc>
    <defs>
        <polygon id="path-1" points="33.2175213 0.681067504 0.19704851 0.681067504 0.19704851 34.5994129 33.2175213 34.5994129 33.2175213 0.681067504"></polygon>
    </defs>
    <g id="Welcome" stroke="none" stroke-width="1" fill="none" fill-rule="evenodd">
        <g id="Remix-tela-10" transform="translate(-217.000000, -486.000000)">
            <g id="tumblr_remix" transform="translate(217.000000, 485.000000)">
                <g id="Group-6" transform="translate(0.029057, 0.927803)">
                    <g id="Group-17" transform="translate(0.067548, 0.229906)">
                        <mask id="mask-2" fill="white">
                            <use xlink:href="#path-1"></use>
                        </mask>
                        <g id="Clip-16"></g>
                        <path d="M33.2175213,17.6401036 C33.2175213,27.0066028 25.8257646,34.5994129 16.7072849,34.5994129 C7.58880527,34.5994129 0.19704851,27.0066028 0.19704851,17.6401036 C0.19704851,8.2736044 7.58880527,0.680794349 16.7072849,0.680794349 C25.8257646,0.680794349 33.2175213,8.2736044 33.2175213,17.6401036" id="Fill-15" fill="#000000" mask="url(#mask-2)"></path>
                    </g>
                    <path d="M22.6441839,26.5173815 C21.7427069,26.9507881 20.9591222,27.2448854 20.2925433,27.400584 C19.5683479,27.5690298 18.8131283,27.6527975 18.0295436,27.6527975 C17.1165433,27.6527975 16.2975022,27.5326091 15.5724204,27.2931429 C14.8579755,27.0518556 14.250786,26.7095008 13.7464198,26.2642575 C13.2553498,25.8326719 12.910537,25.3637551 12.7119816,24.8593281 C12.5125398,24.3430644 12.4132621,23.6155604 12.4132621,22.6777268 L12.4132621,15.3954035 L10.1848323,15.3954035 L10.1848323,12.4571617 C10.9808267,12.1812747 11.6589289,11.8024992 12.2209116,11.3208352 C12.7935312,10.8164082 13.2500313,10.2218399 13.5886392,9.53621978 C13.9281335,8.8515102 14.1621452,7.96921821 14.2915608,6.88661224 L17.1688413,6.88661224 L17.1688413,12.1330173 L21.977605,12.1330173 L21.977605,15.3954035 L17.1688413,15.3954035 L17.1688413,20.7128289 C17.1688413,21.902876 17.2335491,22.6777268 17.3620783,23.0392025 C17.4790841,23.3751837 17.7077774,23.6456075 18.0463853,23.8495636 C18.4798388,24.1263611 18.9939555,24.2647598 19.5913945,24.2647598 C20.5965813,24.2647598 21.6141777,23.9278681 22.6441839,23.2549953 L22.6441839,26.5173815 Z" id="Fill-18" fill="#FFFFFF"></path>
                </g>
            </g>
        </g>
    </g>
</svg>