<?xml version="1.0" encoding="UTF-8" standalone="no"?>
<svg width="34px" height="35px" viewBox="0 0 34 35" version="1.1" xmlns="http://www.w3.org/2000/svg" xmlns:xlink="http://www.w3.org/1999/xlink">
    <!-- Generator: sketchtool 40 (33762) - http://www.bohemiancoding.com/sketch -->
    <title>224E5D50-4E43-4862-90B7-B4200396718D</title>
    <desc>Created with sketchtool.</desc>
    <defs>
        <polygon id="path-1" points="33.7588507 34.5994129 33.7588507 0.681067504 0.738555191 0.681067504 0.738555191 34.5994129 33.7588507 34.5994129"></polygon>
    </defs>
    <g id="Welcome" stroke="none" stroke-width="1" fill="none" fill-rule="evenodd">
        <g id="Remix-tela-10" transform="translate(-167.000000, -486.000000)">
            <g id="twitter_remix" transform="translate(166.000000, 485.000000)">
                <g id="Group-7" transform="translate(0.794650, 0.927803)">
                    <g id="Group-22" transform="translate(0.109098, 0.229906)">
                        <mask id="mask-2" fill="white">
                            <use xlink:href="#path-1"></use>
                        </mask>
                        <g id="Clip-21"></g>
                        <path d="M33.759028,17.6401036 C33.759028,27.0066028 26.3672713,34.5994129 17.2487916,34.5994129 C8.13031195,34.5994129 0.738555191,27.0066028 0.738555191,17.6401036 C0.738555191,8.2736044 8.13031195,0.680794349 17.2487916,0.680794349 C26.3672713,0.680794349 33.759028,8.2736044 33.759028,17.6401036" id="Fill-20" fill="#000000" mask="url(#mask-2)"></path>
                    </g>
                    <path d="M26.1013304,13.8382355 C26.1075353,14.0157865 26.1110809,14.1969796 26.1110809,14.3790832 C26.1110809,19.8777017 22.0362631,26.2185495 14.5815713,26.2185495 C12.2928657,26.2185495 10.1628272,25.5329294 8.3696237,24.3483454 C8.68784419,24.3874976 9.00961031,24.4084396 9.33580848,24.4084396 C11.2362673,24.4084396 12.9816048,23.7437614 14.3697198,22.6265557 C12.5969037,22.5910455 11.1015333,21.3891617 10.5856438,19.7347504 C10.8311789,19.7848289 11.0838052,19.8094129 11.3470684,19.8094129 C11.7140413,19.8094129 12.073923,19.7602449 12.4134172,19.66373 C10.5608244,19.2831334 9.1620725,17.6014066 9.1620725,15.5846091 C9.1620725,15.5663987 9.1620725,15.5490989 9.16561813,15.5308885 C9.70898627,15.8441068 10.3365632,16.0289419 11.0013692,16.0498838 C9.91374653,15.3069011 9.19664241,14.0303548 9.19664241,12.5862732 C9.19664241,11.8250801 9.39785704,11.1103234 9.74444259,10.4948132 C11.7415199,13.0133061 14.7304879,14.670449 18.0952929,14.8443579 C18.026153,14.5384239 17.9915831,14.2224741 17.9915831,13.8946876 C17.9915831,11.5974505 19.8060604,9.73362009 22.0433543,9.73362009 C23.2098673,9.73362009 24.2620337,10.2389576 24.9995252,11.0456766 C25.9240488,10.8608414 26.7936151,10.5157551 27.5763134,10.0359121 C27.271389,11.0101664 26.630516,11.8250801 25.7928604,12.3404333 C26.6136743,12.2411868 27.3963726,12.0171994 28.1196816,11.6866813 C27.579859,12.5188948 26.8902336,13.2509513 26.1013304,13.8382355" id="Fill-23" fill="#FFFFFF"></path>
                </g>
            </g>
        </g>
    </g>
</svg>