<?xml version="1.0" encoding="UTF-8" standalone="no"?>
<svg width="20px" height="32px" viewBox="0 0 20 32" version="1.1" xmlns="http://www.w3.org/2000/svg" xmlns:xlink="http://www.w3.org/1999/xlink">
    <!-- Generator: sketchtool 40 (33762) - http://www.bohemiancoding.com/sketch -->
    <title>D4A3135E-D9A1-4B9F-8F28-1EEB0BA3EC01</title>
    <desc>Created with sketchtool.</desc>
    <defs></defs>
    <g id="Welcome" stroke="none" stroke-width="1" fill="none" fill-rule="evenodd">
        <g id="Remix-tela-9" transform="translate(-266.000000, -441.000000)">
            <g id="texto" transform="translate(267.000000, 442.000000)">
                <g>
                    <path d="M14.9482421,6.6406697 C14.2718211,6.72709394 13.5792947,6.81915455 12.8668737,6.91403333 C12.5712947,8.64533636 12.2643474,10.4649424 11.9450842,12.3766091 C11.6258211,14.2920333 11.3065579,16.2281242 10.9863474,18.1877 C10.6670842,20.1500939 10.3658211,22.0918212 10.0844526,24.0157 C9.80213684,25.9395788 9.55013684,27.7685788 9.32845263,29.4961242 C9.30476842,29.8380636 9.23087368,30.0700939 9.10771579,30.1922152 C8.98455789,30.313397 8.81876842,30.3613061 8.61034737,30.3378212 C8.40192632,30.313397 8.15561053,30.2391848 7.87424211,30.118003 C7.59003158,29.9958818 7.2774,29.8615485 6.93350526,29.7159424 C6.24571579,29.4247303 5.70382105,29.0593061 5.31255789,28.6215485 C4.91845263,28.1819121 4.79718947,27.5008515 4.94403158,26.5727303 C5.01697895,25.4548515 5.14013684,24.1021242 5.31255789,22.5173667 C5.48403158,20.9354273 5.68013684,19.2905485 5.90182105,17.5864879 C6.12255789,15.8796091 6.36224211,14.1755485 6.61992632,12.4686697 C6.87855789,10.7655485 7.13055789,9.21836667 7.37592632,7.82994242 C6.95813684,7.92482121 6.54697895,8.01124545 6.14245263,8.08545758 C5.73603158,8.15685152 5.39782105,8.24327576 5.12876842,8.34191212 C4.75929474,8.46309394 4.45803158,8.48094242 4.22592632,8.39545758 C3.99192632,8.30903333 3.73992632,8.06197273 3.46992632,7.64582121 C3.17434737,7.23248788 2.91097895,6.70924545 2.67697895,6.07609394 C2.44297895,5.44200303 2.25350526,4.91876061 2.10571579,4.50260909 C1.95887368,4.06579091 1.93424211,3.77363939 2.03182105,3.62803333 C2.13129474,3.47960909 2.31413684,3.35748788 2.58508421,3.26260909 C3.42066316,3.04279091 4.37276842,2.83424545 5.4414,2.6407303 C6.50908421,2.44439697 7.59666316,2.27530606 8.70318947,2.1297 C9.80782105,1.98409394 10.8954,1.86197273 11.9640316,1.76427576 C13.0317158,1.66563939 13.9838211,1.59424545 14.8194,1.54351818 C15.2371895,1.54351818 15.5498211,1.59988182 15.7591895,1.70697273 C15.9676105,1.81782121 16.1466632,1.99536667 16.2935053,2.23960909 C16.5890842,2.67642727 16.8401368,3.1527 17.0485579,3.6637303 C17.2569789,4.1757 17.4237158,4.67545758 17.5468737,5.16300303 C17.6444526,5.62330606 17.6577158,5.93612424 17.5828737,6.09394242 C17.5089789,6.25082121 17.2512947,6.35509394 16.8088737,6.40300303 C16.2432947,6.47721515 15.6246632,6.55706364 14.9482421,6.6406697" id="Fill-1" fill="#000000"></path>
                    <path d="M14.9482421,6.6406697 C14.2718211,6.72709394 13.5792947,6.81915455 12.8668737,6.91403333 C12.5712947,8.64533636 12.2643474,10.4649424 11.9450842,12.3766091 C11.6258211,14.2920333 11.3065579,16.2281242 10.9863474,18.1877 C10.6670842,20.1500939 10.3658211,22.0918212 10.0844526,24.0157 C9.80213684,25.9395788 9.55013684,27.7685788 9.32845263,29.4961242 C9.30476842,29.8380636 9.23087368,30.0700939 9.10771579,30.1922152 C8.98455789,30.313397 8.81876842,30.3613061 8.61034737,30.3378212 C8.40192632,30.313397 8.15561053,30.2391848 7.87424211,30.118003 C7.59003158,29.9958818 7.2774,29.8615485 6.93350526,29.7159424 C6.24571579,29.4247303 5.70382105,29.0593061 5.31255789,28.6215485 C4.91845263,28.1819121 4.79718947,27.5008515 4.94403158,26.5727303 C5.01697895,25.4548515 5.14013684,24.1021242 5.31255789,22.5173667 C5.48403158,20.9354273 5.68013684,19.2905485 5.90182105,17.5864879 C6.12255789,15.8796091 6.36224211,14.1755485 6.61992632,12.4686697 C6.87855789,10.7655485 7.13055789,9.21836667 7.37592632,7.82994242 C6.95813684,7.92482121 6.54697895,8.01124545 6.14245263,8.08545758 C5.73603158,8.15685152 5.39782105,8.24327576 5.12876842,8.34191212 C4.75929474,8.46309394 4.45803158,8.48094242 4.22592632,8.39545758 C3.99192632,8.30903333 3.73992632,8.06197273 3.46992632,7.64582121 C3.17434737,7.23248788 2.91097895,6.70924545 2.67697895,6.07609394 C2.44297895,5.44200303 2.25350526,4.91876061 2.10571579,4.50260909 C1.95887368,4.06579091 1.93424211,3.77363939 2.03182105,3.62803333 C2.13129474,3.47960909 2.31413684,3.35748788 2.58508421,3.26260909 C3.42066316,3.04279091 4.37276842,2.83424545 5.4414,2.6407303 C6.50908421,2.44439697 7.59666316,2.27530606 8.70318947,2.1297 C9.80782105,1.98409394 10.8954,1.86197273 11.9640316,1.76427576 C13.0317158,1.66563939 13.9838211,1.59424545 14.8194,1.54351818 C15.2371895,1.54351818 15.5498211,1.59988182 15.7591895,1.70697273 C15.9676105,1.81782121 16.1466632,1.99536667 16.2935053,2.23960909 C16.5890842,2.67642727 16.8401368,3.1527 17.0485579,3.6637303 C17.2569789,4.1757 17.4237158,4.67545758 17.5468737,5.16300303 C17.6444526,5.62330606 17.6577158,5.93612424 17.5828737,6.09394242 C17.5089789,6.25082121 17.2512947,6.35509394 16.8088737,6.40300303 C16.2432947,6.47721515 15.6246632,6.55706364 14.9482421,6.6406697 L14.9482421,6.6406697 Z" id="Stroke-3" stroke="#000000" stroke-width="1.172" stroke-linecap="round" stroke-linejoin="round"></path>
                    <path d="M13.5299368,5.64735455 C12.8535158,5.73377879 12.1609895,5.82583939 11.4485684,5.92071818 C11.1529895,7.65202121 10.8460421,9.47162727 10.5267789,11.3832939 C10.2075158,13.2987182 9.88825263,15.2348091 9.56804211,17.1943848 C9.24877895,19.1567788 8.94751579,21.0985061 8.66614737,23.0223848 C8.38383158,24.9462636 8.13183158,26.7752636 7.91014737,28.5028091 C7.88646316,28.8447485 7.81256842,29.0767788 7.68941053,29.1989 C7.56625263,29.3200818 7.40046316,29.3679909 7.19204211,29.3445061 C6.98362105,29.3200818 6.73730526,29.2458697 6.45593684,29.1246879 C6.17172632,29.0025667 5.85909474,28.8682333 5.5152,28.7226273 C4.82741053,28.4314152 4.28551579,28.0659909 3.89425263,27.6282333 C3.50014737,27.188597 3.37888421,26.5075364 3.52572632,25.5794152 C3.59867368,24.4615364 3.72183158,23.1088091 3.89425263,21.5240515 C4.06572632,19.9421121 4.26183158,18.2972333 4.48351579,16.5931727 C4.70425263,14.8862939 4.94393684,13.1822333 5.20162105,11.4753545 C5.46025263,9.77223333 5.71225263,8.22505152 5.95762105,6.83662727 C5.53983158,6.93150606 5.12867368,7.0179303 4.72414737,7.09214242 C4.31772632,7.16353636 3.97951579,7.24996061 3.71046316,7.34859697 C3.34098947,7.46977879 3.03972632,7.48762727 2.80762105,7.40214242 C2.57362105,7.31571818 2.32162105,7.06865758 2.05162105,6.65250606 C1.75604211,6.23917273 1.49267368,5.7159303 1.25867368,5.08277879 C1.02467368,4.44868788 0.8352,3.92544545 0.687410526,3.50929394 C0.540568421,3.07247576 0.515936842,2.78032424 0.613515789,2.63471818 C0.712989474,2.48629394 0.895831579,2.36417273 1.16677895,2.26929394 C2.00235789,2.04947576 2.95446316,1.8409303 4.02309474,1.64741515 C5.09077895,1.45108182 6.17835789,1.28199091 7.28488421,1.13638485 C8.38951579,0.990778788 9.47709474,0.868657576 10.5457263,0.770960606 C11.6134105,0.672324242 12.5655158,0.600930303 13.4010947,0.55020303 C13.8188842,0.55020303 14.1315158,0.606566667 14.3408842,0.713657576 C14.5493053,0.824506061 14.7283579,1.00205152 14.8752,1.24629394 C15.1707789,1.68311212 15.4218316,2.15938485 15.6302526,2.67041515 C15.8386737,3.18238485 16.0054105,3.68214242 16.1285684,4.16968788 C16.2261474,4.62999091 16.2394105,4.94280909 16.1645684,5.10062727 C16.0906737,5.25750606 15.8329895,5.36177879 15.3905684,5.40968788 C14.8249895,5.4839 14.2063579,5.56374848 13.5299368,5.64735455" id="Fill-5" fill="#FFFFFF"></path>
                    <path d="M13.5299368,5.64735455 C12.8535158,5.73377879 12.1609895,5.82583939 11.4485684,5.92071818 C11.1529895,7.65202121 10.8460421,9.47162727 10.5267789,11.3832939 C10.2075158,13.2987182 9.88825263,15.2348091 9.56804211,17.1943848 C9.24877895,19.1567788 8.94751579,21.0985061 8.66614737,23.0223848 C8.38383158,24.9462636 8.13183158,26.7752636 7.91014737,28.5028091 C7.88646316,28.8447485 7.81256842,29.0767788 7.68941053,29.1989 C7.56625263,29.3200818 7.40046316,29.3679909 7.19204211,29.3445061 C6.98362105,29.3200818 6.73730526,29.2458697 6.45593684,29.1246879 C6.17172632,29.0025667 5.85909474,28.8682333 5.5152,28.7226273 C4.82741053,28.4314152 4.28551579,28.0659909 3.89425263,27.6282333 C3.50014737,27.188597 3.37888421,26.5075364 3.52572632,25.5794152 C3.59867368,24.4615364 3.72183158,23.1088091 3.89425263,21.5240515 C4.06572632,19.9421121 4.26183158,18.2972333 4.48351579,16.5931727 C4.70425263,14.8862939 4.94393684,13.1822333 5.20162105,11.4753545 C5.46025263,9.77223333 5.71225263,8.22505152 5.95762105,6.83662727 C5.53983158,6.93150606 5.12867368,7.0179303 4.72414737,7.09214242 C4.31772632,7.16353636 3.97951579,7.24996061 3.71046316,7.34859697 C3.34098947,7.46977879 3.03972632,7.48762727 2.80762105,7.40214242 C2.57362105,7.31571818 2.32162105,7.06865758 2.05162105,6.65250606 C1.75604211,6.23917273 1.49267368,5.7159303 1.25867368,5.08277879 C1.02467368,4.44868788 0.8352,3.92544545 0.687410526,3.50929394 C0.540568421,3.07247576 0.515936842,2.78032424 0.613515789,2.63471818 C0.712989474,2.48629394 0.895831579,2.36417273 1.16677895,2.26929394 C2.00235789,2.04947576 2.95446316,1.8409303 4.02309474,1.64741515 C5.09077895,1.45108182 6.17835789,1.28199091 7.28488421,1.13638485 C8.38951579,0.990778788 9.47709474,0.868657576 10.5457263,0.770960606 C11.6134105,0.672324242 12.5655158,0.600930303 13.4010947,0.55020303 C13.8188842,0.55020303 14.1315158,0.606566667 14.3408842,0.713657576 C14.5493053,0.824506061 14.7283579,1.00205152 14.8752,1.24629394 C15.1707789,1.68311212 15.4218316,2.15938485 15.6302526,2.67041515 C15.8386737,3.18238485 16.0054105,3.68214242 16.1285684,4.16968788 C16.2261474,4.62999091 16.2394105,4.94280909 16.1645684,5.10062727 C16.0906737,5.25750606 15.8329895,5.36177879 15.3905684,5.40968788 C14.8249895,5.4839 14.2063579,5.56374848 13.5299368,5.64735455 L13.5299368,5.64735455 Z" id="Stroke-7" stroke="#000000" stroke-width="1.172" stroke-linecap="round" stroke-linejoin="round"></path>
                </g>
            </g>
        </g>
    </g>
</svg>