<?xml version="1.0" encoding="UTF-8" standalone="no"?>
<svg width="14px" height="13px" viewBox="0 0 14 13" version="1.1" xmlns="http://www.w3.org/2000/svg" xmlns:xlink="http://www.w3.org/1999/xlink">
    <!-- Generator: sketchtool 40 (33762) - http://www.bohemiancoding.com/sketch -->
    <title>87F98981-A3E0-4CBA-8D6E-CAC3D20FB788</title>
    <desc>Created with sketchtool.</desc>
    <defs>
        <polygon id="path-1" points="7.00002917 13 14 13 14 0 7.00002917 0 5.83333331e-05 0 5.83333331e-05 13"></polygon>
    </defs>
    <g id="Menu,-cadastro-e-perfil" stroke="none" stroke-width="1" fill="none" fill-rule="evenodd">
        <g id="TMJ-mobile-menu-Copy-7" transform="translate(-34.000000, -251.000000)">
            <g id="Page-1-Copy-2" transform="translate(34.000000, 251.000000)">
                <mask id="mask-2" fill="white">
                    <use xlink:href="#path-1"></use>
                </mask>
                <g id="Clip-2"></g>
                <path d="M2.10005833,2.65909091 L4.666725,2.65909091 L4.666725,3.19090909 C4.666725,3.55136364 4.95255833,3.84090909 5.30839167,3.84090909 L8.691725,3.84090909 C9.04726667,3.84090909 9.33339167,3.55136364 9.33339167,3.19090909 L9.33339167,2.65909091 L11.9000583,2.65909091 C12.2556,2.65909091 12.541725,2.94863636 12.541725,3.30909091 L12.541725,10.8727273 C12.541725,11.2331818 12.2556,11.5227273 11.9000583,11.5227273 L2.10005833,11.5227273 C1.744225,11.5227273 1.45839167,11.2331818 1.45839167,10.8727273 L1.45839167,3.30909091 C1.45839167,2.94863636 1.744225,2.65909091 2.10005833,2.65909091 L2.10005833,2.65909091 Z M5.83333331e-05,11.8181818 C5.83333331e-05,12.4711364 0.522141667,13 1.166725,13 L12.8333917,13 C13.477975,13 14.0000583,12.4711364 14.0000583,11.8181818 L14.0000583,2.36363636 C14.0000583,1.71068182 13.477975,1.18181818 12.8333917,1.18181818 L9.33339167,1.18181818 L9.33339167,0.65 C9.33339167,0.289545455 9.04726667,0 8.691725,0 L5.30839167,0 C4.95255833,0 4.666725,0.289545455 4.666725,0.65 L4.666725,1.18181818 L1.166725,1.18181818 C0.522141667,1.18181818 5.83333331e-05,1.71068182 5.83333331e-05,2.36363636 L5.83333331e-05,11.8181818 Z M10.354225,8.27272727 L8.89589167,8.27272727 C8.49339167,8.27272727 8.166725,8.60363636 8.166725,9.01136364 C8.166725,9.41909091 8.49339167,9.75 8.89589167,9.75 L10.354225,9.75 C10.756725,9.75 11.0833917,9.41909091 11.0833917,9.01136364 C11.0833917,8.60363636 10.756725,8.27272727 10.354225,8.27272727 L10.354225,8.27272727 Z M10.354225,5.61363636 L8.89589167,5.61363636 C8.49339167,5.61363636 8.166725,5.94454545 8.166725,6.35227273 C8.166725,6.76 8.49339167,7.09090909 8.89589167,7.09090909 L10.354225,7.09090909 C10.756725,7.09090909 11.0833917,6.76 11.0833917,6.35227273 C11.0833917,5.94454545 10.756725,5.61363636 10.354225,5.61363636 L10.354225,5.61363636 Z M6.854225,8.85477273 C6.52755833,8.43522727 6.241725,8.22840909 5.532975,8.1575 C5.40435,8.13386364 5.31130833,8.02159091 5.31130833,7.88863636 C5.31130833,7.79113636 5.62630833,7.49863636 5.6231,7.49568182 C5.95005833,7.16181818 6.12505833,6.62113636 6.12505833,6.20454545 C6.12505833,5.55779545 5.559225,5.02272727 4.81255833,5.02272727 C4.05101667,5.02272727 3.50005833,5.55779545 3.50005833,6.20454545 C3.50005833,6.62409091 3.67214167,7.16772727 3.99880833,7.50188636 C3.99880833,7.50188636 4.31380833,7.79113636 4.31380833,7.88863636 C4.31380833,8.0275 4.20880833,8.14568182 4.06880833,8.16340909 C3.37435,8.23431818 3.09435,8.44113636 2.77089167,8.85477273 C2.68018333,8.97590909 2.627975,9.21493182 2.62505833,9.34227273 L2.62505833,9.89772727 C2.62505833,10.1429545 2.82601667,10.3409091 3.074225,10.3409091 L6.55089167,10.3409091 C6.79880833,10.3409091 7.00005833,10.1429545 7.00005833,9.89772727 L7.00005833,9.34227273 C6.99714167,9.21493182 6.94726667,8.97590909 6.854225,8.85477273 L6.854225,8.85477273 Z" id="Fill-1" fill="#000000" mask="url(#mask-2)"></path>
            </g>
        </g>
    </g>
</svg>