<?xml version="1.0" encoding="UTF-8" standalone="no"?>
<svg width="42px" height="42px" viewBox="0 0 42 42" version="1.1" xmlns="http://www.w3.org/2000/svg" xmlns:xlink="http://www.w3.org/1999/xlink">
    <!-- Generator: Sketch 40 (33762) - http://www.bohemiancoding.com/sketch -->
    <title>Group Copy 2</title>
    <desc>Created with Sketch.</desc>
    <defs></defs>
    <g id="Styleguide" stroke="none" stroke-width="1" fill="none" fill-rule="evenodd">
        <g id="Styleguide-Motions" transform="translate(-911.000000, -357.000000)">
            <g id="Group-Copy-2" transform="translate(912.000000, 358.000000)">
                <g id="Page-1">
                    <g id="menu">
                        <path d="M20.2244318,0.338709677 C9.24238636,0.338709677 0.340568182,9.18377419 0.340568182,20.0942903 C0.340568182,31.0048065 9.24238636,39.849871 20.2244318,39.849871 C23.1910227,39.849871 26.0055682,39.2029355 28.53375,38.0452258 C30.6010227,39.3235161 33.04125,40.0625806 35.6560227,40.0625806 C37.1839773,40.0625806 38.6519318,39.8065161 40.0217045,39.3418065 C37.8657955,37.7519032 36.2028409,35.5387742 35.3035227,32.9706774 C38.2973864,29.5124516 40.1082955,25.0137097 40.1082955,20.0942903 C40.1082955,9.18377419 31.2057955,0.338709677 20.2244318,0.338709677" id="Fill-6" fill="#FFFFFF"></path>
                        <path d="M20.2244318,0.338709677 C9.24238636,0.338709677 0.340568182,9.18377419 0.340568182,20.0942903 C0.340568182,31.0048065 9.24238636,39.849871 20.2244318,39.849871 C23.1910227,39.849871 26.0055682,39.2029355 28.53375,38.0452258 C30.6010227,39.3235161 33.04125,40.0625806 35.6560227,40.0625806 C37.1839773,40.0625806 38.6519318,39.8065161 40.0217045,39.3418065 C37.8657955,37.7519032 36.2028409,35.5387742 35.3035227,32.9706774 C38.2973864,29.5124516 40.1082955,25.0137097 40.1082955,20.0942903 C40.1082955,9.18377419 31.2057955,0.338709677 20.2244318,0.338709677 L20.2244318,0.338709677 Z" id="Stroke-8" stroke="#000000" stroke-linecap="round" stroke-linejoin="round"></path>
                    </g>
                </g>
            </g>
        </g>
    </g>
</svg>