<?xml version="1.0" encoding="UTF-8" standalone="no"?>
<svg width="12px" height="13px" viewBox="0 0 12 13" version="1.1" xmlns="http://www.w3.org/2000/svg" xmlns:xlink="http://www.w3.org/1999/xlink">
    <!-- Generator: sketchtool 40 (33762) - http://www.bohemiancoding.com/sketch -->
    <title>3D490AF8-458A-4330-9901-8D51C7902461</title>
    <desc>Created with sketchtool.</desc>
    <defs>
        <polygon id="path-1" points="12 5.85815455 12 11.7056277 0 11.7056277 0 5.85815455 0 0.0106813853 12 0.0106813853"></polygon>
    </defs>
    <g id="Menu,-cadastro-e-perfil" stroke="none" stroke-width="1" fill="none" fill-rule="evenodd">
        <g id="Perfil-usuário-Copy-2" transform="translate(-492.000000, -186.000000)">
            <g id="Page-1" transform="translate(492.000000, 186.000000)">
                <g id="Group-3" transform="translate(0.000000, 0.355119)">
                    <mask id="mask-2" fill="white">
                        <use xlink:href="#path-1"></use>
                    </mask>
                    <g id="Clip-2"></g>
                    <path d="M10.921875,0.0106813853 L1.078125,0.0106813853 C0.48375,0.0106813853 0,0.461713853 0,1.01663377 L0,10.6082983 C0,10.8998416 0.116625,11.1749238 0.330375,11.3837961 C0.54375,11.5912052 0.826125,11.7057009 1.125375,11.7057009 C1.42575,11.7057009 1.708125,11.5912052 1.915875,11.3885515 L4.390125,9.0576684 C4.5675,8.88501039 4.803,8.78990216 5.053125,8.78990216 L10.921875,8.78990216 C11.51625,8.78990216 12,8.3388697 12,7.78394978 L12,1.01663377 C12,0.461713853 11.51625,0.0106813853 10.921875,0.0106813853" id="Fill-1" fill="#000000" mask="url(#mask-2)"></path>
                </g>
                <path d="M9,5.48701299 C8.585625,5.48701299 8.25,5.81477056 8.25,6.21861472 C8.25,6.62245887 8.585625,6.95021645 9,6.95021645 C9.414,6.95021645 9.75,6.62245887 9.75,6.21861472 C9.75,5.81477056 9.414,5.48701299 9,5.48701299 M3,5.48701299 C2.585625,5.48701299 2.25,5.81477056 2.25,6.21861472 C2.25,6.62245887 2.585625,6.95021645 3,6.95021645 C3.414,6.95021645 3.75,6.62245887 3.75,6.21861472 C3.75,5.81477056 3.414,5.48701299 3,5.48701299 M6,5.48701299 C5.585625,5.48701299 5.25,5.81477056 5.25,6.21861472 C5.25,6.62245887 5.585625,6.95021645 6,6.95021645 C6.414,6.95021645 6.75,6.62245887 6.75,6.21861472 C6.75,5.81477056 6.414,5.48701299 6,5.48701299" id="Fill-4" fill="#FFFFFF"></path>
            </g>
        </g>
    </g>
</svg>