<?xml version="1.0" encoding="UTF-8" standalone="no"?>
<svg width="32px" height="32px" viewBox="0 0 32 32" version="1.1" xmlns="http://www.w3.org/2000/svg" xmlns:xlink="http://www.w3.org/1999/xlink">
    <!-- Generator: sketchtool 40 (33762) - http://www.bohemiancoding.com/sketch -->
    <title>61F9A116-297F-4F60-995C-6069539888E7</title>
    <desc>Created with sketchtool.</desc>
    <defs></defs>
    <g id="Menu,-cadastro-e-perfil" stroke="none" stroke-width="1" fill="none" fill-rule="evenodd">
        <g id="Home-TMJ-Copy-5" transform="translate(-373.000000, -342.000000)">
            <g id="Page-1" transform="translate(372.000000, 339.000000)">
                <g id="Group-6" transform="translate(0.832370, 3.000000)">
                    <path d="M31.8500337,16.0046896 C31.8500337,24.8438646 24.8129793,32.0092073 16.132061,32.0092073 C7.45114267,32.0092073 0.414088328,24.8438646 0.414088328,16.0046896 C0.414088328,7.16551455 7.45114267,0.000171851366 16.132061,0.000171851366 C24.8129793,0.000171851366 31.8500337,7.16551455 31.8500337,16.0046896" id="Fill-5" fill="#000000"></path>
                    <path d="M18.3558343,9.17076221 L20.9549622,9.17076221 L20.9549622,5.2620029 L17.8992992,5.2620029 L17.8992992,5.27575101 C14.1980736,5.40893582 13.439432,7.52786316 13.3727661,9.75333834 L13.3651712,9.75333834 L13.3651712,11.7055699 L10.8445235,11.7055699 L10.8445235,15.533559 L13.3651712,15.533559 L13.3651712,25.7948041 L17.1634422,25.7948041 L17.1634422,15.533559 L20.2756447,15.533559 L20.876482,11.7055699 L17.1651299,11.7055699 L17.1651299,10.5258102 C17.1651299,9.77396051 17.6562639,9.17076221 18.3558343,9.17076221" id="Fill-7" fill="#FFFFFF"></path>
                </g>
            </g>
        </g>
    </g>
</svg>