<?xml version="1.0" encoding="utf-8"?>
<!-- Generator: Adobe Illustrator 21.0.0, SVG Export Plug-In . SVG Version: 6.00 Build 0)  -->
<svg version="1.1" id="Layer_1" xmlns="http://www.w3.org/2000/svg" xmlns:xlink="http://www.w3.org/1999/xlink" x="0px" y="0px"
	 viewBox="0 0 20 20" style="enable-background:new 0 0 20 20;" xml:space="preserve">
<style type="text/css">
	.st0{filter:url(#Adobe_OpacityMaskFilter);}
	.st1{fill:#FFFFFF;}
	.st2{mask:url(#mask-2);}
</style>
<title>704EFF24-2B06-499B-BD2A-1B161C1F8D2E</title>
<desc>Created with sketchtool.</desc>
<g id="Guide-cards">
	<g id="Home-TMJ" transform="translate(-1177.000000, -1262.000000)">
		<g id="facebook_remix" transform="translate(1177.000000, 1261.000000)">
			<g id="Group-4" transform="translate(0.000000, 0.927803)">
				<g id="Group-3" transform="translate(0.000000, 0.229906)">
					<g id="Clip-2">
					</g>
					<defs>
						<filter id="Adobe_OpacityMaskFilter" filterUnits="userSpaceOnUse" x="0" y="-0.2" width="20" height="20">
							<feColorMatrix  type="matrix" values="1 0 0 0 0  0 1 0 0 0  0 0 1 0 0  0 0 0 1 0"/>
						</filter>
					</defs>
					<mask maskUnits="userSpaceOnUse" x="0" y="-0.2" width="20" height="20" id="mask-2">
						<g class="st0">
							<polygon id="path-1" class="st1" points="20,-0.2 0,-0.2 0,19.8 20,19.8 							"/>
						</g>
					</mask>
					<path id="Fill-1" class="st2" d="M20,9.8c0,5.5-4.5,10-10,10S0,15.4,0,9.8s4.5-10,10-10S20,4.3,20,9.8"/>
				</g>
				<path id="Fill-4" class="st1" d="M11.4,5.8h1.7V3.4h-1.9v0C8.8,3.5,8.3,4.8,8.2,6.2h0v1.2H6.6v2.4h1.6v6.4h2.4V9.8h2L13,7.4
					h-2.4V6.6C10.6,6.2,11,5.8,11.4,5.8"/>
			</g>
		</g>
	</g>
</g>
</svg>
