<?xml version="1.0" encoding="UTF-8" standalone="no"?>
<svg width="41px" height="55px" viewBox="0 0 41 55" version="1.1" xmlns="http://www.w3.org/2000/svg" xmlns:xlink="http://www.w3.org/1999/xlink">
    <!-- Generator: sketchtool 40 (33762) - http://www.bohemiancoding.com/sketch -->
    <title>E83C32CC-7EE4-4F74-87C4-F25D5DF24D96</title>
    <desc>Created with sketchtool.</desc>
    <defs></defs>
    <g id="Menu,-cadastro-e-perfil" stroke="none" stroke-width="1" fill="none" fill-rule="evenodd">
        <g id="TMJ-mobile-menu-Copy-26" transform="translate(-126.000000, -284.000000)">
            <g id="geek-badge-copy-3" transform="translate(126.000000, 285.000000)">
                <g id="Page-1" transform="translate(0.724120, 0.000000)">
                    <path d="M38.7412723,0.836623767 C38.5494159,0.548575583 38.1922364,0.371795108 37.805462,0.371795108 L15.5725692,0.371795108 C15.1092564,0.371795108 14.6990102,0.624487198 14.5510359,1.00092562 L5.02148692,25.2240101 C4.91127153,25.5068589 4.96535871,25.8177846 5.16742025,26.0600778 C5.37050231,26.302371 5.69604591,26.4458752 6.04404079,26.4458752 L15.0776205,26.4458752 L4.68063563,50.3278774 C4.49694331,50.7500707 4.69492281,51.2252982 5.14905102,51.4519932 C5.31845615,51.5362239 5.50521,51.5778193 5.69094334,51.5778193 C6.00117925,51.5778193 6.3073331,51.4623921 6.51857926,51.246096 L35.457262,21.5719335 C35.7256569,21.296364 35.7848466,20.9126463 35.6062569,20.5871623 C35.4297081,20.2606384 35.0480363,20.0537012 34.6296261,20.0537012 L26.2757079,20.0537012 L38.7371903,1.76420131 C38.9321082,1.47719302 38.9341492,1.12363207 38.7412723,0.836623767" id="Fill-1" stroke="#000000" fill="#000000"></path>
                    <path d="M34.4924157,2.09277531 C34.3005593,1.80472712 33.9433798,1.62794665 33.5566054,1.62794665 L11.3237126,1.62794665 C10.8603997,1.62794665 10.4501536,1.88063874 10.3021792,2.25707716 L0.772630274,26.4801617 C0.662414887,26.7630104 0.716502068,27.0739361 0.918563611,27.3162293 C1.12164567,27.5585226 1.44718926,27.7020267 1.79518414,27.7020267 L10.8287638,27.7020267 L0.431778984,51.5840289 C0.248086672,52.0062223 0.446066164,52.4814498 0.90019438,52.7081448 C1.06959951,52.7923754 1.25635336,52.8339709 1.4420867,52.8339709 C1.7523226,52.8339709 2.05847646,52.7185436 2.26972262,52.5022475 L31.2084053,22.8280851 C31.4768002,22.5525155 31.53599,22.1687979 31.3574002,21.8433138 C31.1808515,21.5167899 30.7991797,21.3098527 30.3807694,21.3098527 L22.0268513,21.3098527 L34.4883336,3.02035286 C34.6832516,2.73334456 34.6852926,2.37978361 34.4924157,2.09277531" id="Fill-4" fill="#56C9DF"></path>
                    <path d="M34.4924157,2.09277531 C34.3005593,1.80472712 33.9433798,1.62794665 33.5566054,1.62794665 L11.3237126,1.62794665 C10.8603997,1.62794665 10.4501536,1.88063874 10.3021792,2.25707716 L0.772630274,26.4801617 C0.662414887,26.7630104 0.716502068,27.0739361 0.918563611,27.3162293 C1.12164567,27.5585226 1.44718926,27.7020267 1.79518414,27.7020267 L10.8287638,27.7020267 L0.431778984,51.5840289 C0.248086672,52.0062223 0.446066164,52.4814498 0.90019438,52.7081448 C1.06959951,52.7923754 1.25635336,52.8339709 1.4420867,52.8339709 C1.7523226,52.8339709 2.05847646,52.7185436 2.26972262,52.5022475 L31.2084053,22.8280851 C31.4768002,22.5525155 31.53599,22.1687979 31.3574002,21.8433138 C31.1808515,21.5167899 30.7991797,21.3098527 30.3807694,21.3098527 L22.0268513,21.3098527 L34.4883336,3.02035286 C34.6832516,2.73334456 34.6852926,2.37978361 34.4924157,2.09277531 L34.4924157,2.09277531 Z" id="Stroke-6" stroke="#000000" stroke-width="2" stroke-linecap="round" stroke-linejoin="round"></path>
                </g>
            </g>
        </g>
    </g>
</svg>