<?xml version="1.0" encoding="UTF-8" standalone="no"?>
<svg width="47px" height="50px" viewBox="0 0 47 50" version="1.1" xmlns="http://www.w3.org/2000/svg" xmlns:xlink="http://www.w3.org/1999/xlink">
    <!-- Generator: sketchtool 40 (33762) - http://www.bohemiancoding.com/sketch -->
    <title>5AEAA307-AB2B-4734-A243-F48929E61B6E</title>
    <desc>Created with sketchtool.</desc>
    <defs></defs>
    <g id="Menu,-cadastro-e-perfil" stroke="none" stroke-width="1" fill="none" fill-rule="evenodd">
        <g id="TMJ-mobile-menu-Copy-25" transform="translate(-116.000000, -282.000000)">
            <g id="icone_feitopormim" transform="translate(117.000000, 283.000000)">
                <g id="Group-3" transform="translate(0.000000, 6.263425)" fill="#000000">
                    <path d="M41.1856893,2.60549333 L22.8908321,2.60549333 L11.0959393,0.375176667 C9.94018929,0.157126667 8.76801071,0.400493333 7.79133214,1.06036 C6.81465357,1.72186 6.15586786,2.71737667 5.93654643,3.86479333 L0.568510714,31.9221933 C0.114260714,34.2986933 1.68893929,36.5992433 4.078475,37.0516767 L8.76390357,37.93776 C9.55165357,39.1398933 10.9102964,39.9402267 12.4578679,39.9402267 L19.3529393,39.9402267 L32.3002964,42.3885933 C32.5762964,42.4400433 32.8522964,42.4669933 33.127475,42.4669933 C34.0039393,42.4669933 34.8606893,42.2048433 35.6040821,41.7025933 C36.2677964,41.2534267 36.7696893,40.6409267 37.1023679,39.9402267 L41.1856893,39.9402267 C43.6187607,39.9402267 45.5984036,37.9728767 45.5984036,35.55391 L45.5984036,6.99262667 C45.5984036,4.57366 43.6187607,2.60549333 41.1856893,2.60549333" id="Fill-1"></path>
                </g>
                <path d="M39.8737036,44.3850983 L11.1458821,44.3850983 C9.17116786,44.3850983 7.55541786,42.778715 7.55541786,40.8146317 L7.55541786,12.254165 C7.55541786,10.2900817 9.17116786,8.68369833 11.1458821,8.68369833 L39.8737036,8.68369833 C41.8484179,8.68369833 43.4649893,10.2900817 43.4649893,12.254165 L43.4649893,40.8146317 C43.4649893,42.778715 41.8484179,44.3850983 39.8737036,44.3850983" id="Fill-4" fill="#56C9DF"></path>
                <path d="M39.8737036,44.3850983 L11.1458821,44.3850983 C9.17116786,44.3850983 7.55541786,42.778715 7.55541786,40.8146317 L7.55541786,12.254165 C7.55541786,10.2900817 9.17116786,8.68369833 11.1458821,8.68369833 L39.8737036,8.68369833 C41.8484179,8.68369833 43.4649893,10.2900817 43.4649893,12.254165 L43.4649893,40.8146317 C43.4649893,42.778715 41.8484179,44.3850983 39.8737036,44.3850983 L39.8737036,44.3850983 Z" id="Stroke-6" stroke="#000000" stroke-width="2" stroke-linecap="round" stroke-linejoin="round"></path>
                <path d="M31.141425,46.8480017 L2.91960357,41.511085 C0.979389286,41.1444017 -0.306146429,39.2652517 0.0634964286,37.336285 L5.43153214,9.278885 C5.80035357,7.34991833 7.68963929,6.071835 9.62985357,6.43851833 L37.851675,11.775435 C39.7918893,12.1421183 41.077425,14.0212683 40.7086036,15.950235 L35.3397464,44.007635 C34.970925,45.9366017 33.0816393,47.214685 31.141425,46.8480017" id="Fill-8" fill="#56C9DF"></path>
                <path d="M31.141425,46.8480017 L2.91960357,41.511085 C0.979389286,41.1444017 -0.306146429,39.2652517 0.0634964286,37.336285 L5.43153214,9.278885 C5.80035357,7.34991833 7.68963929,6.071835 9.62985357,6.43851833 L37.851675,11.775435 C39.7918893,12.1421183 41.077425,14.0212683 40.7086036,15.950235 L35.3397464,44.007635 C34.970925,45.9366017 33.0816393,47.214685 31.141425,46.8480017 L31.141425,46.8480017 Z" id="Stroke-10" stroke="#000000" stroke-width="2" stroke-linecap="round" stroke-linejoin="round"></path>
                <g id="Group-15" transform="translate(22.178571, 2.996758)" stroke="#000000" stroke-width="2" stroke-linecap="round" stroke-linejoin="round">
                    <path d="M1.78274643,9.74381333 L0.345246429,0.317846667" id="Stroke-14"></path>
                </g>
                <path d="M19.6520214,3.765895 C19.1460214,2.271395 19.9551286,0.652761667 21.4575214,0.149695 C22.9607357,-0.353371667 24.5896286,0.451045 25.0948071,1.94472833 C25.6008071,3.43922833 24.7925214,5.05867833 23.2893071,5.56092833 C21.7860929,6.063995 20.1580214,5.260395 19.6520214,3.765895" id="Fill-16" fill="#56C9DF"></path>
                <path d="M19.6520214,3.765895 C19.1460214,2.271395 19.9551286,0.652761667 21.4575214,0.149695 C22.9607357,-0.353371667 24.5896286,0.451045 25.0948071,1.94472833 C25.6008071,3.43922833 24.7925214,5.05867833 23.2893071,5.56092833 C21.7860929,6.063995 20.1580214,5.260395 19.6520214,3.765895 L19.6520214,3.765895 Z" id="Stroke-18" stroke="#000000" stroke-width="2" stroke-linecap="round" stroke-linejoin="round"></path>
                <g id="Group-43" transform="translate(5.750000, 14.430092)" stroke="#000000" stroke-width="2" stroke-linecap="round" stroke-linejoin="round">
                    <path d="M3.42831429,0.471298333 L29.3739571,5.50278167" id="Stroke-22"></path>
                    <path d="M2.59193571,4.842425 L20.8292929,8.37859167" id="Stroke-30"></path>
                    <path d="M8.60150714,10.65211 L27.3202214,14.2821933" id="Stroke-34"></path>
                    <path d="M1.37466071,9.25079167 L5.30766071,10.0135583" id="Stroke-38"></path>
                    <path d="M0.538364286,13.6219183 L26.4840071,18.6534017" id="Stroke-42"></path>
                </g>
            </g>
        </g>
    </g>
</svg>