<?xml version="1.0" encoding="UTF-8" standalone="no"?>
<svg width="42px" height="55px" viewBox="0 0 42 55" version="1.1" xmlns="http://www.w3.org/2000/svg" xmlns:xlink="http://www.w3.org/1999/xlink">
    <!-- Generator: sketchtool 40 (33762) - http://www.bohemiancoding.com/sketch -->
    <title>CBBD8DBB-2751-45BC-9F14-F1839C95062D</title>
    <desc>Created with sketchtool.</desc>
    <defs></defs>
    <g id="Menu,-cadastro-e-perfil" stroke="none" stroke-width="1" fill="none" fill-rule="evenodd">
        <g id="Editor-Ramona-mobile3" transform="translate(-125.000000, -284.000000)">
            <g id="icone_ramona-copy-2" transform="translate(126.000000, 285.000000)">
                <path d="M29.3075524,52.2813122 C33.0433583,52.2813122 36.5818292,51.4618559 39.7813661,50.0238568 C30.8832189,46.0236459 24.6769608,37.1074496 24.6769608,26.7269173 C24.6769608,16.3471374 30.8832189,7.43094114 39.7813661,3.4307302 C36.5818292,1.99197863 33.0433583,1.17327481 29.3075524,1.17327481 C15.1815366,1.17327481 3.7293334,12.6140587 3.7293334,26.7269173 C3.7293334,40.8405283 15.1815366,52.2813122 29.3075524,52.2813122" id="Fill-1" fill="#000000"></path>
                <path d="M29.3075524,52.2813122 C33.0433583,52.2813122 36.5818292,51.4618559 39.7813661,50.0238568 C30.8832189,46.0236459 24.6769608,37.1074496 24.6769608,26.7269173 C24.6769608,16.3471374 30.8832189,7.43094114 39.7813661,3.4307302 C36.5818292,1.99197863 33.0433583,1.17327481 29.3075524,1.17327481 C15.1815366,1.17327481 3.7293334,12.6140587 3.7293334,26.7269173 C3.7293334,40.8405283 15.1815366,52.2813122 29.3075524,52.2813122 L29.3075524,52.2813122 Z" id="Stroke-3" stroke="#000000" stroke-width="2" stroke-linecap="round" stroke-linejoin="round"></path>
                <path d="M26.5012542,51.484581 C30.2370601,51.484581 33.775531,50.6651247 36.975068,49.2271256 C28.0769207,45.2269147 21.8706626,36.3107184 21.8706626,25.930186 C21.8706626,15.5504062 28.0769207,6.63420988 36.975068,2.63399894 C33.775531,1.19524738 30.2370601,0.376543558 26.5012542,0.376543558 C12.3752384,0.376543558 0.92303522,11.8173274 0.92303522,25.930186 C0.92303522,40.0437971 12.3752384,51.484581 26.5012542,51.484581" id="Fill-23" fill="#C27DCB"></path>
                <path d="M26.5012542,51.484581 C30.2370601,51.484581 33.775531,50.6651247 36.975068,49.2271256 C28.0769207,45.2269147 21.8706626,36.3107184 21.8706626,25.930186 C21.8706626,15.5504062 28.0769207,6.63420988 36.975068,2.63399894 C33.775531,1.19524738 30.2370601,0.376543558 26.5012542,0.376543558 C12.3752384,0.376543558 0.92303522,11.8173274 0.92303522,25.930186 C0.92303522,40.0437971 12.3752384,51.484581 26.5012542,51.484581 L26.5012542,51.484581 Z" id="Stroke-25" stroke="#000000" stroke-width="2" stroke-linecap="round" stroke-linejoin="round"></path>
                <path d="M11.7711074,24.3009052 C11.7711074,24.7463764 11.4080714,25.1098267 10.9621849,25.1098267 C10.514792,25.1098267 10.1525092,24.7463764 10.1525092,24.3009052 C10.1525092,23.8546815 10.514792,23.4927362 10.9621849,23.4927362 C11.4080714,23.4927362 11.7711074,23.8546815 11.7711074,24.3009052 M8.53315793,24.3009052 C8.53315793,25.6388238 9.62151265,26.7269173 10.9621849,26.7269173 C12.3005976,26.7269173 13.3904587,25.6388238 13.3904587,24.3009052 C13.3904587,22.9622342 12.3005976,21.8748932 10.9621849,21.8748932 C9.62151265,21.8748932 8.53315793,22.9622342 8.53315793,24.3009052" id="Fill-29" fill="#000000"></path>
                <path d="M20.3242198,41.3455211 C20.1585187,42.0099655 19.5891096,42.5005858 18.9074757,42.564547 C18.460836,42.6066862 18.1347062,42.9994834 18.1768846,43.4457071 C18.2183099,43.8896733 18.6129797,44.2177568 19.058113,44.1748652 C20.4228872,44.0476952 21.5632118,43.0672071 21.8953672,41.7368134 C22.3276963,40.0060976 21.2694691,38.2475398 19.5371397,37.8156134 C18.2070121,37.4837674 16.8045785,38.0285667 16.0498855,39.1730965 C15.9986688,39.2506025 15.9617626,39.3348809 15.9399202,39.4221691 C15.8593293,39.7449852 15.9858646,40.0986533 16.2796074,40.2927944 C16.653188,40.5396095 17.1563167,40.4365191 17.4018555,40.0632865 C17.7792021,39.4913978 18.4804188,39.2189981 19.1454827,39.3845449 C20.0116473,39.6005081 20.5403844,40.4794107 20.3242198,41.3455211" id="Fill-31" fill="#000000"></path>
                <path d="M15.5835876,8.97458913 C14.9117451,8.83838932 14.3950591,8.29208512 14.3016639,7.6148485 C14.2391494,7.17163476 13.8316755,6.86311586 13.3872953,6.92557213 C12.9451748,6.98727591 12.6348618,7.39512285 12.6973763,7.8375841 C12.8864262,9.19431479 13.9175387,10.2884282 15.2619769,10.5600753 C17.0123827,10.9144958 18.7236228,9.77974822 19.0783737,8.03097278 C19.3502741,6.68853931 18.7424525,5.31374898 17.5652217,4.61092787 C17.4846308,4.56352131 17.3987675,4.53041196 17.3106446,4.5131048 C16.9837616,4.44688611 16.6357894,4.5891058 16.4557778,4.89085234 C16.2253027,5.27461975 16.3510848,5.77201242 16.73521,6.0007679 C17.324202,6.35142597 17.6277362,7.03919738 17.4914094,7.71041411 C17.3144106,8.58480183 16.4587905,9.15142314 15.5835876,8.97458913" id="Fill-33" fill="#000000"></path>
            </g>
        </g>
    </g>
</svg>