<?xml version="1.0" encoding="UTF-8" standalone="no"?>
<svg width="45px" height="43px" viewBox="0 0 45 43" version="1.1" xmlns="http://www.w3.org/2000/svg" xmlns:xlink="http://www.w3.org/1999/xlink">
    <!-- Generator: Sketch 40 (33762) - http://www.bohemiancoding.com/sketch -->
    <title>menu desktop</title>
    <desc>Created with Sketch.</desc>
    <defs></defs>
    <g id="Menu,-cadastro-e-perfil" stroke="none" stroke-width="1" fill="none" fill-rule="evenodd">
        <g id="Home-TMJ-Copy-2" transform="translate(-37.000000, -37.000000)">
            <g id="menu-desktop" transform="translate(38.000000, 38.000000)">
                <g id="menu">
                    <path d="M23.8225909,1.69436129 C12.8405455,1.69436129 3.93872727,10.5394258 3.93872727,21.4499419 C3.93872727,32.3604581 12.8405455,41.2055226 23.8225909,41.2055226 C26.7891818,41.2055226 29.6037273,40.5585871 32.1319091,39.4008774 C34.1991818,40.6791677 36.6394091,41.4182323 39.2541818,41.4182323 C40.7821364,41.4182323 42.2500909,41.1621677 43.6198636,40.6974581 C41.4639545,39.1075548 39.801,36.8944258 38.9016818,34.326329 C41.8955455,30.8681032 43.7064545,26.3693613 43.7064545,21.4499419 C43.7064545,10.5394258 34.8039545,1.69436129 23.8225909,1.69436129" id="Fill-1" fill="#000000"></path>
                    <path d="M20.2244318,0.338709677 C9.24238636,0.338709677 0.340568182,9.18377419 0.340568182,20.0942903 C0.340568182,31.0048065 9.24238636,39.849871 20.2244318,39.849871 C23.1910227,39.849871 26.0055682,39.2029355 28.53375,38.0452258 C30.6010227,39.3235161 33.04125,40.0625806 35.6560227,40.0625806 C37.1839773,40.0625806 38.6519318,39.8065161 40.0217045,39.3418065 C37.8657955,37.7519032 36.2028409,35.5387742 35.3035227,32.9706774 C38.2973864,29.5124516 40.1082955,25.0137097 40.1082955,20.0942903 C40.1082955,9.18377419 31.2057955,0.338709677 20.2244318,0.338709677" id="Fill-6" fill="#FFFFFF"></path>
                    <path d="M20.2244318,0.338709677 C9.24238636,0.338709677 0.340568182,9.18377419 0.340568182,20.0942903 C0.340568182,31.0048065 9.24238636,39.849871 20.2244318,39.849871 C23.1910227,39.849871 26.0055682,39.2029355 28.53375,38.0452258 C30.6010227,39.3235161 33.04125,40.0625806 35.6560227,40.0625806 C37.1839773,40.0625806 38.6519318,39.8065161 40.0217045,39.3418065 C37.8657955,37.7519032 36.2028409,35.5387742 35.3035227,32.9706774 C38.2973864,29.5124516 40.1082955,25.0137097 40.1082955,20.0942903 C40.1082955,9.18377419 31.2057955,0.338709677 20.2244318,0.338709677 L20.2244318,0.338709677 Z" id="Stroke-8" stroke="#000000" stroke-linecap="round" stroke-linejoin="round"></path>
                    <path d="M12.2392045,25 L30.5488281,25" id="Stroke-16" stroke="#000000" stroke-width="2" stroke-linecap="round" stroke-linejoin="round"></path>
                    <path d="M12.2392045,20 L27.6484372,20" id="Stroke-20" stroke="#000000" stroke-width="2" stroke-linecap="round" stroke-linejoin="round"></path>
                    <path d="M12.2392045,15 L24.7480463,15" id="Stroke-24" stroke="#000000" stroke-width="2" stroke-linecap="round" stroke-linejoin="round"></path>
                </g>
            </g>
        </g>
    </g>
</svg>