<?xml version="1.0" encoding="UTF-8" standalone="no"?>
<svg width="38px" height="37px" viewBox="0 0 38 37" version="1.1" xmlns="http://www.w3.org/2000/svg" xmlns:xlink="http://www.w3.org/1999/xlink">
    <!-- Generator: sketchtool 40 (33762) - http://www.bohemiancoding.com/sketch -->
    <title>616CC98D-489C-48CF-93A3-4B6937FE6BA5</title>
    <desc>Created with sketchtool.</desc>
    <defs></defs>
    <g id="Styleguide" stroke="none" stroke-width="1" fill="none" fill-rule="evenodd">
        <g id="Desktop-HD" transform="translate(-857.000000, -371.000000)">
            <g id="rede_social_youtube" transform="translate(858.000000, 370.000000)">
                <g id="Page-1" transform="translate(0.000000, 0.812785)">
                    <polygon id="Fill-1" fill="#231F1F" points="4.93333333 36.5808977 37 36.5808977 37 4.70418539 4.93333333 4.70418539"></polygon>
                    <polygon id="Fill-2" fill="#FFFFFF" points="0.411111111 33.1030667 32.4777778 33.1030667 32.4777778 1.22553699 0.411111111 1.22553699"></polygon>
                    <g id="Group-7" transform="translate(0.000000, 0.617427)">
                        <polygon id="Stroke-3" stroke="#231F1F" fill="#FFFFFF" points="0.411111111 32.4856393 32.4777778 32.4856393 32.4777778 0.608926941 0.411111111 0.608926941"></polygon>
                        <path d="M26.1332644,10.9777676 C25.4393089,10.1579639 24.1591089,9.82366712 21.7121756,9.82366712 L12.8313533,9.82366712 C10.3293311,9.82366712 9.02693111,10.1792151 8.33544222,11.0521466 C7.66122,11.9038269 7.66122,13.1576443 7.66122,14.8928817 L7.66122,18.2007037 C7.66122,21.5632881 8.46124222,23.2699183 12.8313533,23.2699183 L21.7121756,23.2699183 C23.8335089,23.2699183 25.0092867,22.9756717 25.7698422,22.2514982 C26.5501311,21.5093429 26.8823089,20.2980279 26.8823089,18.2007037 L26.8823089,14.8928817 C26.8823089,13.0628315 26.8305089,11.801658 26.1332644,10.9777676" id="Fill-5" fill="#231F1F"></path>
                        <path d="M19.5757133,17.0865717 L15.5427133,19.1814438 C15.4530911,19.2280329 15.3544244,19.2517361 15.2557578,19.2517361 C15.1447578,19.2517361 15.0329356,19.2214941 14.9342689,19.1626447 C14.7492689,19.0506676 14.6358022,18.8504164 14.6358022,18.635453 L14.6358022,14.4587863 C14.6358022,14.2430055 14.7484467,14.0435717 14.9342689,13.9315945 C15.1192689,13.8196174 15.3494911,13.8122612 15.5418911,13.9119781 L19.5740689,15.9929553 C19.7788022,16.099211 19.9078911,16.3092703 19.9087133,16.5397635 C19.9087133,16.7694393 19.7804467,16.980316 19.5757133,17.0865717" id="Fill-6" fill="#FFFFFF"></path>
                    </g>
                </g>
            </g>
        </g>
    </g>
</svg>