<?xml version="1.0" encoding="UTF-8" standalone="no"?>
<svg width="38px" height="37px" viewBox="0 0 38 37" version="1.1" xmlns="http://www.w3.org/2000/svg" xmlns:xlink="http://www.w3.org/1999/xlink">
    <!-- Generator: sketchtool 40 (33762) - http://www.bohemiancoding.com/sketch -->
    <title>D7AE25D7-C79D-4C91-8E9A-FA1755439B4D</title>
    <desc>Created with sketchtool.</desc>
    <defs></defs>
    <g id="Styleguide" stroke="none" stroke-width="1" fill="none" fill-rule="evenodd">
        <g id="Desktop-HD" transform="translate(-906.000000, -370.000000)">
            <g id="rede_social_google" transform="translate(907.000000, 370.000000)">
                <g id="Page-1" transform="translate(0.000000, 0.219178)">
                    <polygon id="Fill-1" fill="#231F1F" points="4.93333333 36.5808977 37 36.5808977 37 4.70418539 4.93333333 4.70418539"></polygon>
                    <polygon id="Fill-2" fill="#FFFFFF" points="0.411111111 33.1030667 32.4777778 33.1030667 32.4777778 1.22553699 0.411111111 1.22553699"></polygon>
                    <g id="Group-7" transform="translate(0.000000, 0.617427)">
                        <polygon id="Stroke-3" stroke="#231F1F" fill="#FFFFFF" points="0.411111111 32.4856393 32.4777778 32.4856393 32.4777778 0.608926941 0.411111111 0.608926941"></polygon>
                        <path d="M12.9741733,18.5902534 L16.5549511,18.5902534 C15.9267733,20.3565502 14.2239511,21.6226279 12.2308844,21.6087329 C9.81355111,21.5907511 7.81390667,19.6675228 7.72017333,17.2661438 C7.61904,14.6914863 9.69679556,12.5647374 12.2654178,12.5647374 C13.4395511,12.5647374 14.5109067,13.0093767 15.3191511,13.737637 C15.5107289,13.9109155 15.8017956,13.9117329 15.9900844,13.7360023 L17.3048178,12.5050708 C17.5111956,12.3129932 17.5111956,11.9876872 17.3064622,11.7947922 C16.02544,10.5883813 14.3061733,9.83560046 12.4109511,9.79963699 C8.36890667,9.72035388 4.96161778,13.0150982 4.93366222,17.034016 C4.90488444,21.0839932 8.19870667,24.375468 12.2654178,24.375468 C16.1767289,24.375468 19.3710622,21.3308333 19.5856622,17.496637 C19.5905956,17.4484132 19.5947067,15.8235183 19.5947067,15.8235183 L12.9741733,15.8235183 C12.70284,15.8235183 12.4824844,16.0425685 12.4824844,16.3122945 L12.4824844,18.1014772 C12.4824844,18.3712032 12.70284,18.5902534 12.9741733,18.5902534" id="Fill-5" fill="#231F1F"></path>
                        <path d="M25.6618022,15.986253 L25.6618022,14.2371205 C25.6618022,14.0009059 25.4694022,13.8096457 25.2309578,13.8096457 L23.7509578,13.8096457 C23.5125133,13.8096457 23.3201133,14.0009059 23.3201133,14.2371205 L23.3201133,15.986253 L21.56138,15.986253 C21.3229356,15.986253 21.1305356,16.1775132 21.1305356,16.4145452 L21.1305356,17.8857781 C21.1305356,18.1219927 21.3229356,18.3140703 21.56138,18.3140703 L23.3201133,18.3140703 L23.3201133,20.0623854 C23.3201133,20.2994174 23.5125133,20.4906776 23.7509578,20.4906776 L25.2309578,20.4906776 C25.4694022,20.4906776 25.6618022,20.2994174 25.6618022,20.0623854 L25.6618022,18.3140703 L27.4213578,18.3140703 C27.65898,18.3140703 27.85138,18.1219927 27.85138,17.8857781 L27.85138,16.4145452 C27.85138,16.1775132 27.65898,15.986253 27.4213578,15.986253 L25.6618022,15.986253 Z" id="Fill-6" fill="#231F1F"></path>
                    </g>
                </g>
            </g>
        </g>
    </g>
</svg>