<svg width="34px" height="34px" viewBox="0 0 34 34" version="1.1" xmlns="http://www.w3.org/2000/svg" xmlns:xlink="http://www.w3.org/1999/xlink">
    <g id="Page-1" stroke="none" stroke-width="1" fill="none" fill-rule="evenodd">
      <polygon id="Fill-2" points="0.4 33.1 32.5 33.1 32.5 1.2 0.4 1.2"></polygon>
      <polygon id="Stroke-3" stroke="#000" points="0.4 32.5 32.5 32.5 32.5 0.6 0.4 0.6"></polygon>
      <path class="social-yt-icon" d="M26.1,12.4 C25.4,11.6 24.1,11.2 21.7,11.2 L12.8,11.2 C10.3,11.2 9,11.6 8.3,12.4 C7.6,13.3 7.6,14.5 7.6,16.2 L7.6,19.5 C7.6,22.9 8.4,24.6 12.8,24.6 L21.7,24.6 C23.8,24.6 25,24.3 25.8,23.6 C26.6,22.9 26.9,21.6 26.9,19.5 L26.9,16.2 C26.9,14.5 26.8,13.2 26.1,12.4 L26.1,12.4 Z M19.6,18.5 L15.6,20.6 C15.5,20.6 15.4,20.7 15.3,20.7 C15.2,20.7 15.1,20.7 15,20.6 C14.8,20.5 14.7,20.3 14.7,20.1 L14.7,15.9 C14.7,15.7 14.8,15.5 15,15.4 C15.2,15.3 15.4,15.3 15.6,15.4 L19.6,17.5 C19.8,17.6 19.9,17.8 19.9,18 C19.9,18.2 19.8,18.4 19.6,18.5 L19.6,18.5 Z" id="Shape" fill="#231F1F"></path>
    </g>
</svg>