<svg width="38px" height="36px" viewBox="0 0 38 36" version="1.1" xmlns="http://www.w3.org/2000/svg" xmlns:xlink="http://www.w3.org/1999/xlink">
    <g id="Styleguide" stroke="none" stroke-width="1" fill="none" fill-rule="evenodd">
        <polygon id="Fill-2" fill="" points="0.411111111 33.1030667 32.4777778 33.1030667 32.4777778 1.22553699 0.411111111 1.22553699"></polygon>
        <g id="Group-6" transform="translate(0.000000, 0.617427)">
            <polygon id="Stroke-3" stroke="#231F1F" fill="" points="0.411111111 32.4856393 32.4777778 32.4856393 32.4777778 0.608926941 0.411111111 0.608926941"></polygon>
            <path class="social-tw-icon" d="M23.7322111,12.8324201 C23.7379667,12.9918037 23.7412556,13.1544566 23.7412556,13.3179269 C23.7412556,18.2539132 19.9615,23.9459498 13.0466111,23.9459498 C10.9236333,23.9459498 8.94783333,23.330484 7.28447778,22.2671096 C7.57965556,22.3022557 7.87812222,22.3210548 8.1807,22.3210548 C9.94354444,22.3210548 11.5625,21.7243881 12.8501,20.7214977 C11.2056556,20.689621 9.81856667,19.6107169 9.34003333,18.125589 C9.56778889,18.1705434 9.80212222,18.1926119 10.0463222,18.1926119 C10.3867222,18.1926119 10.7205444,18.1484749 11.0354556,18.0618356 C9.31701111,17.7201826 8.01954444,16.2105342 8.01954444,14.4001005 C8.01954444,14.3837534 8.01954444,14.3682237 8.02283333,14.3518767 C8.52685556,14.6330457 9.10898889,14.798968 9.72565556,14.8177671 C8.71678889,14.1508082 8.05161111,13.0048813 8.05161111,11.7085616 C8.05161111,11.0252557 8.23825556,10.3836347 8.55974444,9.83110502 C10.4122111,12.0918995 13.1847444,13.5794795 16.3059,13.7355936 C16.2417667,13.4609635 16.2097,13.1773425 16.2097,12.8830959 C16.2097,10.8209178 17.8927889,9.14779909 19.9680778,9.14779909 C21.0501222,9.14779909 22.0261,9.60142922 22.7101889,10.3256027 C23.5677667,10.1596804 24.3743667,9.84990411 25.1003889,9.41915982 C24.8175444,10.293726 24.2230778,11.0252557 23.4460778,11.4878767 C24.2074556,11.3987854 24.9334778,11.1977169 25.6044111,10.9010183 C25.1036778,11.6480776 24.4639889,12.3052283 23.7322111,12.8324201" id="Fill-5" fill="#231F1F"></path>
    	</g>
    </g>
</svg>