<?xml version="1.0" encoding="UTF-8" standalone="no"?>
<svg width="12px" height="12px" viewBox="0 0 12 12" version="1.1" xmlns="http://www.w3.org/2000/svg" xmlns:xlink="http://www.w3.org/1999/xlink">
    <!-- Generator: sketchtool 40 (33762) - http://www.bohemiancoding.com/sketch -->
    <title>F0545D08-20F2-48C9-AB1F-F0693D0DD751</title>
    <desc>Created with sketchtool.</desc>
    <defs></defs>
    <g id="Styleguide" stroke="none" stroke-width="1" fill="none" fill-rule="evenodd" opacity="0.4">
        <g id="Desktop-HD" transform="translate(-1240.000000, -370.000000)">
            <g id="remix_icon" transform="translate(1240.000000, 370.000000)">
                <g id="Page-1-Copy">
                    <g id="Group-3" transform="translate(0.000000, 0.073856)" fill="#000000">
                        <path d="M12.0001672,5.95992855 C12.0001672,9.13076572 9.31392215,11.7011566 6.00016718,11.7011566 C2.68641222,11.7011566 0.000167182663,9.13076572 0.000167182663,5.95992855 C0.000167182663,2.78909137 2.68641222,0.218700475 6.00016718,0.218700475 C9.31392215,0.218700475 12.0001672,2.78909137 12.0001672,5.95992855" id="Fill-1"></path>
                    </g>
                    <path d="M5.83714923,4.63655537 C5.76860433,4.94835783 5.69103158,5.28414511 5.60443096,5.64333219 C5.90703158,5.51726572 6.17753313,5.36311947 6.41493251,5.18001595 C6.65266625,4.99720494 6.8489387,4.81468642 7.00408421,4.6318754 C7.15856099,4.44935689 7.27023901,4.27619829 7.33911827,4.11210712 C7.40699443,3.94801595 7.42705635,3.82224198 7.39830093,3.73390769 C7.34045573,3.58941387 7.18564458,3.51658196 6.93353313,3.51658196 C6.81082105,3.51658196 6.6744,3.5355943 6.52293251,3.57361899 C6.37179938,3.61135119 6.21297585,3.67745565 6.04779938,3.77193238 C5.97557647,4.03664274 5.90535975,4.3247529 5.83714923,4.63655537 M5.09151455,8.19976144 C5.02999133,8.54373865 4.9704743,8.88508338 4.91296347,9.22555062 C4.89156409,9.3264623 4.85879628,9.39256676 4.81599752,9.42415651 C4.7728644,9.45545375 4.69328545,9.45545375 4.57792941,9.42415651 C4.45588607,9.37969687 4.34420805,9.34518215 4.24356409,9.32031985 C4.14225139,9.29487255 4.0486291,9.25099791 3.96236285,9.18781842 C3.87576223,9.11878898 3.81825139,9.03513466 3.78916161,8.93714796 C3.76074056,8.83974625 3.75371889,8.70899981 3.76776223,8.54490864 C3.78916161,8.36882507 3.81992322,8.11025717 3.85971269,7.76978993 C3.8991678,7.42990769 3.94430712,7.05346325 3.99446192,6.6401641 C4.04528545,6.22803495 4.10112446,5.8027434 4.16197895,5.36458196 C4.2231678,4.92642051 4.29004087,4.5218963 4.36226378,4.15013181 C4.43381796,3.77807483 4.50604087,3.46480988 4.57792941,3.20916695 C4.65015232,2.95440152 4.72571889,2.80464274 4.80529783,2.76047559 C5.06409659,2.62212422 5.33626997,2.4881603 5.62081486,2.35887635 C5.90535975,2.2298849 6.1845548,2.13657816 6.4584,2.08012612 C6.73191084,2.02308908 6.99305015,2.01870161 7.24148359,2.06579373 C7.49025139,2.11317835 7.70792322,2.24041481 7.8951678,2.44867312 C8.04630093,2.63119164 8.18874056,2.8333075 8.32215232,3.05355821 C8.45522972,3.27439392 8.56155789,3.54495423 8.64080248,3.86611662 C8.72004706,4.2253037 8.71302539,4.51546135 8.6194031,4.73571206 C8.48197895,5.11391149 8.23722353,5.46549364 7.88446811,5.7898735 C7.53171269,6.11454587 7.10305635,6.4184509 6.59849907,6.7018811 C6.70683344,6.85310237 6.82553313,7.01719354 6.95526687,7.19327711 C7.08500062,7.36994568 7.21974985,7.54485926 7.36051765,7.71801785 C7.50061672,7.89146895 7.63937833,8.05994758 7.77646811,8.22374625 C7.91322353,8.38754492 8.04295728,8.53262374 8.16566935,8.65839772 C8.26631331,8.76545185 8.31279009,8.85056866 8.30576842,8.91374815 C8.29874675,8.97663514 8.25862291,9.0427396 8.18706873,9.11206154 C8.10748978,9.20068832 8.03760743,9.2524604 7.97641858,9.26825527 C7.91489536,9.28405014 7.84100062,9.3013075 7.75473437,9.32031985 C7.65375604,9.35775954 7.53873437,9.36858196 7.40900062,9.35337208 C7.27926687,9.33757721 7.1314774,9.26328281 6.96630093,9.13107388 C6.85796656,9.0301622 6.73191084,8.90409573 6.58813375,8.75287445 C6.44402229,8.60165318 6.29623282,8.43785451 6.14476533,8.26147844 C5.9936322,8.08510237 5.8441709,7.90053637 5.69638142,7.70865793 C5.54859195,7.51648699 5.41384272,7.32577854 5.29113065,7.13682507 C5.21890774,7.50215461 5.15270341,7.85666173 5.09151455,8.19976144" id="Fill-4" fill="#FFFFFF"></path>
                </g>
            </g>
        </g>
    </g>
</svg>