<?xml version="1.0" encoding="UTF-8" standalone="no"?>
<svg width="10px" height="12px" viewBox="0 0 10 12" version="1.1" xmlns="http://www.w3.org/2000/svg" xmlns:xlink="http://www.w3.org/1999/xlink">
    <!-- Generator: sketchtool 40 (33762) - http://www.bohemiancoding.com/sketch -->
    <title>2063D141-0071-4326-A368-C57E47FCE911</title>
    <desc>Created with sketchtool.</desc>
    <defs></defs>
    <g id="Menu,-cadastro-e-perfil" stroke="none" stroke-width="1" fill="none" fill-rule="evenodd">
        <g id="TMJ-mobile-menu-Copy-7" transform="translate(-34.000000, -319.000000)" fill="#000000">
            <path d="M38,326.75 C38,326.1975 38.4475,325.75 39,325.75 C39.5525,325.75 40,326.1975 40,326.75 C40,327.1025 39.81725,327.4125 39.5425,327.59 C39.5425,327.59 39.64,328.18025 39.75,328.875 C39.75,329.0825 39.5825,329.25 39.375,329.25 L38.625,329.25 C38.4175,329.25 38.25,329.0825 38.25,328.875 L38.4575,327.59 C38.1825,327.4125 38,327.1025 38,326.75 L38,326.75 Z M37,324 L37,322.25 C37,321.145 37.895,320.25 39,320.25 C40.105,320.25 41,321.145 41,322.25 L41,324 L37,324 Z M35.75,322.25 L35.75,324 L35,324 C34.4475,324 34,324.4475 34,325 L34,330 C34,330.5525 34.4475,331 35,331 L43,331 C43.5525,331 44,330.5525 44,330 L44,325 C44,324.4475 43.5525,324 43,324 L42.25,324 L42.25,322.25 C42.25,320.455 40.795,319 39,319 C37.205,319 35.75,320.455 35.75,322.25 L35.75,322.25 Z" id="Page-1"></path>
        </g>
    </g>
</svg>