<?xml version="1.0" encoding="UTF-8" standalone="no"?>
<svg width="33px" height="33px" viewBox="0 0 33 33" version="1.1" xmlns="http://www.w3.org/2000/svg" xmlns:xlink="http://www.w3.org/1999/xlink">
    <!-- Generator: sketchtool 40 (33762) - http://www.bohemiancoding.com/sketch -->
    <title>31969EB3-1DE4-4B0C-ADCA-900F2C02D8FC</title>
    <desc>Created with sketchtool.</desc>
    <defs></defs>
    <g id="Menu,-cadastro-e-perfil" stroke="none" stroke-width="1" fill="none" fill-rule="evenodd">
        <g id="Home-TMJ-Copy-5" transform="translate(-419.000000, -342.000000)">
            <g id="Page-1" transform="translate(372.000000, 339.000000)">
                <g id="Group-2" transform="translate(47.416185, 3.000000)">
                    <path d="M31.7440433,16.1172522 C31.7440433,24.9564272 24.7069889,32.1217699 16.0260706,32.1217699 C7.34515226,32.1217699 0.308097918,24.9564272 0.308097918,16.1172522 C0.308097918,7.2780772 7.34515226,0.112734496 16.0260706,0.112734496 C24.7069889,0.112734496 31.7440433,7.2780772 31.7440433,16.1172522" id="Fill-21" fill=""></path>
                    <path d="M21.6137736,24.2777002 C20.7555551,24.6867065 20.0095716,24.9642464 19.3749794,25.1111794 C18.6855354,25.2701419 17.9665558,25.3491935 17.2205724,25.3491935 C16.3513835,25.3491935 15.5716452,25.2357716 14.8813573,25.0097871 C14.2011959,24.782084 13.6231431,24.4590034 13.1429796,24.0388268 C12.6754741,23.6315391 12.3472076,23.1890218 12.1581801,22.7129935 C11.9683088,22.2257949 11.873795,21.5392487 11.873795,20.6542142 L11.873795,13.7818781 L9.7522991,13.7818781 L9.7522991,11.0090563 C10.5100968,10.7487015 11.1556594,10.3912506 11.6906747,9.93670375 C12.2358164,9.46067547 12.6704109,8.89958076 12.9927702,8.25256037 C13.3159735,7.60639923 13.5387558,6.77377936 13.6619613,5.75212299 L16.401172,5.75212299 L16.401172,10.7031608 L20.9791813,10.7031608 L20.9791813,13.7818781 L16.401172,13.7818781 L16.401172,18.7999379 C16.401172,19.9229866 16.4627747,20.6542142 16.5851363,20.9953391 C16.6965274,21.3124049 16.9142466,21.5676042 17.236606,21.7600777 C17.6492597,22.0212918 18.1387059,22.1518988 18.7074761,22.1518988 C19.6644277,22.1518988 20.6331935,21.8339738 21.6137736,21.198983 L21.6137736,24.2777002 Z" id="Fill-23" fill="#FFFFFF"></path>
                </g>
            </g>
        </g>
    </g>
</svg>