<?xml version="1.0" encoding="UTF-8" standalone="no"?>
<svg width="32px" height="32px" viewBox="0 0 32 32" version="1.1" xmlns="http://www.w3.org/2000/svg" xmlns:xlink="http://www.w3.org/1999/xlink">
    <!-- Generator: sketchtool 40 (33762) - http://www.bohemiancoding.com/sketch -->
    <title>31C46CB5-5135-4CFB-A9F7-51E193FAF3C0</title>
    <desc>Created with sketchtool.</desc>
    <defs></defs>
    <g id="Menu,-cadastro-e-perfil" stroke="none" stroke-width="1" fill="none" fill-rule="evenodd">
        <g id="Home-TMJ-Copy-5" transform="translate(-513.000000, -340.000000)">
            <g id="Page-1" transform="translate(372.000000, 339.000000)">
                <g id="Group-5-Copy" transform="translate(141.583815, 1.000000)">
                    <path d="M31.4367892,16.0045177 C31.4367892,24.8436927 24.3997349,32.0090354 15.7188166,32.0090354 C7.03789821,32.0090354 0,24.8436927 0,16.0045177 C0,7.1653427 7.03789821,0 15.7188166,0 C24.3997349,0 31.4367892,7.1653427 31.4367892,16.0045177" id="Fill-35" fill="#000000"></path>
                    <g id="Group-3" transform="translate(7.000000, 8.000000)" fill="#FEFEFE">
                        <path d="M2.634975,1.83044549 L2.634975,13.0374899 L6.359725,13.0374899 L6.359725,15.161624 C6.417225,15.1067219 6.449475,15.0771399 6.480475,15.0463045 C7.108725,14.4180642 7.738225,13.7910774 8.362725,13.1590767 C8.451725,13.0688267 8.540725,13.032476 8.667225,13.0327267 C9.968975,13.0369885 11.270725,13.0379913 12.572225,13.0302198 C12.667975,13.0297184 12.786725,12.9800809 12.854725,12.9128948 C13.666225,12.1101712 14.468725,11.2984226 15.278225,10.4936934 C15.368975,10.4036941 15.401725,10.3136948 15.401725,10.1880969 C15.398475,7.46705937 15.399225,4.74602187 15.399225,2.02498437 L15.399225,1.83044549 L2.634975,1.83044549 Z M4.249975,17.7851413 L4.249975,15.6865781 L0.010725,15.6865781 C0.006475,15.5985844 0.000475,15.5303955 0.000225,15.4624573 C-2.49999996e-05,11.5137691 -0.000525,7.56483021 0.002225,3.61614201 C0.002475,3.50207604 0.022475,3.38324687 0.057975,3.27469618 C0.370475,2.32130521 0.690975,1.37092257 1.001725,0.417030208 C1.042725,0.291432292 1.094475,0.247811458 1.230475,0.248062153 C6.418225,0.252073264 11.605975,0.251321181 16.793725,0.251321181 L16.967725,0.251321181 L16.967725,0.471681597 C16.967725,3.87485868 16.966975,7.27803576 16.970725,10.6812128 C16.970975,10.8233566 16.928975,10.9211274 16.829225,11.0209038 C15.324225,12.5240677 13.821975,14.0304906 12.322975,15.5396712 C12.223475,15.639949 12.125975,15.6818149 11.984225,15.6808122 C11.071225,15.6742941 10.157975,15.6818149 9.244725,15.6737927 C9.069725,15.6720378 8.944725,15.7179149 8.820225,15.8455184 C8.217975,16.4629788 7.606725,17.0716649 6.993725,17.6785962 C6.935475,17.7362559 6.843975,17.7934142 6.767225,17.7941663 C5.951225,17.8021885 5.135225,17.7986788 4.319225,17.7979267 C4.300975,17.7979267 4.282975,17.7914087 4.249975,17.7851413 L4.249975,17.7851413 Z" id="Fill-1"></path>
                        <polygon id="Fill-4" points="6.90325 9.79563472 8.47725 9.79563472 8.47725 5.05876319 6.90325 5.05876319"></polygon>
                        <polygon id="Fill-6" points="11.166 9.80190208 12.712 9.80190208 12.712 5.0585125 11.166 5.0585125"></polygon>
                    </g>
                </g>
            </g>
        </g>
    </g>
</svg>