<?xml version="1.0" encoding="UTF-8" standalone="no"?>
<svg width="12px" height="12px" viewBox="0 0 12 12" version="1.1" xmlns="http://www.w3.org/2000/svg" xmlns:xlink="http://www.w3.org/1999/xlink">
    <!-- Generator: sketchtool 40 (33762) - http://www.bohemiancoding.com/sketch -->
    <title>E21F472B-3A87-45C6-AE6F-C4402683BC4B</title>
    <desc>Created with sketchtool.</desc>
    <defs></defs>
    <g id="Styleguide" stroke="none" stroke-width="1" fill="none" fill-rule="evenodd" opacity="0.38">
        <g id="Desktop-HD" transform="translate(-1220.000000, -371.000000)">
            <g id="twitch_tv" transform="translate(1220.000000, 371.000000)">
                <g id="Group-5-Copy">
                    <path d="M11.6121798,5.95039761 C11.6121798,9.23675755 9.01281958,11.9007952 5.80624577,11.9007952 C2.59967197,11.9007952 0,9.23675755 0,5.95039761 C0,2.66403767 2.59967197,0 5.80624577,0 C9.01281958,0 11.6121798,2.66403767 11.6121798,5.95039761" id="Fill-35" fill="#000000"></path>
                    <g id="Group-3" transform="translate(2.585673, 2.974359)" fill="#FEFEFE">
                        <path d="M0.97331198,0.680550245 L0.97331198,4.8472719 L2.34916708,4.8472719 L2.34916708,5.63701404 C2.37040654,5.61660172 2.3823191,5.60560331 2.39376994,5.59413886 C2.6258341,5.36056234 2.85835998,5.12745187 3.08903896,4.89247725 C3.12191394,4.85892276 3.15478893,4.84540776 3.20151574,4.84550097 C3.68235858,4.84708548 4.16320142,4.84745831 4.64395192,4.8445689 C4.67932023,4.84438248 4.72318433,4.82592752 4.7483023,4.80094806 C5.04805568,4.50249954 5.34448463,4.20069557 5.64349925,3.90150139 C5.67702065,3.86804011 5.68911791,3.83457883 5.68911791,3.78788217 C5.68791742,2.77621438 5.68819445,1.76454659 5.68819445,0.752878806 L5.68819445,0.680550245 L0.97331198,0.680550245 Z M1.56986369,6.61242434 L1.56986369,5.8321893 L0.0039616205,5.8321893 C0.00239174758,5.79947368 0.000175456386,5.7741214 8.31109195e-05,5.74886233 C-9.23454674e-06,4.28076031 -0.000193925479,2.81256508 0.00082187465,1.34446306 C0.000914220116,1.30205391 0.00830185742,1.25787384 0.0214149136,1.21751525 C0.136846746,0.863049372 0.255233634,0.509701981 0.370019049,0.155049693 C0.385163705,0.108353032 0.404279217,0.0921350294 0.45451515,0.0922282363 C2.37077592,0.0937195468 4.28703669,0.0934399261 6.20329746,0.0934399261 L6.26756991,0.0934399261 L6.26756991,0.175368799 C6.26756991,1.44065259 6.26729287,2.70593637 6.26867805,3.97122016 C6.2687704,4.02406848 6.25325636,4.06041917 6.21641052,4.09751552 C5.66049081,4.65638415 5.1055869,5.21646446 4.55188349,5.77757005 C4.51512999,5.81485282 4.47911526,5.83041837 4.42675538,5.83004554 C4.08950974,5.82762216 3.75217175,5.83041837 3.41483376,5.82743575 C3.35019194,5.8267833 3.3040192,5.84384017 3.25803116,5.89128248 C3.03557093,6.1208511 2.80978627,6.34715747 2.58335518,6.5728114 C2.56183869,6.59424899 2.52804025,6.61550016 2.49969019,6.61577979 C2.19827459,6.61876241 1.89685899,6.61745751 1.59544339,6.61717789 C1.58870217,6.61717789 1.58205329,6.61475451 1.56986369,6.61242434 L1.56986369,6.61242434 Z" id="Fill-1"></path>
                        <polygon id="Fill-4" points="2.54993536 3.64196676 3.13134242 3.64196676 3.13134242 1.88082221 2.54993536 1.88082221"></polygon>
                        <polygon id="Fill-6" points="4.12451791 3.64429693 4.69558227 3.64429693 4.69558227 1.88072901 4.12451791 1.88072901"></polygon>
                    </g>
                </g>
            </g>
        </g>
    </g>
</svg>