<?xml version="1.0" encoding="UTF-8" standalone="no"?>
<svg width="33px" height="33px" viewBox="0 0 33 33" version="1.1" xmlns="http://www.w3.org/2000/svg" xmlns:xlink="http://www.w3.org/1999/xlink">
    <!-- Generator: sketchtool 40 (33762) - http://www.bohemiancoding.com/sketch -->
    <title>A6996F2E-1765-47D7-83CD-1C1F273691F5</title>
    <desc>Created with sketchtool.</desc>
    <defs></defs>
    <g id="Menu,-cadastro-e-perfil" stroke="none" stroke-width="1" fill="none" fill-rule="evenodd">
        <g id="Home-TMJ-Copy-5" transform="translate(-466.000000, -342.000000)">
            <g id="Page-1" transform="translate(372.000000, 339.000000)">
                <g id="Group-3" transform="translate(94.000000, 3.000000)">
                    <path d="M32.1577097,16.1172522 C32.1577097,24.9564272 25.1206553,32.1217699 16.439737,32.1217699 C7.75881865,32.1217699 0.720920437,24.9564272 0.720920437,16.1172522 C0.720920437,7.2780772 7.75881865,0.112734496 16.439737,0.112734496 C25.1206553,0.112734496 32.1577097,7.2780772 32.1577097,16.1172522" id="Fill-25" fill="#000000"></path>
                    <path d="M24.7636128,12.312463 C24.7695199,12.480018 24.7728954,12.6510102 24.7728954,12.8228615 C24.7728954,18.0119135 20.8936126,23.9957781 13.7966433,23.9957781 C11.6177641,23.9957781 9.589938,23.3487577 7.88278355,22.2308645 C8.18573384,22.2678126 8.49205963,22.2875755 8.80260478,22.2875755 C10.6118678,22.2875755 12.2734531,21.660318 13.5949578,20.6060099 C11.9072124,20.5724989 10.4835992,19.4382798 9.99246527,17.8770102 C10.226218,17.9242693 10.4667217,17.9474692 10.7173519,17.9474692 C11.0667152,17.9474692 11.4093275,17.9010694 11.7325307,17.8099882 C9.96883683,17.4508188 8.63720573,15.8637714 8.63720573,13.9605176 C8.63720573,13.9433324 8.63720573,13.9270065 8.64058122,13.9098214 C9.15787518,14.2054058 9.75533704,14.3798349 10.3882416,14.3995978 C9.35280977,13.6984442 8.67011677,12.4937662 8.67011677,11.1309848 C8.67011677,10.4126461 8.86167587,9.7381295 9.19163009,9.15727188 C11.0928753,11.5339763 13.938414,13.0978237 17.1417547,13.2619418 C17.0759326,12.9732315 17.0430216,12.6750693 17.0430216,12.3657369 C17.0430216,10.1978319 18.770429,8.43893317 20.9003636,8.43893317 C22.0109001,8.43893317 23.012577,8.91582071 23.714679,9.67712226 C24.5948383,9.50269313 25.4226774,9.17703479 26.1678169,8.72420644 C25.8775247,9.64361125 25.2674048,10.4126461 24.4699451,10.8989855 C25.2513712,10.8053265 25.9965108,10.5939493 26.6851109,10.2820391 C26.1711924,11.0673998 25.5146595,11.7582423 24.7636128,12.312463" id="Fill-27" fill="#FFFFFF"></path>
                </g>
            </g>
        </g>
    </g>
</svg>