<?xml version="1.0" encoding="UTF-8" standalone="no"?>
<svg width="32px" height="33px" viewBox="0 0 32 33" version="1.1" xmlns="http://www.w3.org/2000/svg" xmlns:xlink="http://www.w3.org/1999/xlink">
    <!-- Generator: sketchtool 40 (33762) - http://www.bohemiancoding.com/sketch -->
    <title>BD404358-6F1C-41E4-A6F5-A79B3873BBE5</title>
    <desc>Created with sketchtool.</desc>
    <defs></defs>
    <g id="Styleguide" stroke="none" stroke-width="1" fill="none" fill-rule="evenodd">
        <g transform="translate(-1164.000000, -469.000000)" id="vimeo_perfil">
            <g transform="translate(1164.000000, 469.000000)">
                <path d="M31.4509663,16.2298148 C31.4509663,25.0689898 24.4139119,32.2343325 15.7329936,32.2343325 C7.05207527,32.2343325 0.0150209338,25.0689898 0.0150209338,16.2298148 C0.0150209338,7.39063984 7.05207527,0.225297141 15.7329936,0.225297141 C24.4139119,0.225297141 31.4509663,7.39063984 31.4509663,16.2298148" id="Fill-17" fill="#000000"></path>
                <path d="M25.0832718,11.9036286 C24.9271553,12.7302336 24.4689324,14.0131041 23.7069154,15.7505214 C22.9448984,17.488798 21.986259,19.1437266 20.8293095,20.7187444 C19.5061172,22.530917 18.115415,23.8722169 16.6597346,24.7443626 C16.2816796,24.9815175 15.8588994,25.1593837 15.3913939,25.2788204 C14.9247324,25.3982571 14.4521636,25.3888052 13.9736878,25.2539019 C13.2952142,24.9591768 12.7239124,24.2511492 12.255563,23.129819 C12.0226542,22.5523984 11.705358,21.4370831 11.3053624,19.7847322 C10.9053667,18.1873738 10.6100113,17.1287693 10.4209838,16.6080597 C10.3661321,16.4611268 10.2960907,16.2317052 10.2133911,15.9206542 C10.1290039,15.608744 10.0463043,15.3372189 9.96191708,15.1052195 C9.87921755,14.8732202 9.77626508,14.6549689 9.65474742,14.4513251 C9.46571994,14.123089 9.23449882,13.9529561 8.96192794,13.9417858 C8.69020094,13.9306154 8.3669977,13.9890449 7.99484984,14.1196519 C7.62185811,14.250259 7.31890782,14.2975181 7.08515508,14.2640071 C6.95266707,14.2416664 6.83199328,14.1282445 6.72735306,13.9246006 C6.62186898,13.7209568 6.47925449,13.5740238 6.30119736,13.4820834 L6.30119736,13.3643652 C6.74676214,13.0464401 7.42692352,12.4698788 8.34505701,11.6312441 C9.26234662,10.7934687 10.0209882,10.1937075 10.6218255,9.83110109 C11.3998761,9.3671024 12.1061976,9.22532502 12.7407898,9.40662821 C13.0403646,9.49770944 13.3213742,9.72369398 13.5821309,10.0854411 C13.8428876,10.4480475 14.0411976,10.8390093 14.1736857,11.2574674 C14.2968911,11.6544441 14.4859186,12.5824415 14.741612,14.0431781 C14.774523,14.2691626 14.8226238,14.6747318 14.8833826,15.257308 C14.9449853,15.8398841 14.999837,16.3159124 15.0496255,16.6836743 C15.099414,17.0522955 15.205742,17.465598 15.3669216,17.9235819 C15.5281013,18.3824251 15.7365379,18.7484685 15.9922313,19.0191344 C16.4698632,19.539844 16.9542462,19.6197549 17.4436923,19.2571485 C17.7550813,19.0199936 18.1500138,18.4588989 18.6276457,17.5764421 C19.1500029,16.5461932 19.4394512,15.735914 19.4951468,15.1481823 C19.5727831,14.2863477 19.4251054,13.7269716 19.0529575,13.4657575 C18.6808097,13.2054027 18.0495929,13.1151807 17.1601511,13.1942323 C17.3382082,12.6400117 17.5863068,12.1218798 17.9019152,11.6398367 C18.2192113,11.1595121 18.5491655,10.7625355 18.8943095,10.4514845 C19.2402973,10.1395743 19.5980993,9.86547136 19.971091,9.62745722 C20.3432389,9.38944308 20.6630666,9.21759171 20.9297304,9.10932535 C21.1963942,9.00191825 21.4250837,8.93145919 21.6132673,8.89708891 C23.1153607,8.67110437 24.1541679,8.92544439 24.7330646,9.66096824 C25.1440306,10.1937075 25.2613289,10.9404017 25.0832718,11.9036286" id="Fill-19" fill="#FFFFFF"></path>
            </g>
        </g>
    </g>
</svg>