<?xml version="1.0" encoding="UTF-8" standalone="no"?>
<svg width="32px" height="33px" viewBox="0 0 32 33" version="1.1" xmlns="http://www.w3.org/2000/svg" xmlns:xlink="http://www.w3.org/1999/xlink">
    <!-- Generator: sketchtool 40 (33762) - http://www.bohemiancoding.com/sketch -->
    <title>CBA67C95-F471-4F82-92A0-4CB29AFEAE06</title>
    <desc>Created with sketchtool.</desc>
    <defs></defs>
    <g id="Menu,-cadastro-e-perfil" stroke="none" stroke-width="1" fill="none" fill-rule="evenodd">
        <g id="Home-TMJ-Copy-5" transform="translate(-560.000000, -339.000000)">
            <g id="Page-1" transform="translate(372.000000, 339.000000)">
                <g id="Group-5" transform="translate(188.167630, 0.000000)">
                    <path d="M31.6382216,16.8929033 C31.6382216,25.7320783 24.6011673,32.897421 15.920249,32.897421 C7.23933062,32.897421 0.201432411,25.7320783 0.201432411,16.8929033 C0.201432411,8.05372834 7.23933062,0.888385636 15.920249,0.888385636 C24.6011673,0.888385636 31.6382216,8.05372834 31.6382216,16.8929033" id="Fill-35" fill="#000000"></path>
                    <path d="M25.0144961,11.038271 C24.3022676,10.1764364 22.9875139,9.82500036 20.4769927,9.82500036 L11.3623238,9.82500036 C8.79441921,9.82500036 7.45772488,10.1987771 6.74802795,11.1164634 C6.05605234,12.011809 6.05605234,13.329909 6.05605234,15.1541112 L6.05605234,18.6315236 C6.05605234,22.1665062 6.87714047,23.9606345 11.3623238,23.9606345 L20.4769927,23.9606345 C22.6541842,23.9606345 23.8609222,23.651302 24.6415044,22.8900005 C25.4423396,22.1097953 25.7832642,20.8363766 25.7832642,18.6315236 L25.7832642,15.1541112 C25.7832642,13.2302352 25.7301002,11.9044019 25.0144961,11.038271" id="Fill-37" fill="#FFFFFF"></path>
                    <path d="M18.2842739,17.4602706 L14.1450784,19.6625459 C14.0530963,19.7115235 13.9518315,19.736442 13.8505668,19.736442 C13.736644,19.736442 13.6218773,19.7046495 13.5206126,19.642783 C13.3307412,19.5250648 13.2142868,19.3145469 13.2142868,19.0885623 L13.2142868,14.6977599 C13.2142868,14.4709161 13.3298974,14.2612574 13.5206126,14.1435393 C13.7104839,14.0258211 13.9467683,14.0180878 14.1442345,14.1229171 L18.2825862,16.310585 C18.4927105,16.4222884 18.6251985,16.6431174 18.6260423,16.8854278 C18.6260423,17.126879 18.4943982,17.3485672 18.2842739,17.4602706" id="Fill-39" fill="#000000"></path>
                </g>
            </g>
        </g>
    </g>
</svg>