<?xml version="1.0" encoding="UTF-8" standalone="no"?>
<svg width="34px" height="35px" viewBox="0 0 34 35" version="1.1" xmlns="http://www.w3.org/2000/svg" xmlns:xlink="http://www.w3.org/1999/xlink">
    <!-- Generator: sketchtool 40 (33762) - http://www.bohemiancoding.com/sketch -->
    <title>84055972-DAD3-4CEE-899F-C7AD7C4B7CBC</title>
    <desc>Created with sketchtool.</desc>
    <defs>
        <polygon id="path-1" points="33.5624227 0.681067504 0.541949884 0.681067504 0.541949884 34.5994129 33.5624227 34.5994129 33.5624227 0.681067504"></polygon>
    </defs>
    <g id="Welcome" stroke="none" stroke-width="1" fill="none" fill-rule="evenodd">
        <g id="Remix-tela-10" transform="translate(-116.000000, -486.000000)">
            <g id="instagram_remix" transform="translate(115.000000, 485.000000)">
                <g id="Group-5" transform="translate(0.658283, 0.927803)">
                    <g id="Group-8" transform="translate(0.041550, 0.229906)">
                        <mask id="mask-2" fill="white">
                            <use xlink:href="#path-1"></use>
                        </mask>
                        <g id="Clip-7"></g>
                        <path d="M33.5624227,17.6401036 C33.5624227,27.0066028 26.170666,34.5994129 17.0521863,34.5994129 C7.93370665,34.5994129 0.541949884,27.0066028 0.541949884,17.6401036 C0.541949884,8.2736044 7.93370665,0.680794349 17.0521863,0.680794349 C26.170666,0.680794349 33.5624227,8.2736044 33.5624227,17.6401036" id="Fill-6" fill="#000000" mask="url(#mask-2)"></path>
                    </g>
                    <path d="M11.6703376,9.78870644 C10.322111,9.78870644 9.22651063,10.9150173 9.22651063,12.2990047 L9.22651063,23.4410141 C9.22651063,24.8250016 10.322111,25.9513124 11.6703376,25.9513124 L22.5164266,25.9513124 C23.8646532,25.9513124 24.96114,24.8250016 24.96114,23.4410141 L24.96114,12.2990047 C24.96114,10.9150173 23.8646532,9.78870644 22.5164266,9.78870644 L11.6703376,9.78870644 Z M22.5164266,28.500763 L11.6703376,28.500763 C8.95438336,28.500763 6.74456808,26.2308414 6.74456808,23.4410141 L6.74456808,12.2990047 C6.74456808,9.50917739 8.95438336,7.23925589 11.6703376,7.23925589 L22.5164266,7.23925589 C25.2332673,7.23925589 27.4421961,9.50917739 27.4421961,12.2990047 L27.4421961,23.4410141 C27.4421961,26.2308414 25.2332673,28.500763 22.5164266,28.500763 L22.5164266,28.500763 Z" id="Fill-9" fill="#FFFFFF"></path>
                    <path d="M17.0935594,14.767237 C15.4279987,14.767237 14.0726807,16.1594192 14.0726807,17.8702826 C14.0726807,19.581146 15.4279987,20.9724176 17.0935594,20.9724176 C18.7591201,20.9724176 20.114438,19.581146 20.114438,17.8702826 C20.114438,16.1594192 18.7591201,14.767237 17.0935594,14.767237 M17.0935594,23.7039717 C13.9618797,23.7039717 11.4134566,21.0871429 11.4134566,17.8702826 C11.4134566,14.6534223 13.9618797,12.0356829 17.0935594,12.0356829 C20.2252391,12.0356829 22.7736622,14.6534223 22.7736622,17.8702826 C22.7736622,21.0871429 20.2252391,23.7039717 17.0935594,23.7039717" id="Fill-11" fill="#FFFFFF"></path>
                    <path d="M21.7889515,12.090405 C21.7889515,11.5040314 22.2516565,11.028741 22.8225033,11.028741 C23.3942365,11.028741 23.8569415,11.5040314 23.8569415,12.090405 C23.8569415,12.6767786 23.3942365,13.1520691 22.8225033,13.1520691 C22.2516565,13.1520691 21.7889515,12.6767786 21.7889515,12.090405" id="Fill-13" fill="#FFFFFF"></path>
                </g>
            </g>
        </g>
    </g>
</svg>