<?xml version="1.0" encoding="UTF-8" standalone="no"?>
<svg width="34px" height="35px" viewBox="0 0 34 35" version="1.1" xmlns="http://www.w3.org/2000/svg" xmlns:xlink="http://www.w3.org/1999/xlink">
    <!-- Generator: sketchtool 40 (33762) - http://www.bohemiancoding.com/sketch -->
    <title>6DD28B03-D19E-4E23-9BD0-105E33FAFB24</title>
    <desc>Created with sketchtool.</desc>
    <defs>
        <polygon id="path-1" points="33.020916 0.681067504 0.000443204028 0.681067504 0.000443204028 34.5994129 33.020916 34.5994129 33.020916 0.681067504"></polygon>
    </defs>
    <g id="Welcome" stroke="none" stroke-width="1" fill="none" fill-rule="evenodd">
        <g id="Remix-tela-10" transform="translate(-68.000000, -486.000000)">
            <g id="facebook_remix" transform="translate(68.000000, 485.000000)">
                <g id="Group-4" transform="translate(0.000000, 0.927803)">
                    <g id="Group-3" transform="translate(0.000000, 0.229906)">
                        <mask id="mask-2" fill="white">
                            <use xlink:href="#path-1"></use>
                        </mask>
                        <g id="Clip-2"></g>
                        <path d="M33.020916,17.6401036 C33.020916,27.0066028 25.6291593,34.5994129 16.5106796,34.5994129 C7.39219997,34.5994129 0.000443204028,27.0066028 0.000443204028,17.6401036 C0.000443204028,8.2736044 7.39219997,0.680794349 16.5106796,0.680794349 C25.6291593,0.680794349 33.020916,8.2736044 33.020916,17.6401036" id="Fill-1" fill="#000000" mask="url(#mask-2)"></path>
                    </g>
                    <path d="M18.8466308,10.6283862 L21.5767676,10.6283862 L21.5767676,6.48643956 L18.367084,6.48643956 L18.367084,6.50100785 C14.4792983,6.64213815 13.6824174,8.88747567 13.6123912,11.2457174 L13.6044135,11.2457174 L13.6044135,13.3144144 L10.9567127,13.3144144 L10.9567127,17.3707724 L13.6044135,17.3707724 L13.6044135,28.244179 L17.5941362,28.244179 L17.5941362,17.3707724 L20.8632091,17.3707724 L21.4943316,13.3144144 L17.595909,13.3144144 L17.595909,12.0642732 C17.595909,11.2675699 18.1117985,10.6283862 18.8466308,10.6283862" id="Fill-4" fill="#FFFFFF"></path>
                </g>
            </g>
        </g>
    </g>
</svg>