<?xml version="1.0" encoding="UTF-8" standalone="no"?>
<svg width="24px" height="26px" viewBox="0 0 24 26" version="1.1" xmlns="http://www.w3.org/2000/svg" xmlns:xlink="http://www.w3.org/1999/xlink">
    <!-- Generator: sketchtool 40 (33762) - http://www.bohemiancoding.com/sketch -->
    <title>757354DC-43C4-40AD-98C3-21F91102CC3C</title>
    <desc>Created with sketchtool.</desc>
    <defs>
        <polygon id="path-1" points="21.1086616 23.4482087 21.1086616 0.399472567 0.0985453251 0.399472567 0.0985453251 23.4482087"></polygon>
    </defs>
    <g id="Welcome" stroke="none" stroke-width="1" fill="none" fill-rule="evenodd">
        <g id="Remix-tela-11" transform="translate(-260.000000, -511.000000)">
            <g id="share" transform="translate(261.000000, 512.000000)">
                <g id="Group-3" transform="translate(1.764594, 1.099074)">
                    <mask id="mask-2" fill="white">
                        <use xlink:href="#path-1"></use>
                    </mask>
                    <g id="Clip-2"></g>
                    <path d="M20.7508709,9.14994783 L14.1485453,15.8166 C13.911336,16.0560783 13.6299407,16.1758174 13.3031965,16.1769913 C13.1543593,16.1769913 13.0031965,16.1441217 12.8543593,16.0819043 C12.3543593,15.8670783 12.1031965,15.4949478 12.1031965,14.9631652 L12.1031965,11.9344696 C10.3520337,11.9344696 8.9520337,12.0812087 7.9020337,12.3793826 C6.85087091,12.6752087 6.03808021,13.1518174 5.46249881,13.8080348 C4.13808021,15.3106435 3.74970812,18.2970783 4.29970812,22.7673391 C4.33691742,23.0702087 4.21831277,23.2779913 3.94273137,23.390687 C3.86714998,23.4294261 3.78691742,23.4482087 3.69854533,23.4482087 C3.51133602,23.4482087 3.35552207,23.3730783 3.22994067,23.2204696 C1.14156858,20.4054261 0.0985453251,17.854513 0.0985453251,15.5700783 C0.0985453251,14.8117304 0.129940674,14.1144261 0.191568581,13.4769913 C0.254359279,12.8395565 0.388080209,12.1352087 0.595056953,11.3651217 C0.800870907,10.5950348 1.07994067,9.90712174 1.42877788,9.30138261 C1.77994067,8.69446957 2.25784765,8.09225217 2.86482439,7.49238261 C3.47063835,6.89251304 4.18342905,6.39477391 5.00319649,5.99564348 C5.82180114,5.59886087 6.83808021,5.27603478 8.05087091,5.02951304 C9.2636616,4.78416522 10.6148244,4.66090435 12.1031965,4.66090435 L12.1031965,1.62986087 C12.1031965,1.10042609 12.3543593,0.728295652 12.8543593,0.513469565 C13.3415686,0.298643478 13.7729639,0.38786087 14.1485453,0.7776 L20.7508709,7.44542609 C20.989243,7.68490435 21.1090104,7.97016522 21.1090104,8.29768696 C21.1090104,8.6252087 20.989243,8.90929565 20.7508709,9.14994783" id="Fill-1" fill="#000000" mask="url(#mask-2)"></path>
                </g>
                <g id="Group-4">
                    <path d="M20.9584884,9.06043478 L14.3561628,15.727087 C14.1189535,15.9665652 13.8375581,16.0863043 13.510814,16.0874783 C13.3619767,16.0874783 13.210814,16.0546087 13.0619767,15.9923913 C12.5619767,15.7775652 12.310814,15.4054348 12.310814,14.8736522 L12.310814,11.8449565 C10.5596512,11.8449565 9.15965116,11.9916957 8.10965116,12.2898696 C7.05848837,12.5856957 6.24569767,13.0623043 5.67011628,13.7185217 C4.34569767,15.2211304 3.95732558,18.2075652 4.50732558,22.6778261 C4.54453488,22.9806957 4.42593023,23.1884783 4.15034884,23.3011739 C4.07476744,23.339913 3.99453488,23.3586957 3.90616279,23.3586957 C3.71895349,23.3586957 3.56313953,23.2835652 3.43755814,23.1309565 C1.34918605,20.315913 0.306162791,17.765 0.306162791,15.4805652 C0.306162791,14.7222174 0.33755814,14.024913 0.399186047,13.3874783 C0.461976744,12.7500435 0.595697674,12.0456957 0.802674419,11.2756087 C1.00848837,10.5055217 1.28755814,9.8176087 1.63639535,9.21186957 C1.98755814,8.60495652 2.46546512,8.00273913 3.07244186,7.40286957 C3.67825581,6.803 4.39104651,6.30526087 5.21081395,5.90613043 C6.0294186,5.50934783 7.04569767,5.18652174 8.25848837,4.94 C9.47127907,4.69465217 10.8224419,4.5713913 12.310814,4.5713913 L12.310814,1.54034783 C12.310814,1.01091304 12.5619767,0.638782609 13.0619767,0.423956522 C13.549186,0.209130435 13.9805814,0.298347826 14.3561628,0.688086957 L20.9584884,7.35591304 C21.1968605,7.5953913 21.3166279,7.88065217 21.3166279,8.20817391 C21.3166279,8.53569565 21.1968605,8.81978261 20.9584884,9.06043478" id="Fill-7" fill="#FFFFFF"></path>
                    <path d="M20.9584884,9.06043478 L14.3561628,15.727087 C14.1189535,15.9665652 13.8375581,16.0863043 13.510814,16.0874783 C13.3619767,16.0874783 13.210814,16.0546087 13.0619767,15.9923913 C12.5619767,15.7775652 12.310814,15.4054348 12.310814,14.8736522 L12.310814,11.8449565 C10.5596512,11.8449565 9.15965116,11.9916957 8.10965116,12.2898696 C7.05848837,12.5856957 6.24569767,13.0623043 5.67011628,13.7185217 C4.34569767,15.2211304 3.95732558,18.2075652 4.50732558,22.6778261 C4.54453488,22.9806957 4.42593023,23.1884783 4.15034884,23.3011739 C4.07476744,23.339913 3.99453488,23.3586957 3.90616279,23.3586957 C3.71895349,23.3586957 3.56313953,23.2835652 3.43755814,23.1309565 C1.34918605,20.315913 0.306162791,17.765 0.306162791,15.4805652 C0.306162791,14.7222174 0.33755814,14.024913 0.399186047,13.3874783 C0.461976744,12.7500435 0.595697674,12.0456957 0.802674419,11.2756087 C1.00848837,10.5055217 1.28755814,9.8176087 1.63639535,9.21186957 C1.98755814,8.60495652 2.46546512,8.00273913 3.07244186,7.40286957 C3.67825581,6.803 4.39104651,6.30526087 5.21081395,5.90613043 C6.0294186,5.50934783 7.04569767,5.18652174 8.25848837,4.94 C9.47127907,4.69465217 10.8224419,4.5713913 12.310814,4.5713913 L12.310814,1.54034783 C12.310814,1.01091304 12.5619767,0.638782609 13.0619767,0.423956522 C13.549186,0.209130435 13.9805814,0.298347826 14.3561628,0.688086957 L20.9584884,7.35591304 C21.1968605,7.5953913 21.3166279,7.88065217 21.3166279,8.20817391 C21.3166279,8.53569565 21.1968605,8.81978261 20.9584884,9.06043478 L20.9584884,9.06043478 Z" id="Stroke-9" stroke="#000000" stroke-width="0.929"></path>
                </g>
            </g>
        </g>
    </g>
</svg>