<?xml version="1.0" encoding="UTF-8" standalone="no"?>
<svg width="32px" height="32px" viewBox="0 0 32 32" version="1.1" xmlns="http://www.w3.org/2000/svg" xmlns:xlink="http://www.w3.org/1999/xlink">
    <g id="Remix" stroke="none" stroke-width="1" fill="none" fill-rule="evenodd">
        <g id="Page-1-Copy-4">
            <g id="balao">
                <path d="M15.7544,0.5 C7.3294,0.5 0.4994,7.33 0.5004,15.755 C0.5004,24.18 7.3294,31.009 15.7544,31.009 C18.0304,31.009 20.1894,30.51 22.1294,29.616 C23.7154,30.603 25.5874,31.174 27.5934,31.174 C28.7654,31.174 29.8914,30.976 30.9424,30.617 C29.2884,29.389 28.0124,27.681 27.3224,25.698 C29.6194,23.027 31.0084,19.553 31.0084,15.755 C31.0084,7.33 24.1794,0.5 15.7544,0.5" id="Fill-9" fill="#FFFFFF"></path>
                <path d="M15.7544,0.5 C7.3294,0.5 0.4994,7.33 0.5004,15.755 C0.5004,24.18 7.3294,31.009 15.7544,31.009 C18.0304,31.009 20.1894,30.51 22.1294,29.616 C23.7154,30.603 25.5874,31.174 27.5934,31.174 C28.7654,31.174 29.8914,30.976 30.9424,30.617 C29.2884,29.389 28.0124,27.681 27.3224,25.698 C29.6194,23.027 31.0084,19.553 31.0084,15.755 C31.0084,7.33 24.1794,0.5 15.7544,0.5 L15.7544,0.5 Z" id="Stroke-11" stroke="#000000"></path>
            </g>
        </g>
    </g>
</svg>
