<?xml version="1.0" encoding="UTF-8" standalone="no"?>
<svg width="18px" height="26px" viewBox="0 0 18 26" version="1.1" xmlns="http://www.w3.org/2000/svg" xmlns:xlink="http://www.w3.org/1999/xlink">
    <defs>
        <polygon id="path-1" points="0.930813953 25.826087 17.9526059 25.826087 17.9526059 0.662321739 0.930813953 0.662321739 0.930813953 25.826087"></polygon>
    </defs>
    <g id="Styleguide" stroke="none" stroke-width="1" fill="none" fill-rule="evenodd">
        <g id="baixar" transform="translate(-1.000000, -34.000000)">
            <g id="Group-6" transform="translate(0.162791, 33.925161)">
                <mask id="mask-2" fill="white">
                    <use xlink:href="#path-1"></use>
                </mask>
                <g id="Clip-5"></g>
                <path d="M12.6005814,15.9231913 L16.625,15.9231913 C17.197093,15.9231913 17.5982558,16.1990609 17.8296512,16.7496261 C18.0610465,17.2861043 17.9656977,17.7591913 17.5447674,18.1724087 L10.3517442,25.4330609 C10.0936047,25.6948435 9.78546512,25.8263217 9.43197674,25.8263217 C9.07848837,25.8263217 8.77151163,25.6948435 8.5122093,25.4330609 L1.32034884,18.1724087 C1.0622093,17.9118 0.931976744,17.601887 0.930813953,17.2438435 C0.930813953,17.0794957 0.966860465,16.9139739 1.03430233,16.7496261 C1.26569767,16.1990609 1.66686047,15.9231913 2.24011628,15.9231913 L6.26337209,15.9231913 L6.26337209,10.5678 L6.26337209,4.92714783 C6.26337209,2.58166957 7.32965116,0.662321739 9.55406977,0.662321739 L9.55523256,0.662321739 C11.7796512,0.662321739 12.5633721,2.58166957 12.5633721,4.92714783 L12.5633721,10.8859304 L12.6005814,15.9231913 Z" id="Fill-4" fill="#000000" mask="url(#mask-2)"></path>
            </g>
        </g>
    </g>
</svg>
