<?xml version="1.0" encoding="UTF-8" standalone="no"?>
<svg width="32px" height="33px" viewBox="0 0 32 33" version="1.1" xmlns="http://www.w3.org/2000/svg" xmlns:xlink="http://www.w3.org/1999/xlink">
    <g id="Remix" stroke="none" stroke-width="1" fill="none" fill-rule="evenodd">
        <g id="Page-1-Copy-5" transform="translate(-1.000000, -38.000000)">
            <g id="sticker-sombra" transform="translate(1.000000, 39.000000)">
                <path d="M0.6226,15.7922 C0.6226,7.3282 7.4836,0.4672 15.9476,0.4672 C24.4116,0.4672 31.2726,7.3282 31.2726,15.7922 C31.2726,24.2552 24.4116,31.1172 15.9476,31.1172 C7.4836,31.1172 0.6226,24.2552 0.6226,15.7922" id="Fill-1" fill="#000000"></path>
                <path d="M0.6226,15.7922 C0.6226,7.3282 7.4836,0.4672 15.9476,0.4672 C24.4116,0.4672 31.2726,7.3282 31.2726,15.7922 C31.2726,24.2552 24.4116,31.1172 15.9476,31.1172 C7.4836,31.1172 0.6226,24.2552 0.6226,15.7922 L0.6226,15.7922 Z" id="Stroke-3" stroke="#000000" stroke-width="1.109" stroke-linecap="round" stroke-linejoin="round"></path>
            </g>
        </g>
    </g>
</svg>
