<?xml version="1.0" encoding="UTF-8" standalone="no"?>
<svg width="18px" height="31px" viewBox="0 0 18 31" version="1.1" xmlns="http://www.w3.org/2000/svg" xmlns:xlink="http://www.w3.org/1999/xlink">
    <!-- Generator: Sketch 40 (33762) - http://www.bohemiancoding.com/sketch -->
    <title>texto sombra</title>
    <desc>Created with Sketch.</desc>
    <defs></defs>
    <g id="Remix" stroke="none" stroke-width="1" fill="none" fill-rule="evenodd">
        <g id="Page-1-Copy-6" transform="translate(-1.000000, -39.000000)">
            <g id="texto-sombra" transform="translate(1.000000, 40.000000)">
                <path d="M13.9482421,5.6406697 C13.2718211,5.72709394 12.5792947,5.81915455 11.8668737,5.91403333 C11.5712947,7.64533636 11.2643474,9.46494242 10.9450842,11.3766091 C10.6258211,13.2920333 10.3065579,15.2281242 9.98634737,17.1877 C9.66708421,19.1500939 9.36582105,21.0918212 9.08445263,23.0157 C8.80213684,24.9395788 8.55013684,26.7685788 8.32845263,28.4961242 C8.30476842,28.8380636 8.23087368,29.0700939 8.10771579,29.1922152 C7.98455789,29.313397 7.81876842,29.3613061 7.61034737,29.3378212 C7.40192632,29.313397 7.15561053,29.2391848 6.87424211,29.118003 C6.59003158,28.9958818 6.2774,28.8615485 5.93350526,28.7159424 C5.24571579,28.4247303 4.70382105,28.0593061 4.31255789,27.6215485 C3.91845263,27.1819121 3.79718947,26.5008515 3.94403158,25.5727303 C4.01697895,24.4548515 4.14013684,23.1021242 4.31255789,21.5173667 C4.48403158,19.9354273 4.68013684,18.2905485 4.90182105,16.5864879 C5.12255789,14.8796091 5.36224211,13.1755485 5.61992632,11.4686697 C5.87855789,9.76554848 6.13055789,8.21836667 6.37592632,6.82994242 C5.95813684,6.92482121 5.54697895,7.01124545 5.14245263,7.08545758 C4.73603158,7.15685152 4.39782105,7.24327576 4.12876842,7.34191212 C3.75929474,7.46309394 3.45803158,7.48094242 3.22592632,7.39545758 C2.99192632,7.30903333 2.73992632,7.06197273 2.46992632,6.64582121 C2.17434737,6.23248788 1.91097895,5.70924545 1.67697895,5.07609394 C1.44297895,4.44200303 1.25350526,3.91876061 1.10571579,3.50260909 C0.958873684,3.06579091 0.934242105,2.77363939 1.03182105,2.62803333 C1.13129474,2.47960909 1.31413684,2.35748788 1.58508421,2.26260909 C2.42066316,2.04279091 3.37276842,1.83424545 4.4414,1.6407303 C5.50908421,1.44439697 6.59666316,1.27530606 7.70318947,1.1297 C8.80782105,0.984093939 9.8954,0.861972727 10.9640316,0.764275758 C12.0317158,0.665639394 12.9838211,0.594245455 13.8194,0.543518182 C14.2371895,0.543518182 14.5498211,0.599881818 14.7591895,0.706972727 C14.9676105,0.817821212 15.1466632,0.995366667 15.2935053,1.23960909 C15.5890842,1.67642727 15.8401368,2.1527 16.0485579,2.6637303 C16.2569789,3.1757 16.4237158,3.67545758 16.5468737,4.16300303 C16.6444526,4.62330606 16.6577158,4.93612424 16.5828737,5.09394242 C16.5089789,5.25082121 16.2512947,5.35509394 15.8088737,5.40300303 C15.2432947,5.47721515 14.6246632,5.55706364 13.9482421,5.6406697" id="Fill-1" fill="#000000"></path>
                <path d="M13.9482421,5.6406697 C13.2718211,5.72709394 12.5792947,5.81915455 11.8668737,5.91403333 C11.5712947,7.64533636 11.2643474,9.46494242 10.9450842,11.3766091 C10.6258211,13.2920333 10.3065579,15.2281242 9.98634737,17.1877 C9.66708421,19.1500939 9.36582105,21.0918212 9.08445263,23.0157 C8.80213684,24.9395788 8.55013684,26.7685788 8.32845263,28.4961242 C8.30476842,28.8380636 8.23087368,29.0700939 8.10771579,29.1922152 C7.98455789,29.313397 7.81876842,29.3613061 7.61034737,29.3378212 C7.40192632,29.313397 7.15561053,29.2391848 6.87424211,29.118003 C6.59003158,28.9958818 6.2774,28.8615485 5.93350526,28.7159424 C5.24571579,28.4247303 4.70382105,28.0593061 4.31255789,27.6215485 C3.91845263,27.1819121 3.79718947,26.5008515 3.94403158,25.5727303 C4.01697895,24.4548515 4.14013684,23.1021242 4.31255789,21.5173667 C4.48403158,19.9354273 4.68013684,18.2905485 4.90182105,16.5864879 C5.12255789,14.8796091 5.36224211,13.1755485 5.61992632,11.4686697 C5.87855789,9.76554848 6.13055789,8.21836667 6.37592632,6.82994242 C5.95813684,6.92482121 5.54697895,7.01124545 5.14245263,7.08545758 C4.73603158,7.15685152 4.39782105,7.24327576 4.12876842,7.34191212 C3.75929474,7.46309394 3.45803158,7.48094242 3.22592632,7.39545758 C2.99192632,7.30903333 2.73992632,7.06197273 2.46992632,6.64582121 C2.17434737,6.23248788 1.91097895,5.70924545 1.67697895,5.07609394 C1.44297895,4.44200303 1.25350526,3.91876061 1.10571579,3.50260909 C0.958873684,3.06579091 0.934242105,2.77363939 1.03182105,2.62803333 C1.13129474,2.47960909 1.31413684,2.35748788 1.58508421,2.26260909 C2.42066316,2.04279091 3.37276842,1.83424545 4.4414,1.6407303 C5.50908421,1.44439697 6.59666316,1.27530606 7.70318947,1.1297 C8.80782105,0.984093939 9.8954,0.861972727 10.9640316,0.764275758 C12.0317158,0.665639394 12.9838211,0.594245455 13.8194,0.543518182 C14.2371895,0.543518182 14.5498211,0.599881818 14.7591895,0.706972727 C14.9676105,0.817821212 15.1466632,0.995366667 15.2935053,1.23960909 C15.5890842,1.67642727 15.8401368,2.1527 16.0485579,2.6637303 C16.2569789,3.1757 16.4237158,3.67545758 16.5468737,4.16300303 C16.6444526,4.62330606 16.6577158,4.93612424 16.5828737,5.09394242 C16.5089789,5.25082121 16.2512947,5.35509394 15.8088737,5.40300303 C15.2432947,5.47721515 14.6246632,5.55706364 13.9482421,5.6406697 L13.9482421,5.6406697 Z" id="Stroke-3" stroke="#000000" stroke-width="1.172" stroke-linecap="round" stroke-linejoin="round"></path>
            </g>
        </g>
    </g>
</svg>