<?xml version="1.0" encoding="UTF-8" standalone="no"?>
<svg width="24px" height="26px" viewBox="0 0 24 26" version="1.1" xmlns="http://www.w3.org/2000/svg" xmlns:xlink="http://www.w3.org/1999/xlink">
    <!-- Generator: sketchtool 40 (33762) - http://www.bohemiancoding.com/sketch -->
    <title>6AEB4F91-1940-44C7-AEEC-B512BB83734D</title>
    <desc>Created with sketchtool.</desc>
    <defs>
        <path d="M16.632,0.087875 L6.45942857,0.087875 L1.39428571,0.087875 C1.01828571,0.087875 0.718857143,0.39275 0.718857143,0.773 C0.718857143,1.154375 1.01828571,1.45925 1.39428571,1.45925 L2.61485714,1.45925 L2.61485714,17.5625 C2.61485714,19.583 4.23771429,21.228875 6.22971429,21.228875 L16.8628571,21.228875 C18.8548571,21.228875 20.4777143,19.583 20.4777143,17.5625 L20.4777143,1.45925 L21.6994286,1.45925 C22.0742857,1.45925 22.3748571,1.154375 22.3748571,0.773 C22.3748571,0.39275 22.0742857,0.087875 21.6994286,0.087875 L16.632,0.087875 L16.632,0.087875 Z" id="path-1"></path>
        <path d="M0.355428571,0.392625 L0.355428571,17.263125 C0.355428571,18.58725 1.41942857,19.66725 2.72457143,19.66725 L13.864,19.66725 C15.1702857,19.66725 16.2354286,18.58725 16.2354286,17.263125 L16.24,17.263125 L16.24,0.392625 L0.355428571,0.392625 L0.355428571,0.392625 Z" id="path-3"></path>
        <path d="M9.31542857,0.406125 C7.83885714,0.406125 6.63657143,1.6245 6.63657143,3.121875 L6.63657143,3.96 L1.57142857,3.96 C1.19542857,3.96 0.896,4.26375 0.896,4.64625 C0.896,5.0265 1.19542857,5.33025 1.57142857,5.33025 L2.792,5.33025 L2.792,21.434625 C2.792,23.455125 4.41371429,25.101 6.40685714,25.101 L17.04,25.101 C19.032,25.101 20.6537143,23.455125 20.6537143,21.434625 L20.6537143,5.33025 L21.8765714,5.33025 C22.2514286,5.33025 22.552,5.0265 22.552,4.64625 C22.552,4.26375 22.2514286,3.96 21.8765714,3.96 L16.8091429,3.96 L16.8091429,3.121875 C16.8091429,1.6245 15.608,0.406125 14.1314286,0.406125 L9.31542857,0.406125 L9.31542857,0.406125 Z M7.98857143,3.121875 C7.98857143,2.381625 8.584,1.7775 9.31542857,1.7775 L14.1314286,1.7775 C14.8628571,1.7775 15.4582857,2.381625 15.4582857,3.121875 L15.4582857,3.96 L7.98857143,3.96 L7.98857143,3.121875 L7.98857143,3.121875 Z M4.14514286,21.434625 L4.14514286,5.33025 L19.3074286,5.33025 L19.3074286,21.434625 L19.3028571,21.434625 C19.3028571,22.699125 18.2868571,23.729625 17.04,23.729625 L6.40685714,23.729625 C5.16,23.729625 4.14514286,22.699125 4.14514286,21.434625 L4.14514286,21.434625 Z" id="path-5"></path>
        <path d="M0.762285714,0.7235 L0.762285714,12.831875 C0.762285714,13.212125 1.06171429,13.522625 1.43771429,13.522625 C1.81257143,13.522625 2.11314286,13.21775 2.11314286,12.836375 L2.11314286,0.7235 C2.11314286,0.342125 1.81257143,0.038375 1.43771429,0.038375 C1.06171429,0.038375 0.762285714,0.342125 0.762285714,0.7235 L0.762285714,0.7235 Z" id="path-7"></path>
        <path d="M0.922285714,1.35 L0.922285714,11.955375 C0.922285714,12.335625 1.22857143,12.6405 1.59885714,12.6405 C1.97371429,12.6405 2.27428571,12.335625 2.27428571,11.955375 L2.27428571,1.35 C2.27428571,0.968625 1.97371429,0.66375 1.59885714,0.66375 C1.22285714,0.66375 0.922285714,0.968625 0.922285714,1.35 L0.922285714,1.35 Z" id="path-9"></path>
        <path d="M0.601142857,1.35 L0.601142857,11.955375 C0.601142857,12.335625 0.900571429,12.6405 1.27657143,12.6405 C1.65142857,12.6405 1.952,12.335625 1.952,11.955375 L1.952,1.35 C1.952,0.968625 1.65142857,0.66375 1.27657143,0.66375 C0.900571429,0.66375 0.601142857,0.968625 0.601142857,1.35 L0.601142857,1.35 Z" id="path-11"></path>
    </defs>
    <g id="Welcome" stroke="none" stroke-width="1" fill="none" fill-rule="evenodd">
        <g id="Remix-tela-11" transform="translate(-34.000000, -511.000000)">
            <g id="Page-1" transform="translate(34.000000, 511.000000)">
                <path d="M22.8419429,4.550625 L17.7756571,4.550625 L7.60308571,4.550625 L2.5368,4.550625 C2.16194286,4.550625 1.86137143,4.8555 1.86137143,5.23575 C1.86137143,5.617125 2.16194286,5.922 2.5368,5.922 L3.75851429,5.922 L3.75851429,22.02525 C3.75851429,24.04575 5.38022857,25.6905 7.37222857,25.6905 L18.0053714,25.6905 C19.9985143,25.6905 21.6202286,24.04575 21.6202286,22.02525 L21.6202286,5.922 L22.8419429,5.922 C23.2179429,5.922 23.5173714,5.617125 23.5173714,5.23575 C23.5173714,4.8555 23.2179429,4.550625 22.8419429,4.550625" id="Fill-1" fill="#000000"></path>
                <g id="Group-6" transform="translate(1.142857, 4.462750)">
                    <mask id="mask-2" fill="white">
                        <use xlink:href="#path-1"></use>
                    </mask>
                    <g id="Clip-4"></g>
                    <polygon id="Fill-3" fill="#000000" mask="url(#mask-2)" points="-42.7108571 60.659 323.003429 60.659 323.003429 -578.341 -42.7108571 -578.341"></polygon>
                    <polygon id="Fill-5" fill="#000000" mask="url(#mask-2)" points="-4.99657143 26.85275 28.0891429 26.85275 28.0891429 -9.091 -4.99657143 -9.091"></polygon>
                </g>
                <path d="M19.6633143,21.8511 C19.6633143,23.175225 18.5993143,24.255225 17.2930286,24.255225 L6.1536,24.255225 C4.84731429,24.255225 3.78331429,23.175225 3.78331429,21.8511 L3.78331429,4.9806 L19.6678857,4.9806 L19.6678857,21.8511 L19.6633143,21.8511 Z" id="Fill-7" fill="#FFFFFF"></path>
                <g id="Group-11" transform="translate(3.428571, 4.587750)">
                    <mask id="mask-4" fill="white">
                        <use xlink:href="#path-3"></use>
                    </mask>
                    <g id="Clip-10"></g>
                    <polygon id="Stroke-9" stroke="#000000" stroke-width="1.048" mask="url(#mask-4)" points="-48.544 62.4105 334.573714 62.4105 334.573714 -606.999375 -48.544 -606.999375"></polygon>
                </g>
                <path d="M19.3027429,21.5224875 C19.3027429,22.7869875 18.2867429,23.8174875 17.0398857,23.8174875 L6.40674286,23.8174875 C5.15988571,23.8174875 4.14388571,22.7869875 4.14388571,21.5224875 L4.14388571,5.4192375 L19.3073143,5.4192375 L19.3073143,21.5224875 L19.3027429,21.5224875 Z M7.98845714,3.2097375 C7.98845714,2.4683625 8.58502857,1.8653625 9.31531429,1.8653625 L14.1313143,1.8653625 C14.8627429,1.8653625 15.4581714,2.4683625 15.4581714,3.2097375 L15.4581714,4.0478625 L7.98845714,4.0478625 L7.98845714,3.2097375 Z M21.8764571,4.0478625 L16.8101714,4.0478625 L16.8101714,3.2097375 C16.8101714,1.7123625 15.6078857,0.4939875 14.1313143,0.4939875 L9.31531429,0.4939875 C7.83874286,0.4939875 6.6376,1.7123625 6.6376,3.2097375 L6.6376,4.0478625 L1.57131429,4.0478625 C1.19531429,4.0478625 0.894742857,4.3527375 0.894742857,4.7329875 C0.894742857,5.1143625 1.19531429,5.4192375 1.57131429,5.4192375 L2.79188571,5.4192375 L2.79188571,21.5224875 C2.79188571,23.5429875 4.41474286,25.1877375 6.40674286,25.1877375 L17.0398857,25.1877375 C19.0318857,25.1877375 20.6547429,23.5429875 20.6547429,21.5224875 L20.6547429,5.4192375 L21.8764571,5.4192375 C22.2513143,5.4192375 22.5518857,5.1143625 22.5518857,4.7329875 C22.5518857,4.3527375 22.2513143,4.0478625 21.8764571,4.0478625 L21.8764571,4.0478625 Z" id="Fill-12" fill="#000000"></path>
                <g id="Group-17" transform="translate(0.000000, 0.087750)">
                    <mask id="mask-6" fill="white">
                        <use xlink:href="#path-5"></use>
                    </mask>
                    <g id="Clip-15"></g>
                    <polygon id="Fill-14" fill="#000000" mask="url(#mask-6)" points="-42.5337143 64.531125 323.180571 64.531125 323.180571 -574.468875 -42.5337143 -574.468875"></polygon>
                    <polygon id="Fill-16" fill="#000000" mask="url(#mask-6)" points="-4.81942857 30.724875 28.2662857 30.724875 28.2662857 -5.218875 -4.81942857 -5.218875"></polygon>
                </g>
                <path d="M11.7233143,21.36015 C12.0993143,21.36015 12.3987429,21.055275 12.3987429,20.675025 L12.3987429,8.561025 C12.3987429,8.180775 12.0993143,7.8759 11.7233143,7.8759 C11.3473143,7.8759 11.0478857,8.180775 11.0478857,8.561025 L11.0478857,20.6694 C11.0478857,21.050775 11.3473143,21.36015 11.7233143,21.36015" id="Fill-18" fill="#000000"></path>
                <g id="Group-23" transform="translate(10.285714, 7.837750)">
                    <mask id="mask-8" fill="white">
                        <use xlink:href="#path-7"></use>
                    </mask>
                    <g id="Clip-21"></g>
                    <polygon id="Fill-20" fill="#000000" mask="url(#mask-8)" points="-52.8194286 56.781125 312.894857 56.781125 312.894857 -582.218875 -52.8194286 -582.218875"></polygon>
                    <polygon id="Fill-22" fill="#000000" mask="url(#mask-8)" points="-4.952 19.147625 7.82857143 19.147625 7.82857143 -5.586625 -4.952 -5.586625"></polygon>
                </g>
                <path d="M7.31291429,20.6035875 C7.68891429,20.6035875 7.98834286,20.2987125 7.98834286,19.9184625 L7.98834286,9.3130875 C7.98834286,8.9317125 7.68891429,8.6268375 7.31291429,8.6268375 C6.93691429,8.6268375 6.63748571,8.9317125 6.63748571,9.3130875 L6.63748571,19.9184625 C6.63748571,20.2987125 6.94262857,20.6035875 7.31291429,20.6035875" id="Fill-24" fill="#000000"></path>
                <g id="Group-29" transform="translate(5.714286, 7.962750)">
                    <mask id="mask-10" fill="white">
                        <use xlink:href="#path-9"></use>
                    </mask>
                    <g id="Clip-27"></g>
                    <polygon id="Fill-26" fill="#000000" mask="url(#mask-10)" points="-48.248 56.656125 317.466286 56.656125 317.466286 -582.343875 -48.248 -582.343875"></polygon>
                    <polygon id="Fill-28" fill="#000000" mask="url(#mask-10)" points="-4.79085714 18.266625 7.98971429 18.266625 7.98971429 -4.960125 -4.79085714 -4.960125"></polygon>
                </g>
                <path d="M16.1338286,20.6035875 C16.5098286,20.6035875 16.8092571,20.2987125 16.8092571,19.9184625 L16.8092571,9.3130875 C16.8092571,8.9317125 16.5098286,8.6268375 16.1338286,8.6268375 C15.7578286,8.6268375 15.4584,8.9317125 15.4584,9.3130875 L15.4584,19.9184625 C15.4584,20.2987125 15.7578286,20.6035875 16.1338286,20.6035875" id="Fill-30" fill="#000000"></path>
                <g id="Group-35" transform="translate(14.857143, 7.962750)">
                    <mask id="mask-12" fill="white">
                        <use xlink:href="#path-11"></use>
                    </mask>
                    <g id="Clip-33"></g>
                    <polygon id="Fill-32" fill="#000000" mask="url(#mask-12)" points="-57.3908571 56.656125 308.323429 56.656125 308.323429 -582.343875 -57.3908571 -582.343875"></polygon>
                    <polygon id="Fill-34" fill="#000000" mask="url(#mask-12)" points="-5.11314286 18.266625 7.66742857 18.266625 7.66742857 -4.960125 -5.11314286 -4.960125"></polygon>
                </g>
            </g>
        </g>
    </g>
</svg>