<?xml version="1.0" encoding="UTF-8" standalone="no"?>
<svg width="33px" height="32px" viewBox="0 0 33 32" version="1.1" xmlns="http://www.w3.org/2000/svg" xmlns:xlink="http://www.w3.org/1999/xlink">
    <!-- Generator: sketchtool 40 (33762) - http://www.bohemiancoding.com/sketch -->
    <title>E12BA584-B880-4D2D-AAFF-2242C565742B</title>
    <desc>Created with sketchtool.</desc>
    <defs>
        <polygon id="path-1" points="16.8204713 0.103703704 0.294550778 0.103703704 0.294550778 16.4251963 16.8204713 16.4251963 16.8204713 0.103703704"></polygon>
    </defs>
    <g id="Welcome" stroke="none" stroke-width="1" fill="none" fill-rule="evenodd">
        <g id="Remix-tela-8" transform="translate(-25.000000, -506.000000)">
            <g id="alterar_cores" transform="translate(25.000000, 506.000000)">
                <g id="Page-1">
                    <path d="M30.2559,9.57155556 C30.2559,14.0776296 26.5575,17.7303704 21.9951,17.7303704 C17.4327,17.7303704 13.7343,14.0776296 13.7343,9.57155556 C13.7343,5.06548148 17.4327,1.41274074 21.9951,1.41274074 C26.5575,1.41274074 30.2559,5.06548148 30.2559,9.57155556" id="Fill-1" fill="#FBB040"></path>
                    <path d="M29.1435,23.8009481 C25.3035,26.2335407 20.1933,25.1313185 17.7303,21.3387259 C15.2667,17.5461333 16.3833,12.4990222 20.2233,10.0664296 C24.0633,7.63324444 29.1735,8.73546667 31.6365,12.5286519 C34.1001,16.3212444 32.9835,21.3683556 29.1435,23.8009481" id="Fill-3" fill="#8DC63F"></path>
                    <g id="Group-7" transform="translate(11.400000, 14.711407)" fill="#00A79D">
                        <path d="M5.016,15.8474667 C0.8694,13.9683556 -0.9504,9.1250963 0.9522,5.02968889 C2.8548,0.934281481 7.7586,-0.862459259 11.9052,1.01605926 C16.0518,2.89517037 17.871,7.73842963 15.969,11.833837 C14.0664,15.9292444 9.1626,17.7265778 5.016,15.8474667" id="Fill-5"></path>
                    </g>
                    <path d="M3.78486,23.626963 C3.14706,19.1653333 6.29226,15.0379259 10.81026,14.408 C15.32766,13.7780741 19.50666,16.8844444 20.14446,21.3460741 C20.78166,25.8082963 17.63646,29.9357037 13.11906,30.5656296 C8.60166,31.194963 4.42266,28.0885926 3.78486,23.626963" id="Fill-8" fill="#27AAE1"></path>
                    <path d="M2.87274,9.38364444 C6.33114,6.44438519 11.54694,6.83075556 14.52234,10.2464593 C17.49834,13.6615704 17.10714,18.8129778 13.64934,21.752237 C10.19094,24.6914963 4.97514,24.3051259 1.99914,20.8894222 C-0.97626,17.4743111 -0.58566,12.3229037 2.87274,9.38364444" id="Fill-10" fill="#92278F"></path>
                    <g id="Group-14" transform="translate(3.600000, 0.489185)">
                        <mask id="mask-2" fill="white">
                            <use xlink:href="#path-1"></use>
                        </mask>
                        <g id="Clip-13"></g>
                        <path d="M10.91892,0.445985185 C15.29112,1.73428148 17.77752,6.27828148 16.47372,10.5965037 C15.16932,14.9147259 10.56792,17.3704296 6.19632,16.0827259 C1.82412,14.7944296 -0.66288,10.249837 0.64152,5.93220741 C1.94592,1.61398519 6.54672,-0.842311111 10.91892,0.445985185" id="Fill-12" fill="#231F1F" mask="url(#mask-2)"></path>
                    </g>
                </g>
            </g>
        </g>
    </g>
</svg>