<?xml version="1.0" encoding="UTF-8" standalone="no"?>
<svg width="30px" height="30px" viewBox="0 0 30 30" version="1.1" xmlns="http://www.w3.org/2000/svg" xmlns:xlink="http://www.w3.org/1999/xlink">
    <!-- Generator: Sketch 40 (33762) - http://www.bohemiancoding.com/sketch -->
    <title>Group 5</title>
    <desc>Created with Sketch.</desc>
    <defs></defs>
    <g id="Remix" stroke="none" stroke-width="1" fill="none" fill-rule="evenodd">
        <g id="Page-1" transform="translate(1.000000, 1.000000)">
            <g id="Group-5">
                <path d="M25.3113091,27.6107257 L2.66509678,27.6107257 C1.44264825,27.6107257 0.441901011,26.6072114 0.441901011,25.3813829 L0.441901011,2.67255429 C0.441901011,1.44584 1.44264825,0.442325714 2.66509678,0.442325714 L25.3113091,0.442325714 C26.5346409,0.442325714 27.5353881,1.44584 27.5353881,2.67255429 L27.5353881,25.3813829 C27.5353881,26.6072114 26.5346409,27.6107257 25.3113091,27.6107257" id="Fill-4" fill="#FFFFFF"></path>
                <path d="M25.3113091,27.6107257 L2.66509678,27.6107257 C1.44264825,27.6107257 0.441901011,26.6072114 0.441901011,25.3813829 L0.441901011,2.67255429 C0.441901011,1.44584 1.44264825,0.442325714 2.66509678,0.442325714 L25.3113091,0.442325714 C26.5346409,0.442325714 27.5353881,1.44584 27.5353881,2.67255429 L27.5353881,25.3813829 C27.5353881,26.6072114 26.5346409,27.6107257 25.3113091,27.6107257 L25.3113091,27.6107257 Z" id="Stroke-6" stroke="#000000" stroke-linecap="round" stroke-linejoin="round"></path>
                <path d="M5.69860634,4.24655714 C5.69860634,4.79127143 5.25785358,5.23235714 4.71552454,5.23235714 C4.17231222,5.23235714 3.73244274,4.79127143 3.73244274,4.24655714 C3.73244274,3.70272857 4.17231222,3.26075714 4.71552454,3.26075714 C5.25785358,3.26075714 5.69860634,3.70272857 5.69860634,4.24655714" id="Fill-8" fill="#000000"></path>
                <path d="M14.9711964,4.24655714 C14.9711964,4.79127143 14.5313269,5.23235714 13.9881146,5.23235714 C13.4449023,5.23235714 13.0050328,4.79127143 13.0050328,4.24655714 C13.0050328,3.70272857 13.4449023,3.26075714 13.9881146,3.26075714 C14.5313269,3.26075714 14.9711964,3.70272857 14.9711964,4.24655714" id="Fill-10" fill="#000000"></path>
                <path d="M24.2443165,4.24655714 C24.2443165,4.79127143 23.8035637,5.23235714 23.2612347,5.23235714 C22.7180223,5.23235714 22.2781528,4.79127143 22.2781528,4.24655714 C22.2781528,3.70272857 22.7180223,3.26075714 23.2612347,3.26075714 C23.8035637,3.26075714 24.2443165,3.70272857 24.2443165,4.24655714" id="Fill-12" fill="#000000"></path>
                <path d="M10.3349014,8.73916571 C10.3349014,9.28388 9.89414862,9.72496571 9.35181958,9.72496571 C8.80860726,9.72496571 8.36873778,9.28388 8.36873778,8.73916571 C8.36873778,8.19533714 8.80860726,7.75425143 9.35181958,7.75425143 C9.89414862,7.75425143 10.3349014,8.19533714 10.3349014,8.73916571" id="Fill-14" fill="#000000"></path>
                <path d="M19.6079331,8.73916571 C19.6079331,9.28388 19.1671803,9.72496571 18.6248513,9.72496571 C18.081639,9.72496571 17.6408862,9.28388 17.6408862,8.73916571 C17.6408862,8.19533714 18.081639,7.75425143 18.6248513,7.75425143 C19.1671803,7.75425143 19.6079331,8.19533714 19.6079331,8.73916571" id="Fill-16" fill="#000000"></path>
                <path d="M5.69860634,14.0404314 C5.69860634,14.58426 5.25785358,15.0253457 4.71552454,15.0253457 C4.17231222,15.0253457 3.73244274,14.58426 3.73244274,14.0404314 C3.73244274,13.4957171 4.17231222,13.0546314 4.71552454,13.0546314 C5.25785358,13.0546314 5.69860634,13.4957171 5.69860634,14.0404314" id="Fill-18" fill="#000000"></path>
                <path d="M14.9711964,14.0404314 C14.9711964,14.58426 14.5313269,15.0253457 13.9881146,15.0253457 C13.4449023,15.0253457 13.0050328,14.58426 13.0050328,14.0404314 C13.0050328,13.4957171 13.4449023,13.0546314 13.9881146,13.0546314 C14.5313269,13.0546314 14.9711964,13.4957171 14.9711964,14.0404314" id="Fill-20" fill="#000000"></path>
                <path d="M24.2443165,14.0404314 C24.2443165,14.58426 23.8035637,15.0253457 23.2612347,15.0253457 C22.7180223,15.0253457 22.2781528,14.58426 22.2781528,14.0404314 C22.2781528,13.4957171 22.7180223,13.0546314 23.2612347,13.0546314 C23.8035637,13.0546314 24.2443165,13.4957171 24.2443165,14.0404314" id="Fill-22" fill="#000000"></path>
                <path d="M5.69860634,23.8075571 C5.69860634,24.3513857 5.25785358,24.7924714 4.71552454,24.7924714 C4.17231222,24.7924714 3.73244274,24.3513857 3.73244274,23.8075571 C3.73244274,23.2628429 4.17231222,22.8217571 4.71552454,22.8217571 C5.25785358,22.8217571 5.69860634,23.2628429 5.69860634,23.8075571" id="Fill-24" fill="#000000"></path>
                <path d="M14.9711964,23.8075571 C14.9711964,24.3513857 14.5313269,24.7924714 13.9881146,24.7924714 C13.4449023,24.7924714 13.0050328,24.3513857 13.0050328,23.8075571 C13.0050328,23.2628429 13.4449023,22.8217571 13.9881146,22.8217571 C14.5313269,22.8217571 14.9711964,23.2628429 14.9711964,23.8075571" id="Fill-26" fill="#000000"></path>
                <path d="M24.2443165,23.8075571 C24.2443165,24.3513857 23.8035637,24.7924714 23.2612347,24.7924714 C22.7180223,24.7924714 22.2781528,24.3513857 22.2781528,23.8075571 C22.2781528,23.2628429 22.7180223,22.8217571 23.2612347,22.8217571 C23.8035637,22.8217571 24.2443165,23.2628429 24.2443165,23.8075571" id="Fill-28" fill="#000000"></path>
                <path d="M10.3349014,18.53304 C10.3349014,19.0768686 9.89414862,19.51884 9.35181958,19.51884 C8.80860726,19.51884 8.36873778,19.0768686 8.36873778,18.53304 C8.36873778,17.9883257 8.80860726,17.54724 9.35181958,17.54724 C9.89414862,17.54724 10.3349014,17.9883257 10.3349014,18.53304" id="Fill-30" fill="#000000"></path>
                <path d="M19.6079331,18.53304 C19.6079331,19.0768686 19.1671803,19.51884 18.6248513,19.51884 C18.081639,19.51884 17.6408862,19.0768686 17.6408862,18.53304 C17.6408862,17.9883257 18.081639,17.54724 18.6248513,17.54724 C19.1671803,17.54724 19.6079331,17.9883257 19.6079331,18.53304" id="Fill-32" fill="#000000"></path>
            </g>
        </g>
    </g>
</svg>