<?xml version="1.0" encoding="UTF-8" standalone="no"?>
<svg width="28px" height="28px" viewBox="0 0 28 28" version="1.1" xmlns="http://www.w3.org/2000/svg" xmlns:xlink="http://www.w3.org/1999/xlink">
    <g id="Remix" stroke="none" stroke-width="1" fill="none" fill-rule="evenodd">
        <g id="Page-1-Copy-2" transform="translate(0.000000, -38.000000)">
            <g id="efeitos-sombra" transform="translate(1.000000, 39.000000)">
                <path d="M1.4729,25.2284 C0.2839,24.0224 0.2839,22.0664 1.4729,20.8604 L20.9119,1.1474 C22.1009,-0.0586 24.0289,-0.0586 25.2179,1.1474 C26.4079,2.3534 26.4079,4.3084 25.2179,5.5144 L5.7799,25.2284 C4.5909,26.4344 2.6619,26.4344 1.4729,25.2284" id="Fill-1" fill="#000000"></path>
                <path d="M1.4729,25.2284 C0.2839,24.0224 0.2839,22.0664 1.4729,20.8604 L20.9119,1.1474 C22.1009,-0.0586 24.0289,-0.0586 25.2179,1.1474 C26.4079,2.3534 26.4079,4.3084 25.2179,5.5144 L5.7799,25.2284 C4.5909,26.4344 2.6619,26.4344 1.4729,25.2284 L1.4729,25.2284 Z" id="Stroke-3" stroke="#000000" stroke-width="1.235" stroke-linecap="round" stroke-linejoin="round"></path>
            </g>
        </g>
    </g>
</svg>
