<?xml version="1.0" encoding="UTF-8" standalone="no"?>
<svg width="28px" height="30px" viewBox="0 0 28 30" version="1.1" xmlns="http://www.w3.org/2000/svg" xmlns:xlink="http://www.w3.org/1999/xlink">
    <!-- Generator: sketchtool 40 (33762) - http://www.bohemiancoding.com/sketch -->
    <title>A8225DBA-69E8-40B2-A66A-F39AF5E396A4</title>
    <desc>Created with sketchtool.</desc>
    <defs></defs>
    <g id="Styleguide" stroke="none" stroke-width="1" fill="none" fill-rule="evenodd">
        <g transform="translate(-1235.000000, -589.000000)" id="lixeira">
            <g transform="translate(1235.000000, 589.000000)">
                <path d="M4.5925,4.88393182 L4.5925,23.4758864 C4.5925,25.3720227 6.12875,26.9232955 8.00625,26.9232955 L20.29,26.9232955 C22.1675,26.9232955 23.70375,25.3720227 23.70375,23.4758864 L23.70375,4.88393182 L4.5925,4.88393182 Z" id="Fill-1" fill="#000000"></path>
                <path d="M3.21425,4.52556818 L3.21425,22.0399773 C3.21425,23.8268864 4.70175,25.2873409 6.52175,25.2873409 L18.4155,25.2873409 C20.23425,25.2873409 21.723,23.8268864 21.723,22.0399773 L21.723,4.52556818 L3.21425,4.52556818 Z" id="Fill-3" fill="#FFFFFF"></path>
                <path d="M0.62525,4.52556818 L24.3115,4.52556818" id="Stroke-5" stroke="#000000" stroke-linecap="round" stroke-linejoin="round"></path>
                <path d="M21.722625,4.52556818 L21.722625,22.0399773 C21.722625,23.8268864 20.235125,25.2873409 18.415125,25.2873409 L6.521375,25.2873409 C4.702625,25.2873409 3.213875,23.8268864 3.213875,22.0399773 L3.213875,4.52556818" id="Stroke-7" stroke="#000000" stroke-linecap="round" stroke-linejoin="round"></path>
                <path d="M18.685201,4.48751554 L7.55833333,4.52556818 C7.55833333,2.37415909 9.67583333,0.613022727 12.2658333,0.613022727 L14.3383333,0.613022727 C16.9270833,0.613022727 19.0445833,2.37415909 19.0445833,4.52556818" id="Stroke-9" stroke="#000000" stroke-linecap="round" stroke-linejoin="round" fill="#000000"></path>
                <path d="M17.8518677,4.48751554 L6.725,4.52556818 C6.725,2.37415909 8.8425,0.613022727 11.4325,0.613022727 L13.505,0.613022727 C16.09375,0.613022727 18.21125,2.37415909 18.21125,4.52556818" id="Stroke-9" stroke="#000000" stroke-linecap="round" stroke-linejoin="round" fill="#FFFFFF"></path>
                <path d="M12.0833333,8.20738636 L12.0833333,20.9415682" id="Stroke-11" stroke="#000000" stroke-width="1.2" stroke-linecap="round" stroke-linejoin="round"></path>
                <path d="M7.5,9.43588636 L7.5,19.7130682" id="Stroke-13" stroke="#000000" stroke-width="1.2" stroke-linecap="round" stroke-linejoin="round"></path>
                <path d="M16.6666667,9.43588636 L16.6666667,19.7130682" id="Stroke-15" stroke="#000000" stroke-width="1.2" stroke-linecap="round" stroke-linejoin="round"></path>
            </g>
        </g>
    </g>
</svg>
