<?xml version="1.0" encoding="UTF-8" standalone="no"?>
<svg width="33px" height="33px" viewBox="0 0 33 33" version="1.1" xmlns="http://www.w3.org/2000/svg" xmlns:xlink="http://www.w3.org/1999/xlink">
    <g id="Remix" stroke="none" stroke-width="1" fill="none" fill-rule="evenodd">
        <g id="Page-1-Copy-4" transform="translate(-1.000000, -37.000000)">
            <g id="balao-sombra" transform="translate(2.000000, 38.000000)">
                <path d="M15.3556,0.3887 C6.9306,0.3887 0.1006,7.2187 0.1016,15.6437 C0.1016,24.0687 6.9306,30.8977 15.3556,30.8977 C17.6316,30.8977 19.7906,30.3987 21.7306,29.5047 C23.3166,30.4917 25.1886,31.0627 27.1946,31.0627 C28.3666,31.0627 29.4926,30.8647 30.5436,30.5057 C28.8896,29.2777 27.6136,27.5697 26.9236,25.5867 C29.2206,22.9157 30.6096,19.4417 30.6096,15.6437 C30.6096,7.2187 23.7806,0.3887 15.3556,0.3887" id="Fill-1" fill="#000000"></path>
                <path d="M15.3556,0.3887 C6.9306,0.3887 0.1006,7.2187 0.1016,15.6437 C0.1016,24.0687 6.9306,30.8977 15.3556,30.8977 C17.6316,30.8977 19.7906,30.3987 21.7306,29.5047 C23.3166,30.4917 25.1886,31.0627 27.1946,31.0627 C28.3666,31.0627 29.4926,30.8647 30.5436,30.5057 C28.8896,29.2777 27.6136,27.5697 26.9236,25.5867 C29.2206,22.9157 30.6096,19.4417 30.6096,15.6437 C30.6096,7.2187 23.7806,0.3887 15.3556,0.3887 L15.3556,0.3887 Z" id="Stroke-3" stroke="#000000" stroke-width="0.888" stroke-linecap="round" stroke-linejoin="round"></path>
            </g>
        </g>
    </g>
</svg>
