<?xml version="1.0" encoding="UTF-8" standalone="no"?>
<svg width="42px" height="39px" viewBox="0 0 42 39" version="1.1" xmlns="http://www.w3.org/2000/svg" xmlns:xlink="http://www.w3.org/1999/xlink">
    <!-- Generator: sketchtool 40 (33762) - http://www.bohemiancoding.com/sketch -->
    <title>240E2EB7-3E18-4E8D-92DA-0A371A71304C</title>
    <desc>Created with sketchtool.</desc>
    <defs></defs>
    <g id="Remix" stroke="none" stroke-width="1" fill="none" fill-rule="evenodd">
        <g id="Remix-Desktop-3" transform="translate(-732.000000, -692.000000)">
            <g id="Page-1" transform="translate(732.000000, 693.000000)">
                <polygon id="Fill-1" fill="#000000" points="2.1479371 27.8118 11.0522113 36.2938 18.3065661 36.2938 25.3684855 28.7584667 12.6313726 16.6264667"></polygon>
                <polygon id="Stroke-2" stroke="#000000" stroke-width="1.532" stroke-linecap="round" stroke-linejoin="round" points="18.3065 36.2938 25.3684194 28.7584667 12.6313065 16.6264667 2.14787097 27.8118 11.0521452 36.2938"></polygon>
                <polygon id="Fill-4" fill="#000000" points="8.53223226 16.7658 25.4625871 32.8918 40.4983452 16.8491333 23.5679903 0.723133333"></polygon>
                <polygon id="Stroke-5" stroke="#000000" stroke-width="1.479" stroke-linecap="round" stroke-linejoin="round" points="23.5680565 0.722866667 40.4984113 16.8488667 25.4626532 32.8922 8.53229839 16.7655333"></polygon>
                <polygon id="Fill-7" fill="#FFFFFF" points="0.506482258 27.582 9.41141774 36.064 16.6651113 36.064 23.7270306 28.5286667 10.990579 16.3966667"></polygon>
                <polygon id="Stroke-8" stroke="#000000" stroke-linecap="round" stroke-linejoin="round" points="16.6651774 36.064 23.7270968 28.5286667 10.9899839 16.3966667 0.506548387 27.582 9.41148387 36.064"></polygon>
                <polygon id="Fill-10" fill="#FFFFFF" points="21.9268 0.493 38.8571548 16.619 23.8213968 32.6623333 6.89104194 16.5356667"></polygon>
                <polygon id="Stroke-11" stroke="#000000" stroke-linecap="round" stroke-linejoin="round" points="21.9268 0.493 38.8571548 16.619 23.8213968 32.6623333 6.89104194 16.5356667"></polygon>
                <path d="M10.245255,36.6666667 L21.7676935,36.6666667" id="Stroke-13" stroke="#000000" stroke-linecap="round" stroke-linejoin="round"></path>
                <path d="M24.4677419,36.6666667 L27.9950645,36.6666667" id="Stroke-16" stroke="#000000" stroke-linecap="round" stroke-linejoin="round"></path>
                <path d="M20.9726242,6.17533333 L32.7654145,17.1753333" id="Stroke-20" stroke="#000000" stroke-linecap="round" stroke-linejoin="round"></path>
                <path d="M18.473079,8.69486667 L30.2658694,19.6948667" id="Stroke-21" stroke="#000000" stroke-linecap="round" stroke-linejoin="round"></path>
            </g>
        </g>
    </g>
</svg>