<?xml version="1.0" encoding="UTF-8" standalone="no"?>
<svg width="35px" height="32px" viewBox="0 0 35 32" version="1.1" xmlns="http://www.w3.org/2000/svg" xmlns:xlink="http://www.w3.org/1999/xlink">
    <g id="Remix" stroke="none" stroke-width="1" fill="none" fill-rule="evenodd">
        <g id="Page-1-Copy-3" transform="translate(-1.000000, -38.000000)" fill="#000000">
            <path d="M35.4987,43.0874 C35.2507,42.8344 34.9097,42.6944 34.5367,42.6944 C34.1457,42.6944 33.8027,42.8344 33.4887,42.9844 C32.5617,43.4324 31.7377,44.0614 30.9407,44.6684 L30.8367,44.7474 C29.6267,45.6704 28.4757,46.6694 27.3487,47.6904 C26.2567,45.1304 24.4757,42.8304 22.2647,41.1694 C19.5077,39.0974 16.2257,38.0014 12.7697,38.0004 C10.4287,38.0004 7.5877,38.8244 5.3547,40.1524 C2.5507,41.8204 1.0057,44.0784 1.0067,46.5104 C1.0077,49.4754 2.7017,50.7444 3.9407,51.6744 C4.9727,52.4504 5.5117,52.9014 5.5127,53.8914 C5.5127,54.8824 4.9737,55.3334 3.9377,56.1094 C2.7027,57.0364 1.0097,58.3074 1.0107,61.2704 C1.0117,63.7024 2.5567,65.9604 5.3617,67.6294 C7.5967,68.9594 10.4387,69.7854 12.7847,69.7854 C17.0147,69.7854 20.9907,68.1344 23.9817,65.1354 C26.8917,62.2164 28.5277,58.3464 28.6097,54.2244 C30.8167,51.8704 32.8857,49.3034 34.6607,46.6784 C35.6337,45.2374 36.3687,43.9734 35.4987,43.0874" id="cores-sombra"></path>
        </g>
    </g>
</svg>
