<?xml version="1.0" encoding="UTF-8" standalone="no"?>
<svg width="19px" height="27px" viewBox="0 0 19 27" version="1.1" xmlns="http://www.w3.org/2000/svg" xmlns:xlink="http://www.w3.org/1999/xlink">
    <g id="Styleguide" stroke="none" stroke-width="1" fill="none" fill-rule="evenodd">
        <g id="baixar" transform="translate(1.000000, 1.000000)">
            <g id="Group-5">
                <path d="M11.6697674,15.2608696 L15.694186,15.2608696 C16.2662791,15.2608696 16.6674419,15.5367391 16.8988372,16.0873043 C17.1302326,16.6237826 17.0348837,17.0968696 16.6139535,17.510087 L9.42093023,24.7707391 C9.1627907,25.0325217 8.85465116,25.164 8.50116279,25.164 C8.14767442,25.164 7.84069767,25.0325217 7.58139535,24.7707391 L0.389534884,17.510087 C0.131395349,17.2494783 0.0011627907,16.9395652 0,16.5815217 C0,16.4171739 0.0360465116,16.2516522 0.103488372,16.0873043 C0.334883721,15.5367391 0.736046512,15.2608696 1.30930233,15.2608696 L5.33255814,15.2608696 L5.33255814,9.90547826 L5.33255814,4.26482609 C5.33255814,1.91934783 6.39883721,0 8.62325581,0 L8.6244186,0 C10.8488372,0 11.6325581,1.91934783 11.6325581,4.26482609 L11.6325581,10.2236087 L11.6697674,15.2608696 Z" id="Fill-11" fill="#FFFFFF"></path>
                <path d="M11.6697674,15.2608696 L15.694186,15.2608696 C16.2662791,15.2608696 16.6674419,15.5367391 16.8988372,16.0873043 C17.1302326,16.6237826 17.0348837,17.0968696 16.6139535,17.510087 L9.42093023,24.7707391 C9.1627907,25.0325217 8.85465116,25.164 8.50116279,25.164 C8.14767442,25.164 7.84069767,25.0325217 7.58139535,24.7707391 L0.389534884,17.510087 C0.131395349,17.2494783 0.0011627907,16.9395652 0,16.5815217 C0,16.4171739 0.0360465116,16.2516522 0.103488372,16.0873043 C0.334883721,15.5367391 0.736046512,15.2608696 1.30930233,15.2608696 L5.33255814,15.2608696 L5.33255814,9.90547826 L5.33255814,4.26482609 C5.33255814,1.91934783 6.39883721,0 8.62325581,0 L8.6244186,0 C10.8488372,0 11.6325581,1.91934783 11.6325581,4.26482609 L11.6325581,10.2236087 L11.6697674,15.2608696 L11.6697674,15.2608696 Z" id="Stroke-13" stroke="#000000" stroke-width="1.015"></path>
            </g>
        </g>
    </g>
</svg>
