<?xml version="1.0" encoding="UTF-8" standalone="no"?>
<svg width="25px" height="26px" viewBox="0 0 25 26" version="1.1" xmlns="http://www.w3.org/2000/svg" xmlns:xlink="http://www.w3.org/1999/xlink">
    <g id="Styleguide" stroke="none" stroke-width="1" fill="none" fill-rule="evenodd">
        <g id="lixeira">
            <g id="Group-9">
                <path d="M3.21425,4.52556818 L3.21425,22.0399773 C3.21425,23.8268864 4.70175,25.2873409 6.52175,25.2873409 L18.4155,25.2873409 C20.23425,25.2873409 21.723,23.8268864 21.723,22.0399773 L21.723,4.52556818 L3.21425,4.52556818 Z" id="Fill-3" fill="#FFFFFF"></path>
                <path d="M0.62525,4.52556818 L24.3115,4.52556818" id="Stroke-5" stroke="#000000" stroke-linecap="round" stroke-linejoin="round"></path>
                <path d="M21.722625,4.52556818 L21.722625,22.0399773 C21.722625,23.8268864 20.235125,25.2873409 18.415125,25.2873409 L6.521375,25.2873409 C4.702625,25.2873409 3.213875,23.8268864 3.213875,22.0399773 L3.213875,4.52556818" id="Stroke-7" stroke="#000000" stroke-linecap="round" stroke-linejoin="round"></path>
                <path d="M17.8518677,4.48751554 L6.725,4.52556818 C6.725,2.37415909 8.8425,0.613022727 11.4325,0.613022727 L13.505,0.613022727 C16.09375,0.613022727 18.21125,2.37415909 18.21125,4.52556818" id="Stroke-9" stroke="#000000" stroke-linecap="round" stroke-linejoin="round" fill="#FFFFFF"></path>
                <path d="M12.0833333,8.20738636 L12.0833333,20.9415682" id="Stroke-11" stroke="#000000" stroke-width="1.2" stroke-linecap="round" stroke-linejoin="round"></path>
                <path d="M7.5,9.43588636 L7.5,19.7130682" id="Stroke-13" stroke="#000000" stroke-width="1.2" stroke-linecap="round" stroke-linejoin="round"></path>
                <path d="M16.6666667,9.43588636 L16.6666667,19.7130682" id="Stroke-15" stroke="#000000" stroke-width="1.2" stroke-linecap="round" stroke-linejoin="round"></path>
            </g>
        </g>
    </g>
</svg>
