<?xml version="1.0" encoding="UTF-8" standalone="no"?>
<svg width="18px" height="31px" viewBox="0 0 18 31" version="1.1" xmlns="http://www.w3.org/2000/svg" xmlns:xlink="http://www.w3.org/1999/xlink">
    <g id="Remix" stroke="none" stroke-width="1" fill="none" fill-rule="evenodd">
        <g id="Page-1-Copy-6" transform="translate(1.000000, 1.000000)">
            <g id="texto">
                <path d="M13.5299368,5.64735455 C12.8535158,5.73377879 12.1609895,5.82583939 11.4485684,5.92071818 C11.1529895,7.65202121 10.8460421,9.47162727 10.5267789,11.3832939 C10.2075158,13.2987182 9.88825263,15.2348091 9.56804211,17.1943848 C9.24877895,19.1567788 8.94751579,21.0985061 8.66614737,23.0223848 C8.38383158,24.9462636 8.13183158,26.7752636 7.91014737,28.5028091 C7.88646316,28.8447485 7.81256842,29.0767788 7.68941053,29.1989 C7.56625263,29.3200818 7.40046316,29.3679909 7.19204211,29.3445061 C6.98362105,29.3200818 6.73730526,29.2458697 6.45593684,29.1246879 C6.17172632,29.0025667 5.85909474,28.8682333 5.5152,28.7226273 C4.82741053,28.4314152 4.28551579,28.0659909 3.89425263,27.6282333 C3.50014737,27.188597 3.37888421,26.5075364 3.52572632,25.5794152 C3.59867368,24.4615364 3.72183158,23.1088091 3.89425263,21.5240515 C4.06572632,19.9421121 4.26183158,18.2972333 4.48351579,16.5931727 C4.70425263,14.8862939 4.94393684,13.1822333 5.20162105,11.4753545 C5.46025263,9.77223333 5.71225263,8.22505152 5.95762105,6.83662727 C5.53983158,6.93150606 5.12867368,7.0179303 4.72414737,7.09214242 C4.31772632,7.16353636 3.97951579,7.24996061 3.71046316,7.34859697 C3.34098947,7.46977879 3.03972632,7.48762727 2.80762105,7.40214242 C2.57362105,7.31571818 2.32162105,7.06865758 2.05162105,6.65250606 C1.75604211,6.23917273 1.49267368,5.7159303 1.25867368,5.08277879 C1.02467368,4.44868788 0.8352,3.92544545 0.687410526,3.50929394 C0.540568421,3.07247576 0.515936842,2.78032424 0.613515789,2.63471818 C0.712989474,2.48629394 0.895831579,2.36417273 1.16677895,2.26929394 C2.00235789,2.04947576 2.95446316,1.8409303 4.02309474,1.64741515 C5.09077895,1.45108182 6.17835789,1.28199091 7.28488421,1.13638485 C8.38951579,0.990778788 9.47709474,0.868657576 10.5457263,0.770960606 C11.6134105,0.672324242 12.5655158,0.600930303 13.4010947,0.55020303 C13.8188842,0.55020303 14.1315158,0.606566667 14.3408842,0.713657576 C14.5493053,0.824506061 14.7283579,1.00205152 14.8752,1.24629394 C15.1707789,1.68311212 15.4218316,2.15938485 15.6302526,2.67041515 C15.8386737,3.18238485 16.0054105,3.68214242 16.1285684,4.16968788 C16.2261474,4.62999091 16.2394105,4.94280909 16.1645684,5.10062727 C16.0906737,5.25750606 15.8329895,5.36177879 15.3905684,5.40968788 C14.8249895,5.4839 14.2063579,5.56374848 13.5299368,5.64735455" id="Fill-5" fill="#FFFFFF"></path>
                <path d="M13.5299368,5.64735455 C12.8535158,5.73377879 12.1609895,5.82583939 11.4485684,5.92071818 C11.1529895,7.65202121 10.8460421,9.47162727 10.5267789,11.3832939 C10.2075158,13.2987182 9.88825263,15.2348091 9.56804211,17.1943848 C9.24877895,19.1567788 8.94751579,21.0985061 8.66614737,23.0223848 C8.38383158,24.9462636 8.13183158,26.7752636 7.91014737,28.5028091 C7.88646316,28.8447485 7.81256842,29.0767788 7.68941053,29.1989 C7.56625263,29.3200818 7.40046316,29.3679909 7.19204211,29.3445061 C6.98362105,29.3200818 6.73730526,29.2458697 6.45593684,29.1246879 C6.17172632,29.0025667 5.85909474,28.8682333 5.5152,28.7226273 C4.82741053,28.4314152 4.28551579,28.0659909 3.89425263,27.6282333 C3.50014737,27.188597 3.37888421,26.5075364 3.52572632,25.5794152 C3.59867368,24.4615364 3.72183158,23.1088091 3.89425263,21.5240515 C4.06572632,19.9421121 4.26183158,18.2972333 4.48351579,16.5931727 C4.70425263,14.8862939 4.94393684,13.1822333 5.20162105,11.4753545 C5.46025263,9.77223333 5.71225263,8.22505152 5.95762105,6.83662727 C5.53983158,6.93150606 5.12867368,7.0179303 4.72414737,7.09214242 C4.31772632,7.16353636 3.97951579,7.24996061 3.71046316,7.34859697 C3.34098947,7.46977879 3.03972632,7.48762727 2.80762105,7.40214242 C2.57362105,7.31571818 2.32162105,7.06865758 2.05162105,6.65250606 C1.75604211,6.23917273 1.49267368,5.7159303 1.25867368,5.08277879 C1.02467368,4.44868788 0.8352,3.92544545 0.687410526,3.50929394 C0.540568421,3.07247576 0.515936842,2.78032424 0.613515789,2.63471818 C0.712989474,2.48629394 0.895831579,2.36417273 1.16677895,2.26929394 C2.00235789,2.04947576 2.95446316,1.8409303 4.02309474,1.64741515 C5.09077895,1.45108182 6.17835789,1.28199091 7.28488421,1.13638485 C8.38951579,0.990778788 9.47709474,0.868657576 10.5457263,0.770960606 C11.6134105,0.672324242 12.5655158,0.600930303 13.4010947,0.55020303 C13.8188842,0.55020303 14.1315158,0.606566667 14.3408842,0.713657576 C14.5493053,0.824506061 14.7283579,1.00205152 14.8752,1.24629394 C15.1707789,1.68311212 15.4218316,2.15938485 15.6302526,2.67041515 C15.8386737,3.18238485 16.0054105,3.68214242 16.1285684,4.16968788 C16.2261474,4.62999091 16.2394105,4.94280909 16.1645684,5.10062727 C16.0906737,5.25750606 15.8329895,5.36177879 15.3905684,5.40968788 C14.8249895,5.4839 14.2063579,5.56374848 13.5299368,5.64735455 L13.5299368,5.64735455 Z" id="Stroke-7" stroke="#000000" stroke-width="1.172" stroke-linecap="round" stroke-linejoin="round"></path>
            </g>
        </g>
    </g>
</svg>
