<?xml version="1.0" encoding="UTF-8" standalone="no"?>
<svg width="23px" height="22px" viewBox="0 0 23 22" version="1.1" xmlns="http://www.w3.org/2000/svg" xmlns:xlink="http://www.w3.org/1999/xlink">
    <!-- Generator: sketchtool 40 (33762) - http://www.bohemiancoding.com/sketch -->
    <title>33FCF649-A75A-47CB-A803-49D2D88ABD5B</title>
    <desc>Created with sketchtool.</desc>
    <defs></defs>
    <g id="Admin" stroke="none" stroke-width="1" fill="none" fill-rule="evenodd" opacity="0.496443563">
        <g id="Amin-1" transform="translate(-49.000000, -396.000000)" stroke="#FFFFFF">
            <path d="M60.4166667,397 C60.0299479,397 59.7092014,397.26087 59.609375,397.617391 L57.5607639,403.956522 L50.8333333,403.956522 C50.3689236,403.956522 50,404.361304 50,404.830435 C50,405.117391 50.1432292,405.373913 50.3602431,405.526087 C50.4947917,405.617391 55.7942708,409.495652 55.7942708,409.495652 C55.7942708,409.495652 53.7586806,415.756957 53.719184,415.856522 C53.6892361,415.947826 53.6675347,416.048261 53.6675347,416.152174 C53.6675347,416.621739 54.0447049,417 54.5095486,417 C54.6875,417 54.8524306,416.943478 54.9913194,416.847826 L60.4166667,412.891304 C60.4166667,412.891304 65.7204861,416.76087 65.8420139,416.847826 C65.9804688,416.943478 66.1458333,417 66.3233507,417 C66.7881944,417 67.1657986,416.617391 67.1657986,416.152174 C67.1657986,416.048261 67.1440972,415.947826 67.1137153,415.856522 C67.0746528,415.756957 65.0390625,409.495652 65.0390625,409.495652 C65.0390625,409.495652 70.3381076,405.617391 70.4730903,405.526087 C70.6901042,405.373913 70.8333333,405.117391 70.8333333,404.826087 C70.8333333,404.361304 70.4730903,403.956522 70.0086806,403.956522 L63.28125,403.956522 L61.2235243,397.617391 C61.1241319,397.26087 60.8029514,397 60.4166667,397" id="Page-1"></path>
        </g>
    </g>
</svg>