<?xml version="1.0" encoding="UTF-8" standalone="no"?>
<svg width="22px" height="22px" viewBox="0 0 22 22" version="1.1" xmlns="http://www.w3.org/2000/svg" xmlns:xlink="http://www.w3.org/1999/xlink">
    <!-- Generator: sketchtool 40 (33762) - http://www.bohemiancoding.com/sketch -->
    <title>A3C2DE30-6342-453D-8B72-0C0A9D8C9BAF</title>
    <desc>Created with sketchtool.</desc>
    <defs></defs>
    <g id="Admin" stroke="none" stroke-width="1" fill="none" fill-rule="evenodd" stroke-linecap="round" opacity="0.496443563" stroke-linejoin="round">
        <g id="Amin-1" transform="translate(-50.000000, -346.000000)" stroke="#FFFFFF">
            <g id="Page-1" transform="translate(51.000000, 347.000000)">
                <path d="M19.6438333,10.03025 C19.6438333,15.3394167 15.3396667,19.6435833 10.0305,19.6435833 C4.7205,19.6435833 0.416333333,15.3394167 0.416333333,10.03025 C0.416333333,4.72108333 4.7205,0.416916667 10.0305,0.416916667 C15.3396667,0.416916667 19.6438333,4.72108333 19.6438333,10.03025 L19.6438333,10.03025 Z" id="Stroke-1"></path>
                <path d="M14.5290833,9.36375 C14.5290833,12.3354167 12.5149167,14.7445833 10.0299167,14.7445833 C7.54575,14.7445833 5.53158333,12.3354167 5.53158333,9.36375 C5.53158333,6.39208333 7.54575,3.98291667 10.0299167,3.98291667 C12.5149167,3.98291667 14.5290833,6.39208333 14.5290833,9.36375 L14.5290833,9.36375 Z" id="Stroke-3"></path>
                <path d="M2.8945,16.4610833 C2.8945,16.4610833 3.7695,14.3694167 7.537,13.9644167" id="Stroke-5"></path>
                <path d="M17.12425,16.4610833 C17.12425,16.4610833 16.24925,14.3694167 12.48175,13.9644167" id="Stroke-7"></path>
            </g>
        </g>
    </g>
</svg>