<?xml version="1.0" encoding="UTF-8" standalone="no"?>
<svg width="170px" height="84px" viewBox="0 0 170 84" version="1.1" xmlns="http://www.w3.org/2000/svg" xmlns:xlink="http://www.w3.org/1999/xlink">
    <g id="Guide-cards" stroke="none" stroke-width="1" fill="none" fill-rule="evenodd">
        <g id="Home-TMJ-Copy" transform="translate(-635.000000, -22.000000)" fill="#020302">
            <g id="Page-1" transform="translate(635.000000, 22.000000)">
                <path d="M0.547229391,1.79959097 L0.485688172,1.01701487 C0.538089606,1.02703622 0.642587814,1.02582151 0.789129032,1.02430313 C1.21869892,1.01914061 1.96237276,0.999705275 2.193,0.99697218 L5.3876595,0.959619887 L6.51946953,0.946258091 L6.48656631,1.72002754 C6.46158423,2.24204862 6.44787455,2.85820961 6.44787455,2.85820961 C6.44787455,2.86883831 5.80869892,2.87643024 4.99160215,2.88614791 L4.82403943,2.88796998 L4.64581362,2.89009572 L4.65282079,3.50564936 C4.66622581,4.63381008 4.74604659,6.94054194 4.75792832,7.93265528 C4.76006093,8.12063146 4.75092115,8.25667883 4.75183513,8.33988638 L2.06900358,8.26700386 L2.17593907,5.76956273 C2.18264158,5.46649291 2.20518638,4.69363449 2.19482796,3.79566107 C2.193,3.66022104 2.1914767,3.52417367 2.17898566,3.38842997 L2.17380645,2.92927007 C1.7341828,2.94506129 1.34665591,2.94961644 1.06362724,2.95295689 C0.780903226,2.95629734 0.602982079,2.95842308 0.602677419,2.9474907 C0.602677419,2.93746936 0.584397849,2.31067966 0.547229391,1.79959097" id="Fill-1"></path>
                <path d="M9.24787814,4.15202624 C9.25275269,4.56958236 9.26707168,4.91425596 9.30149821,5.13290353 C9.39045878,5.59115239 9.59214337,5.78702417 9.95864875,5.78277269 C10.2727527,5.77912856 10.4384875,5.62091275 10.5176989,5.25467807 C10.5774122,4.97195462 10.5923405,4.44932619 10.5853333,3.8544226 C10.569491,2.50761431 10.4339176,0.785764702 10.4339176,0.785764702 C10.4339176,0.775439678 10.9783441,0.737783707 11.5852258,0.698913029 L12.7057634,0.644554813 C12.7499391,0.831619956 12.9534516,2.08276994 12.9705125,3.52341447 C12.9845269,4.72445772 12.8638817,6.05183067 12.3931828,7.00780643 C11.9224839,7.96378219 10.8704946,8.4773003 9.81210753,8.48975107 C8.54441935,8.50463125 7.2691147,7.80921051 6.92576344,6.25742012 C6.82613978,5.79917126 6.66741219,3.88995283 6.64943728,2.36549339 C6.64121147,1.67614619 6.66588889,1.05968152 6.73474194,0.693446839 L8.00303943,0.730799132 C9.32343369,0.767240394 9.33409677,0.809147845 9.33470609,0.86138032 C9.33805735,1.14349642 9.23355914,2.91970424 9.24787814,4.15202624" id="Fill-3"></path>
                <path d="M16.0549462,4.07240208 C16.787957,4.06389912 17.0789068,3.83037137 17.0722043,3.25611782 C17.0667204,2.80697927 16.9268817,2.50633887 16.1100896,2.51605653 L15.6805197,2.52091537 C15.6607168,2.62538032 15.5808961,2.9503149 15.5882079,3.57649725 L15.5943011,4.07786827 L16.0549462,4.07240208 Z M14.6416308,0.642368338 C15.5738889,0.631435959 16.6849821,0.639331566 17.0520968,0.676987536 C18.1951792,0.778719391 19.1024552,1.32139051 19.2575269,1.98796192 C19.3230287,2.24821326 19.3449642,2.34204951 19.3480108,2.58225816 C19.3678136,4.27374005 18.1577061,4.72621905 18.1583154,4.77845152 C18.1595341,4.87259145 19.2983513,4.60899966 19.3294265,7.22973371 C19.3367384,7.85591606 19.267276,8.18085064 19.2362007,8.21243307 C19.2157885,8.23369047 19.0479211,8.23551253 18.7962724,8.2385493 C18.5763082,8.2412824 18.3146057,8.24401549 18.0212186,8.23672724 L16.8683871,8.19816024 L16.8814875,7.52976677 C16.8909319,7.44625554 16.8921505,7.56074184 16.8912366,7.47753429 C16.8820968,6.71530457 16.7492652,6.09033694 16.5369176,5.85255771 C16.3879391,5.66640359 16.1771147,5.56406439 15.978172,5.56619013 C15.9260753,5.56679748 15.8730645,5.57833721 15.8212724,5.59989829 C15.7271326,5.63208807 15.696362,5.65364915 15.7003226,6.0083441 C15.7027599,6.21757768 15.7170789,6.54069019 15.7438889,7.04175754 L15.810914,8.24158608 L13.2337993,8.27195379 L13.1999821,4.53399139 C13.1850538,2.3620922 13.1762186,0.73256046 13.175914,0.701281711 C13.1753047,0.670306638 13.8458602,0.65178233 14.6416308,0.642368338 L14.6416308,0.642368338 Z" id="Fill-5"></path>
                <path d="M22.974647,7.3332269 L22.0667616,3.17679734 C21.867819,3.17922676 21.8656864,7.50267876 21.8656864,7.50267876 L21.841009,8.06691096 C21.6213495,8.06964406 19.9972097,8.06751832 19.8607222,8.0690367 C19.4945215,8.07359186 19.4107401,8.05354917 19.4101308,8.00131669 C19.4098262,7.99129534 19.4095215,7.97034162 19.4198799,7.95940924 C19.712353,6.9952342 19.726672,4.67696261 19.7059552,2.92231587 C19.6977294,2.22294732 19.6803638,1.6177187 19.6757939,1.22081263 C19.6724427,0.938696529 19.6803638,0.761349057 19.6913315,0.750416678 C19.742819,0.697576849 21.8047545,0.527517628 22.5590914,0.51871099 C22.8625323,0.515066864 23.0620842,0.523569825 23.0834104,0.554544897 C23.2314749,0.677837832 23.4816004,4.10058332 23.722586,4.09785023 L23.7326398,4.09754655 C23.9736254,4.09481346 24.2913853,0.832409517 24.2895573,0.686340793 L27.4948799,0.607081049 C27.5689122,0.679052541 27.8997724,6.51329851 28.0371738,8.39154187 C27.6810269,8.41674707 27.3038584,8.44134492 26.9376577,8.44590008 L25.6184821,8.51392377 C25.6184821,8.51392377 25.5755251,5.77809606 25.5563315,4.1701254 C25.5487151,3.5020356 25.5328728,3.03194333 25.4804713,3.03255068 C25.3445932,3.06534782 24.6859194,6.71797693 24.5384642,7.58618999 C24.0878728,7.59165618 23.5224247,7.57707967 23.0401487,7.58284954 C23.0401487,7.58284954 22.9978011,7.49994567 22.974647,7.3332269" id="Fill-7"></path>
                <path d="M31.1934767,2.64196109 C30.9729032,2.64439051 30.7398387,5.08048884 30.740448,5.1223963 C30.7407527,5.15367504 31.0758781,5.16035594 31.1703226,5.15944491 C31.4640143,5.15580079 31.788172,5.12027056 31.7878674,5.08929548 C31.7866487,5.00608794 31.3226523,2.93318751 31.2681183,2.75584004 C31.2461828,2.68326119 31.2138889,2.64165742 31.1934767,2.64196109 L31.1934767,2.64196109 Z M31.3025448,6.60950344 C30.8632258,6.63501233 30.4970251,6.67114991 30.4763082,6.69210364 C30.4555914,6.70273234 30.4412724,7.28791826 30.4232975,7.53845193 C30.3873477,8.07110171 30.4604659,8.0392156 29.057509,8.08689292 C28.8375448,8.08932234 28.659319,8.10207678 28.5228315,8.10389884 C28.1563262,8.10815032 28.0725448,8.08810763 28.0719355,8.02524645 C28.0716308,8.01492143 28.0716308,8.00429273 28.0816846,7.9939677 C28.5755376,6.35927345 29.5678136,0.718773516 29.6403226,0.644676284 C29.6921147,0.592140132 31.3147312,0.500125947 32.2683154,0.488889891 C32.6558423,0.484334734 32.9279032,0.491319309 32.9495341,0.522294381 C33.066828,0.709055846 33.4171864,2.88793961 34.2071685,5.8861444 C34.4265233,6.7191309 34.6166308,7.76074363 34.6175448,7.83362615 C34.6071864,7.83392983 34.0837814,7.8715858 33.4449104,7.91045648 L32.272276,7.97605075 L32.0980108,6.5475533 L31.3025448,6.60950344 Z" id="Fill-9"></path>
                <path d="M40.5748262,5.99975003 C41.6645932,5.98699559 41.9067975,5.2217291 41.8909552,3.87431346 C41.8769409,2.69483129 41.4537688,2.32373778 40.4901308,2.33497383 C40.5099337,3.139111 40.5477115,5.43582151 40.5748262,5.99975003 L40.5748262,5.99975003 Z M38.0214749,5.35048822 C38.0287867,5.0580471 38.0498082,4.19135243 38.0394498,3.30340036 C38.0373172,3.11512051 38.0351846,2.92775169 38.0220842,2.74007919 L37.9645036,0.49529748 L38.5509731,0.477684203 C39.1688226,0.470395951 39.7863674,0.421200248 40.3835,0.414215673 C41.3998441,0.402372263 42.3436792,0.496208511 43.0626756,1.02035532 C43.7067258,1.48285567 43.9867079,2.09597989 44.1676756,3.24236125 C44.2331774,3.50261259 44.2685179,3.78442501 44.2715645,4.06593376 L44.2724785,4.13881628 L44.2733925,4.21260983 C44.2764391,4.46283983 44.2471918,4.69302713 44.2081953,4.90195703 C44.0552563,6.14642611 43.7685717,6.75590621 43.1360986,7.28551921 C42.4097903,7.88922944 41.614629,7.96089726 40.1163136,7.97851054 L38.5869229,7.99642749 L37.9163674,8.0043231 L38.0214749,5.35048822 Z" id="Fill-11"></path>
                <path d="M46.9224068,2.45793272 C46.7024427,2.46036214 46.4693781,4.89646047 46.4696828,4.93836792 C46.4699875,4.96964667 46.8054176,4.97632757 46.899862,4.97541654 C47.1929444,4.97177241 47.5174068,4.93654586 47.5171022,4.90526711 C47.5161882,4.82205956 47.0512778,2.74915914 46.9970484,2.57211534 C46.9751129,2.49923282 46.9434283,2.45762905 46.9224068,2.45793272 L46.9224068,2.45793272 Z M47.0320842,6.42547507 C46.5921559,6.45098396 46.2259552,6.48712154 46.2052384,6.50807527 C46.1842168,6.51870397 46.1702025,7.10388989 46.1528369,7.35442356 C46.1168871,7.88707334 46.1897007,7.85518723 44.7861344,7.90286455 C44.5664749,7.90529397 44.3888584,7.91804841 44.252371,7.91987047 C43.8858656,7.92412195 43.8014749,7.90407926 43.8008656,7.84121808 C43.8005609,7.83119674 43.8005609,7.82026436 43.811224,7.81024301 C44.3050771,6.17524508 45.2967437,0.534745145 45.3692527,0.460951591 C45.4207401,0.408111761 47.0436613,0.316097576 47.9972455,0.30486152 C48.3844677,0.30061004 48.6574427,0.307290938 48.6781595,0.33826601 C48.7957581,0.525027476 49.1464211,2.70391124 49.9357939,5.70211603 C50.1551487,6.53510253 50.3458656,7.57671526 50.3467796,7.64990146 C50.3361165,7.64990146 49.8127115,7.68786111 49.1744498,7.72642811 L48.0018154,7.79202238 L47.8275502,6.36352493 L47.0320842,6.42547507 Z" id="Fill-13"></path>
                <path d="M29.6012957,10.7492915 C29.6012957,10.5692109 30.8129265,10.206013 32.749647,10.206013 C38.5610269,10.206013 49.0312599,10.206013 49.3365287,10.5072608 C49.7600054,10.9293721 50.0622276,42.8500951 51.9367975,53.2276554 C49.8815645,53.3485189 47.7014211,53.4699897 45.5803817,53.4699897 L36.3220842,53.7709338 C36.3220842,53.7709338 37.1690376,39.7708085 37.1690376,31.1442509 C37.1690376,27.2201343 36.9850233,25.3516087 36.5024427,25.3516087 C35.7145932,25.3516087 31.6598799,46.1686793 30.7501667,51.1757086 L27.2404892,51.5389066 L21.0647366,51.9613215 C21.0647366,51.9613215 20.8252742,51.4766527 20.7037151,50.5115667 L15.7395932,25.9538005 C14.3476039,25.9538005 14.2851487,43.7535347 14.2851487,48.7639045 L14.2851487,49.9679845 C14.0453817,53.0475748 13.2575323,52.9267113 5.14475448,53.0475748 C3.87432437,53.1064882 2.84670789,53.1064882 2.05855376,53.1064882 C0.0590734767,53.1064882 -3.04659502e-05,52.9856246 -3.04659502e-05,52.7432902 L-3.04659502e-05,52.6843769 C-3.04659502e-05,52.6254635 0.0590734767,52.5042963 0.0590734767,52.4423462 C1.09004122,46.7708712 1.51351792,33.4971416 1.51351792,23.3585753 C1.51351792,19.3169358 1.45441398,15.8185746 1.45441398,13.5245972 C1.45441398,11.8947618 1.51351792,10.8704587 1.57262186,10.8082049 C1.63507706,10.7492915 2.42292652,10.6903781 3.57210215,10.6903781 C7.32489785,10.6903781 15.3752204,10.9913222 18.7042348,10.9913222 C20.4609014,10.9913222 22.5194857,11.0502356 22.6407401,11.2336566 C23.1236254,11.9570156 24.092138,20.825604 26.1507222,30.4208918 C28.1468513,21.0679384 29.6012957,11.593514 29.6012957,10.7492915" id="Fill-15"></path>
                <path d="M61.0170824,36.4381944 C61.0170824,38.1509337 61.2672079,39.863673 61.7284624,40.9080188 C62.3149319,42.328317 63.614914,43.0374032 64.8716344,43.0374032 C66.1286595,43.0374032 67.3445556,42.328317 67.8036774,40.9487115 C68.2652366,39.5281097 68.474233,38.0239966 68.474233,36.6058242 C68.474233,33.1372235 67.1331219,30.1718158 64.9127634,30.1718158 C64.2013835,30.1718158 63.3626559,30.5070754 62.4831039,31.2164653 C61.4353799,32.0521849 61.0170824,34.2656879 61.0170824,36.4381944 M73.460595,20.2719397 L73.3789462,20.2719397 C72.3720466,20.2719397 71.1153262,20.6910143 68.2652366,20.7748292 C68.1808459,20.6478921 67.1331219,19.0189677 66.3809176,17.6417917 L64.2422079,20.7748292 C61.5194659,20.6910143 59.59219,20.5665066 58.5012043,20.5665066 L58.2922079,20.5665066 C59.5081039,18.6430154 61.7695914,15.9290524 62.4831039,14.7170768 L66.3376559,14.8440138 L70.4039462,14.7170768 C71.1561505,16.2211898 72.9173871,19.0189677 73.460595,20.2719397 M51.2533548,38.9031421 C51.2100932,38.526886 51.2100932,38.1078115 51.2100932,37.7318592 C51.2100932,24.449323 60.0101828,21.6087267 65.8764014,21.6087267 C67.5538566,21.6087267 69.0195735,21.8598677 69.9423871,22.1523088 C74.9698781,23.8240517 77.6517957,29.6713558 77.6517957,35.7698009 C77.6517957,43.5381669 73.2515986,51.6846109 63.740129,51.6846109 C56.0715448,51.6846109 51.5464373,47.0043382 51.2533548,38.9031421" id="Fill-18"></path>
                <path d="M105.76157,16.325503 C105.845351,16.4093179 105.845351,17.4943564 105.845351,19.2070957 C105.845351,22.7570819 105.76157,28.9396456 105.76157,34.5780198 C105.76157,38.7125846 105.802394,42.5571377 105.970566,44.8951483 C104.754366,44.9786596 104.797932,45.0627781 103.875118,45.0627781 L103.372735,45.0627781 L97.1704767,44.8951483 L92.8135412,44.5598887 C92.8135412,44.5598887 92.6450645,44.2267549 92.5612832,43.5993578 L87.7836129,25.3465373 C87.7836129,27.6866736 87.6587025,39.0050258 87.6587025,42.6816454 L87.6587025,45.5632381 C86.6109785,45.5632381 82.3356918,45.2711007 80.3243297,45.2711007 L79.1928244,45.2711007 C78.5652258,45.2711007 78.5652258,45.2711007 78.5652258,45.146593 L78.5652258,45.1037745 C78.5652258,37.6275461 78.5652258,15.1135273 78.8586129,14.8210862 C78.8586129,14.8210862 78.9426989,14.7803935 79.110871,14.7803935 C80.4516774,14.7803935 87.2815341,15.6571095 90.004276,15.6571095 C91.2204767,15.6571095 92.6450645,15.6981059 92.7294552,15.8247393 C93.0225376,16.325503 96.0819283,28.7310194 97.5065161,35.6633621 L97.5065161,34.4945086 C97.5065161,30.4006366 97.3386487,25.8901194 97.2542581,24.9295885 L96.5840072,16.1168767 C100.606731,16.1168767 105.552269,16.1168767 105.76157,16.325503" id="Fill-20"></path>
                <path d="M107.427357,40.6564526 C107.427357,39.444477 107.554704,35.6451718 107.554704,31.8847373 L107.554704,30.2151202 L107.470618,22.4443248 L109.859149,22.4443248 C111.156998,22.4443248 113.420618,22.3605099 114.845815,22.2791244 L117.443647,22.1521874 L117.443647,30.7993951 C117.443647,42.3284992 117.820815,47.3825985 117.820815,49.5529793 C117.820815,50.4296953 117.779686,50.8487698 117.611819,51.0570923 L106.884149,50.6404473 L107.427357,40.6564526 Z" id="Fill-22"></path>
                <path d="M134.573584,25.953345 C133.275735,25.953345 131.934928,26.7055534 131.59828,27.0383836 C130.341559,28.2503592 129.502832,31.007748 129.502832,33.3885771 C129.502832,34.349108 129.671004,35.2665167 129.964391,35.9780324 C130.550556,37.3983305 131.891667,38.1074167 133.232778,38.1074167 C134.573584,38.1074167 135.914391,37.3983305 136.459731,36.0187251 L136.92129,34.8905644 L140.105287,34.8905644 C141.866828,34.8905644 143.834928,34.8067495 144.464659,34.6822418 L145.637294,34.4736156 L145.428297,35.8104026 C144.171577,43.7054019 137.843799,46.7546244 131.725627,46.7546244 C123.468746,46.7546244 118.734642,42.1174739 118.734642,33.9300335 C118.734642,20.271545 128.245806,17.2223224 134.784713,17.2223224 C137.005376,17.2223224 138.889391,17.557582 139.980376,17.9745308 C144.296487,19.6462737 146.182634,22.024977 146.223763,26.0350342 L146.264588,28.2075407 L137.298459,28.3751705 C136.837204,26.5379236 135.705394,25.953345 134.573584,25.953345" id="Fill-24"></path>
                <path d="M156.492129,28.6458076 C155.61014,28.6458076 154.562416,38.3780538 154.562416,38.5459873 C154.562416,38.670495 155.903222,38.7136171 156.280695,38.7136171 C157.455767,38.7136171 158.753616,38.5866801 158.753616,38.4621724 C158.753616,38.1290386 156.994208,29.8170905 156.785211,29.1058785 C156.70143,28.8134374 156.574082,28.6458076 156.492129,28.6458076 L156.492129,28.6458076 Z M156.74195,44.5196211 C154.983151,44.6013103 153.516824,44.7282473 153.433043,44.8120623 C153.348957,44.852755 153.264566,47.193195 153.180785,48.1944187 C153.012308,50.3241067 153.305695,50.1995991 147.691735,50.3241067 C146.812487,50.3241067 146.09867,50.3669252 145.55333,50.3669252 C144.087308,50.3669252 143.753401,50.2831103 143.753401,50.0316656 C143.753401,49.9909729 143.753401,49.9478507 143.793921,49.907158 C145.846412,43.3917641 150.08057,20.8774417 150.373652,20.5853042 C150.582953,20.3769817 157.078599,20.0848442 160.892022,20.0848442 C162.442129,20.0848442 163.530982,20.125537 163.615068,20.2500446 C164.076627,21.002253 165.374172,29.7332756 168.392434,41.7628397 C169.230857,45.1041997 169.942237,49.2794572 169.942237,49.5718984 C169.901717,49.5718984 167.805964,49.6985317 165.248957,49.8233431 L160.555982,50.0316656 L159.926251,44.3091728 L156.74195,44.5196211 Z" id="Fill-26"></path>
                <path d="M45.6513978,68.9877114 C45.9441756,70.2598151 46.7103943,71.4596436 47.769086,71.4596436 C49.8115233,71.4596436 50.3224373,68.1510808 50.3224373,64.4046154 C50.3224373,60.5479152 49.2652688,56.2924869 49.2652688,54.8366585 C49.2652688,54.5466468 49.300914,54.4008818 49.3386918,54.3279992 C49.4474552,54.2192828 51.3077061,54.0735178 53.7166487,53.9648013 L58.167724,53.7835061 C58.8623477,57.2020001 59.0801792,60.656328 59.0801792,63.6770049 C59.0801792,68.5871612 58.4605018,72.2604404 58.2051971,72.3336266 C57.1108602,77.7527458 52.6576523,80.2265001 48.2796953,80.2265001 C44.5570609,80.2265001 40.8718996,78.48066 39.1932258,75.1702751 C38.2076523,73.2431397 37.6239247,70.8419643 37.3329749,68.3326797 C38.8648029,68.4766227 40.3609857,68.5498089 41.8931183,68.5498089 C43.0983513,68.5498089 44.3392294,68.513975 45.5782796,68.4410925 C45.5782796,68.6600437 45.6157527,68.8416427 45.6513978,68.9877114" id="Fill-28"></path>
                <path d="M68.6868244,62.6534913 C68.6868244,64.0221644 68.888509,65.3905337 69.257147,66.2250386 C69.7257133,67.3598803 70.7624695,67.9265419 71.7687599,67.9265419 C72.7729176,67.9265419 73.7426487,67.3598803 74.1112867,66.2575321 C74.4799247,65.1226905 74.6471828,63.9207362 74.6471828,62.787413 C74.6471828,60.016055 73.5756953,57.6467657 71.8013584,57.6467657 C71.2328638,57.6467657 70.5629176,57.9146089 69.8600681,58.4809669 C69.0228638,59.1490567 68.6868244,60.9173689 68.6868244,62.6534913 M60.8851039,64.6228378 C60.8525054,64.3225011 60.8525054,63.9878489 60.8525054,63.6869048 C60.8525054,53.0739947 67.8840466,50.8040078 72.571233,50.8040078 C73.9114301,50.8040078 75.0828459,51.0050421 75.8204265,51.2385698 C79.837362,52.5744457 81.9803369,57.2465191 81.9803369,62.1193232 C81.9803369,68.3267884 78.4645663,74.8361087 70.8642258,74.8361087 C64.736914,74.8361087 61.1193871,71.0963243 60.8851039,64.6228378" id="Fill-30"></path>
                <path d="M99.7115197,47.2489805 C100.990176,47.2489805 102.741663,47.3221667 103.980713,47.3950492 C102.193276,53.0689537 98.4706416,72.0193207 98.2153369,72.2738022 C98.0331505,72.4554011 93.4355341,72.6014698 89.9322545,72.6014698 C87.8523441,72.6014698 86.1361971,72.5282836 86.0652115,72.4201746 C85.6636703,71.7648392 84.4956057,64.1616737 81.905086,53.6863294 C81.1748172,50.7409644 80.5551398,47.6495307 80.5551398,47.4305795 L84.642147,47.5037657 L88.7291541,47.7582471 L89.2754086,51.4312226 L90.2966272,56.5606339 C90.2966272,56.8151153 91.8305878,64.0532609 92.0124695,64.6727624 C92.0484194,64.8543613 92.1215376,64.9272438 92.1946559,64.9272438 C93.1805341,64.9272438 95.1870215,47.213754 95.1870215,47.213754 L99.7115197,47.2489805 Z" id="Fill-32"></path>
                <path d="M112.157927,60.6585448 L112.157927,62.55015 C112.157927,63.7873308 112.268518,64.4423625 112.524127,64.5131193 C112.632891,64.5507752 112.814772,64.5863055 113.1435,64.5863055 C113.691582,64.5863055 114.786224,64.5131193 117.121744,64.331824 L119.894754,64.150225 L119.785686,68.6977908 L112.049163,69.242284 L111.902622,70.262032 C111.866977,70.6249262 111.829504,71.0986626 111.829504,71.5699696 C111.829504,71.8976372 111.866977,72.189471 111.866977,72.4066002 L111.97574,73.5347609 L115.880866,73.3534656 C118.43574,73.2429271 119.894754,73.1345144 120.076636,73.1345144 C120.223177,73.1345144 120.331941,74.4442741 120.331941,76.6990771 L120.331941,80.2997774 L111.391708,80.4810727 C107.706851,80.5542589 104.896367,80.6271414 103.510776,80.6271414 C103.036116,80.6271414 102.780507,80.5916112 102.780507,80.5916112 C102.743034,80.5916112 102.743034,80.518425 102.743034,80.4810727 C102.743034,79.8633933 103.109235,77.0267448 103.14488,62.6233362 L103.14488,54.9472881 C103.766081,54.8388754 119.310722,53.4203993 120.003213,53.3827433 L119.821027,56.657598 C119.747909,58.4763206 119.67479,59.9682866 119.67479,59.9682866 C119.67479,60.1119259 116.537711,59.9682866 112.157927,60.6585448" id="Fill-34"></path>
                <path d="M133.872349,74.8094762 L130.879984,60.2958328 C130.187188,60.2958328 130.005306,75.3539694 130.005306,75.3539694 L129.896238,77.3190645 C129.128496,77.3190645 123.473711,77.2458783 122.999052,77.2458783 C121.722224,77.2458783 121.429446,77.1729957 121.429446,76.9917005 C121.429446,76.9558665 121.429446,76.882984 121.466919,76.8453281 C122.523783,73.4997166 122.670324,65.425244 122.670324,59.3134371 C122.670324,56.8767314 122.634679,54.7679971 122.634679,53.3850512 C122.634679,52.4026556 122.670324,51.7852799 122.70597,51.7476239 C122.889984,51.5660249 130.078425,51.057062 132.70459,51.057062 C133.763586,51.057062 134.456382,51.0947179 134.5295,51.2031307 C135.040109,51.6392111 135.770378,63.5703838 136.60941,63.5703838 L136.647188,63.5703838 C137.48622,63.5703838 138.725575,52.2210566 138.725575,51.7120937 L149.891955,51.5660249 C150.14726,51.8208101 151.05941,72.154123 151.461256,78.7017067 C150.220378,78.7748929 148.90821,78.8459533 147.629554,78.8459533 L143.031937,79.0293743 C143.031937,79.0293743 142.996292,69.4987697 142.996292,63.8980515 C142.996292,61.5700623 142.958819,59.9329386 142.776937,59.9329386 C142.301668,60.0413513 139.85769,72.7362721 139.309303,75.7545196 C137.741525,75.7545196 135.770378,75.6816371 134.092314,75.6816371 C134.092314,75.6816371 133.945468,75.3916254 133.872349,74.8094762" id="Fill-36"></path>
                <path d="M66.7739283,77.3741211 C66.1767957,77.3741211 65.7472258,78.3452807 65.7472258,79.3793015 C65.7472258,79.6088815 65.7682473,79.8384614 65.8206487,80.0683451 C65.893767,80.4133223 66.1557742,80.5906698 66.4488566,80.5906698 C66.7422437,80.5906698 67.056957,80.4133223 67.2348781,80.0583237 C67.4024409,79.7030214 67.5386237,79.0555817 67.5386237,78.5016745 C67.5386237,78.1153971 67.4755591,77.7813522 67.3189642,77.6352835 C67.1300753,77.457936 66.941491,77.3741211 66.7739283,77.3741211 M63.6313656,79.3480228 C63.6313656,77.6352835 64.4484624,75.8393367 65.8206487,75.3692444 C66.0302545,75.2960582 66.3757384,75.233197 66.7842867,75.233197 C68.0306487,75.233197 69.8013297,75.8393367 69.8013297,78.5226282 C69.8013297,78.8357194 69.7803082,79.1806967 69.7279068,79.556649 C69.4451828,81.5821758 68.2716344,82.752244 66.4908996,82.752244 C64.4895914,82.752244 63.6313656,81.1017585 63.6313656,79.3480228" id="Fill-38"></path>
                <path d="M73.6428728,82.7104276 C73.3915287,82.7104276 73.2449875,82.6997989 73.2343244,82.6997989 C73.2239659,82.6788452 73.2133029,82.6162877 73.2133029,82.3973365 C73.2133029,81.9166155 73.2449875,80.6946185 73.2449875,77.5521671 L73.2553459,75.3483818 C73.4335717,75.317103 77.8755072,75.306778 78.0741452,75.2961493 L78.0220484,76.2357265 C78.0010269,76.7577476 77.969647,77.0298423 77.969647,77.0298423 L77.9592885,77.0298423 C77.8861703,77.0298423 77.4249158,76.9147487 76.7543602,76.9147487 C76.4719409,76.9147487 76.1569229,76.9357024 75.8217975,76.9879349 L75.8217975,77.5309097 C75.8217975,77.886212 75.8537867,78.0945345 75.9162419,78.0945345 C76.7440018,78.136442 77.1945932,78.1573957 77.9385717,78.1677207 L78.01169,79.7240662 L75.7172993,79.7031125 C75.7172993,79.9433212 75.7383208,80.3605736 75.7383208,80.3605736 L75.8013853,82.6685202 C74.879181,82.6997989 74.0934642,82.7104276 73.6428728,82.7104276" id="Fill-40"></path>
                <path d="M78.4815968,80.1413187 C78.4815968,79.8385525 78.5129767,78.8886503 78.5129767,77.9484658 L78.5129767,77.5309097 L78.4919552,75.5885904 L79.0890878,75.5885904 C79.4141595,75.5885904 79.9799122,75.567333 80.3354498,75.5469866 L80.9855932,75.5154042 L80.9855932,77.6772821 C80.9855932,80.5594822 81.0794283,81.8227792 81.0794283,82.3654504 C81.0794283,82.5847053 81.0690699,82.6894739 81.0270269,82.7417064 L78.3451093,82.6375451 L78.4815968,80.1413187 Z" id="Fill-42"></path>
                <path d="M82.8805448,82.8044157 C82.0844695,82.8044157 81.4142186,82.793787 81.4142186,82.7625083 C81.4142186,82.7315332 81.4032509,80.934979 81.3931971,78.7737085 L81.3822294,75.1080213 L83.9596487,75.1080213 L83.9072473,76.5076694 C83.8862258,77.0087367 83.876172,77.0509479 83.876172,77.2589667 C83.8441828,77.9173389 83.8338244,78.4080812 83.8338244,78.8046836 C83.8338244,79.7761469 83.8962796,80.1411669 83.8962796,80.7476102 C84.8708853,80.7157241 85.4259749,80.6634916 86.4109391,80.6634916 L86.4529821,82.7521832 C86.0965305,82.783462 83.8131075,82.8044157 82.8805448,82.8044157" id="Fill-44"></path>
                <path d="M90.0763584,81.9482586 L89.2172186,77.7812004 C89.0179713,77.7812004 88.9655699,82.1046524 88.9655699,82.1046524 L88.93419,82.6685809 C88.7142258,82.6685809 87.0903907,82.6476272 86.9539032,82.6476272 C86.5873978,82.6476272 86.5039211,82.6263698 86.5039211,82.5747447 C86.5039211,82.564116 86.5039211,82.5434659 86.5142796,82.5325335 C86.8183297,81.5720026 86.8594588,79.2540347 86.8594588,77.499388 C86.8594588,76.8000194 86.849405,76.1944871 86.849405,75.7972774 C86.849405,75.5151613 86.8594588,75.3378138 86.8707312,75.3271851 C86.9225233,75.2749526 88.9865914,75.1291876 89.7409283,75.1291876 C90.0446738,75.1291876 90.2439211,75.1398163 90.2649427,75.171095 C90.4114839,75.29621 90.6210896,78.7213849 90.8620753,78.7213849 L90.872129,78.7213849 C91.1131147,78.7213849 91.4692616,75.4635362 91.4692616,75.3171638 L94.6751935,75.2749526 C94.7486165,75.3484425 95.010319,81.1857252 95.1257849,83.0657907 C94.7693333,83.0864407 94.3921649,83.1067871 94.0256595,83.1067871 L92.7058746,83.1596269 C92.7058746,83.1596269 92.6952115,80.4234955 92.6952115,78.8158285 C92.6952115,78.1471314 92.684853,77.6773428 92.6327563,77.6773428 C92.4959642,77.7083179 91.794638,81.3527477 91.637129,82.2194424 C91.1865376,82.2194424 90.6210896,82.1984886 90.1388136,82.1984886 C90.1388136,82.1984886 90.0970753,82.1152811 90.0763584,81.9482586" id="Fill-46"></path>
                <path d="M97.982638,76.9879956 L97.982638,77.5309704 C97.982638,77.8862727 98.0143226,78.0742489 98.0877455,78.0945952 C98.1188208,78.1055276 98.1712222,78.115549 98.2656667,78.115549 C98.422871,78.115549 98.7372796,78.0945952 99.4078351,78.0426664 L100.203606,77.990434 L100.172226,79.2959422 L97.9512581,79.4520322 L97.9095197,79.744777 C97.8991613,79.849242 97.8881935,79.9849857 97.8881935,80.1204257 C97.8881935,80.2145656 97.8991613,80.2980768 97.8991613,80.3603307 L97.9302366,80.6846579 L99.0513835,80.6324254 C99.7850036,80.6005393 100.203606,80.5695642 100.256007,80.5695642 C100.29805,80.5695642 100.329125,80.9455166 100.329125,81.5929563 L100.329125,82.6263698 L97.7626738,82.6786023 C96.7048961,82.6998597 95.897853,82.7205097 95.5002724,82.7205097 C95.3637849,82.7205097 95.2906667,82.7104884 95.2906667,82.7104884 C95.2796989,82.7104884 95.2796989,82.689231 95.2796989,82.6786023 C95.2796989,82.5012548 95.3851111,81.6870963 95.3951649,77.5519241 L95.3951649,75.3484425 C95.5736953,75.3171638 100.036043,74.9099327 100.234986,74.8990003 L100.182889,75.8394885 C100.161563,76.3615096 100.140541,76.7896944 100.140541,76.7896944 C100.140541,76.8309945 99.2399677,76.7896944 97.982638,76.9879956" id="Fill-49"></path>
            </g>
        </g>
    </g>
</svg>
