<?xml version="1.0" standalone="no"?>
<!DOCTYPE svg PUBLIC "-//W3C//DTD SVG 20010904//EN"
 "http://www.w3.org/TR/2001/REC-SVG-20010904/DTD/svg10.dtd">
<svg version="1.0" xmlns="http://www.w3.org/2000/svg"
 width="140.000000pt" height="140.000000pt" viewBox="0 0 140.000000 140.000000"
 preserveAspectRatio="xMidYMid meet">
<metadata>
Created by potrace 1.11, written by Peter Selinger 2001-2013
</metadata>
<g transform="translate(0.000000,140.000000) scale(0.100000,-0.100000)"
fill="#000000" stroke="none">
<path d="M918 1227 c-20 -8 -59 -30 -87 -50 l-50 -37 -51 32 c-89 55 -187 49
-277 -18 -22 -16 -23 -15 -23 4 0 40 -21 44 -118 23 -139 -30 -172 -41 -172
-54 0 -7 20 -134 44 -282 24 -149 56 -346 71 -440 37 -239 36 -233 48 -238 18
-6 215 27 226 38 6 6 -2 102 -20 260 -40 348 -38 409 12 436 20 10 26 8 45
-14 31 -36 41 -116 54 -407 6 -135 13 -251 16 -258 3 -10 30 -13 111 -11 60 1
114 4 121 6 9 4 12 79 12 329 l0 323 23 27 c28 32 47 28 74 -13 17 -25 18 -53
15 -339 l-2 -312 77 -6 c43 -4 97 -8 120 -10 24 -2 47 1 52 8 5 6 12 61 15
121 3 61 9 157 13 215 5 58 8 186 8 285 0 177 -1 181 -28 237 -46 93 -124 145
-230 154 -39 3 -75 -1 -99 -9z m189 -83 c55 -32 92 -90 104 -162 10 -63 10
-208 0 -317 -5 -57 -8 -34 -13 120 -4 105 -12 207 -18 227 -25 86 -101 138
-202 138 -62 1 -63 1 -33 15 41 20 108 11 162 -21z m-421 -23 c44 -26 84 -67
84 -86 0 -4 -23 12 -51 34 -50 40 -113 65 -140 57 -44 -14 -70 -16 -64 -6 23
38 106 38 171 1z m-318 -3 c7 -7 12 -37 11 -72 -1 -46 -3 -55 -9 -36 -4 14 -8
40 -9 58 -1 31 -3 32 -43 32 l-43 1 30 14 c38 17 48 18 63 3z m67 -508 c27
-178 43 -335 34 -344 -13 -14 -20 33 -44 284 -22 227 -19 246 10 60z m387
-106 c3 -196 -2 -252 -16 -183 -10 52 -7 389 4 389 5 0 10 -83 12 -206z"/>
</g>
</svg>
