<?xml version="1.0" encoding="UTF-8" standalone="no"?>
<svg width="12px" height="12px" viewBox="0 0 12 12" version="1.1" xmlns="http://www.w3.org/2000/svg" xmlns:xlink="http://www.w3.org/1999/xlink">
    <!-- Generator: sketchtool 40 (33762) - http://www.bohemiancoding.com/sketch -->
    <title>FB5FA9D6-C70B-4640-B941-BC0E5748B6D8</title>
    <desc>Created with sketchtool.</desc>
    <defs>
        <polygon id="path-1" points="11.7637895 11.6110194 11.7637895 0.228555556 0.000157894737 0.228555556 0.000157894737 11.6110194 11.7637895 11.6110194"></polygon>
    </defs>
    <g id="Styleguide" stroke="none" stroke-width="1" fill="none" fill-rule="evenodd" opacity="0.38">
        <g id="Desktop-HD" transform="translate(-1118.000000, -370.000000)">
            <g id="instagram" transform="translate(1118.000000, 370.000000)">
                <g id="Page-1">
                    <g id="Group-3" transform="translate(0.000000, 0.077153)">
                        <mask id="mask-2" fill="white">
                            <use xlink:href="#path-1"></use>
                        </mask>
                        <g id="Clip-2"></g>
                        <path d="M11.7639474,5.91974167 C11.7639474,9.06299167 9.13057895,11.6110194 5.88205263,11.6110194 C2.63352632,11.6110194 0.000157894737,9.06299167 0.000157894737,5.91974167 C0.000157894737,2.77649167 2.63352632,0.228463889 5.88205263,0.228463889 C9.13057895,0.228463889 11.7639474,2.77649167 11.7639474,5.91974167" id="Fill-1" fill="#000000" mask="url(#mask-2)"></path>
                    </g>
                    <path d="M3.94995789,3.31561389 C3.48732632,3.31561389 3.11090526,3.67983611 3.11090526,4.127475 L3.11090526,7.86625278 C3.11090526,8.31389167 3.48732632,8.67811389 3.94995789,8.67811389 L7.81395789,8.67811389 C8.27658947,8.67811389 8.65332632,8.31389167 8.65332632,7.86625278 L8.65332632,4.127475 C8.65332632,3.67983611 8.27658947,3.31561389 7.81395789,3.31561389 L3.94995789,3.31561389 Z M7.81395789,9.59478056 L3.94995789,9.59478056 C2.96501053,9.59478056 2.16353684,8.81958611 2.16353684,7.86625278 L2.16353684,4.127475 C2.16353684,3.17444722 2.96501053,2.39894722 3.94995789,2.39894722 L7.81395789,2.39894722 C8.79890526,2.39894722 9.60069474,3.17444722 9.60069474,4.127475 L9.60069474,7.86625278 C9.60069474,8.81958611 8.79890526,9.59478056 7.81395789,9.59478056 L7.81395789,9.59478056 Z" id="Fill-4" fill="#FFFFFF"></path>
                    <path d="M5.88202105,4.95574444 C5.28865263,4.95574444 4.80581053,5.42263333 4.80581053,5.99677222 C4.80581053,6.57091111 5.28865263,7.03810556 5.88202105,7.03810556 C6.47538947,7.03810556 6.95791579,6.57091111 6.95791579,5.99677222 C6.95791579,5.42263333 6.47538947,4.95574444 5.88202105,4.95574444 M5.88202105,7.95477222 C4.76633684,7.95477222 3.85844211,7.0763 3.85844211,5.99677222 C3.85844211,4.91755 4.76633684,4.03907778 5.88202105,4.03907778 C6.99770526,4.03907778 7.90528421,4.91755 7.90528421,5.99677222 C7.90528421,7.0763 6.99770526,7.95477222 5.88202105,7.95477222" id="Fill-6" fill="#FFFFFF"></path>
                    <path d="M7.55472632,4.05735 C7.55472632,3.86057222 7.71956842,3.70107222 7.92293684,3.70107222 C8.12662105,3.70107222 8.29146316,3.86057222 8.29146316,4.05735 C8.29146316,4.25412778 8.12662105,4.41362778 7.92293684,4.41362778 C7.71956842,4.41362778 7.55472632,4.25412778 7.55472632,4.05735" id="Fill-8" fill="#FFFFFF"></path>
                </g>
            </g>
        </g>
    </g>
</svg>