<?xml version="1.0" standalone="no"?>
<!DOCTYPE svg PUBLIC "-//W3C//DTD SVG 20010904//EN"
 "http://www.w3.org/TR/2001/REC-SVG-20010904/DTD/svg10.dtd">
<svg version="1.0" xmlns="http://www.w3.org/2000/svg"
 width="400.000000pt" height="400.000000pt" viewBox="0 0 400.000000 400.000000"
 preserveAspectRatio="xMidYMid meet">
<metadata>
Created by potrace 1.11, written by Peter Selinger 2001-2013
</metadata>
<g transform="translate(0.000000,400.000000) scale(0.100000,-0.100000)"
fill="#000000" stroke="none">
<path d="M2266 3189 c-27 -4 -52 -11 -56 -16 -5 -4 -11 -35 -15 -68 -3 -33 -8
-71 -10 -85 -2 -14 -11 -70 -20 -125 -9 -55 -18 -111 -21 -125 -2 -14 -7 -38
-9 -55 -3 -16 -6 -39 -9 -50 -2 -11 -7 -40 -12 -65 -4 -25 -8 -47 -9 -50 -1
-3 -5 -25 -9 -50 -5 -25 -10 -54 -12 -65 -2 -11 -7 -33 -10 -50 -3 -16 -16
-85 -30 -153 -13 -68 -24 -127 -25 -130 -1 -13 -28 92 -34 133 -3 22 -8 47
-10 55 -5 16 -54 298 -60 340 -2 14 -12 79 -24 145 -11 66 -22 138 -26 160
-18 125 -36 204 -47 211 -5 3 -98 7 -206 9 -108 2 -364 7 -568 11 -279 5 -373
4 -378 -5 -4 -6 -7 -127 -6 -269 1 -141 2 -324 2 -407 1 -171 -11 -765 -17
-870 -2 -38 -6 -122 -10 -185 -5 -120 -12 -214 -20 -290 -3 -25 -8 -71 -11
-103 -3 -32 -7 -66 -9 -75 -1 -9 -6 -40 -10 -68 -6 -46 -4 -52 13 -56 11 -3
123 -4 248 -2 412 6 468 15 500 82 14 31 17 76 20 317 7 655 25 980 59 1060 9
22 14 26 18 15 6 -14 91 -426 102 -493 3 -17 8 -39 10 -47 2 -8 7 -28 9 -45 3
-16 26 -129 50 -250 25 -121 47 -231 49 -245 7 -38 46 -229 58 -283 l11 -48
117 6 c64 4 134 8 156 10 122 10 197 17 212 20 10 2 25 4 34 4 14 1 24 37 53
188 20 104 38 199 41 213 27 138 35 179 40 200 3 14 13 61 21 105 46 239 147
663 166 698 15 29 27 9 37 -63 9 -62 6 -605 -3 -810 -3 -52 -7 -149 -11 -215
-6 -131 -14 -295 -20 -393 -4 -58 -1 -66 25 -64 12 1 390 13 570 18 273 8 255
6 256 35 0 13 -3 40 -7 59 -7 33 -13 81 -24 210 -3 30 -7 78 -10 105 -14 150
-21 261 -30 450 -3 55 -7 141 -10 190 -7 136 -15 313 -20 475 -3 80 -7 204
-10 275 -2 72 -7 202 -10 290 -8 238 -11 266 -26 276 -17 11 -24 11 -544 13
-231 1 -442 -1 -469 -5z"/>
</g>
</svg>
