<?xml version="1.0" encoding="UTF-8" standalone="no"?>
<svg width="39px" height="29px" viewBox="0 0 39 29" version="1.1" xmlns="http://www.w3.org/2000/svg" xmlns:xlink="http://www.w3.org/1999/xlink">
    <!-- Generator: sketchtool 40 (33762) - http://www.bohemiancoding.com/sketch -->
    <title>E586D860-A8ED-435A-BFAD-733A04CB4AA3</title>
    <desc>Created with sketchtool.</desc>
    <defs></defs>
    <g id="Welcome" stroke="none" stroke-width="1" fill="none" fill-rule="evenodd">
        <g id="Remix-tela-2" transform="translate(-22.000000, -446.000000)">
            <g id="Page-1" style="mix-blend-mode: multiply;" transform="translate(23.000000, 446.000000)">
                <polygon id="Fill-1" fill="#FFFFFF" points="0.408088235 27.6632601 36.5277059 27.6632601 36.5277059 3.80978022 0.408088235 3.80978022"></polygon>
                <g id="Group-15" transform="translate(0.000000, 0.421502)">
                    <polygon id="Stroke-2" stroke="#000000" stroke-width="1.5" stroke-linecap="round" stroke-linejoin="round" points="0.408088235 27.2417582 36.5277059 27.2417582 36.5277059 3.38827839 0.408088235 3.38827839"></polygon>
                    <path d="M0.408088235,6.93848938 L36.5277059,6.93848938" id="Stroke-4" stroke="#000000" stroke-width="1.5" stroke-linecap="round" stroke-linejoin="round"></path>
                    <path d="M9.16849118,15.3150183 C9.16849118,9.99135531 13.5002118,5.67495971 18.8439912,5.67495971 C24.1872265,5.67495971 28.5189471,9.99135531 28.5189471,15.3150183 C28.5189471,20.6386813 24.1872265,24.9550769 18.8439912,24.9550769 C13.5002118,24.9550769 9.16849118,20.6386813 9.16849118,15.3150183" id="Fill-5" fill="#FFFFFF"></path>
                    <path d="M9.16849118,15.3150183 C9.16849118,9.99135531 13.5002118,5.67495971 18.8439912,5.67495971 C24.1872265,5.67495971 28.5189471,9.99135531 28.5189471,15.3150183 C28.5189471,20.6386813 24.1872265,24.9550769 18.8439912,24.9550769 C13.5002118,24.9550769 9.16849118,20.6386813 9.16849118,15.3150183 L9.16849118,15.3150183 Z" id="Stroke-6" stroke="#000000" stroke-width="1.5" stroke-linecap="round" stroke-linejoin="round"></path>
                    <path d="M12.8448221,15.3150183 C12.8448221,12.014022 15.5305868,9.33809524 18.8437191,9.33809524 C22.1568515,9.33809524 24.8426162,12.014022 24.8426162,15.3150183 C24.8426162,18.6160147 22.1568515,21.2919414 18.8437191,21.2919414 C15.5305868,21.2919414 12.8448221,18.6160147 12.8448221,15.3150183" id="Fill-7" fill="#FFFFFF"></path>
                    <path d="M12.8448221,15.3150183 C12.8448221,12.014022 15.5305868,9.33809524 18.8437191,9.33809524 C22.1568515,9.33809524 24.8426162,12.014022 24.8426162,15.3150183 C24.8426162,18.6160147 22.1568515,21.2919414 18.8437191,21.2919414 C15.5305868,21.2919414 12.8448221,18.6160147 12.8448221,15.3150183 L12.8448221,15.3150183 Z" id="Stroke-8" stroke="#000000" stroke-width="1.5" stroke-linecap="round" stroke-linejoin="round"></path>
                    <polygon id="Fill-9" fill="#FFFFFF" points="3.24566176 3.38827839 9.16838235 3.38827839 9.16838235 0.527487179 3.24566176 0.527487179"></polygon>
                    <polygon id="Stroke-10" stroke="#000000" stroke-width="1.5" stroke-linecap="round" stroke-linejoin="round" points="3.24566176 3.38827839 9.16838235 3.38827839 9.16838235 0.527487179 3.24566176 0.527487179"></polygon>
                    <path d="M5.44748824,10.6355077 C5.44748824,11.2161231 4.97519412,11.6872293 4.3919,11.6872293 C3.80915,11.6872293 3.33685588,11.2161231 3.33685588,10.6355077 C3.33685588,10.0548923 3.80915,9.58378608 4.3919,9.58378608 C4.97519412,9.58378608 5.44748824,10.0548923 5.44748824,10.6355077" id="Fill-11" fill="#FFFFFF"></path>
                    <path d="M5.44748824,10.6355077 C5.44748824,11.2161231 4.97519412,11.6872293 4.3919,11.6872293 C3.80915,11.6872293 3.33685588,11.2161231 3.33685588,10.6355077 C3.33685588,10.0548923 3.80915,9.58378608 4.3919,9.58378608 C4.97519412,9.58378608 5.44748824,10.0548923 5.44748824,10.6355077 L5.44748824,10.6355077 Z" id="Stroke-12" stroke="#000000" stroke-width="1.5" stroke-linecap="round" stroke-linejoin="round"></path>
                    <path d="M31.8226662,9.33804103 L30.8889603,9.33804103 C29.8850632,9.33804103 29.0634456,8.51943297 29.0634456,7.51921319 L29.0634456,6.62633407 C29.0634456,5.62611429 29.8850632,4.80750623 30.8889603,4.80750623 L31.8226662,4.80750623 C32.8265632,4.80750623 33.6481809,5.62611429 33.6481809,6.62633407 L33.6481809,7.51921319 C33.6481809,8.51943297 32.8265632,9.33804103 31.8226662,9.33804103" id="Fill-13" fill="#FFFFFF"></path>
                    <path d="M31.8226662,9.33804103 L30.8889603,9.33804103 C29.8850632,9.33804103 29.0634456,8.51943297 29.0634456,7.51921319 L29.0634456,6.62633407 C29.0634456,5.62611429 29.8850632,4.80750623 30.8889603,4.80750623 L31.8226662,4.80750623 C32.8265632,4.80750623 33.6481809,5.62611429 33.6481809,6.62633407 L33.6481809,7.51921319 C33.6481809,8.51943297 32.8265632,9.33804103 31.8226662,9.33804103 L31.8226662,9.33804103 Z" id="Stroke-14" stroke="#000000" stroke-width="1.5" stroke-linecap="round" stroke-linejoin="round"></path>
                </g>
            </g>
        </g>
    </g>
</svg>